<svg xmlns="http://www.w3.org/2000/svg" xmlns:xlink="http://www.w3.org/1999/xlink" viewBox="0 0 244.83891 197.7815"><defs><style>.\37 47a9352-e5af-43f0-91d1-34058d242978{isolation:isolate}.\34 8dde901-7dcc-44de-8976-b9ecc4d6cf81{fill:url(#0aa57e1e-69d3-41c7-9178-be1e853e7490)}.\31 056d264-e92c-43fe-ad94-66ad7ba97eb1{fill:url(#d9e46752-cebe-4ef0-b019-128c2d13df4d)}.f9fb8c88-8890-4f3a-baf5-51f3be9ca523{fill:#f0e3d1}.bac3424f-be8d-4aeb-a30a-1e53698ebefd{fill:#a59a8c}.\30 0962835-f05d-441a-a048-ed0c92a77bce{fill:#dbcebf}.e5dcc728-77b8-430e-9e73-28505a41e022{fill:#494949}.\34 e52f009-6c77-4d7b-a0f1-bbaebeaaf646,.\38 4c63f55-d2df-4531-a057-7a60aa015e89,.e43ba447-0e10-430d-8d5f-af0bfec37b56{fill:none;stroke-miterlimit:10}.\34 e52f009-6c77-4d7b-a0f1-bbaebeaaf646,.e43ba447-0e10-430d-8d5f-af0bfec37b56{stroke:#d39b5e}.\34 e52f009-6c77-4d7b-a0f1-bbaebeaaf646,.\38 4c63f55-d2df-4531-a057-7a60aa015e89{stroke-linecap:round}.\38 4c63f55-d2df-4531-a057-7a60aa015e89{stroke:#ea4e4e}.\37 d3ab0eb-06a1-4550-9a54-67e1e67de154{fill:#d39b5e}.\37 8cca65b-7b8c-42ee-8ac8-f0206dff756f{fill:#ea4e4e}.\31 b5426cc-9f5c-43fa-9cfc-32f2e47489cb{fill:#f8cbac}.bab9b9d9-2949-4fe5-9423-7134514c7c81{mix-blend-mode:overlay;fill:url(#deb03aa6-198e-4a9a-9cb4-9876ffa41a57)}</style><linearGradient id="0aa57e1e-69d3-41c7-9178-be1e853e7490" x1="107.159" y1="150.275" x2="122.486" y2="150.275" gradientTransform="scale(-1 1) rotate(-2.413 -36.696 4018.705)" gradientUnits="userSpaceOnUse"><stop offset="0" stop-color="#aadcf7"/><stop offset="1" stop-color="#fff"/></linearGradient><linearGradient id="d9e46752-cebe-4ef0-b019-128c2d13df4d" x1="122.612" y1="128.961" x2="163.522" y2="128.961" xlink:href="#0aa57e1e-69d3-41c7-9178-be1e853e7490"/><linearGradient id="deb03aa6-198e-4a9a-9cb4-9876ffa41a57" x1="29.765" y1="127.483" x2="130.765" y2="26.483" gradientTransform="scale(-1 1) rotate(-2.413 .01 5761.402)" gradientUnits="userSpaceOnUse"><stop offset=".305" stop-color="#fff" stop-opacity="0"/><stop offset=".465" stop-color="#f5e8d9" stop-opacity=".234"/><stop offset="1" stop-color="#d39b5e"/></linearGradient></defs><title>Artboard 1</title><g class="747a9352-e5af-43f0-91d1-34058d242978"><g id="c3df5355-5d64-428a-b264-b505edf74024" data-name="Layer 1"><path class="48dde901-7dcc-44de-8976-b9ecc4d6cf81" d="M47.93 155.478l7.74-4.037-7.256-12.27-8.053 11.506z"/><path class="1056d264-e92c-43fe-ad94-66ad7ba97eb1" d="M20.206 146.604l20.654-10.776-19.366-32.749L0 133.787z"/><path class="f9fb8c88-8890-4f3a-baf5-51f3be9ca523" d="M48.957 128.709l3.088-73.281L168.027 5.937l-3.088 73.281-106.187 55.428z"/><path class="bac3424f-be8d-4aeb-a30a-1e53698ebefd" d="M52.045 55.428L158.23 0l9.796 5.937L61.84 61.365z"/><path class="00962835-f05d-441a-a048-ed0c92a77bce" d="M61.84 61.365l-9.795-5.937-3.088 73.281 9.795 5.937 3.088-73.281z"/><path class="e5dcc728-77b8-430e-9e73-28505a41e022" d="M65.104 124.247l95.084-49.682 2.464-58.457-95.084 49.681-2.464 58.458z"/><path class="4e52f009-6c77-4d7b-a0f1-bbaebeaaf646" d="M156.732 25.753l-8.533 4.458"/><path class="84c63f55-d2df-4531-a057-7a60aa015e89" d="M156.584 29.272l-12.138 6.343"/><path class="4e52f009-6c77-4d7b-a0f1-bbaebeaaf646" d="M156.436 32.792l-4.928 2.575"/><path class="e43ba447-0e10-430d-8d5f-af0bfec37b56" d="M152.156 42.925l-5.943 3.105c-1.42.742-2.523.22-2.465-1.166l.027-.626c.058-1.386-1.046-1.908-2.466-1.166l-2.781 1.453c-1.42.742-2.524.22-2.466-1.166.059-1.387-1.045-1.909-2.465-1.167l-2.655 1.387m10.12 21.146l6.069-3.172.25-5.925-6.069 3.171-.25 5.926zm-15.431 3.16l3.374-1.763.138-3.293-3.373 1.763-.139 3.293z"/><path class="84c63f55-d2df-4531-a057-7a60aa015e89" d="M133.281 61.222l3.016-1.576.124-2.944-3.015 1.576-.125 2.944zm12.412 10.86l-.092 2.201"/><path class="4e52f009-6c77-4d7b-a0f1-bbaebeaaf646" d="M141.813 71.831l-.191 4.531"/><path class="84c63f55-d2df-4531-a057-7a60aa015e89" d="M137.736 76.24l-.093 2.201m-3.505-9.154l-.474 11.233"/><path class="4e52f009-6c77-4d7b-a0f1-bbaebeaaf646" d="M129.969 75.882l-.283 6.717"/><path class="84c63f55-d2df-4531-a057-7a60aa015e89" d="M125.809 82.266l-.102 2.412M87.068 94.746l-10.116 5.286"/><path class="4e52f009-6c77-4d7b-a0f1-bbaebeaaf646" d="M92.97 91.662l-3.372 1.762"/><path class="84c63f55-d2df-4531-a057-7a60aa015e89" d="M110.47 73.751l-7.16 10.583-9.169-14.873-8.733 15.775-5.908-3.277"/><ellipse class="7d3ab0eb-06a1-4550-9a54-67e1e67de154" cx="110.47" cy="73.751" rx="1.643" ry=".929" transform="rotate(-50.638 110.47 73.751)"/><ellipse class="7d3ab0eb-06a1-4550-9a54-67e1e67de154" cx="103.31" cy="84.334" rx="1.643" ry=".929" transform="rotate(-50.638 103.31 84.334)"/><ellipse class="7d3ab0eb-06a1-4550-9a54-67e1e67de154" cx="94.141" cy="69.461" rx="1.643" ry=".929" transform="rotate(-50.638 94.14 69.46)"/><ellipse class="7d3ab0eb-06a1-4550-9a54-67e1e67de154" cx="85.408" cy="85.236" rx="1.643" ry=".929" transform="rotate(-50.638 85.408 85.236)"/><ellipse class="7d3ab0eb-06a1-4550-9a54-67e1e67de154" cx="79.5" cy="81.959" rx="1.643" ry=".929" transform="rotate(-50.638 79.5 81.959)"/><path class="4e52f009-6c77-4d7b-a0f1-bbaebeaaf646" d="M72.715 106.001l43.136-22.538 1.335-31.678L74.05 74.323l-1.335 31.678z"/><path class="78cca65b-7b8c-42ee-8ac8-f0206dff756f" d="M170.627 146.204l-2.577-2.093a.619.619 0 0 1 .659-1.037l2.99 1.442a1.007 1.007 0 1 1-.875 1.814 1.062 1.062 0 0 1-.197-.126zm3.851-.554l-2.324-1.932a.62.62 0 0 1 .659-1.037l2.737 1.28a1.008 1.008 0 0 1-.855 1.827 1.045 1.045 0 0 1-.217-.138z"/><path class="f9fb8c88-8890-4f3a-baf5-51f3be9ca523" d="M167.504 123.273l.22-5.927a7.612 7.612 0 0 1 .057-.833 4.31 4.31 0 0 1 .22-.87 4.471 4.471 0 0 1 .951-1.534l2.014-2.18a1.001 1.001 0 1 1 1.47 1.358 1.084 1.084 0 0 1-.067.066l-2.21 1.982a2.825 2.825 0 0 0-.98 2.096l-.449 5.912a.614.614 0 0 1-1.226-.07z"/><path class="f9fb8c88-8890-4f3a-baf5-51f3be9ca523" d="M171.823 111.567h4.03a1.742 1.742 0 0 1 1.742 1.742v12.22a1.288 1.288 0 0 1-1.288 1.288h-4.36a1.288 1.288 0 0 1-1.289-1.288v-12.797a1.165 1.165 0 0 1 1.165-1.165z" transform="rotate(2.413 174.127 119.192)"/><path class="e5dcc728-77b8-430e-9e73-28505a41e022" d="M177.346 127.083l-7.089-.261.212-3.203 6.931.292-.054 3.172z"/><path class="f9fb8c88-8890-4f3a-baf5-51f3be9ca523" d="M179.078 122.918l-.343-6.172.163.457-3.001-3.679.686.356-3.068-.045a1 1 0 0 1 .029-2l.055.002 3.061.214.05.003a.867.867 0 0 1 .637.352l2.793 3.838.026.035a.716.716 0 0 1 .137.423l.003 6.182a.614.614 0 0 1-1.228.034z"/><path class="e5dcc728-77b8-430e-9e73-28505a41e022" d="M173.25 126.479l-.866 17.406a.914.914 0 0 1-1.827-.03l-.281-17.426a1.488 1.488 0 1 1 2.976-.048l-.001.098zm4.114.211l-1.283 16.833a.914.914 0 0 1-1.827-.077l.138-16.882a1.489 1.489 0 1 1 2.976.025 1.1 1.1 0 0 1-.004.1z"/><circle class="1b5426cc-9f5c-43fa-9cfc-32f2e47489cb" cx="168.079" cy="124.216" r="1.168"/><circle class="1b5426cc-9f5c-43fa-9cfc-32f2e47489cb" cx="179.894" cy="123.949" r="1.038"/><path class="1b5426cc-9f5c-43fa-9cfc-32f2e47489cb" transform="rotate(2.413 174.248 110.526)" d="M173.21 109.242h2.077v2.569h-2.077z"/><path class="e5dcc728-77b8-430e-9e73-28505a41e022" d="M172.671 104.978h1.996a1.379 1.379 0 0 1 1.379 1.379v2.042a1.548 1.548 0 0 1-1.548 1.548h-.279a1.548 1.548 0 0 1-1.548-1.548v-3.421z" transform="rotate(2.413 174.359 107.462)"/><path class="e5dcc728-77b8-430e-9e73-28505a41e022" d="M131.855 171.19l-2.576-2.092a.618.618 0 0 1 .658-1.038l2.99 1.442a1.007 1.007 0 1 1-.874 1.814 1.046 1.046 0 0 1-.198-.126zm3.851-.554l-2.323-1.932a.62.62 0 0 1 .658-1.037l2.737 1.28a1.008 1.008 0 1 1-.854 1.827 1.056 1.056 0 0 1-.218-.138z"/><path class="bac3424f-be8d-4aeb-a30a-1e53698ebefd" d="M133.052 136.553h4.03a1.742 1.742 0 0 1 1.742 1.742v12.22a1.288 1.288 0 0 1-1.288 1.288h-4.361a1.288 1.288 0 0 1-1.288-1.288v-12.797a1.165 1.165 0 0 1 1.165-1.165z" transform="rotate(2.413 135.356 144.178)"/><path class="78cca65b-7b8c-42ee-8ac8-f0206dff756f" d="M138.575 152.069l-7.089-.261.211-3.203 6.931.292-.053 3.172z"/><path class="bac3424f-be8d-4aeb-a30a-1e53698ebefd" d="M140.306 147.904l-.342-6.172.162.457-3-3.679.686.356-3.068-.045a1 1 0 1 1 .029-2l.055.002 3.06.214.05.003a.868.868 0 0 1 .637.353l2.794 3.837.026.035a.716.716 0 0 1 .137.423l.003 6.182a.615.615 0 0 1-1.229.034z"/><path class="78cca65b-7b8c-42ee-8ac8-f0206dff756f" d="M134.48 151.465l-.867 17.406a.914.914 0 0 1-1.827-.03l-.282-17.426a1.489 1.489 0 1 1 2.977-.048c0 .031 0 .067-.002.098zm4.113.211l-1.284 16.833a.914.914 0 0 1-1.826-.077l.137-16.882a1.489 1.489 0 1 1 2.977.025c0 .032-.002.069-.004.1z"/><circle class="1b5426cc-9f5c-43fa-9cfc-32f2e47489cb" cx="141.123" cy="148.935" r="1.038"/><path class="1b5426cc-9f5c-43fa-9cfc-32f2e47489cb" transform="rotate(2.413 135.477 135.513)" d="M134.439 134.228h2.077v2.569h-2.077z"/><path class="7d3ab0eb-06a1-4550-9a54-67e1e67de154" d="M133.9 129.964h1.996a1.379 1.379 0 0 1 1.379 1.379v2.042a1.548 1.548 0 0 1-1.548 1.548h-.279a1.548 1.548 0 0 1-1.548-1.548v-3.421z" transform="rotate(2.413 135.587 132.448)"/><path class="bac3424f-be8d-4aeb-a30a-1e53698ebefd" d="M133.316 138.778l-6.704 2.412-.042.015a.78.78 0 0 1-.97-.407l-2.807-6.115a.615.615 0 0 1 1.102-.544l3.144 5.95-1.011-.392 6.558-2.78a1 1 0 0 1 .781 1.841 1.265 1.265 0 0 1-.051.02z"/><circle class="1b5426cc-9f5c-43fa-9cfc-32f2e47489cb" cx="123.344" cy="134.411" r="1.168"/><path class="7d3ab0eb-06a1-4550-9a54-67e1e67de154" d="M149.557 154.936l2.792 1.408a.804.804 0 0 1-.724 1.435.855.855 0 0 1-.134-.085l-2.461-1.928a.494.494 0 0 1 .527-.83zm3.571-.422l2.553 1.256a.805.805 0 0 1-.71 1.444.85.85 0 0 1-.147-.093l-2.223-1.777a.494.494 0 0 1 .527-.83z"/><path class="1b5426cc-9f5c-43fa-9cfc-32f2e47489cb" d="M146.367 132.672l3.146.52-.621.373.803-1.672a.492.492 0 0 1 .91.37l-.594 1.758a.554.554 0 0 1-.547.376l-.075-.003-3.185-.13a.801.801 0 1 1 .065-1.602.886.886 0 0 1 .098.01z"/><path class="78cca65b-7b8c-42ee-8ac8-f0206dff756f" d="M153.135 126.49h3.345a1.288 1.288 0 0 1 1.288 1.287v11.816a1.288 1.288 0 0 1-1.288 1.288h-3.971a1.288 1.288 0 0 1-1.288-1.288v-11.19a1.914 1.914 0 0 1 1.914-1.914z" transform="rotate(2.413 154.494 133.685)"/><path class="bac3424f-be8d-4aeb-a30a-1e53698ebefd" d="M157.532 141.132l-6.689-.246.199-3.023 6.541.275-.051 2.994z"/><path class="1b5426cc-9f5c-43fa-9cfc-32f2e47489cb" d="M164.179 133.826l-3.845 1.685-.066.028a.615.615 0 0 1-.81-.316l-.015-.039-.747-2.077a.493.493 0 0 1 .896-.404l1.061 1.936-.891-.326 3.727-1.931a.8.8 0 0 1 .736 1.421.997.997 0 0 1-.046.023z"/><circle class="1b5426cc-9f5c-43fa-9cfc-32f2e47489cb" cx="145.641" cy="133.201" r="1.102"/><circle class="1b5426cc-9f5c-43fa-9cfc-32f2e47489cb" cx="164.481" cy="132.682" r=".98"/><path class="bac3424f-be8d-4aeb-a30a-1e53698ebefd" d="M150.86 140.514a1.405 1.405 0 1 1 2.809-.045c0 .03 0 .063-.002.093l-.429 8.622-2.24-.094zm3.884.129a1.405 1.405 0 1 1 2.81.022c0 .03-.002.066-.005.096l-.654 8.577-2.22-.093z"/><path class="bac3424f-be8d-4aeb-a30a-1e53698ebefd" d="M151.99 156.755a.865.865 0 0 1-.82-.848l-.172-6.817 2.24.094-.344 6.752a.863.863 0 0 1-.905.819zm3.466-.366a.866.866 0 0 1-.797-.868l.015-6.276 2.221.093-.513 6.256a.863.863 0 0 1-.926.795z"/><path class="78cca65b-7b8c-42ee-8ac8-f0206dff756f" d="M149.224 131.7l2.399-4.866a.616.616 0 0 1 1.137.463l-1.684 5.158a1.003 1.003 0 1 1-1.906-.622 1.079 1.079 0 0 1 .054-.132zm9.103 1.631l-2.82-4.156a1.51 1.51 0 1 1 2.498-1.696 1.591 1.591 0 0 1 .16.308l1.796 4.692a.928.928 0 0 1-1.634.852z"/><path class="e5dcc728-77b8-430e-9e73-28505a41e022" d="M152.51 120.266h2.146a2.14 2.14 0 0 1 2.14 2.14v3.435a1.967 1.967 0 0 1-1.966 1.967h-.354a1.967 1.967 0 0 1-1.967-1.967v-5.575z" transform="rotate(-177.587 154.653 124.037)"/><path class="7d3ab0eb-06a1-4550-9a54-67e1e67de154" d="M186.071 55.998h3.757a.568.568 0 0 1 .568.568v7.038h-2.341a1.984 1.984 0 0 1-1.984-1.983v-5.623z" transform="rotate(-177.587 188.233 59.801)"/><path class="7d3ab0eb-06a1-4550-9a54-67e1e67de154" d="M182.435 94.857l2.639-1.727a.804.804 0 1 1 .88 1.346.85.85 0 0 1-.14.072l-2.924 1.18a.494.494 0 0 1-.455-.87zm3.662-.23l2.386-1.594a.805.805 0 0 1 .894 1.338.853.853 0 0 1-.153.08l-2.672 1.048a.494.494 0 0 1-.455-.872z"/><path class="e5dcc728-77b8-430e-9e73-28505a41e022" d="M181.403 64.716l3.642-2.248a.71.71 0 0 1 .862 1.12l-3.1 2.95a1.156 1.156 0 0 1-1.594-1.675 1.233 1.233 0 0 1 .19-.147z"/><path class="1b5426cc-9f5c-43fa-9cfc-32f2e47489cb" d="M179.154 62.45l1.35 4.91-1.092-.307 2.023-1.578a.553.553 0 0 1 .723.837l-1.857 1.77a.657.657 0 0 1-1.069-.244l-.023-.062-1.768-4.775a.9.9 0 1 1 1.69-.626.94.94 0 0 1 .023.074z"/><path class="e5dcc728-77b8-430e-9e73-28505a41e022" d="M185.878 62.275h3.59a1.907 1.907 0 0 1 1.907 1.907v11.671a.937.937 0 0 1-.937.937h-4.73a.937.937 0 0 1-.936-.937V63.381a1.107 1.107 0 0 1 1.106-1.106z" transform="rotate(2.413 188.073 69.532)"/><path class="78cca65b-7b8c-42ee-8ac8-f0206dff756f" d="M191.137 77.043l-6.747-.248.201-3.05 6.597.278-.051 3.02z"/><path class="e5dcc728-77b8-430e-9e73-28505a41e022" d="M191.86 67.186l-1.917-3.61a.617.617 0 0 1 1.026-.676l2.56 3.186a1.004 1.004 0 0 1-1.565 1.258 1.053 1.053 0 0 1-.105-.158z"/><path class="1b5426cc-9f5c-43fa-9cfc-32f2e47489cb" d="M193.072 72.914l.591-2.736.046.372-1.319-3.47a.492.492 0 0 1 .902-.39l1.635 3.331a.555.555 0 0 1 .053.311l-.007.063-.323 2.78a.8.8 0 1 1-1.591-.184.798.798 0 0 1 .013-.077z"/><circle class="1b5426cc-9f5c-43fa-9cfc-32f2e47489cb" cx="177.868" cy="61.962" r="1.112"/><circle class="1b5426cc-9f5c-43fa-9cfc-32f2e47489cb" cx="193.998" cy="74.231" r=".988"/><path class="1b5426cc-9f5c-43fa-9cfc-32f2e47489cb" d="M187.177 60.061h1.977v2.628a.907.907 0 0 1-.907.907h-.163a.907.907 0 0 1-.907-.907v-2.628z" transform="rotate(2.413 188.166 61.828)"/><rect class="1b5426cc-9f5c-43fa-9cfc-32f2e47489cb" x="186.858" y="57.276" width="2.801" height="3.828" rx="1.285" ry="1.285" transform="rotate(-177.587 188.26 59.19)"/><path class="78cca65b-7b8c-42ee-8ac8-f0206dff756f" d="M184.407 76.42a1.417 1.417 0 1 1 2.834-.046c0 .03 0 .064-.002.094l-.433 8.696-2.259-.095zm3.918.13a1.417 1.417 0 1 1 2.834.022c0 .031-.002.066-.004.097l-.66 8.65-2.24-.094z"/><path class="78cca65b-7b8c-42ee-8ac8-f0206dff756f" d="M185.502 93.861a.873.873 0 0 1-.827-.855l-.128-7.937 2.26.095-.392 7.872a.87.87 0 0 1-.913.825zm3.497-.369a.873.873 0 0 1-.804-.875l.06-7.392 2.24.094-.562 7.371a.87.87 0 0 1-.934.802z"/><path class="bab9b9d9-2949-4fe5-9423-7134514c7c81" d="M65.104 124.247l69.933 73.535L244.839 24.014l-82.187-7.906-95.084 49.681-2.464 58.458z"/></g></g></svg>