<svg id="fde288df-1096-4572-9f64-4c40c7bb8c9d" data-name="Layer 1" xmlns="http://www.w3.org/2000/svg" xmlns:xlink="http://www.w3.org/1999/xlink" viewBox="0 0 159.72344 160.04477"><defs><style>.\35 f37a41e-4197-432b-80d4-b0152ed9630d{fill:url(#b437317b-02b8-4384-b654-d13c1d2224eb)}.\33 a8825c6-b29e-4367-a2f9-026eead5e5eb{fill:#f0e3d1}.\39 cb6eccd-ffd9-4688-a207-5af2a5d2c2a5{fill:#a59a8c}.\33 2b1e580-a5fd-43f5-acf0-2654e6096500{fill:url(#85ee1447-edec-4117-98d8-898861fa39d6)}.\36 206432a-0e68-4745-bbd1-5bc021b720aa{fill:url(#d45a8f14-e4de-436d-b329-1aec5f9cceca)}.\35 c8ff955-106f-434a-8579-3f03c28ef672{fill:url(#4df0dba2-803a-4f90-b395-febd9f43036a)}.be631adb-f724-411d-b68c-dcdea8a57dbe,.c0e83e57-82b9-4043-b3bf-e6f176293c5a{fill:none;stroke:#fff;stroke-linecap:round;stroke-miterlimit:10;stroke-width:2px}.c0e83e57-82b9-4043-b3bf-e6f176293c5a{stroke-dasharray:8.19274 8.19274}.ee193370-0b92-4ad6-ab40-c008d3414c4f{fill:url(#00588353-dd9b-459b-97d1-dda1981ce7df)}.\31 8266b6e-7774-47ea-a576-6c4defb4c7c1{fill:url(#ce352f2b-55a3-4015-832d-a48394d66955)}.\31 40a3a85-99bb-493d-ac6b-f0e88b6eaa6e{fill:url(#230bc83f-2bb2-4a1a-b8f5-ad08ba39e590)}.\37 6849857-1446-4dd4-886e-4614df3824f7{fill:url(#2e5eddf6-c0be-4792-a709-46d37b016844)}.\36 16e880a-1009-47c6-a53d-793085540406{fill:url(#ba627f4e-75be-48cb-913e-d2766773c6e4)}.\35 e363a6a-e0c3-4ccf-8ffa-aef0719bba44{fill:url(#4e3772a2-478d-4d3d-9bd1-00d26edc2160)}.a1c22cb0-8e95-400f-aa92-83cc8b9323ed{opacity:.3}.\39 674118a-a1e4-4a80-8008-be16bd3e4ee4{fill:#494949}.f21bc4b2-ebe5-40fc-9c5c-af5d30727974{fill:url(#35f136e7-f675-43c5-a0b4-47f5b3c00474)}.\38 cf2f895-4ff8-4881-b1e4-e3d06197df23{fill:url(#d00b9e6b-5f6e-4854-8050-20b471caf8b3)}.\34 b08dfce-487b-413b-b9d1-30fe9daf96f8{fill:url(#e1f70431-203c-4e21-a3f6-41b1d8dfa1e3)}.eedb002e-6a16-42f8-ad84-8c03aabb4436{fill:url(#ff52e90d-f352-463d-a14c-8b3ad1af694f)}.\37 6c5975a-60d6-4050-9b21-6e1975a68874,.\37 c8cd4fa-9098-4832-b88d-d6a842025cb4,.ac2ef493-efde-46f3-bfc9-4feb01d113ac,.d6f867b3-5a18-44a9-87d3-ae51fe8f3763,.e80dd722-b776-47ea-a168-326603f083a4,.f8ee3fde-82da-4b96-8ea8-09fb990cc214{opacity:.5}.\37 c8cd4fa-9098-4832-b88d-d6a842025cb4{fill:url(#dd92e0b3-15a8-46f9-8173-22686ee10f4d)}.\37 6c5975a-60d6-4050-9b21-6e1975a68874{fill:url(#cdcb2a69-5619-4ef3-8c6a-40883a0a2e71)}.d6f867b3-5a18-44a9-87d3-ae51fe8f3763{fill:url(#01617152-98ba-4efc-9447-03a7f122f5b1)}.f8ee3fde-82da-4b96-8ea8-09fb990cc214{fill:url(#eb883bb8-0a47-4ba1-872f-4cc86a20b3a2)}.db50f395-2ca0-4ff3-b7f2-78eef35d00e1{fill:#fff}.\39 9ec4718-dff5-47b6-9209-23f69689f379{fill:url(#183f6f65-ef92-4471-bc0e-23ad4f014899)}.\32 2b9e894-2460-4192-ade6-d218db23a154{fill:url(#be102efd-40e7-4600-bc5c-439d56aab56a)}.d46f7a4e-0907-4913-a35a-c61a44cb54dc{fill:#ea4e4e}.\32 72d3f0a-8336-4084-98e8-e2a9eafacc6d{fill:#dbcebf}.c91d123c-6658-4b82-b20d-e2ecbaa7ba1b{fill:url(#ffacca46-9d32-4a88-aeec-da1530da33f3)}.\31 1ab943f-e855-4ab6-9e72-e7f0a75bdb22,.ac2ef493-efde-46f3-bfc9-4feb01d113ac{fill:#d39b5e}.c271fc19-1715-4dbb-a702-968b7cf998ef{fill:#f8cbac}</style><linearGradient id="b437317b-02b8-4384-b654-d13c1d2224eb" x1="-61.267" y1="49.396" x2="-13.693" y2="49.396" gradientTransform="translate(73.4)" gradientUnits="userSpaceOnUse"><stop offset="0" stop-color="#aadcf7"/><stop offset="1" stop-color="#fff"/></linearGradient><linearGradient id="85ee1447-edec-4117-98d8-898861fa39d6" x1="-1023.111" y1="94.068" x2="-953.271" y2="94.068" gradientTransform="translate(1061.722)" gradientUnits="userSpaceOnUse"><stop offset="0" stop-color="#494949"/><stop offset=".308" stop-color="#696661"/><stop offset=".766" stop-color="#948b80"/><stop offset="1" stop-color="#a59a8c"/></linearGradient><linearGradient id="d45a8f14-e4de-436d-b329-1aec5f9cceca" x1="-1006.922" y1="95.175" x2="-951.298" y2="95.175" gradientTransform="translate(1061.722)" gradientUnits="userSpaceOnUse"><stop offset="0" stop-color="#a59a8c"/><stop offset=".633" stop-color="#cabeaf"/><stop offset="1" stop-color="#dbcebf"/></linearGradient><linearGradient id="4df0dba2-803a-4f90-b395-febd9f43036a" x1="-1024.928" y1="84.768" x2="-969.305" y2="84.768" xlink:href="#d45a8f14-e4de-436d-b329-1aec5f9cceca"/><linearGradient id="00588353-dd9b-459b-97d1-dda1981ce7df" x1="67.513" y1="114.804" x2="102.945" y2="114.804" xlink:href="#d45a8f14-e4de-436d-b329-1aec5f9cceca"/><linearGradient id="ce352f2b-55a3-4015-832d-a48394d66955" x1="89.822" y1="104.576" x2="102.945" y2="104.576" xlink:href="#85ee1447-edec-4117-98d8-898861fa39d6"/><linearGradient id="230bc83f-2bb2-4a1a-b8f5-ad08ba39e590" x1="81.841" y1="105.434" x2="112.356" y2="141.8" gradientUnits="userSpaceOnUse"><stop offset="0" stop-color="#aadcf7"/><stop offset=".197" stop-color="#b4e0f8"/><stop offset=".532" stop-color="#cfebfa"/><stop offset=".963" stop-color="#fbfdff"/><stop offset="1" stop-color="#fff"/></linearGradient><linearGradient id="2e5eddf6-c0be-4792-a709-46d37b016844" x1="-12.918" y1="47.246" x2="1.144" y2="47.246" xlink:href="#b437317b-02b8-4384-b654-d13c1d2224eb"/><linearGradient id="ba627f4e-75be-48cb-913e-d2766773c6e4" x1="53.886" y1="108.875" x2="67.947" y2="108.875" xlink:href="#b437317b-02b8-4384-b654-d13c1d2224eb"/><linearGradient id="4e3772a2-478d-4d3d-9bd1-00d26edc2160" x1="-23.615" y1="95.927" x2="48.224" y2="95.927" gradientTransform="matrix(-1 0 0 1 48.224 0)" xlink:href="#d45a8f14-e4de-436d-b329-1aec5f9cceca"/><linearGradient id="35f136e7-f675-43c5-a0b4-47f5b3c00474" x1="16.106" y1="142.104" x2="32.974" y2="112.887" gradientTransform="matrix(-1 0 0 1 48.224 0)" xlink:href="#85ee1447-edec-4117-98d8-898861fa39d6"/><linearGradient id="d00b9e6b-5f6e-4854-8050-20b471caf8b3" x1="-.494" y1="151.639" x2="16.374" y2="122.422" gradientTransform="matrix(-1 0 0 1 48.224 0)" xlink:href="#85ee1447-edec-4117-98d8-898861fa39d6"/><linearGradient id="e1f70431-203c-4e21-a3f6-41b1d8dfa1e3" x1="30.54" y1="133.776" x2="47.408" y2="104.559" gradientTransform="matrix(-1 0 0 1 48.224 0)" xlink:href="#85ee1447-edec-4117-98d8-898861fa39d6"/><linearGradient id="ff52e90d-f352-463d-a14c-8b3ad1af694f" x1="71.84" y1="132.495" x2="51.509" y2="132.495" xlink:href="#d45a8f14-e4de-436d-b329-1aec5f9cceca"/><linearGradient id="dd92e0b3-15a8-46f9-8173-22686ee10f4d" x1="11.622" y1="81.316" x2="22.443" y2="81.316" xlink:href="#85ee1447-edec-4117-98d8-898861fa39d6"/><linearGradient id="cdcb2a69-5619-4ef3-8c6a-40883a0a2e71" x1="23.938" y1="88.671" x2="33.096" y2="88.671" xlink:href="#85ee1447-edec-4117-98d8-898861fa39d6"/><linearGradient id="01617152-98ba-4efc-9447-03a7f122f5b1" x1="31.039" y1="93.715" x2="43.468" y2="93.715" xlink:href="#85ee1447-edec-4117-98d8-898861fa39d6"/><linearGradient id="eb883bb8-0a47-4ba1-872f-4cc86a20b3a2" x1="42.516" y1="100.305" x2="54.819" y2="100.305" xlink:href="#85ee1447-edec-4117-98d8-898861fa39d6"/><linearGradient id="183f6f65-ef92-4471-bc0e-23ad4f014899" x1="78.934" y1="133.056" x2="86.958" y2="133.056" gradientUnits="userSpaceOnUse"><stop offset="0" stop-color="#8bcdea"/><stop offset=".188" stop-color="#93d1ed" stop-opacity=".751"/><stop offset=".397" stop-color="#9bd5f1" stop-opacity=".504"/><stop offset=".591" stop-color="#a2d8f3" stop-opacity=".308"/><stop offset=".762" stop-color="#a6daf5" stop-opacity=".167"/><stop offset=".904" stop-color="#a9dcf7" stop-opacity=".081"/><stop offset="1" stop-color="#aadcf7" stop-opacity=".05"/></linearGradient><linearGradient id="be102efd-40e7-4600-bc5c-439d56aab56a" x1="-723.662" y1="124.519" x2="-694.035" y2="124.519" gradientTransform="translate(802.595)" gradientUnits="userSpaceOnUse"><stop offset="0" stop-color="#aadcf7" stop-opacity=".05"/><stop offset=".096" stop-color="#a9dcf7" stop-opacity=".081"/><stop offset=".238" stop-color="#a6daf5" stop-opacity=".167"/><stop offset=".409" stop-color="#a2d8f3" stop-opacity=".308"/><stop offset=".603" stop-color="#9bd5f1" stop-opacity=".504"/><stop offset=".812" stop-color="#93d1ed" stop-opacity=".751"/><stop offset="1" stop-color="#8bcdea"/></linearGradient><linearGradient id="ffacca46-9d32-4a88-aeec-da1530da33f3" x1="179.54" y1="110.624" x2="193.195" y2="110.624" gradientTransform="matrix(-1 0 0 1 277.958 0)" gradientUnits="userSpaceOnUse"><stop offset="0" stop-color="#ea4e4e"/><stop offset=".338" stop-color="#f15f5a"/><stop offset=".639" stop-color="#f97167"/></linearGradient></defs><title>Artboard 1</title><path class="5f37a41e-4197-432b-80d4-b0152ed9630d" d="M35.603 74.712L12.133 61.18l24.104-37.1 23.47 36.73z"/><path class="3a8825c6-b29e-4367-a2f9-026eead5e5eb" d="M38.612 124.915v-21.198L108.45 84.42v21.198l-51.756 29.877z"/><path class="9cb6eccd-ffd9-4688-a207-5af2a5d2c2a5" d="M38.612 124.915v-21.198l18.083 9.691v22.086z"/><path class="32b1e580-a5fd-43f5-acf0-2654e6096500" d="M38.612 103.717L90.368 73.84l18.083 10.58-51.756 29.876z"/><path class="3a8825c6-b29e-4367-a2f9-026eead5e5eb" d="M54.8 114.409v-4.662l55.624-29.144v4.662l-53.123 30.578z"/><path class="6206432a-0e68-4745-bbd1-5bc021b720aa" d="M54.8 109.747l53.124-30.578 2.5 1.434-53.123 30.579z"/><path class="3a8825c6-b29e-4367-a2f9-026eead5e5eb" d="M36.794 104.001V99.34l55.624-29.144v4.661l-53.124 30.579z"/><path class="5c8ff955-106f-434a-8579-3f03c28ef672" d="M36.794 99.34l53.124-30.58 2.5 1.435-53.124 30.578z"/><path class="be631adb-f724-411d-b68c-dcdea8a57dbe" d="M50.143 105.287l4.33-2.5"/><path class="c0e83e57-82b9-4043-b3bf-e6f176293c5a" d="M61.568 98.69l24.833-14.337"/><path class="be631adb-f724-411d-b68c-dcdea8a57dbe" d="M89.949 82.305l4.33-2.5"/><path class="ee193370-0b92-4ad6-ab40-c008d3414c4f" d="M67.513 129.256l35.432-20.457a8.434 8.434 0 0 0-12.65-7.304l-10.131 5.848a25.302 25.302 0 0 0-12.651 21.913z"/><path class="18266b6e-7774-47ea-a576-6c4defb4c7c1" d="M102.945 108.799a8.434 8.434 0 0 0-12.65-7.304l-.473.272 13.122 7.032z"/><path class="140a3a85-99bb-493d-ac6b-f0e88b6eaa6e" d="M102.945 108.799l-13.123-7.032-9.658 5.576a25.302 25.302 0 0 0-12.651 21.913l31.814 18.11 33.167-22.464z"/><path class="76849857-1446-4dd4-886e-4614df3824f7" d="M67.42 54.729l-6.938-4 7.125-10.966 6.937 10.856z"/><path class="616e880a-1009-47c6-a53d-793085540406" d="M134.223 116.358l-6.937-4 7.124-10.966 6.937 10.857z"/><path class="3a8825c6-b29e-4367-a2f9-026eead5e5eb" d="M51.509 160.045L0 130.306V86.908l71.84 18.038v43.398z"/><path class="5e363a6a-e0c3-4ccf-8ffa-aef0719bba44" d="M51.509 116.647L0 86.908l20.33-11.7 51.51 29.738z"/><g class="a1c22cb0-8e95-400f-aa92-83cc8b9323ed"><path class="9674118a-a1e4-4a80-8008-be16bd3e4ee4" d="M27.147 146.241l.166-19.518.083-9.759.02-2.44c-.005-.796.048-1.679-.022-2.346a5.277 5.277 0 0 0-2.121-3.618 3.887 3.887 0 0 0-6.263 2.818l-.095 9.724-.166 19.518a.337.337 0 0 1-.673 0l-.166-19.518-.068-9.792a5.117 5.117 0 0 1 2.94-4.369 5.171 5.171 0 0 1 2.713-.463 5.31 5.31 0 0 1 2.556.995 6.656 6.656 0 0 1 2.75 4.523c.107.951.052 1.7.077 2.528l.02 2.44.083 9.76.166 19.517a1 1 0 0 1-2 .017v-.017z"/></g><path class="f21bc4b2-ebe5-40fc-9c5c-af5d30727974" d="M26.366 145.425l-6.172-3.563v-30.254a2.73 2.73 0 0 1 4.094-2.363 4.155 4.155 0 0 1 2.078 3.598z"/><g class="a1c22cb0-8e95-400f-aa92-83cc8b9323ed"><path class="9674118a-a1e4-4a80-8008-be16bd3e4ee4" d="M43.748 155.776l.166-19.518.083-9.76.02-2.439c-.006-.796.047-1.68-.023-2.347a5.277 5.277 0 0 0-2.121-3.617 3.887 3.887 0 0 0-6.262 2.818l-.096 9.724-.166 19.518a.337.337 0 0 1-.673 0l-.165-19.518-.069-9.793a5.116 5.116 0 0 1 2.94-4.368 5.172 5.172 0 0 1 2.713-.463 5.311 5.311 0 0 1 2.556.995 6.655 6.655 0 0 1 2.75 4.522c.107.952.052 1.7.077 2.529l.021 2.44.083 9.759.166 19.518a1 1 0 0 1-2 .017z"/></g><path class="8cf2f895-4ff8-4881-b1e4-e3d06197df23" d="M42.966 154.96l-6.172-3.564v-30.253a2.73 2.73 0 0 1 4.095-2.364 4.155 4.155 0 0 1 2.077 3.599z"/><g class="a1c22cb0-8e95-400f-aa92-83cc8b9323ed"><path class="9674118a-a1e4-4a80-8008-be16bd3e4ee4" d="M12.713 138.134l.166-19.628.083-9.815.021-2.453c-.006-.797.047-1.694-.02-2.364a5.268 5.268 0 0 0-2.124-3.642 3.887 3.887 0 0 0-6.265 2.866l-.093 9.787-.166 19.628a.337.337 0 0 1-.673 0l-.166-19.628-.071-9.841a5.137 5.137 0 0 1 5.64-4.895 5.311 5.311 0 0 1 2.572.996 6.647 6.647 0 0 1 2.754 4.553c.102.958.048 1.703.073 2.54l.02 2.453.084 9.815.165 19.628a1 1 0 0 1-2 .017z"/></g><path class="4b08dfce-487b-413b-b9d1-30fe9daf96f8" d="M11.932 137.097l-6.172-3.563V103.28a2.73 2.73 0 0 1 4.094-2.363 4.155 4.155 0 0 1 2.078 3.598z"/><path class="eedb002e-6a16-42f8-ad84-8c03aabb4436" d="M71.84 104.946l-20.331 11.701v43.398l20.331-11.701v-43.398z"/><path class="7c8cd4fa-9098-4832-b88d-d6a842025cb4" d="M17.635 88.3l.171-.452-.333-2.613-.792-1.874.209-.58.416-1.646-.916-1.274-2.875-2.125-1.893-2.064 3.05-1.647 3.69 2.13a15.39 15.39 0 0 1 1.292.839 7.302 7.302 0 0 1 1.167 1.037 5.135 5.135 0 0 1 .84 1.246 3.404 3.404 0 0 1 .32 1.485 1.205 1.205 0 0 1-.467 1.121 1.568 1.568 0 0 1-1.237.076v.028a5.789 5.789 0 0 1 .887.785 5.529 5.529 0 0 1 .686.912 4.504 4.504 0 0 1 .44.988 3.388 3.388 0 0 1 .153.984 1.53 1.53 0 0 1-.334 1.114l-3.307 1.836z"/><path class="76c5975a-60d6-4050-9b21-6e1975a68874" d="M23.938 82.782l3.048-1.647 1.804 1.041 4.306 12.384-3.049 1.647z"/><path class="d6f867b3-5a18-44a9-87d3-ae51fe8f3763" d="M31.04 86.881l3.048-1.646 2.963 1.71 4.209 9.31-3.022-5.216 3.05-1.647 2.18 1.259v9.897l-3.049 1.647"/><path class="f8ee3fde-82da-4b96-8ea8-09fb990cc214" d="M42.516 93.507l3.049-1.645 2.18 1.259v4.11l3.844-1.89 2.853 1.646-3.05 1.645-1.354.412 4.781 8.058-3.048 1.647-4.17-4.696-2.336-4.57-1.292-.247z"/><path class="db50f395-2ca0-4ff3-b7f2-78eef35d00e1" d="M11.622 75.672l3.69 2.13q.644.371 1.294.837a7.302 7.302 0 0 1 1.167 1.037 5.16 5.16 0 0 1 .839 1.247 3.417 3.417 0 0 1 .32 1.486 1.203 1.203 0 0 1-.467 1.12 1.563 1.563 0 0 1-1.237.076v.027a5.847 5.847 0 0 1 .887.787 5.528 5.528 0 0 1 .686.912 4.504 4.504 0 0 1 .44.988 3.416 3.416 0 0 1 .153.983 1.53 1.53 0 0 1-.334 1.114 1.24 1.24 0 0 1-.867.345 3.235 3.235 0 0 1-1.196-.23 8.5 8.5 0 0 1-1.321-.621l-4.054-2.341zm2.18 5.215l1.581.912a2.941 2.941 0 0 0 .495.23 1.134 1.134 0 0 0 .442.073.435.435 0 0 0 .314-.154.671.671 0 0 0 .118-.435 1.347 1.347 0 0 0-.133-.587 2.101 2.101 0 0 0-.342-.512 3.44 3.44 0 0 0-.475-.435 4.85 4.85 0 0 0-.518-.348l-1.481-.855zm0 4.096l1.958 1.13a3.241 3.241 0 0 0 .51.238 1.112 1.112 0 0 0 .468.075.509.509 0 0 0 .343-.166.69.69 0 0 0 .133-.468 1.37 1.37 0 0 0-.175-.667 2.624 2.624 0 0 0-.44-.583 4.612 4.612 0 0 0-.573-.485 6.995 6.995 0 0 0-.574-.373l-1.65-.952zm10.136-2.201l1.803 1.04 4.306 12.385-2.46-1.421-.854-2.59-3.843-2.219-.825 1.621-2.406-1.388zm.839 3.364l-1.203 2.382 2.418 1.396zm6.263.735l2.962 1.711 4.21 9.308.026.017v-6.878l2.181 1.258v9.898l-2.851-1.646-4.32-9.54-.028-.016v7.046l-2.18-1.26zm11.476 6.626l2.18 1.26v4.11l3.844-1.891 2.853 1.646-4.404 2.058 4.782 8.059-3.05-1.76-4.025-7.022v4.698l-2.18-1.26z"/><path class="99ec4718-dff5-47b6-9209-23f69689f379" d="M79.356 132.589l3.633-2.082a.84.84 0 0 1 .836 0l2.712 1.56a.84.84 0 0 1-.001 1.456l-3.634 2.082a.84.84 0 0 1-.835 0l-2.712-1.56a.84.84 0 0 1 0-1.456z"/><path class="db50f395-2ca0-4ff3-b7f2-78eef35d00e1" d="M79.356 131.467l3.633-2.081a.84.84 0 0 1 .836 0l2.712 1.56a.84.84 0 0 1-.001 1.456l-3.634 2.082a.84.84 0 0 1-.835-.001l-2.712-1.56a.84.84 0 0 1 0-1.456z"/><path class="22b9e894-2460-4192-ade6-d218db23a154" d="M79.983 122.13l16.258 9.485a6.232 6.232 0 0 0 3.045.848l4.267.066a4.932 4.932 0 0 0 5.008-4.932l-10.909-.167-18.718-10.92v3.793a2.115 2.115 0 0 0 1.049 1.826z"/><path class="d46f7a4e-0907-4913-a35a-c61a44cb54dc" d="M79.983 119.877l16.258 9.485a6.232 6.232 0 0 0 3.045.849l4.267.065a4.932 4.932 0 0 0 5.008-4.931l-10.909-.167-18.718-10.921v3.794a2.115 2.115 0 0 0 1.049 1.826z"/><path class="9674118a-a1e4-4a80-8008-be16bd3e4ee4" d="M108.563 125.345l-10.91-.16-18.72-10.922 8.056-4.65 18.719 10.92z"/><path class="272d3f0a-8336-4084-98e8-e2a9eafacc6d" d="M105.708 123.687l-18.719-10.921-5.339 3.082-2.716-1.585 8.055-4.65 18.719 10.92 2.855 4.812-1.888-.028-.967-1.63z"/><ellipse class="9674118a-a1e4-4a80-8008-be16bd3e4ee4" cx="90.187" cy="123.618" rx=".377" ry=".666" transform="rotate(-36.949 90.187 123.618)"/><ellipse class="9674118a-a1e4-4a80-8008-be16bd3e4ee4" cx="92.305" cy="124.732" rx=".377" ry=".666" transform="rotate(-36.949 92.305 124.732)"/><ellipse class="9674118a-a1e4-4a80-8008-be16bd3e4ee4" cx="94.424" cy="125.975" rx=".377" ry=".666" transform="rotate(-36.949 94.424 125.975)"/><path class="272d3f0a-8336-4084-98e8-e2a9eafacc6d" d="M96.09 118.419l-4.44 2.563-4.559-2.632v-7.239l4.559 2.632 4.44-2.563v7.239z"/><path class="9cb6eccd-ffd9-4688-a207-5af2a5d2c2a5" d="M91.65 120.982l-4.559-2.632v-7.239l4.559 2.632v7.239z"/><path class="c91d123c-6658-4b82-b20d-e2ecbaa7ba1b" d="M84.763 110.572l6.737-3.89 6.918 3.994-6.737 3.89z"/><path class="9674118a-a1e4-4a80-8008-be16bd3e4ee4" d="M89.838 117.846l-1.385-.799v-1.542l1.385.799v1.542zm3.089-1.124l1.731-.999v-1.927l-1.731.999v1.927z"/><path class="3a8825c6-b29e-4367-a2f9-026eead5e5eb" d="M140.135 32.48l-4.596-2.653 4.72-2.725 4.596 2.654z"/><path class="272d3f0a-8336-4084-98e8-e2a9eafacc6d" d="M135.539 43.396l4.596 2.653 4.72-2.725V29.752l-4.72 2.725-4.596-2.654v13.573z"/><path class="9cb6eccd-ffd9-4688-a207-5af2a5d2c2a5" d="M140.135 46.049l4.72-2.725V29.752l-4.72 2.725v13.572z"/><path class="11ab943f-e855-4ab6-9e72-e7f0a75bdb22" d="M140.347 0h1.387v5.36a.568.568 0 0 1-.568.568h-2.802V1.984A1.984 1.984 0 0 1 140.347 0zm2.629 31.209l-2.272-.956a.806.806 0 0 1 .625-1.486.842.842 0 0 1 .175.1l1.964 1.49a.495.495 0 0 1-.492.852z"/><path class="11ab943f-e855-4ab6-9e72-e7f0a75bdb22" d="M140.132 30.91l-2.08-.845a.808.808 0 0 1 .608-1.496.836.836 0 0 1 .193.11l1.77 1.38a.496.496 0 0 1-.49.85z"/><path class="9674118a-a1e4-4a80-8008-be16bd3e4ee4" d="M143.89 8.582l-2.254-2.474a.713.713 0 0 1 .909-1.082l2.824 1.795a1.16 1.16 0 0 1-1.244 1.959 1.206 1.206 0 0 1-.236-.198z"/><path class="c271fc19-1715-4dbb-a702-968b7cf998ef" d="M148.534 5.879l-1.58 3.643-.031.074a.65.65 0 0 1-.856.338.663.663 0 0 1-.216-.152l-1.368-1.46a.554.554 0 0 1 .757-.806l1.542 1.275-1.103.26 1.167-3.796a.901.901 0 1 1 1.723.53.945.945 0 0 1-.035.094z"/><path class="9674118a-a1e4-4a80-8008-be16bd3e4ee4" d="M138.218 4.89h3.273a.937.937 0 0 1 .936.937v8.469a1.907 1.907 0 0 1-1.907 1.907h-2.132a1.107 1.107 0 0 1-1.107-1.107v-9.27a.937.937 0 0 1 .937-.936z" transform="rotate(-180 139.854 10.547)"/><path class="d46f7a4e-0907-4913-a35a-c61a44cb54dc" d="M137.222 16.295l5.262.028-.057-2.381h-5.146l-.059 2.353z"/><path class="9674118a-a1e4-4a80-8008-be16bd3e4ee4" d="M135.54 7.555l2.167-2.347a.619.619 0 0 1 .997.718l-1.542 2.798a1.007 1.007 0 1 1-1.765-.972 1.058 1.058 0 0 1 .143-.197z"/><path class="c271fc19-1715-4dbb-a702-968b7cf998ef" d="M134.438 13.19l-.13-2.18-.005-.082a.524.524 0 0 1 .067-.29l1.416-2.524a.492.492 0 0 1 .885.43l-1.107 2.674.062-.37.4 2.147a.802.802 0 1 1-1.576.294.898.898 0 0 1-.012-.1z"/><circle class="c271fc19-1715-4dbb-a702-968b7cf998ef" cx="148.05" cy="4.987" r=".867"/><circle class="c271fc19-1715-4dbb-a702-968b7cf998ef" cx="135.087" cy="14.011" r=".77"/><path class="c271fc19-1715-4dbb-a702-968b7cf998ef" d="M140.035 3.167a.77.77 0 0 1 .77.77v1.985h-1.54V3.938a.77.77 0 0 1 .77-.77z" transform="rotate(180 140.035 4.545)"/><rect class="c271fc19-1715-4dbb-a702-968b7cf998ef" x="138.957" y=".996" width="2.183" height="2.984" rx="1.092" ry="1.092"/><path class="d46f7a4e-0907-4913-a35a-c61a44cb54dc" d="M142.483 16.03a1.104 1.104 0 0 0-2.205-.128 1.22 1.22 0 0 0-.002.073l.052 6.785h1.762zm-3.055-.027a1.104 1.104 0 1 0-2.207-.076v.076l.23 6.757h1.747z"/><path class="d46f7a4e-0907-4913-a35a-c61a44cb54dc" d="M141.058 29.576a.68.68 0 0 0 .672-.64l.36-6.176h-1.762l.046 6.143a.678.678 0 0 0 .684.673zm-2.711-.403a.68.68 0 0 0 .655-.655l.196-5.758h-1.747l.195 5.758a.678.678 0 0 0 .701.655z"/><path class="11ab943f-e855-4ab6-9e72-e7f0a75bdb22" d="M116.323 37.048a16.803 16.803 0 0 0 10.98 2.092 16.479 16.479 0 0 0 5.418-1.805 23.2 23.2 0 0 0 4.617-3.468.168.168 0 0 1 .237.013.171.171 0 0 1-.011.237 23.611 23.611 0 0 1-4.598 3.657 17.064 17.064 0 0 1-5.553 2.025 17.639 17.639 0 0 1-11.584-1.881.5.5 0 1 1 .48-.878z"/><path class="3a8825c6-b29e-4367-a2f9-026eead5e5eb" d="M113.689 36.21l-4.596-2.654 4.72-2.725 4.596 2.654z"/><path class="272d3f0a-8336-4084-98e8-e2a9eafacc6d" d="M109.093 47.125l4.596 2.653 4.72-2.725V33.481l-4.72 2.725-4.596-2.654v13.573z"/><path class="9cb6eccd-ffd9-4688-a207-5af2a5d2c2a5" d="M113.689 49.778l4.72-2.725V33.481l-4.72 2.725v13.572zm-.233-16.224l2.032-1.619a1.011 1.011 0 0 1 1.26 1.582 1.042 1.042 0 0 1-.26.15l-2.418.95a.621.621 0 0 1-.614-1.063zm-2.981-.558l1.83-1.502a1.014 1.014 0 1 1 1.287 1.567 1.037 1.037 0 0 1-.286.165l-2.216.834a.623.623 0 0 1-.615-1.064z"/><path class="3a8825c6-b29e-4367-a2f9-026eead5e5eb" d="M118.48 15.936l-.181-4.618a2.003 2.003 0 0 0-.673-1.537l-1.678-1.595a1.002 1.002 0 0 1 1.38-1.452 1.118 1.118 0 0 1 .083.088l1.473 1.785a3.67 3.67 0 0 1 .716 1.295 3.525 3.525 0 0 1 .143.722 6.411 6.411 0 0 1 .013.67l-.048 4.624a.615.615 0 0 1-1.228.018z"/><path class="3a8825c6-b29e-4367-a2f9-026eead5e5eb" d="M113.134 6.582h2.83a1.288 1.288 0 0 1 1.288 1.288v8.855a1.742 1.742 0 0 1-1.742 1.743h-2.5a1.165 1.165 0 0 1-1.164-1.165V7.87a1.288 1.288 0 0 1 1.288-1.288z" transform="rotate(-180 114.55 12.525)"/><path class="9674118a-a1e4-4a80-8008-be16bd3e4ee4" d="M111.784 18.564l5.528.029-.06-2.501h-5.406l-.062 2.472z"/><path class="3a8825c6-b29e-4367-a2f9-026eead5e5eb" d="M109.481 15.187l.168-4.816a.696.696 0 0 1 .147-.407l.035-.043 2.279-2.916a.844.844 0 0 1 .632-.324l.069-.002 2.39-.085a1 1 0 1 1 .071 2h-.07l-2.391-.084.7-.327-2.479 2.747.182-.45-.507 4.793a.615.615 0 0 1-1.226-.086z"/><path class="9674118a-a1e4-4a80-8008-be16bd3e4ee4" d="M114.992 18.228l.104 13.582a.713.713 0 0 0 1.424.036l.79-13.56a1.16 1.16 0 1 0-2.316-.135 1.285 1.285 0 0 0-.002.077zm-3.21.029l.447 13.15a.713.713 0 0 0 1.425 0l.447-13.15a1.16 1.16 0 1 0-2.319-.079v.079z"/><circle class="c271fc19-1715-4dbb-a702-968b7cf998ef" cx="119.094" cy="16.635" r=".91"/><circle class="c271fc19-1715-4dbb-a702-968b7cf998ef" cx="109.902" cy="16.04" r=".809"/><path class="9674118a-a1e4-4a80-8008-be16bd3e4ee4" d="M113.022 1.732h1.694a1.36 1.36 0 0 1 1.36 1.36v1.022a1.527 1.527 0 0 1-1.527 1.527 1.527 1.527 0 0 1-1.527-1.527V1.732z"/><path class="c271fc19-1715-4dbb-a702-968b7cf998ef" d="M114.534 4.768a.77.77 0 0 1 .77.77v1.687h-1.54V5.539a.77.77 0 0 1 .77-.77z" transform="rotate(180 114.534 5.997)"/><rect class="c271fc19-1715-4dbb-a702-968b7cf998ef" x="113.456" y="2.597" width="2.183" height="2.984" rx="1.092" ry="1.092"/><path class="11ab943f-e855-4ab6-9e72-e7f0a75bdb22" d="M142.652 33.521l.648 11.618a14.411 14.411 0 0 0 2.836 7.878q.426.562.897 1.085l.486.508.256.242.127.12.064.061.032.03.016.015.008.008.004.004c-.15.164.342-.364-.336.37-.681.731-.191.2-.344.362l-.005-.004-.008-.008-.016-.017-.034-.033-.066-.066-.133-.133-.265-.266-.504-.557q-.486-.573-.922-1.184a15.218 15.218 0 0 1-2.76-8.388l-.317-11.631a.168.168 0 0 1 .336-.014z"/><path class="3a8825c6-b29e-4367-a2f9-026eead5e5eb" d="M150.73 58.076l-4.596-2.653 4.72-2.725 4.596 2.653z"/><path class="272d3f0a-8336-4084-98e8-e2a9eafacc6d" d="M146.134 68.991l4.597 2.654 4.719-2.725V55.347l-4.719 2.725-4.597-2.653v13.572z"/><path class="9cb6eccd-ffd9-4688-a207-5af2a5d2c2a5" d="M150.731 71.645l4.719-2.725V55.347l-4.719 2.725v13.573z"/><path class="9674118a-a1e4-4a80-8008-be16bd3e4ee4" d="M152.148 25.98a1.67 1.67 0 0 1 1.67 1.67v2.39A1.819 1.819 0 0 1 152 31.857h-1.523V27.65a1.67 1.67 0 0 1 1.67-1.671z"/><path class="11ab943f-e855-4ab6-9e72-e7f0a75bdb22" d="M153.601 55.496l-2.254.946a.495.495 0 0 1-.492-.852l1.946-1.48a.806.806 0 1 1 .976 1.285.837.837 0 0 1-.176.101zm-2.767-.446l-2.063.836a.496.496 0 0 1-.492-.852l1.755-1.37a.808.808 0 0 1 .994 1.275.836.836 0 0 1-.194.112z"/><path class="c271fc19-1715-4dbb-a702-968b7cf998ef" d="M158.402 37.335l-2.488-.045-.094-.002a.54.54 0 0 1-.51-.398l-.382-1.396a.493.493 0 0 1 .925-.332l.594 1.32-.605-.399 2.464-.345a.802.802 0 1 1 .222 1.59.87.87 0 0 1-.126.007z"/><path class="d46f7a4e-0907-4913-a35a-c61a44cb54dc" d="M150.691 30.829h2.527a1.288 1.288 0 0 1 1.288 1.287v8.641a1.288 1.288 0 0 1-1.288 1.288h-1.9a1.914 1.914 0 0 1-1.914-1.914v-8.015a1.288 1.288 0 0 1 1.287-1.287z" transform="rotate(180 151.955 36.437)"/><path class="9cb6eccd-ffd9-4688-a207-5af2a5d2c2a5" d="M149.345 42.136l5.217.028-.056-2.361h-5.102l-.059 2.333z"/><path class="c271fc19-1715-4dbb-a702-968b7cf998ef" d="M145.076 34.97l2.825 1.653-.904.289.923-1.456a.494.494 0 0 1 .879.441l-.616 1.61a.602.602 0 0 1-.777.348l-.044-.019-.083-.04-2.953-1.412a.8.8 0 0 1 .691-1.444l.06.03z"/><circle class="c271fc19-1715-4dbb-a702-968b7cf998ef" cx="158.864" cy="36.351" r=".859"/><circle class="c271fc19-1715-4dbb-a702-968b7cf998ef" cx="144.211" cy="35.328" r=".764"/><path class="9cb6eccd-ffd9-4688-a207-5af2a5d2c2a5" d="M154.56 41.874a1.095 1.095 0 0 0-2.185-.128c-.002.023-.002.05-.002.073l.051 6.728h1.747zm-3.028-.028a1.095 1.095 0 1 0-2.189-.074v.074l.228 6.7h1.733z"/><path class="9cb6eccd-ffd9-4688-a207-5af2a5d2c2a5" d="M153.148 54.483a.674.674 0 0 0 .666-.633l.357-5.303h-1.747l.046 5.269a.673.673 0 0 0 .678.667zm-2.688-.399a.675.675 0 0 0 .65-.65l.194-4.887h-1.733l.194 4.888a.673.673 0 0 0 .696.65z"/><path class="d46f7a4e-0907-4913-a35a-c61a44cb54dc" d="M154.449 35.666l-1.062-4.1a.617.617 0 0 1 1.156-.416l1.788 3.84a1.004 1.004 0 0 1-1.82.848 1.081 1.081 0 0 1-.062-.172zm-6.888-.45l1.441-3.658a1.517 1.517 0 0 1 2.822 1.112 1.562 1.562 0 0 1-.223.387l-2.443 3.08a.932.932 0 0 1-1.597-.92z"/><path class="c271fc19-1715-4dbb-a702-968b7cf998ef" d="M151.94 29.259a.77.77 0 0 1 .771.77v1.686h-1.54V30.03a.77.77 0 0 1 .77-.77z" transform="rotate(180 151.94 30.487)"/><rect class="c271fc19-1715-4dbb-a702-968b7cf998ef" x="150.863" y="27.087" width="2.183" height="2.984" rx="1.092" ry="1.092"/><path class="11ab943f-e855-4ab6-9e72-e7f0a75bdb22" d="M116.32 38.596l.76 5.16a22.117 22.117 0 0 0 1.034 5.017 9.296 9.296 0 0 0 3.065 3.888 8.88 8.88 0 0 0 2.177 1.189 8.384 8.384 0 0 0 1.187.357 5.95 5.95 0 0 0 .606.121l.307.042.153.02.077.011.038.006.02.002.009.002h.005a3.99 3.99 0 1 1-.05.498c-.11.993-.034.275-.06.496h-.005l-.01-.003-.022-.003-.042-.007-.085-.014-.169-.029-.337-.057a6.822 6.822 0 0 1-.667-.155 9.328 9.328 0 0 1-1.294-.435 9.757 9.757 0 0 1-2.343-1.377 10.048 10.048 0 0 1-3.181-4.304 10.942 10.942 0 0 1-.612-2.609l-.299-2.59-.597-5.183a.168.168 0 0 1 .334-.043z"/><path class="3a8825c6-b29e-4367-a2f9-026eead5e5eb" d="M127.943 54.774l-4.596-2.653 4.72-2.725 4.595 2.653z"/><path class="272d3f0a-8336-4084-98e8-e2a9eafacc6d" d="M123.347 65.69l4.596 2.653 4.719-2.725V52.046l-4.719 2.725-4.596-2.654V65.69z"/><path class="9cb6eccd-ffd9-4688-a207-5af2a5d2c2a5" d="M127.943 68.343l4.719-2.725V52.046l-4.719 2.725v13.572z"/><path class="9674118a-a1e4-4a80-8008-be16bd3e4ee4" d="M127.626 53.875l-2.418-.95a1.011 1.011 0 0 1 .74-1.883 1.04 1.04 0 0 1 .26.15l2.033 1.619a.621.621 0 0 1-.615 1.064zm2.726-.643l-2.216-.834a1.014 1.014 0 0 1 .714-1.897 1.037 1.037 0 0 1 .286.165l1.83 1.502a.623.623 0 0 1-.614 1.064z"/><path class="9cb6eccd-ffd9-4688-a207-5af2a5d2c2a5" d="M125.282 25.598h2.5a1.742 1.742 0 0 1 1.742 1.742v8.855a1.288 1.288 0 0 1-1.288 1.288h-2.83a1.288 1.288 0 0 1-1.289-1.288v-9.433a1.165 1.165 0 0 1 1.165-1.164z"/><path class="3a8825c6-b29e-4367-a2f9-026eead5e5eb" d="M129.586 37.579l-5.528.03.059-2.502h5.407l.062 2.472z"/><path class="9cb6eccd-ffd9-4688-a207-5af2a5d2c2a5" d="M130.663 34.289l-.507-4.793.182.45-2.48-2.747.7.326-2.39.085a1 1 0 1 1-.07-2h.07l2.39.084.066.003a.851.851 0 0 1 .636.324l2.28 2.915.033.044a.695.695 0 0 1 .148.406l.167 4.817a.615.615 0 0 1-1.225.086z"/><path class="3a8825c6-b29e-4367-a2f9-026eead5e5eb" d="M126.378 37.243l-.104 13.582a.713.713 0 0 1-1.424.036l-.79-13.56a1.16 1.16 0 1 1 2.316-.134l.002.076zm3.21.029l-.448 13.15a.713.713 0 0 1-1.424 0l-.447-13.15a1.16 1.16 0 1 1 2.319-.079v.08z"/><circle class="c271fc19-1715-4dbb-a702-968b7cf998ef" cx="131.468" cy="35.055" r=".809"/><path class="9cb6eccd-ffd9-4688-a207-5af2a5d2c2a5" d="M125.144 27.604l-3.852 1.482-.065.025a.776.776 0 0 1-1.003-.446.812.812 0 0 1-.043-.164l-.727-4.852a.615.615 0 0 1 1.208-.228l1.094 4.783-1.111-.585 3.692-1.845a1.001 1.001 0 0 1 .895 1.792 1.047 1.047 0 0 1-.088.038z"/><circle class="c271fc19-1715-4dbb-a702-968b7cf998ef" cx="120.058" cy="23.535" r=".91"/><path class="11ab943f-e855-4ab6-9e72-e7f0a75bdb22" d="M126.82 20.672a1.527 1.527 0 0 1 1.527 1.527v1.022a1.36 1.36 0 0 1-1.36 1.36h-1.693V22.2a1.527 1.527 0 0 1 1.527-1.527z" transform="rotate(-180 126.82 22.627)"/><path class="c271fc19-1715-4dbb-a702-968b7cf998ef" d="M126.066 23.708h1.54v1.687a.77.77 0 0 1-.77.77.77.77 0 0 1-.77-.77v-1.687z"/><rect class="c271fc19-1715-4dbb-a702-968b7cf998ef" x="125.731" y="21.537" width="2.183" height="2.984" rx="1.092" ry="1.092" transform="rotate(180 126.822 23.028)"/><path class="11ab943f-e855-4ab6-9e72-e7f0a75bdb22" d="M147.981 59.474a14.885 14.885 0 0 1-4.594 1.654 13.293 13.293 0 0 1-9.403-1.933 20.212 20.212 0 0 1-3.599-3.215.307.307 0 0 1 .436-.433 19.587 19.587 0 0 0 3.543 3.047 12.486 12.486 0 0 0 8.863 1.645 13.904 13.904 0 0 0 4.29-1.65.5.5 0 0 1 .49.872l-.006.003z"/><g class="e80dd722-b776-47ea-a168-326603f083a4"><path class="ac2ef493-efde-46f3-bfc9-4feb01d113ac" d="M87.662 56.643L85.22 58.06l.14-.695a2.164 2.164 0 0 0-.1-.631 2.794 2.794 0 0 0-.282-.635 3.558 3.558 0 0 0-.44-.587 3.707 3.707 0 0 0-.57-.504v-.018a1.007 1.007 0 0 0 .794-.048.775.775 0 0 0 .301-.721 2.199 2.199 0 0 0-.207-.955 3.286 3.286 0 0 0-.538-.8 4.688 4.688 0 0 0-.75-.667c-.278-.2-.557-.379-.83-.538l-2.372-1.37 2.718-1.576 2.37 1.37c.275.159.553.338.83.538a4.688 4.688 0 0 1 .752.667 3.286 3.286 0 0 1 .538.8 2.199 2.199 0 0 1 .207.954.775.775 0 0 1-.3.721 1.007 1.007 0 0 1-.796.048v.019a3.707 3.707 0 0 1 .57.504 3.557 3.557 0 0 1 .44.586 2.793 2.793 0 0 1 .283.635 2.164 2.164 0 0 1 .1.632.976.976 0 0 1-.216.715.739.739 0 0 1-.167.125"/><path class="ac2ef493-efde-46f3-bfc9-4feb01d113ac" d="M88.956 51.707l1.401.809v5.066l2.597 1.499v1.294l-2.718 1.576v-1.294l-2.597-1.499v-5.066l-1.401-.809 2.718-1.576z"/><path class="ac2ef493-efde-46f3-bfc9-4feb01d113ac" d="M96.56 64.862a1.97 1.97 0 0 1-1.088.04 4.697 4.697 0 0 1-1.374-.56 7.37 7.37 0 0 1-2.46-2.323 6.331 6.331 0 0 1-.714-1.468 4.806 4.806 0 0 1-.256-1.531 2.586 2.586 0 0 1 .256-1.236 1.337 1.337 0 0 1 .713-.643l2.718-1.577a1.967 1.967 0 0 1 1.087-.04 4.698 4.698 0 0 1 1.374.559 7.4 7.4 0 0 1 2.462 2.324 6.331 6.331 0 0 1 .714 1.468 4.81 4.81 0 0 1 .256 1.531 2.583 2.583 0 0 1-.256 1.236 1.333 1.333 0 0 1-.714.643z"/><path class="ac2ef493-efde-46f3-bfc9-4feb01d113ac" d="M106.588 67.304l-1.166-1.546a.735.735 0 0 1-.548.187 1.71 1.71 0 0 1-.764-.261 3.195 3.195 0 0 1-.706-.56 4.046 4.046 0 0 1-.57-.756 4.114 4.114 0 0 1-.382-.868c-.011-.036-.015-.071-.025-.107l1.291.755 2.718-1.577a5.033 5.033 0 0 0-.467-.71 5.909 5.909 0 0 0-.544-.6 6.075 6.075 0 0 0-.575-.49 5.712 5.712 0 0 0-.561-.374 4.687 4.687 0 0 0-1.374-.56 1.968 1.968 0 0 0-1.087.042l-2.718 1.576 1.829 1.069c.015.08.025.159.043.238l-1.341-.104-.531.776.177 2.542a12.3 12.3 0 0 0 .854 1.266 260.25 260.25 0 0 1 2.417 1.208l1.313.43 2.718-1.576z"/><path class="ac2ef493-efde-46f3-bfc9-4feb01d113ac" d="M104.688 63.936l2.715-1.577 1.4.808v2.638l2.467-1.213 1.83 1.057-1.956 1.056-.87.264 3.07 5.172-2.708 1.588-2.23-3.108-1.67-2.577-1.035-.364z"/><path class="ac2ef493-efde-46f3-bfc9-4feb01d113ac" d="M119.227 74.6l-1.167-1.545a.735.735 0 0 1-.548.187 1.71 1.71 0 0 1-.763-.262 3.195 3.195 0 0 1-.706-.56 4.046 4.046 0 0 1-.57-.755 4.114 4.114 0 0 1-.383-.868c-.01-.036-.014-.071-.024-.107l1.291.755 2.718-1.577a5.034 5.034 0 0 0-.467-.71 5.907 5.907 0 0 0-.544-.6 6.072 6.072 0 0 0-.575-.49 5.71 5.71 0 0 0-.562-.374 4.686 4.686 0 0 0-1.374-.56 1.968 1.968 0 0 0-1.087.042l-2.717 1.576 1.828 1.069h.001c.015.08.025.159.043.238l-1.341-.104-.531.776.176 2.542a12.3 12.3 0 0 0 .855 1.265 260.49 260.49 0 0 1 2.416 1.209l1.313.43 2.718-1.576z"/><path class="ac2ef493-efde-46f3-bfc9-4feb01d113ac" d="M124.115 72.006l-2.049 1.188-.673-.388v-2.371l-1.401-.81-2.718 1.576 1.401 7.169 2.718-1.576.004-2.747 1.089.629-.282 3.42.594 2.654 2.718-1.576v-6.36l-1.401-.808zm2.068 4.34l2.72-1.576 1.14.658 2.772 7.946-2.706 1.598z"/><path class="ac2ef493-efde-46f3-bfc9-4feb01d113ac" d="M133.446 77.394l1.401.808v6.36l-2.717 1.577v-6.36l-1.402-.809 2.718-1.576z"/><path class="ac2ef493-efde-46f3-bfc9-4feb01d113ac" d="M133.406 80.516l2.718-1.577 1.897 1.096 2.694 5.958-1.934-3.338 1.951-1.054 1.396.805v6.336l-2.695 1.614-2.323-3.12-2.156-5.125z"/></g><path class="11ab943f-e855-4ab6-9e72-e7f0a75bdb22" d="M80.365 49.892l2.371 1.369c.274.16.553.339.83.538a4.688 4.688 0 0 1 .751.667 3.286 3.286 0 0 1 .538.8 2.199 2.199 0 0 1 .207.955.775.775 0 0 1-.3.72 1.007 1.007 0 0 1-.795.049v.018a3.707 3.707 0 0 1 .57.504 3.558 3.558 0 0 1 .44.587 2.794 2.794 0 0 1 .282.635 2.164 2.164 0 0 1 .1.632.976.976 0 0 1-.216.714.786.786 0 0 1-.556.223 2.106 2.106 0 0 1-.768-.146 5.567 5.567 0 0 1-.85-.4l-2.604-1.505zm1.401 3.351l1.015.586a1.883 1.883 0 0 0 .318.148.71.71 0 0 0 .284.047.278.278 0 0 0 .202-.099.428.428 0 0 0 .076-.28.868.868 0 0 0-.085-.376 1.374 1.374 0 0 0-.22-.33 2.226 2.226 0 0 0-.306-.28 3.196 3.196 0 0 0-.332-.223l-.952-.55zm0 2.632l1.257.726a1.991 1.991 0 0 0 .328.153.692.692 0 0 0 .301.048.32.32 0 0 0 .22-.106.44.44 0 0 0 .086-.301.874.874 0 0 0-.114-.429 1.645 1.645 0 0 0-.282-.374 2.964 2.964 0 0 0-.368-.312 4.67 4.67 0 0 0-.368-.239l-1.06-.612zm4.472-2.592l1.401.81v5.065l2.597 1.5v1.293l-3.998-2.308zm4.43 5.737a2.586 2.586 0 0 1 .256-1.236 1.337 1.337 0 0 1 .713-.643 1.968 1.968 0 0 1 1.087-.041 4.698 4.698 0 0 1 1.374.56 7.4 7.4 0 0 1 2.462 2.324 6.33 6.33 0 0 1 .714 1.467 4.81 4.81 0 0 1 .256 1.532 2.583 2.583 0 0 1-.256 1.235 1.333 1.333 0 0 1-.714.644 1.97 1.97 0 0 1-1.088.04 4.697 4.697 0 0 1-1.374-.56 7.37 7.37 0 0 1-2.46-2.323 6.331 6.331 0 0 1-.714-1.468 4.806 4.806 0 0 1-.256-1.531zm1.455.84a3.077 3.077 0 0 0 .138.902 3.788 3.788 0 0 0 .4.878 4.157 4.157 0 0 0 .625.787 3.891 3.891 0 0 0 .812.622 2.43 2.43 0 0 0 .814.317 1.056 1.056 0 0 0 .624-.066.837.837 0 0 0 .4-.417 1.721 1.721 0 0 0 .139-.741 3.075 3.075 0 0 0-.14-.898 3.734 3.734 0 0 0-.4-.881 4.237 4.237 0 0 0-.623-.788 3.898 3.898 0 0 0-.814-.622 2.422 2.422 0 0 0-.812-.316 1.039 1.039 0 0 0-.624.066.833.833 0 0 0-.4.42 1.749 1.749 0 0 0-.14.738zm10.517 4.546a3.198 3.198 0 0 0-1.203-1.216 1.97 1.97 0 0 0-.732-.27.967.967 0 0 0-.584.09.891.891 0 0 0-.387.428 1.749 1.749 0 0 0-.139.737 3.077 3.077 0 0 0 .14.901 4.114 4.114 0 0 0 .382.869 4.046 4.046 0 0 0 .57.755 3.195 3.195 0 0 0 .705.56 1.71 1.71 0 0 0 .764.262.735.735 0 0 0 .548-.188l1.167 1.546a1.26 1.26 0 0 1-1.024.244 3.582 3.582 0 0 1-1.276-.468 7.37 7.37 0 0 1-2.461-2.323 6.331 6.331 0 0 1-.714-1.468 4.806 4.806 0 0 1-.256-1.53 2.586 2.586 0 0 1 .256-1.236 1.337 1.337 0 0 1 .714-.644 1.968 1.968 0 0 1 1.087-.04 4.687 4.687 0 0 1 1.374.559 5.712 5.712 0 0 1 .561.374 6.071 6.071 0 0 1 .576.49 5.908 5.908 0 0 1 .544.6 5.033 5.033 0 0 1 .466.71zm2.048-.47l1.402.808v2.641l2.47-1.214 1.833 1.058-2.83 1.322 3.072 5.178-1.958-1.131-2.587-4.512v3.018l-1.402-.809zm10.591 7.766a3.199 3.199 0 0 0-.508-.678 3.162 3.162 0 0 0-.696-.537 1.958 1.958 0 0 0-.733-.27.965.965 0 0 0-.583.09.887.887 0 0 0-.386.428 1.749 1.749 0 0 0-.139.737 3.077 3.077 0 0 0 .139.901 4.124 4.124 0 0 0 .952 1.624 3.195 3.195 0 0 0 .706.56 1.71 1.71 0 0 0 .764.262.736.736 0 0 0 .547-.188l1.167 1.546a1.26 1.26 0 0 1-1.023.244 3.575 3.575 0 0 1-1.276-.468 7.37 7.37 0 0 1-2.461-2.323 6.331 6.331 0 0 1-.714-1.468 4.806 4.806 0 0 1-.256-1.53 2.586 2.586 0 0 1 .256-1.236 1.337 1.337 0 0 1 .714-.644 1.968 1.968 0 0 1 1.087-.04 4.698 4.698 0 0 1 1.374.559 5.712 5.712 0 0 1 .561.374 6.073 6.073 0 0 1 .575.489 5.908 5.908 0 0 1 .544.6 5.12 5.12 0 0 1 .467.71zm1.995-.501l1.402.81v2.371l2.721 1.571v-2.37l1.402.808v6.36l-1.402-.81v-2.748l-2.721-1.572v2.75l-1.402-.81zm8.909 5.145l1.16.669 2.766 7.957-1.58-.913-.548-1.663-2.47-1.427-.53 1.041-1.546-.892zm.54 2.162l-.773 1.53 1.555.897zm4.005.462l1.402.809v6.36l-1.402-.81zm2.678 1.546l1.904 1.099 2.703 5.98.019.01v-4.418l1.401.808v6.36l-1.832-1.058-2.776-6.13-.018-.01v4.527l-1.401-.809z"/></svg>