<svg id="b31fea35-5812-413d-87c7-404a30aebf3e" data-name="Layer 1" xmlns="http://www.w3.org/2000/svg" xmlns:xlink="http://www.w3.org/1999/xlink" viewBox="0 0 165.15065 124.2507"><defs><style>.\33 5362b3b-2a89-4595-aabd-bda1dcc094b2{fill:#f0e3d1}.\32 3415815-708e-4778-94a7-dfe47d00e221{fill:#494949}.\37 069efe0-73c5-471f-82ee-bc657c57dcb6{fill:url(#76d94078-80ed-4642-ab6b-59803e72de1d)}.\35 831f70b-5e03-4648-a2c8-4a6614ad164a{fill:url(#12880889-5419-4a98-94fc-3723033b855b)}.\36 cfd7513-d2ad-4df3-aec4-b7868db022af{fill:url(#775de65e-a677-4d33-8868-242a7cb2a0a9)}.\39 ea06c63-2ded-49b2-8ef9-ba6c8362b2e6{fill:url(#46260d72-ee6e-4dc7-ba7b-293db4124439)}.\36 f3352ad-6a4e-4d61-a2d0-2543ab844341{fill:#ea4e4e}.d5b24f68-f2a8-4ce0-bbc8-d6524b431a6d{fill:#f8cbac}.af7367ff-70ba-492b-ba41-88e146b885bf{fill:#dbcebf}.c98cc82e-153b-433a-8ce2-090b80aee916{fill:#a59a8c}.\33 c00d3cc-ba29-4712-988d-183f0d2a5c19{fill:none;stroke:#494949;stroke-linecap:round;stroke-miterlimit:10;stroke-width:2px}.a28faba6-cb77-4ed6-be3f-14936b15bad1{stroke-miterlimit:10;stroke-width:2px}.\35 8cdb9a7-7040-409f-9bac-970670d0bb53{fill:url(#ef58dd99-5ccc-410f-bb07-934e5eaa2d2d)}.a28faba6-cb77-4ed6-be3f-14936b15bad1{fill:#94e09d;stroke:#60be6e}.\39 6523c5a-76bb-4d58-b63e-c7a8f7832faa{fill:url(#c5c03fc2-7c6e-4362-8b76-f96e4e46b3f0)}.f7270b60-95ae-430c-88e0-da8c68e67008{fill:url(#34dd4834-f9bd-4b82-a6c1-a996113291f1)}.\39 abc2ba5-e6b0-40b2-abf1-d74946667654{fill:#60be6e}.da0d3de9-75de-4ccf-a664-4052150f770f{fill:#c49153}.f39a04af-63b4-4864-b3f9-3158e0a5dd1f{fill:#d39b5e}.bad06c74-7bb0-4faf-9a8b-5f8f6bab8d41{fill:#fff}.\38 bd311b6-2519-4ec0-9392-ce737b6bb171{fill:url(#f6bfeeb3-e559-4531-9158-6aba8832eec3)}.\34 b8f26a1-b665-4ed5-9e5a-0abfd5982ac3{fill:url(#be752a6c-99ea-4a43-9926-b30c6d03486e)}.defdf45b-892e-4e01-a2bd-76a70a443ae6{fill:url(#dfe083b4-9aee-47a1-851e-66d53e9b8c32)}</style><linearGradient id="76d94078-80ed-4642-ab6b-59803e72de1d" x1="44.263" y1="31.309" x2="91.751" y2="31.309" gradientTransform="translate(73.4)" gradientUnits="userSpaceOnUse"><stop offset="0" stop-color="#aadcf7"/><stop offset="1" stop-color="#fff"/></linearGradient><linearGradient id="12880889-5419-4a98-94fc-3723033b855b" x1="-45.691" y1="116.768" x2="-31.629" y2="116.768" xlink:href="#76d94078-80ed-4642-ab6b-59803e72de1d"/><linearGradient id="775de65e-a677-4d33-8868-242a7cb2a0a9" x1="38.985" y1="102.296" x2="58.216" y2="102.296" xlink:href="#76d94078-80ed-4642-ab6b-59803e72de1d"/><linearGradient id="46260d72-ee6e-4dc7-ba7b-293db4124439" x1="-73.4" y1="32.372" x2="-45.123" y2="32.372" xlink:href="#76d94078-80ed-4642-ab6b-59803e72de1d"/><linearGradient id="ef58dd99-5ccc-410f-bb07-934e5eaa2d2d" x1="47.083" y1="78.771" x2="55.301" y2="56.192" gradientUnits="userSpaceOnUse"><stop offset="0" stop-color="#ea4e4e"/><stop offset=".338" stop-color="#f15f5a"/><stop offset=".639" stop-color="#f97167"/></linearGradient><linearGradient id="c5c03fc2-7c6e-4362-8b76-f96e4e46b3f0" x1="179.49" y1="32.715" x2="193.484" y2="32.715" gradientTransform="rotate(.238 261.942 -26565.53)" gradientUnits="userSpaceOnUse"><stop offset="0" stop-color="#eab063" stop-opacity="0"/><stop offset="1" stop-color="#eab063"/></linearGradient><linearGradient id="34dd4834-f9bd-4b82-a6c1-a996113291f1" x1="181.517" y1="32.715" x2="191.457" y2="32.715" gradientTransform="rotate(.238 261.942 -26565.53)" gradientUnits="userSpaceOnUse"><stop offset="0" stop-color="#eab063" stop-opacity=".1"/><stop offset="1" stop-color="#eab063"/></linearGradient><linearGradient id="f6bfeeb3-e559-4531-9158-6aba8832eec3" x1="178.085" y1="28.862" x2="192.079" y2="28.862" xlink:href="#c5c03fc2-7c6e-4362-8b76-f96e4e46b3f0"/><linearGradient id="be752a6c-99ea-4a43-9926-b30c6d03486e" x1="180.112" y1="28.862" x2="190.052" y2="28.862" xlink:href="#34dd4834-f9bd-4b82-a6c1-a996113291f1"/><linearGradient id="dfe083b4-9aee-47a1-851e-66d53e9b8c32" x1="179.463" y1="26.321" x2="193.458" y2="26.321" gradientTransform="rotate(.238 261.942 -26565.53)" gradientUnits="userSpaceOnUse"><stop offset="0" stop-color="#60be6e" stop-opacity="0"/><stop offset="1" stop-color="#60be6e"/></linearGradient></defs><title>Artboard 1</title><path class="35362b3b-2a89-4595-aabd-bda1dcc094b2" d="M102.754 61.387l-12.139 7.008-43.861-25.422v-4.237l43.861 14.176 12.139 4.237v4.238z"/><path class="23415815-708e-4778-94a7-dfe47d00e221" d="M46.754 38.736l12.139-7.009 43.86 25.422-12.138 7.009z"/><ellipse class="23415815-708e-4778-94a7-dfe47d00e221" cx="62.394" cy="52.98" rx="1.767" ry="3.122" transform="rotate(-36.949 62.394 52.98)"/><ellipse class="23415815-708e-4778-94a7-dfe47d00e221" cx="52.128" cy="47.084" rx="1.767" ry="3.122" transform="rotate(-36.949 52.128 47.084)"/><ellipse class="23415815-708e-4778-94a7-dfe47d00e221" cx="72.661" cy="58.995" rx="1.767" ry="3.122" transform="rotate(-36.949 72.661 58.995)"/><ellipse class="23415815-708e-4778-94a7-dfe47d00e221" cx="82.928" cy="64.825" rx="1.767" ry="3.122" transform="rotate(-36.949 82.928 64.825)"/><path class="7069efe0-73c5-471f-82ee-bc657c57dcb6" d="M141.09 62.619L117.663 49.11 141.723 0l23.428 48.742z"/><path class="5831f70b-5e03-4648-a2c8-4a6614ad164a" d="M34.647 124.25l-6.937-3.999 7.124-10.966 6.937 10.857z"/><path class="6cfd7513-d2ad-4df3-aec4-b7868db022af" d="M121.872 112.53l-9.487-5.47 9.744-14.998 9.487 14.848z"/><path class="9ea06c63-2ded-49b2-8ef9-ba6c8362b2e6" d="M13.95 47.42L0 39.375l14.327-22.052 13.95 21.832z"/><path class="6f3352ad-6a4e-4d61-a2d0-2543ab844341" d="M91.878 107.638l-.992-.73a.216.216 0 0 1 .215-.372l1.127.496a.352.352 0 1 1-.283.644.372.372 0 0 1-.067-.038zm1.42-.266l-.896-.673a.217.217 0 0 1 .215-.373l1.031.44a.353.353 0 1 1-.276.648.37.37 0 0 1-.074-.042z"/><path class="35362b3b-2a89-4595-aabd-bda1dcc094b2" d="M90.179 99.023l.077-2.201a1.694 1.694 0 0 1 .502-1.207l.791-.767a.246.246 0 0 1 .36.336l-.71.843a1.073 1.073 0 0 0-.234.806l.013 2.202a.4.4 0 1 1-.8.005z"/><path class="35362b3b-2a89-4595-aabd-bda1dcc094b2" d="M91.807 94.749h.937a1.288 1.288 0 0 1 1.288 1.288v3.087a1.288 1.288 0 0 1-1.288 1.287 1.288 1.288 0 0 1-1.288-1.287V95.1a.351.351 0 0 1 .351-.351z"/><path class="23415815-708e-4778-94a7-dfe47d00e221" d="M94.062 100.457l-2.634.014.028-1.191h2.576l.03 1.177z"/><path class="35362b3b-2a89-4595-aabd-bda1dcc094b2" d="M94.56 98.89l-.246-2.282.091.224-1.183-1.306.35.163-1.139.042a.5.5 0 0 1-.037-1 .51.51 0 0 1 .037 0l1.139.042.034.002a.424.424 0 0 1 .316.162l1.084 1.39.018.023a.346.346 0 0 1 .073.203l.076 2.295a.307.307 0 0 1-.613.043z"/><path class="23415815-708e-4778-94a7-dfe47d00e221" d="M92.533 100.297l-.05 6.471a.34.34 0 0 1-.678.018l-.377-6.46a.553.553 0 1 1 1.104-.065v.036zm1.529.014l-.213 6.265a.34.34 0 0 1-.679 0l-.213-6.265a.553.553 0 1 1 1.105-.037v.037z"/><circle class="d5b24f68-f2a8-4ce0-bbc8-d6524b431a6d" cx="90.579" cy="99.366" r=".434"/><circle class="d5b24f68-f2a8-4ce0-bbc8-d6524b431a6d" cx="94.958" cy="99.255" r=".386"/><path class="d5b24f68-f2a8-4ce0-bbc8-d6524b431a6d" d="M92.268 93.886h.771v.954h-.771z"/><path class="23415815-708e-4778-94a7-dfe47d00e221" d="M92.02 92.302h.685a.568.568 0 0 1 .568.568v.65a.627.627 0 0 1-.627.627.627.627 0 0 1-.626-.626v-1.219z"/><path class="35362b3b-2a89-4595-aabd-bda1dcc094b2" d="M85.715 38.469l-5.897-3.405 6.056-3.496 5.897 3.404z"/><path class="af7367ff-70ba-492b-ba41-88e146b885bf" d="M79.818 52.474l5.897 3.405 6.056-3.497V34.968l-6.056 3.496-5.897-3.405v17.415z"/><path class="c98cc82e-153b-433a-8ce2-090b80aee916" d="M85.715 55.879l6.056-3.497V34.968l-6.056 3.496v17.415z"/><path class="35362b3b-2a89-4595-aabd-bda1dcc094b2" d="M65.788 26.754l-5.897-3.405 6.056-3.496 5.897 3.405z"/><path class="af7367ff-70ba-492b-ba41-88e146b885bf" d="M59.891 40.759l5.897 3.405 6.056-3.496V23.253l-6.056 3.496-5.897-3.404v17.414z"/><path class="c98cc82e-153b-433a-8ce2-090b80aee916" d="M65.788 44.164l6.056-3.496V23.253l-6.056 3.496v17.415z"/><path class="3c00d3cc-ba29-4712-988d-183f0d2a5c19" d="M117.663 74.191l-20-11.592m19.378 4.075l2.375 8.73h-13.875"/><path class="35362b3b-2a89-4595-aabd-bda1dcc094b2" d="M76.141 96.774l-12.139 7.008L20.141 78.36v-4.237l43.861 14.175 12.139 4.238v4.238z"/><path class="23415815-708e-4778-94a7-dfe47d00e221" d="M20.14 74.123l12.14-7.009 43.86 25.422-12.138 7.008z"/><ellipse class="23415815-708e-4778-94a7-dfe47d00e221" cx="35.781" cy="88.367" rx="1.767" ry="3.122" transform="rotate(-36.949 35.781 88.367)"/><ellipse class="23415815-708e-4778-94a7-dfe47d00e221" cx="25.515" cy="82.471" rx="1.767" ry="3.122" transform="rotate(-36.949 25.515 82.471)"/><ellipse class="23415815-708e-4778-94a7-dfe47d00e221" cx="46.048" cy="94.382" rx="1.767" ry="3.122" transform="rotate(-36.949 46.048 94.382)"/><ellipse class="23415815-708e-4778-94a7-dfe47d00e221" cx="56.315" cy="100.212" rx="1.767" ry="3.122" transform="rotate(-36.949 56.316 100.212)"/><path class="35362b3b-2a89-4595-aabd-bda1dcc094b2" d="M59.313 75.023l-5.898-3.405 6.056-3.496 5.897 3.404z"/><path class="af7367ff-70ba-492b-ba41-88e146b885bf" d="M53.415 89.028l5.897 3.405 6.056-3.497V71.522l-6.056 3.496-5.897-3.405v17.415z"/><path class="c98cc82e-153b-433a-8ce2-090b80aee916" d="M59.312 92.433l6.056-3.497V71.522l-6.056 3.496v17.415z"/><path class="35362b3b-2a89-4595-aabd-bda1dcc094b2" d="M39.386 63.308l-5.898-3.405 6.056-3.496 5.897 3.405z"/><path class="af7367ff-70ba-492b-ba41-88e146b885bf" d="M33.488 77.313l5.898 3.405 6.055-3.496V59.807l-6.055 3.496-5.898-3.404v17.414z"/><path class="c98cc82e-153b-433a-8ce2-090b80aee916" d="M39.386 80.718l6.055-3.496V59.807l-6.055 3.496v17.415z"/><path class="35362b3b-2a89-4595-aabd-bda1dcc094b2" d="M33.447 61.283l-9.926-5.731 10.193-5.885 9.927 5.73z"/><path class="af7367ff-70ba-492b-ba41-88e146b885bf" d="M23.521 59.879l9.926 5.731 10.194-5.885V55.39l-10.194 5.885-9.926-5.731v4.335z"/><path class="58cdb9a7-7040-409f-9bac-970670d0bb53" d="M47.115 78.445L30.16 68.75a3.468 3.468 0 0 1-.012-6.013l14.61-8.436a5.123 5.123 0 0 1 5.105-.01l19.06 10.897a7.617 7.617 0 0 1 .029 13.21 21.917 21.917 0 0 1-21.837.046z"/><path class="23415815-708e-4778-94a7-dfe47d00e221" d="M32.54 58.086l-1.957-1.13 2.01-1.16 1.956 1.13zm4.157-2.422l-1.957-1.13 2.01-1.16 1.956 1.13z"/><path class="3c00d3cc-ba29-4712-988d-183f0d2a5c19" d="M5.515 60.42l20 11.592M6.45 69.088l-2.688-9.88h12.034"/><path class="a28faba6-cb77-4ed6-be3f-14936b15bad1" d="M47.19 25.083l16.5-9.331 43.86 25.422-16.5 9.331z"/><path class="96523c5a-76bb-4d58-b63e-c7a8f7832faa" d="M74.936 35.738a12.083 12.083 0 0 1-1.376-.084c-2.116-.253-3.76-1.071-4.29-2.136a1.693 1.693 0 0 1 .135-1.702c1.074-1.843 4.453-3.222 7.859-3.208a12.082 12.082 0 0 1 1.376.083c2.115.253 3.758 1.072 4.288 2.136a1.693 1.693 0 0 1-.134 1.703c-1.074 1.843-4.452 3.222-7.858 3.208z"/><path class="f7270b60-95ae-430c-88e0-da8c68e67008" d="M75.273 34.705a8.582 8.582 0 0 1-.977-.06 3.89 3.89 0 0 1-3.046-1.517 1.202 1.202 0 0 1 .095-1.209c.763-1.309 3.162-2.288 5.582-2.278a8.581 8.581 0 0 1 .977.059 3.89 3.89 0 0 1 3.046 1.517 1.202 1.202 0 0 1-.095 1.21c-.763 1.308-3.163 2.288-5.582 2.278z"/><path class="9abc2ba5-e6b0-40b2-abf1-d74946667654" d="M91.14 50.154a5.05 5.05 0 0 1-.576-.034 2.29 2.29 0 0 1-1.792-.893.708.708 0 0 1 .056-.712 4.007 4.007 0 0 1 3.285-1.34 5.05 5.05 0 0 1 .575.034 2.29 2.29 0 0 1 1.792.893.708.708 0 0 1-.056.712 4.006 4.006 0 0 1-3.285 1.34z"/><path class="da0d3de9-75de-4ccf-a664-4052150f770f" d="M63.202 18.948a5.05 5.05 0 0 1-.575-.035 2.29 2.29 0 0 1-1.793-.892.708.708 0 0 1 .056-.712 4.007 4.007 0 0 1 3.285-1.341 5.053 5.053 0 0 1 .575.035 2.29 2.29 0 0 1 1.792.893.708.708 0 0 1-.055.711 4.006 4.006 0 0 1-3.285 1.341z"/><path class="9abc2ba5-e6b0-40b2-abf1-d74946667654" d="M49.629 26.698a5.05 5.05 0 0 1-.576-.035 2.29 2.29 0 0 1-1.792-.892.708.708 0 0 1 .056-.712 4.007 4.007 0 0 1 3.285-1.341 5.053 5.053 0 0 1 .575.035 2.29 2.29 0 0 1 1.792.893.708.708 0 0 1-.056.711 4.006 4.006 0 0 1-3.284 1.341z"/><path class="f39a04af-63b4-4864-b3f9-3158e0a5dd1f" d="M84.847 36.411l8 4.637"/><path class="da0d3de9-75de-4ccf-a664-4052150f770f" d="M84.997 36.152l7.9 4.809a.101.101 0 0 1-.1.174l-8.1-4.464a.3.3 0 1 1 .29-.526z"/><path class="f39a04af-63b4-4864-b3f9-3158e0a5dd1f" d="M79.684 36.847l8 4.637"/><path class="da0d3de9-75de-4ccf-a664-4052150f770f" d="M79.835 36.587l7.9 4.81a.101.101 0 0 1-.101.174l-8.1-4.465a.3.3 0 0 1 .29-.525z"/><path class="f39a04af-63b4-4864-b3f9-3158e0a5dd1f" d="M85.133 33.841l8 4.636"/><path class="da0d3de9-75de-4ccf-a664-4052150f770f" d="M85.284 33.581l7.9 4.81a.101.101 0 0 1-.101.174l-8.1-4.465a.3.3 0 0 1 .29-.525z"/><path class="f39a04af-63b4-4864-b3f9-3158e0a5dd1f" d="M60.763 22.89l8 4.636"/><path class="da0d3de9-75de-4ccf-a664-4052150f770f" d="M60.813 22.802l8.1 4.465a.3.3 0 1 1-.29.526l-.01-.007-7.901-4.809a.101.101 0 0 1 .101-.175z"/><path class="f39a04af-63b4-4864-b3f9-3158e0a5dd1f" d="M59.997 25.208l8 4.637"/><path class="da0d3de9-75de-4ccf-a664-4052150f770f" d="M60.048 25.12l8.1 4.465a.3.3 0 1 1-.29.526l-.011-.007-7.9-4.809a.101.101 0 0 1 .1-.174z"/><path class="f39a04af-63b4-4864-b3f9-3158e0a5dd1f" d="M65.374 22.89l8 4.636"/><path class="da0d3de9-75de-4ccf-a664-4052150f770f" d="M65.425 22.802l8.1 4.465a.3.3 0 1 1-.29.526l-.011-.007-7.9-4.809a.101.101 0 0 1 .101-.175z"/><path class="bad06c74-7bb0-4faf-9a8b-5f8f6bab8d41" d="M79.273 30.785a4.321 4.321 0 0 1 .772.586 1.332 1.332 0 0 1 .42.684l-1.668.036a.702.702 0 0 0-.194-.385 2.257 2.257 0 0 0-.406-.345l-1.24.663.536.569a.974.974 0 0 1 .318.77q-.044.376-.59.668a2.832 2.832 0 0 1-.875.299 3.787 3.787 0 0 1-.94.039 4.595 4.595 0 0 1-.947-.18 5.663 5.663 0 0 1-.895-.35l-.547.293-.519-.31.547-.293a4.376 4.376 0 0 1-.893-.694 1.346 1.346 0 0 1-.417-.806l1.761.002a.59.59 0 0 0 .14.486 2.251 2.251 0 0 0 .485.436l1.318-.705-.402-.435a1.169 1.169 0 0 1-.381-.826q.028-.367.622-.684a2.543 2.543 0 0 1 .812-.266 3.915 3.915 0 0 1 .904-.033 4.93 4.93 0 0 1 .917.16 4.856 4.856 0 0 1 .843.31l.547-.292.519.31zm-1.618.277a2.389 2.389 0 0 0-.557-.147.862.862 0 0 0-.54.093.404.404 0 0 0-.21.192.262.262 0 0 0 .005.185.451.451 0 0 0 .107.156c.048.047.082.081.102.106zm-3 2.193q.141.059.306.109a1.887 1.887 0 0 0 .33.069 1.467 1.467 0 0 0 .321.002.787.787 0 0 0 .29-.088.419.419 0 0 0 .166-.139.208.208 0 0 0 .03-.145.404.404 0 0 0-.063-.153 2.486 2.486 0 0 0-.114-.162l-.096-.119z"/><path class="9abc2ba5-e6b0-40b2-abf1-d74946667654" d="M104.577 42.78a5.05 5.05 0 0 1-.575-.035 2.29 2.29 0 0 1-1.793-.893.708.708 0 0 1 .056-.712 4.007 4.007 0 0 1 3.285-1.34 5.05 5.05 0 0 1 .575.034 2.29 2.29 0 0 1 1.793.893.708.708 0 0 1-.056.712 4.006 4.006 0 0 1-3.285 1.34z"/><path class="a28faba6-cb77-4ed6-be3f-14936b15bad1" d="M45.8 21.225l16.5-9.332 43.862 25.422-16.501 9.332z"/><path class="8bd311b6-2519-4ec0-9392-ce737b6bb171" d="M73.546 31.879a12.083 12.083 0 0 1-1.375-.083c-2.116-.254-3.76-1.072-4.29-2.136a1.693 1.693 0 0 1 .134-1.703c1.075-1.843 4.454-3.222 7.86-3.208a12.084 12.084 0 0 1 1.376.083c2.115.254 3.758 1.072 4.288 2.136a1.693 1.693 0 0 1-.134 1.703c-1.074 1.843-4.452 3.222-7.859 3.208z"/><path class="4b8f26a1-b665-4ed5-9e5a-0abfd5982ac3" d="M73.884 30.846a8.582 8.582 0 0 1-.977-.06 3.89 3.89 0 0 1-3.047-1.516 1.202 1.202 0 0 1 .095-1.21c.763-1.308 3.163-2.288 5.582-2.278a8.581 8.581 0 0 1 .978.06 3.89 3.89 0 0 1 3.045 1.516 1.202 1.202 0 0 1-.095 1.21c-.763 1.309-3.162 2.288-5.581 2.278z"/><path class="9abc2ba5-e6b0-40b2-abf1-d74946667654" d="M89.75 46.296a5.05 5.05 0 0 1-.575-.035 2.29 2.29 0 0 1-1.793-.893.708.708 0 0 1 .056-.711 4.007 4.007 0 0 1 3.285-1.341 5.05 5.05 0 0 1 .575.035 2.29 2.29 0 0 1 1.793.892.708.708 0 0 1-.056.712 4.006 4.006 0 0 1-3.285 1.34z"/><path class="da0d3de9-75de-4ccf-a664-4052150f770f" d="M61.813 15.09a5.05 5.05 0 0 1-.575-.035 2.29 2.29 0 0 1-1.793-.893.708.708 0 0 1 .056-.712 4.007 4.007 0 0 1 3.285-1.34 5.05 5.05 0 0 1 .575.034 2.29 2.29 0 0 1 1.792.893.708.708 0 0 1-.056.712 4.006 4.006 0 0 1-3.284 1.34z"/><path class="9abc2ba5-e6b0-40b2-abf1-d74946667654" d="M48.24 22.84a5.05 5.05 0 0 1-.576-.035 2.29 2.29 0 0 1-1.792-.893.708.708 0 0 1 .056-.712 4.007 4.007 0 0 1 3.285-1.34 5.05 5.05 0 0 1 .575.034 2.289 2.289 0 0 1 1.792.893.708.708 0 0 1-.056.712 4.006 4.006 0 0 1-3.285 1.34z"/><path class="f39a04af-63b4-4864-b3f9-3158e0a5dd1f" d="M83.458 32.553l8 4.636"/><path class="da0d3de9-75de-4ccf-a664-4052150f770f" d="M83.608 32.293l7.9 4.809a.101.101 0 0 1-.1.175l-8.1-4.465a.3.3 0 1 1 .289-.526z"/><path class="f39a04af-63b4-4864-b3f9-3158e0a5dd1f" d="M78.295 32.988l8 4.637"/><path class="da0d3de9-75de-4ccf-a664-4052150f770f" d="M78.446 32.729l7.9 4.809a.101.101 0 0 1-.101.174l-8.1-4.464a.3.3 0 0 1 .29-.526z"/><path class="f39a04af-63b4-4864-b3f9-3158e0a5dd1f" d="M83.744 29.982l8 4.637"/><path class="da0d3de9-75de-4ccf-a664-4052150f770f" d="M83.895 29.723l7.9 4.809a.101.101 0 0 1-.101.174l-8.1-4.464a.3.3 0 0 1 .29-.526z"/><path class="f39a04af-63b4-4864-b3f9-3158e0a5dd1f" d="M59.373 19.031l8 4.637"/><path class="da0d3de9-75de-4ccf-a664-4052150f770f" d="M59.424 18.944l8.1 4.464a.3.3 0 1 1-.29.526l-.011-.007-7.9-4.809a.101.101 0 0 1 .101-.174z"/><path class="f39a04af-63b4-4864-b3f9-3158e0a5dd1f" d="M58.608 21.349l8 4.637"/><path class="da0d3de9-75de-4ccf-a664-4052150f770f" d="M58.659 21.262l8.1 4.465a.3.3 0 1 1-.29.525l-.011-.006-7.9-4.81a.101.101 0 0 1 .1-.174z"/><path class="f39a04af-63b4-4864-b3f9-3158e0a5dd1f" d="M63.985 19.031l8 4.637"/><path class="da0d3de9-75de-4ccf-a664-4052150f770f" d="M64.036 18.944l8.1 4.464a.3.3 0 1 1-.29.526l-.011-.007-7.9-4.809a.101.101 0 0 1 .1-.174z"/><path class="bad06c74-7bb0-4faf-9a8b-5f8f6bab8d41" d="M77.884 26.926a4.321 4.321 0 0 1 .772.586 1.332 1.332 0 0 1 .42.684l-1.668.037a.702.702 0 0 0-.194-.386 2.258 2.258 0 0 0-.406-.345l-1.24.664.536.568a.974.974 0 0 1 .318.77q-.044.376-.59.668a2.832 2.832 0 0 1-.875.299 3.787 3.787 0 0 1-.94.04 4.595 4.595 0 0 1-.948-.18 5.66 5.66 0 0 1-.895-.35l-.546.293-.519-.311.547-.293a4.376 4.376 0 0 1-.893-.693 1.346 1.346 0 0 1-.417-.807l1.761.003a.59.59 0 0 0 .14.486 2.251 2.251 0 0 0 .485.436l1.318-.706-.402-.435a1.169 1.169 0 0 1-.381-.825q.028-.368.621-.685a2.543 2.543 0 0 1 .813-.265 3.915 3.915 0 0 1 .904-.034 4.93 4.93 0 0 1 .917.16 4.856 4.856 0 0 1 .843.31l.547-.292.519.31zm-1.618.278a2.389 2.389 0 0 0-.557-.148.862.862 0 0 0-.54.093.404.404 0 0 0-.21.193.262.262 0 0 0 .005.184.451.451 0 0 0 .107.157c.048.046.082.08.102.105zm-3 2.193q.141.058.306.108a1.887 1.887 0 0 0 .33.07 1.467 1.467 0 0 0 .321.001.787.787 0 0 0 .289-.088.419.419 0 0 0 .167-.138.208.208 0 0 0 .03-.146.404.404 0 0 0-.063-.153 2.484 2.484 0 0 0-.115-.161l-.095-.12z"/><path class="9abc2ba5-e6b0-40b2-abf1-d74946667654" d="M103.188 38.92a5.05 5.05 0 0 1-.575-.034 2.29 2.29 0 0 1-1.793-.893.708.708 0 0 1 .056-.711 4.007 4.007 0 0 1 3.285-1.341 5.05 5.05 0 0 1 .575.035 2.29 2.29 0 0 1 1.792.892.708.708 0 0 1-.056.712 4.006 4.006 0 0 1-3.284 1.34z"/><path class="a28faba6-cb77-4ed6-be3f-14936b15bad1" d="M47.19 18.69l16.5-9.332 43.86 25.422-16.5 9.331z"/><path class="defdf45b-892e-4e01-a2bd-76a70a443ae6" d="M74.936 29.344a12.083 12.083 0 0 1-1.376-.084c-2.116-.253-3.76-1.071-4.29-2.136a1.693 1.693 0 0 1 .135-1.702c1.074-1.843 4.453-3.222 7.859-3.208a12.082 12.082 0 0 1 1.376.083c2.115.253 3.758 1.072 4.288 2.136a1.693 1.693 0 0 1-.134 1.703c-1.074 1.843-4.452 3.222-7.858 3.208z"/><path class="9abc2ba5-e6b0-40b2-abf1-d74946667654" d="M91.14 43.76a5.05 5.05 0 0 1-.576-.034 2.29 2.29 0 0 1-1.792-.893.708.708 0 0 1 .056-.712 4.007 4.007 0 0 1 3.285-1.34 5.05 5.05 0 0 1 .575.034 2.29 2.29 0 0 1 1.792.893.708.708 0 0 1-.056.712 4.006 4.006 0 0 1-3.285 1.34zM63.202 12.554a5.05 5.05 0 0 1-.575-.035 2.29 2.29 0 0 1-1.793-.892.708.708 0 0 1 .056-.712 4.007 4.007 0 0 1 3.285-1.34 5.05 5.05 0 0 1 .575.034 2.29 2.29 0 0 1 1.792.893.708.708 0 0 1-.055.711 4.006 4.006 0 0 1-3.285 1.341zm-13.573 7.75a5.05 5.05 0 0 1-.576-.035 2.29 2.29 0 0 1-1.792-.892.708.708 0 0 1 .056-.712 4.007 4.007 0 0 1 3.285-1.34 5.05 5.05 0 0 1 .575.034 2.29 2.29 0 0 1 1.792.893.708.708 0 0 1-.056.711 4.006 4.006 0 0 1-3.284 1.341zm35.368 9.454l7.9 4.809a.1.1 0 0 1-.1.174l-8.1-4.464a.3.3 0 0 1 .29-.526zm-5.162.435l7.9 4.81a.101.101 0 0 1-.101.174l-8.1-4.465a.3.3 0 0 1 .29-.525zm5.449-3.006l7.9 4.81a.101.101 0 0 1-.101.174l-8.1-4.465a.3.3 0 0 1 .29-.525zM60.813 16.408l8.1 4.465a.3.3 0 0 1-.29.526l-.01-.007-7.901-4.809a.101.101 0 0 1 .101-.175zm-.765 2.319l8.1 4.464a.3.3 0 0 1-.29.526l-.011-.006-7.9-4.81a.101.101 0 0 1 .1-.174zm5.377-2.319l8.1 4.465a.3.3 0 0 1-.29.526l-.011-.007-7.9-4.809a.101.101 0 0 1 .1-.175z"/><path class="bad06c74-7bb0-4faf-9a8b-5f8f6bab8d41" d="M79.273 24.39a4.322 4.322 0 0 1 .772.587 1.332 1.332 0 0 1 .42.684l-1.668.036a.702.702 0 0 0-.194-.385 2.258 2.258 0 0 0-.406-.345l-1.24.663.536.57a.974.974 0 0 1 .318.769q-.044.376-.59.668a2.832 2.832 0 0 1-.875.299 3.786 3.786 0 0 1-.94.039 4.595 4.595 0 0 1-.947-.18 5.663 5.663 0 0 1-.895-.35l-.547.293-.519-.31.547-.293a4.376 4.376 0 0 1-.893-.694 1.346 1.346 0 0 1-.417-.806l1.761.002a.59.59 0 0 0 .14.487 2.251 2.251 0 0 0 .485.435l1.318-.705-.402-.435a1.169 1.169 0 0 1-.381-.826q.028-.367.622-.684a2.543 2.543 0 0 1 .812-.266 3.915 3.915 0 0 1 .904-.033 4.93 4.93 0 0 1 .917.16 4.855 4.855 0 0 1 .843.31l.547-.292.519.31zm-1.618.279a2.389 2.389 0 0 0-.557-.148.862.862 0 0 0-.54.093.404.404 0 0 0-.21.192.262.262 0 0 0 .005.185.451.451 0 0 0 .107.156c.048.047.082.082.102.106zm-3 2.193q.141.058.306.108a1.887 1.887 0 0 0 .33.069 1.466 1.466 0 0 0 .321.002.787.787 0 0 0 .29-.088.419.419 0 0 0 .166-.139.208.208 0 0 0 .03-.145.404.404 0 0 0-.063-.153 2.486 2.486 0 0 0-.114-.162l-.096-.118z"/><path class="9abc2ba5-e6b0-40b2-abf1-d74946667654" d="M104.577 36.385a5.05 5.05 0 0 1-.575-.034 2.29 2.29 0 0 1-1.793-.893.708.708 0 0 1 .056-.712 4.007 4.007 0 0 1 3.285-1.34 5.05 5.05 0 0 1 .575.034 2.29 2.29 0 0 1 1.793.893.708.708 0 0 1-.056.712 4.006 4.006 0 0 1-3.285 1.34z"/></svg>