<?xml version="1.0" encoding="utf-8"?>
<!-- Generator: Adobe Illustrator 20.1.0, SVG Export Plug-In . SVG Version: 6.00 Build 0)  -->
<svg version="1.1" id="Calque_1" xmlns="http://www.w3.org/2000/svg" xmlns:xlink="http://www.w3.org/1999/xlink" x="0px" y="0px"
	 viewBox="0 0 300 300" style="enable-background:new 0 0 300 300;" xml:space="preserve">
<title>altcoinomy</title>
<desc>Created with Sketch.</desc>
<g>
	<path id="Fill-1" d="M54.6,154.5l-4.3-10.9l-4.1,10.9H54.6z M67.7,164.4L67.7,164.4l-13.6,0.1v-0.1c2.4-0.9,3.4-2.7,2.2-5.6
		l-1.1-2.7h-9.7l-1,2.8c-1.1,2.9-0.3,4.7,2.1,5.6v0.1H39v-0.1c1.4-1.1,2.7-3.1,3.8-6l9.9-24.9h0.2l10.3,24.2
		C64.8,161.7,66.2,163.6,67.7,164.4z"/>
	<path id="Fill-4" d="M68.1,164.4c2.2-1.2,2.3-2.9,2.3-5.2v-19.7c0-2.3-0.1-4-2.3-5.2v-0.1h8.3v25c0,2.3,0.1,4,2.3,5.2v0.1
		L68.1,164.4L68.1,164.4z"/>
	<path id="Fill-6" d="M82.2,156.6v-12.2h-2.4V143c3-0.4,6.3-3.4,8.4-7.4h0.1v7.3H92v1.5h-3.7v12.9c0,3.4,0.5,4.9,5,7.1v0.1
		C82.1,165.1,82.2,161.8,82.2,156.6"/>
	<path id="Fill-8" d="M92.9,153.8c0-7.5,5.4-11.3,10-11.3c3,0,5.8,1.7,7.4,5.1l-6.8,3.4h-0.1c0.9-2.9,0.3-7-1.5-7
		c-1.4,0-2.9,2.2-2.9,7.2c0,6.5,3.2,8.8,5.9,8.8c2,0,4-1,5.7-2.7h0.1c-1,3.2-4.1,7.5-8.4,7.5C97.9,164.8,92.9,161.3,92.9,153.8"/>
	<path id="Fill-10" d="M126.7,156.2c0-7-2.6-12.5-5.2-12.5c-1.4,0-2.9,2.5-2.9,7.6c0,7,2.6,12.5,5.2,12.5
		C125.1,163.8,126.7,161.3,126.7,156.2 M112.2,153.8c0-7.5,5.5-11.3,10.3-11.3c4.4,0,10.5,3.5,10.5,11.2c0,7.5-5.5,11.3-10.4,11.3
		C118.3,165,112.2,161.5,112.2,153.8"/>
	<path id="Fill-12" d="M136.1,137.2c0-1.8,1.5-3.3,3.4-3.3s3.4,1.5,3.4,3.3c0,1.9-1.5,3.3-3.4,3.3S136.1,139.1,136.1,137.2z
		 M134.4,164.4c2.2-1.2,2.3-2.9,2.3-5.2v-11c0-2.3-0.1-4-2.3-5.2v-0.1h8.3v16.4c0,2.3,0.1,4,2.3,5.2v0.1L134.4,164.4L134.4,164.4z"
		/>
	<path id="Fill-14" d="M167.9,164.4L167.9,164.4l-10.2,0.1v-0.1c1.7-1,1.9-2.9,1.9-5.2V148c0-1.4-0.5-2.7-1.9-2.7
		c-0.8,0-1.8,0.3-3.1,1.3v12.7c0,2.3,0.1,4.2,1.9,5.2v0.1h-10.2v-0.1c2.2-1.2,2.3-2.9,2.3-5.2v-11.1c0-2.3-0.1-4-2.3-5.2v-0.1h8.3
		v2.3c1.7-1.1,4.5-2.5,7.2-2.5c2.9,0,3.8,1.7,3.8,3.6v13C165.6,161.5,165.7,163.3,167.9,164.4"/>
	<path id="Fill-16" d="M183.6,156.2c0-7-2.6-12.5-5.2-12.5c-1.4,0-2.9,2.5-2.9,7.6c0,7,2.6,12.5,5.2,12.5
		C182.1,163.8,183.6,161.3,183.6,156.2 M169.1,153.8c0-7.5,5.5-11.3,10.3-11.3c4.4,0,10.4,3.5,10.4,11.2c0,7.5-5.5,11.3-10.4,11.3
		C175.2,165,169.1,161.5,169.1,153.8"/>
	<path id="Fill-18" d="M224,164.4L224,164.4l-10.2,0.1v-0.1c1.7-1,1.9-2.9,1.9-5.2V148c0-1.4-0.5-2.7-1.9-2.7
		c-0.8,0-1.8,0.3-3.1,1.2v12.8c0,2.3,0.1,4.1,1.9,5.2v0.1h-9.8v-0.1c1.7-1,1.9-2.9,1.9-5.2V148c0-1.4-0.5-2.7-1.9-2.7
		c-0.8,0-1.8,0.3-3.1,1.2v12.8c0,2.3,0.1,4.2,1.9,5.2v0.1h-10.2v-0.1c2.2-1.2,2.3-2.9,2.3-5.2v-11.1c0-2.3-0.1-4-2.3-5.2v-0.1h8.3
		v2.3c1.7-1.1,4.5-2.5,7.2-2.5c2.3,0,3.4,1.1,3.7,2.6c1.7-1,4.6-2.6,7.3-2.6c2.9,0,3.8,1.7,3.8,3.6v13
		C221.7,161.5,221.8,163.3,224,164.4"/>
	<path id="Fill-20" d="M242.5,142.9L242.5,142.9c-0.9,0.8-1.5,2.4-2.5,5l-6.1,16c-2.3,6.1-4.3,8.9-8.3,8.9c-0.4,0-0.9,0-1.1-0.1
		l-0.4-7.4h0.1c0.9,1.1,2.3,1.9,4,1.9c2,0,3.4-0.9,4.4-3.6l-6.3-15.4c-0.9-2.2-1.9-4.5-2.8-5.2v-0.1h10.2v0.1
		c-2.5,0.9-2.4,2.3-1.5,4.5l3.3,8.6l3.1-8.4c0.9-2.4,0.9-3.9-1.4-4.7v-0.1C237.2,142.9,242.5,142.9,242.5,142.9z"/>
	<g>
		<path d="M247.8,129.5h4.7v1.4h-3.2v1.4h2.9v1.4h-2.9v2.8h-1.6V129.5z"/>
		<path d="M253.7,129.5h1.6v5.6h2.9v1.4h-4.4V129.5z"/>
		<path d="M262.5,129.3c2.2,0,3.8,1.4,3.8,3.7s-1.6,3.7-3.8,3.7c-2.2,0-3.8-1.4-3.8-3.7S260.2,129.3,262.5,129.3z M262.5,135.3
			c1.3,0,2.2-1,2.2-2.3s-0.9-2.3-2.2-2.3c-1.3,0-2.2,1-2.2,2.3S261.1,135.3,262.5,135.3z"/>
		<path d="M266.6,129.5h1.7l1.1,4.5h0l1.5-4.5h1.4l1.5,4.7h0l1.2-4.7h1.6l-2.1,7.1h-1.4l-1.6-4.9h0l-1.6,4.9h-1.3L266.6,129.5z"/>
	</g>
</g>
</svg>
