<?xml version="1.0" encoding="utf-8"?>
<!-- Generator: Adobe Illustrator 19.1.0, SVG Export Plug-In . SVG Version: 6.00 Build 0)  -->
<svg version="1.1" id="Layer_1" xmlns="http://www.w3.org/2000/svg" xmlns:xlink="http://www.w3.org/1999/xlink" x="0px" y="0px"
	 viewBox="0 0 500 500" style="enable-background:new 0 0 500 500;" xml:space="preserve">
<style type="text/css">
	.st0{fill:#494949;}
	.st1{fill:#EA4E4E;}
	.st2{fill:url(#SVGID_1_);}
	.st3{fill:none;stroke:#494949;stroke-width:3;stroke-linecap:round;stroke-linejoin:round;stroke-miterlimit:10;}
	.st4{fill:#F0E3D1;}
	.st5{fill:#A59A8C;}
	.st6{fill:none;stroke:url(#SVGID_2_);stroke-width:2;stroke-linecap:round;stroke-miterlimit:10;}
	.st7{opacity:0.7;fill:url(#SVGID_3_);}
	.st8{fill:url(#SVGID_4_);}
	.st9{fill:url(#SVGID_5_);}
	.st10{fill:url(#SVGID_6_);}
</style>
<g>
	<g>
		<g>
			<path class="st0" d="M226.4,243.5l-123.2,72c-1,0.6-2.2,0.2-2.7-0.7s-0.2-2.2,0.7-2.7l0,0l124-70.7c0.6-0.3,1.3-0.1,1.7,0.5
				C227.2,242.4,227,243.2,226.4,243.5z"/>
		</g>
	</g>
	<g>
		<g>
			<g>
				<path class="st1" d="M308.6,171.6l120.9-68.5c0.9-0.5,2-0.2,2.5,0.7c0.5,0.9,0.2,2-0.7,2.5l-119.7,70.5
					c-1.4,0.8-3.3,0.4-4.1-1.1C306.6,174.3,307.1,172.5,308.6,171.6C308.5,171.6,308.6,171.6,308.6,171.6z"/>
			</g>
		</g>
	</g>
	<g>
		<path class="st1" d="M431.4,42.9l2,56.2c0.1,1.7-1.2,3-2.9,3.1c-1.7,0.1-3-1.2-3.1-2.9c0-0.1,0-0.1,0-0.2l2-56.2c0-0.6,0.5-1,1-1
			C431,42,431.4,42.4,431.4,42.9z"/>
	</g>
	<path class="st1" d="M141.6,268c11.4-6.6,18.5-18.8,18.5-32v-28.2l57.8-33.4l10.1-45.5c0.5-2.2,2.2-4,4.5-4.5
		c3.2-0.7,6.4,1.3,7.1,4.5l6.5,29.2l5.9-3.4c34.2-19.7,76.9,4.9,76.9,44.4c0,35-18.7,67.3-49,84.8l-58.1,33.5
		c-38.2,22.1-85-1.2-93-42.1L141.6,268z"/>
	
		<linearGradient id="SVGID_1_" gradientUnits="userSpaceOnUse" x1="6655.6157" y1="253.2694" x2="6752.3291" y2="253.2694" gradientTransform="matrix(-1 0 0 1 6881.4126 0)">
		<stop  offset="0" style="stop-color:#494949;stop-opacity:0.5"/>
		<stop  offset="1" style="stop-color:#F8CCAC"/>
	</linearGradient>
	<path class="st2" d="M174.9,304.2c-20.2,0-37.6-11.9-45.8-29l12.5-7.2c11.4-6.6,18.5-18.8,18.5-32v-28.2l4.5-2.6l4.1-2.4
		c2.1-0.3,4.2-0.4,6.3-0.4c28.1,0,50.9,22.8,50.9,50.9S203,304.2,174.9,304.2z"/>
	<g>
		<g>
			<g>
				<path class="st0" d="M274,220.8l30-17.3c5.3-3.1,12,0.8,12,6.9v0c0,16.7-8.9,32.1-23.4,40.5l-33.2,19.2v-23.9
					C259.4,235.7,265,226,274,220.8z"/>
			</g>
		</g>
	</g>
	<g>
		<g>
			<path class="st0" d="M361,319.5L238,391.7c-1.2,0.7-2.7,0.3-3.4-0.9c-0.7-1.2-0.3-2.7,0.9-3.4c0,0,0,0,0,0l124-70.5
				c0.7-0.4,1.7-0.2,2.1,0.6C362,318.2,361.8,319.1,361,319.5z"/>
		</g>
		<path class="st3" d="M293.4,267.4c2.9,1.7,5.6,3.6,8.2,5.6"/>
		<g>
			<path class="st4" d="M304.8,274.6c0,0,0.7,0.7,1.9,1.8c0.6,0.6,1.3,1.3,2.2,2.2c0.9,0.8,1.7,1.9,2.7,3c0.5,0.5,0.9,1.2,1.4,1.8
				c0.5,0.6,1,1.3,1.5,2c0.5,0.7,1,1.4,1.5,2.1c0.5,0.8,1,1.5,1.4,2.3c0.5,0.8,0.9,1.6,1.4,2.4c0.5,0.8,0.9,1.7,1.3,2.6
				c0.4,0.9,0.9,1.7,1.2,2.6c0.4,0.9,0.8,1.8,1.1,2.7c0.3,0.9,0.7,1.8,1,2.8c0.3,0.9,0.6,1.9,0.9,2.8c0.5,1.9,1,3.7,1.3,5.5
				c0.2,0.9,0.4,1.8,0.5,2.7c0.1,0.9,0.3,1.7,0.3,2.6c0.2,1.7,0.3,3.3,0.3,4.8c0.1,1.5,0.1,2.8,0.1,4c0,1.2,0,2.2,0,3
				c0,1.7,0,2.7,0,2.7c0,0.8-0.7,1.5-1.5,1.5c-0.8,0-1.5-0.7-1.5-1.5c0,0,0,0,0,0c0,0,0-1,0-2.7c0-0.8,0-1.9,0-3c0-1.2,0-2.5,0-3.9
				c0-1.4-0.1-2.9-0.2-4.6c-0.1-0.8-0.2-1.6-0.3-2.5c-0.1-0.8-0.2-1.7-0.4-2.6c-0.3-1.8-0.7-3.5-1.2-5.3c-0.3-0.9-0.5-1.8-0.8-2.7
				c-0.3-0.9-0.6-1.8-0.9-2.7c-0.3-0.9-0.7-1.8-1-2.6c-0.3-0.9-0.7-1.7-1.1-2.6c-0.4-0.8-0.8-1.7-1.2-2.5c-0.4-0.8-0.8-1.6-1.3-2.4
				c-0.5-0.8-0.9-1.5-1.3-2.2c-0.5-0.7-0.9-1.4-1.4-2.1c-0.4-0.7-0.9-1.3-1.4-1.9c-0.5-0.6-0.9-1.2-1.4-1.8
				c-0.9-1.1-1.7-2.1-2.5-2.9c-0.8-0.8-1.4-1.6-2.1-2.2c-1.2-1.2-1.9-1.8-1.9-1.8c-0.4-0.4-0.4-0.9,0-1.3
				C303.8,274.2,304.4,274.2,304.8,274.6z"/>
		</g>
		<g>
			<path class="st5" d="M321.8,321.4l-49.5,28.8c-0.2,0.1-0.5,0.1-0.7-0.2c-0.1-0.2-0.1-0.5,0.2-0.7l0,0l49.7-28.5
				c0.1-0.1,0.3,0,0.4,0.1C322,321.1,322,321.3,321.8,321.4z"/>
		</g>
		<path class="st3" d="M239.4,297.8c2.9,1.7,5.6,3.6,8.2,5.6"/>
		<g>
			<path class="st4" d="M250.9,305.2c0,0,0.7,0.7,1.9,1.8c0.6,0.6,1.3,1.3,2.2,2.2c0.9,0.8,1.7,1.9,2.7,3c0.5,0.5,0.9,1.2,1.4,1.8
				c0.5,0.6,1,1.3,1.5,2c0.5,0.7,1,1.4,1.5,2.1c0.5,0.7,0.9,1.5,1.4,2.3c0.5,0.8,0.9,1.6,1.4,2.4c0.5,0.8,0.9,1.7,1.3,2.5
				c0.4,0.9,0.9,1.7,1.2,2.6c0.4,0.9,0.8,1.8,1.1,2.7c0.3,0.9,0.7,1.8,1,2.8c0.3,0.9,0.6,1.9,0.9,2.8c0.5,1.9,1,3.7,1.3,5.5
				c0.1,0.5,0.2,0.9,0.3,1.3c0.1,0.4,0.1,0.9,0.2,1.3c0.1,0.9,0.3,1.7,0.3,2.6c0.2,1.7,0.3,3.3,0.3,4.7c0.1,1.5,0.1,2.8,0.1,4
				c0,1.2,0,2.2,0,3c0,1.7,0,2.6,0,2.6c0,0.8-0.7,1.5-1.5,1.5c-0.8,0-1.5-0.7-1.5-1.5c0,0,0,0,0,0c0,0,0-1,0-2.6c0-0.8,0-1.9,0-3
				c0-1.2,0-2.5,0-3.9c0-1.4-0.1-2.9-0.2-4.5c-0.1-0.8-0.2-1.6-0.3-2.5c-0.1-0.4-0.1-0.8-0.2-1.3c-0.1-0.4-0.2-0.9-0.2-1.3
				c-0.3-1.7-0.7-3.5-1.1-5.3c-0.3-0.9-0.5-1.8-0.8-2.7c-0.3-0.9-0.6-1.8-0.9-2.7c-0.3-0.9-0.7-1.8-1-2.6c-0.3-0.9-0.7-1.7-1.1-2.6
				c-0.4-0.8-0.8-1.7-1.2-2.5c-0.4-0.8-0.8-1.6-1.3-2.4c-0.5-0.8-0.9-1.5-1.3-2.2c-0.5-0.7-0.9-1.4-1.4-2.1
				c-0.4-0.7-0.9-1.3-1.4-1.9c-0.5-0.6-0.9-1.2-1.3-1.8c-0.9-1.1-1.7-2.1-2.5-2.9c-0.8-0.8-1.4-1.6-2-2.2c-1.2-1.2-1.9-1.8-1.9-1.8
				c-0.4-0.4-0.4-0.9,0-1.3C250,304.9,250.6,304.9,250.9,305.2z"/>
		</g>
	</g>
	
		<linearGradient id="SVGID_2_" gradientUnits="userSpaceOnUse" x1="6433.8755" y1="105.5516" x2="6442.6963" y2="105.5516" gradientTransform="matrix(-1 0 0 1 6881.4126 0)">
		<stop  offset="0" style="stop-color:#E23C3F"/>
		<stop  offset="1" style="stop-color:#EA4E4E"/>
	</linearGradient>
	<path class="st6" d="M439.7,103.2c2.4,1.4,4.7,3,6.8,4.7"/>
	<g>
		<g>
			<g>
				<g>
					<path class="st5" d="M228.4,225.5l80.1-46.4c0.1-0.1,0.3,0,0.3,0.1c0.1,0.1,0,0.3-0.1,0.3l0,0l-80.2,46.1c0,0-0.1,0-0.1,0
						C228.4,225.6,228.4,225.5,228.4,225.5z"/>
				</g>
			</g>
		</g>
		<g>
			<g>
				<g>
					<path class="st5" d="M331.5,168.3l80.1-46.4c0.1-0.1,0.3,0,0.3,0.1s0,0.3-0.1,0.3l0,0l-80.2,46.1c0,0-0.1,0-0.1,0
						C331.4,168.3,331.4,168.3,331.5,168.3z"/>
				</g>
			</g>
		</g>
		<g>
			<g>
				<g>
					<path class="st5" d="M214.8,309.3l12-7.1c0.1-0.1,0.3,0,0.3,0.1c0.1,0.1,0,0.3-0.1,0.3c0,0,0,0,0,0l-12.1,6.8c0,0-0.1,0-0.1,0
						C214.8,309.4,214.8,309.3,214.8,309.3z"/>
					<path class="st5" d="M254.2,286.6l25.9-15.1c0.1-0.1,0.3,0,0.3,0.1c0.1,0.1,0,0.3-0.1,0.3c0,0,0,0,0,0l-26,14.8
						c0,0-0.1,0-0.1,0C254.1,286.6,254.1,286.6,254.2,286.6z"/>
				</g>
			</g>
		</g>
		<g>
			<path class="st5" d="M243.5,234.6l0.2,45.8c0,0.1-0.1,0.3-0.2,0.3c-0.1,0-0.3-0.1-0.3-0.2v0l0.2-45.8
				C243.3,234.5,243.4,234.5,243.5,234.6C243.5,234.5,243.5,234.5,243.5,234.6z"/>
		</g>
		<g>
			<path class="st5" d="M213.2,184.7l-25.9,15.1c-0.1,0-0.2,0-0.2-0.1s0-0.2,0.1-0.2l0,0L213.2,184.7
				C213.2,184.6,213.2,184.6,213.2,184.7C213.2,184.6,213.2,184.7,213.2,184.7z"/>
		</g>
	</g>
	
		<linearGradient id="SVGID_3_" gradientUnits="userSpaceOnUse" x1="6386.9956" y1="109.6695" x2="6476.3022" y2="109.6695" gradientTransform="matrix(-1 0 0 1 6881.4126 0)">
		<stop  offset="0" style="stop-color:#F0E3D1;stop-opacity:0"/>
		<stop  offset="1" style="stop-color:#F0E3D1"/>
	</linearGradient>
	<path class="st7" d="M494.4,83.9c0,24.7-20,56.2-44.7,70.4c-24.7,14.2-44.7,5.8-44.7-18.9s20-56.2,44.7-70.4S494.4,59.2,494.4,83.9
		z"/>
	<path class="st0" d="M127.2,263.1c0-22.5,12-43.3,31.5-54.5l10-5.8c2.1-0.3,4.2-0.4,6.3-0.4c28.1,0,50.9,22.8,50.9,50.9
		s-22.8,50.9-50.9,50.9c-21.1,0-39.2-12.8-46.9-31.1C127.5,269.8,127.2,266.5,127.2,263.1L127.2,263.1z"/>
	
		<linearGradient id="SVGID_4_" gradientUnits="userSpaceOnUse" x1="-7938.668" y1="254.9052" x2="-8027.1411" y2="11.8266" gradientTransform="matrix(1 0 0 1 8212.5166 0)">
		<stop  offset="0.3637" style="stop-color:#F0E3D1;stop-opacity:0.1"/>
		<stop  offset="1" style="stop-color:#F0E3D1"/>
	</linearGradient>
	<path class="st8" d="M433.8,156.9c-39.1,67.7-162.1,111.9-274.9,98.9c-112.8-13-172.5-78.4-133.4-146.1S187.6-2.2,300.3,10.9
		S472.8,89.3,433.8,156.9z"/>
	<path class="st1" d="M142,292c8.8,7.6,20.3,12.2,32.9,12.2c13.2,0,25.1-5,34.2-13.2v29.9h-43.6c-9-3.9-17-9.8-23.4-17.3V292z"/>
	<g>
		<path class="st1" d="M195.3,203.8c0,0-6.4,3.6-16,9c-1.2,0.7-2.4,1.4-3.7,2.1c-1.3,0.7-2.5,1.6-3.8,2.5c-1.3,0.9-2.6,1.9-3.9,2.8
			c-1.3,1.1-2.6,2.1-3.8,3.2c-2.6,2.3-5,4.8-7.3,7.6c-2.3,2.7-4.4,5.7-6.3,8.8c-1.9,3.1-3.5,6.4-5,9.6c-1.4,3.3-2.5,6.7-3.4,9.9
			c-0.9,3.3-1.5,6.5-1.9,9.6c-0.4,3.1-0.6,6-0.6,8.8c0,5.5,0.5,10,1,13.1c0.3,1.6,0.5,2.8,0.7,3.6c0.2,0.8,0.2,1.3,0.2,1.3l-1.3,0.2
			c0,0-0.1-0.4-0.2-1.3c-0.2-0.8-0.4-2.1-0.7-3.7c-0.5-3.2-1.1-7.8-1-13.3c0-2.8,0.2-5.8,0.7-8.9c0.4-3.1,1.1-6.4,2-9.8
			c1-3.3,2.1-6.7,3.5-10.1c1.5-3.3,3.1-6.6,5.1-9.7c2-3.1,4.1-6.2,6.5-8.9c2.3-2.8,4.8-5.4,7.4-7.6c1.3-1.2,2.6-2.2,3.9-3.3
			c1.3-1,2.6-2,4-2.9c1.3-0.9,2.6-1.7,3.9-2.5c1.3-0.8,2.5-1.5,3.7-2.1c9.6-5.3,16-8.9,16-8.9L195.3,203.8z"/>
	</g>
	
		<linearGradient id="SVGID_5_" gradientUnits="userSpaceOnUse" x1="6596.501" y1="195.7104" x2="6671.3062" y2="195.7104" gradientTransform="matrix(-1 0 0 1 6881.4126 0)">
		<stop  offset="0" style="stop-color:#A59A8C;stop-opacity:0"/>
		<stop  offset="1" style="stop-color:#A59A8C"/>
	</linearGradient>
	<path class="st9" d="M210.1,205.7l60.9-31.5l13.9,8.1l-60.4,34.9C220.5,212.6,215.6,208.6,210.1,205.7z"/>
	
		<linearGradient id="SVGID_6_" gradientUnits="userSpaceOnUse" x1="6618.4214" y1="126.6202" x2="6677.1455" y2="126.6202" gradientTransform="matrix(-1 0 0 1 6881.4126 0)">
		<stop  offset="0" style="stop-color:#F0E3D1"/>
		<stop  offset="1" style="stop-color:#F0E3D1"/>
	</linearGradient>
	<path class="st10" d="M205.9,129.8c5.3,9.2,22,15.2,37.3,13.4c15.3-1.8,23.4-10.7,18.1-19.8c-5.3-9.2-22-15.2-37.3-13.4
		S200.6,120.6,205.9,129.8z"/>
</g>
</svg>
