<svg id="Layer_1" xmlns="http://www.w3.org/2000/svg" xmlns:xlink="http://www.w3.org/1999/xlink" width="90.5" height="103" viewBox="0 0 90.5 103"><style>.st0{clip-path:url(#SVGID_47_);fill:url(#SVGID_49_)}.st1{clip-path:url(#SVGID_66_);fill:#494949}.st2{clip-path:url(#SVGID_113_);fill:#f0e3d1}.st3{clip-path:url(#SVGID_11_);fill:#fff}.st4{clip-path:url(#SVGID_25_);fill:#f0e3d1}.st5{clip-path:url(#SVGID_4_);fill:#d39b5e}.st6,.st7{clip-path:url(#SVGID_124_);fill:#a59a8c}.st7{clip-path:url(#SVGID_36_)}.st8{clip-path:url(#SVGID_15_);fill:url(#SVGID_17_)}.st9{filter:url(#Adobe_OpacityMaskFilter)}.st10,.st11{clip-path:url(#SVGID_83_);fill:#494949}.st11{clip-path:url(#SVGID_68_)}.st12{clip-path:url(#SVGID_115_);fill:#f0e3d1}.st13{clip-path:url(#SVGID_83_);fill:#e23c3f}.st14{clip-path:url(#SVGID_78_);fill:url(#SVGID_80_)}.st15{clip-path:url(#SVGID_87_);mask:url(#SVGID_88_);fill:url(#SVGID_90_)}.st16{clip-path:url(#SVGID_101_);mask:url(#SVGID_102_);fill:url(#SVGID_104_)}.st17{clip-path:url(#SVGID_6_);fill:url(#SVGID_8_)}.st18{clip-path:url(#SVGID_108_);mask:url(#SVGID_109_);fill:url(#SVGID_111_)}.st19{filter:url(#Adobe_OpacityMaskFilter_10_)}.st20{filter:url(#Adobe_OpacityMaskFilter_11_)}.st21{filter:url(#Adobe_OpacityMaskFilter_12_)}.st22,.st23{clip-path:url(#SVGID_25_);fill:url(#SVGID_26_)}.st23{fill:none;stroke:#a59a8c;stroke-width:3;stroke-linecap:round;stroke-linejoin:round;stroke-miterlimit:10}.st24{clip-path:url(#SVGID_40_);fill:url(#SVGID_42_)}.st25{clip-path:url(#SVGID_28_);fill:#a59a8c}.st26{clip-path:url(#SVGID_101_);fill:url(#SVGID_103_)}.st27{clip-path:url(#SVGID_83_);fill:#ea4e4e}.st28{clip-path:url(#SVGID_61_);fill:url(#SVGID_63_)}.st29{clip-path:url(#SVGID_76_);fill:#f8cbac}.st30{clip-path:url(#SVGID_11_);fill:#a59a8c}.st31{clip-path:url(#SVGID_2_)}.st32{clip-path:url(#SVGID_78_);mask:url(#SVGID_79_);fill:url(#SVGID_81_)}.st33{clip-path:url(#SVGID_83_);fill:#f0e3d1}.st34,.st35{opacity:.5;clip-path:url(#SVGID_25_)}.st35{clip-path:url(#SVGID_57_)}.st36,.st37{opacity:.5;clip-path:url(#SVGID_66_)}.st37{clip-path:url(#SVGID_83_)}.st38{clip-path:url(#SVGID_61_);mask:url(#SVGID_62_);fill:url(#SVGID_64_)}.st39{clip-path:url(#SVGID_83_);fill:#f8cbac}.st40{clip-path:url(#SVGID_40_);mask:url(#SVGID_41_);fill:url(#SVGID_43_)}.st41{clip-path:url(#SVGID_119_);mask:url(#SVGID_120_);fill:url(#SVGID_122_)}.st42{clip-path:url(#SVGID_15_);mask:url(#SVGID_16_);fill:url(#SVGID_18_)}.st43{clip-path:url(#SVGID_25_);fill:#a59a8c}.st44{clip-path:url(#SVGID_47_);mask:url(#SVGID_48_);fill:url(#SVGID_50_)}.st45{clip-path:url(#SVGID_25_);fill:#dbcebf}.st46{clip-path:url(#SVGID_108_);fill:url(#SVGID_110_)}.st47{clip-path:url(#SVGID_83_);fill:none;stroke:#f8cbac;stroke-width:.3;stroke-linecap:round;stroke-miterlimit:10}.st48{clip-path:url(#SVGID_30_);fill:#a59a8c}.st49{clip-path:url(#SVGID_83_);fill:#fca98f}.st50{clip-path:url(#SVGID_11_);fill:#ea4e4e}.st51{clip-path:url(#SVGID_83_);fill:#fff}.st52{clip-path:url(#SVGID_94_);mask:url(#SVGID_95_);fill:url(#SVGID_97_)}.st53{clip-path:url(#SVGID_106_)}.st54{clip-path:url(#SVGID_117_)}.st55{clip-path:url(#SVGID_87_);fill:url(#SVGID_89_)}.st56{clip-path:url(#SVGID_20_);mask:url(#SVGID_21_);fill:url(#SVGID_23_)}.st57{clip-path:url(#SVGID_52_);mask:url(#SVGID_53_);fill:url(#SVGID_55_)}.st58{clip-path:url(#SVGID_4_);fill:#c49153}.st59{clip-path:url(#SVGID_32_);fill:#a59a8c}.st60{clip-path:url(#SVGID_59_);fill:#494949}.st61{clip-path:url(#SVGID_83_);fill:none;stroke:#c49153;stroke-width:.4;stroke-linecap:round;stroke-miterlimit:10}.st62{clip-path:url(#SVGID_52_);fill:url(#SVGID_54_)}.st63{clip-path:url(#SVGID_11_);fill:#f0e3d1}.st64{clip-path:url(#SVGID_6_);mask:url(#SVGID_7_);fill:url(#SVGID_9_)}.st65{clip-path:url(#SVGID_11_)}.st66{clip-path:url(#SVGID_13_)}.st67{clip-path:url(#SVGID_25_)}.st68{clip-path:url(#SVGID_38_)}.st69{clip-path:url(#SVGID_45_)}.st70{clip-path:url(#SVGID_83_)}.st71{clip-path:url(#SVGID_85_)}.st72{clip-path:url(#SVGID_92_)}.st73{clip-path:url(#SVGID_99_)}.st74{clip-path:url(#SVGID_70_);fill:url(#SVGID_71_)}.st75{clip-path:url(#SVGID_73_);fill:url(#SVGID_74_)}.st76{clip-path:url(#SVGID_119_);fill:url(#SVGID_121_)}.st77{clip-path:url(#SVGID_94_);fill:url(#SVGID_96_)}.st78{clip-path:url(#SVGID_20_);fill:url(#SVGID_22_)}.st79{clip-path:url(#SVGID_76_);fill:#494949}.st80{clip-path:url(#SVGID_34_);fill:#a59a8c}.st81{filter:url(#Adobe_OpacityMaskFilter_1_)}.st82{filter:url(#Adobe_OpacityMaskFilter_2_)}.st83{filter:url(#Adobe_OpacityMaskFilter_3_)}.st84{filter:url(#Adobe_OpacityMaskFilter_4_)}.st85{filter:url(#Adobe_OpacityMaskFilter_5_)}.st86{filter:url(#Adobe_OpacityMaskFilter_6_)}.st87{filter:url(#Adobe_OpacityMaskFilter_7_)}.st88{filter:url(#Adobe_OpacityMaskFilter_8_)}.st89{filter:url(#Adobe_OpacityMaskFilter_9_)}</style><defs><path id="SVGID_1_" d="M0 0h90.5v103H0z"/></defs><clipPath id="SVGID_2_"><use xlink:href="#SVGID_1_" overflow="visible"/></clipPath><g class="st31"><defs><path id="SVGID_3_" d="M0 0h90.5v103H0z"/></defs><clipPath id="SVGID_4_"><use xlink:href="#SVGID_3_" overflow="visible"/></clipPath><path class="st5" d="M72.1 94.3c-3.3 5.7-13.5 9.4-23 8.3-9.4-1.1-14.4-6.6-11.1-12.2 3.3-5.7 13.5-9.4 23-8.3 9.4 1.1 14.4 6.6 11.1 12.2"/><path class="st5" d="M73.1 87.2v4L37 94.1V90z"/><path class="st58" d="M72.1 90.5c-3.3 5.7-13.5 9.4-23 8.3-9.4-1.1-14.4-6.6-11.1-12.2 3.3-5.7 13.5-9.4 23-8.3 9.4 1.1 14.4 6.5 11.1 12.2"/></g><g class="st31"><defs><path id="SVGID_5_" d="M40.1 87.8c-.8 1.4-.9 2.6-.3 3.8 1.2 2.4 4.9 4.2 9.6 4.7 1 .1 2 .2 3.1.2 7.6 0 15.1-3.1 17.5-7.2.8-1.4.9-2.6.3-3.8-1.2-2.4-4.9-4.2-9.6-4.7-1-.1-2-.2-3.1-.2-7.6 0-15.1 3.1-17.5 7.2"/></defs><clipPath id="SVGID_6_"><use xlink:href="#SVGID_5_" overflow="visible"/></clipPath><defs><filter id="Adobe_OpacityMaskFilter" filterUnits="userSpaceOnUse" x="39.2" y="80.6" width="31.6" height="15.9"><feColorMatrix values="1 0 0 0 0 0 1 0 0 0 0 0 1 0 0 0 0 0 1 0"/></filter></defs><mask maskUnits="userSpaceOnUse" x="39.2" y="80.6" width="31.6" height="15.9" id="SVGID_7_"><g class="st9"><linearGradient id="SVGID_8_" gradientUnits="userSpaceOnUse" y1="102.966" x2="1" y2="102.966" gradientTransform="matrix(31.1682 0 0 -31.1682 39.453 3297.805)"><stop offset="0"/><stop offset="1" stop-color="#fff"/></linearGradient><path class="st17" d="M39.2 80.6h31.6v15.9H39.2z"/></g></mask><linearGradient id="SVGID_9_" gradientUnits="userSpaceOnUse" y1="102.968" x2="1" y2="102.968" gradientTransform="matrix(31.1682 0 0 -31.1682 39.453 3297.821)"><stop offset="0" stop-color="#eab063"/><stop offset="1" stop-color="#eab063"/></linearGradient><path class="st64" d="M39.2 80.6h31.6v15.9H39.2z"/></g><g class="st31"><defs><path id="SVGID_10_" d="M0 0h90.5v103H0z"/></defs><clipPath id="SVGID_11_"><use xlink:href="#SVGID_10_" overflow="visible"/></clipPath><path class="st3" d="M62.3 86.5c.6-1.3-.7-1.9-2.8-2.1l1.1-1.8-1.6-.1-1 1.8c-.4 0-.9 0-1.3-.1l1.1-1.8-1.6-.1-1.2 1.9h-1l-2.3-.2-.7 1.2 1.2.1c.7 0 .7.3.6.5l-1.3 2.1s.1 0 0 0l-1.8 2.9c-.1.1-.4.4-.8.3l-1.2-.1-1.2 1.3 2.1.1c.4 0 .8 0 1.2.1l-1.2 1.9 1.6.1 1.1-1.8c.4 0 .9.1 1.3.1l-1.1 1.8 1.6.1 1.2-1.9c2.8 0 5-.3 6.3-2.1 1.1-1.4.5-2.1-.9-2.4 1.2-.2 2.1-.8 2.6-1.8zm-4.7 3.9c-.9 1.4-4.2 1-5.3 1l1.5-2.5c1.1.1 4.7 0 3.8 1.5m1.4-3.5c-.8 1.3-3.6 1-4.5.9l1.4-2.2c.9 0 3.9 0 3.1 1.3"/><path class="st63" d="M55.5 60.5l-.2 42.2c0 .2-.1.3-.3.3-.2 0-.3-.1-.3-.3l-.2-42.2c0-.3.2-.5.5-.5.3-.1.5.2.5.5z"/><path class="st30" d="M47.4 45.2l21.9 12c.7.4 1 1.3.6 2s-1.3 1-2 .6h-.1l-21.3-13c-.4-.3-.6-.8-.3-1.3.2-.4.8-.6 1.2-.3"/><path class="st50" d="M11.8 20.9L34 31c1.8.8 2.5 2.9 1.7 4.7-.8 1.8-2.9 2.5-4.7 1.7l-.6-.3-19.8-14.2c-.5-.4-.7-1.1-.3-1.6.4-.5 1-.6 1.5-.4"/><path class="st50" d="M12.2 11.1l2 9.8c.3 1.7-.7 3.3-2.4 3.6-1.7.3-3.3-.7-3.6-2.4-.1-.4-.1-.8 0-1.2l2-9.8c.1-.6.7-.9 1.2-.8.4.1.7.4.8.8m49.4 39.3c-2-1.2-3.2-3.3-3.2-5.6v-4.9l-10.1-5.8-1.8-7.9c-.1-.4-.4-.7-.8-.8-.6-.1-1.1.2-1.2.8l-1.1 5.1-1-.6c-6-3.4-13.4.9-13.4 7.8 0 6.1 3.3 11.8 8.6 14.8l10.2 5.9c6.7 3.9 14.8-.2 16.3-7.3l-2.5-1.5z"/><path class="st63" d="M53.6 70.6c0-.8.6-1.4 1.4-1.4.8 0 1.4.6 1.4 1.4 0 .8-.6 1.4-1.4 1.4-.8 0-1.4-.6-1.4-1.4"/><g class="st65"><defs><path id="SVGID_12_" d="M46.9 39h16.9v17.8H46.9z"/></defs><clipPath id="SVGID_13_"><use xlink:href="#SVGID_12_" overflow="visible"/></clipPath><g class="st66"><defs><path id="SVGID_14_" d="M55.8 56.8c3.5 0 6.6-2.1 8-5.1l-2.2-1.3c-2-1.2-3.2-3.3-3.2-5.6v-4.9l-.8-.5-.7-.4c-.4 0-.7-.1-1.1-.1-4.9 0-8.9 4-8.9 8.9 0 5 4 9 8.9 9"/></defs><clipPath id="SVGID_15_"><use xlink:href="#SVGID_14_" overflow="visible"/></clipPath><defs><filter id="Adobe_OpacityMaskFilter_1_" filterUnits="userSpaceOnUse" x="46.9" y="39" width="16.9" height="17.8"><feColorMatrix values="1 0 0 0 0 0 1 0 0 0 0 0 1 0 0 0 0 0 1 0"/></filter></defs><mask maskUnits="userSpaceOnUse" x="46.9" y="39" width="16.9" height="17.8" id="SVGID_16_"><g class="st81"><linearGradient id="SVGID_17_" gradientUnits="userSpaceOnUse" y1="102.967" x2="1" y2="102.967" gradientTransform="matrix(16.8942 0 0 -16.8942 46.922 1787.417)"><stop offset="0" stop-color="gray"/><stop offset="1" stop-color="#fff"/></linearGradient><path class="st8" d="M46.9 39h16.9v17.8H46.9z"/></g></mask><linearGradient id="SVGID_18_" gradientUnits="userSpaceOnUse" y1="102.967" x2="1" y2="102.967" gradientTransform="matrix(16.8942 0 0 -16.8942 46.922 1787.417)"><stop offset="0" stop-color="#494949"/><stop offset="1" stop-color="#f8ccac"/></linearGradient><path class="st42" d="M46.9 39h16.9v17.8H46.9z"/></g></g></g><g class="st31"><defs><path id="SVGID_19_" d="M31.2 40.4c0 2.9 1.6 5.6 4.1 7.1l5.8 3.4v-4.2c0-1.8-1-3.5-2.6-4.4l-5.2-3c-.3-.3-.5-.3-.7-.3-.8 0-1.4.6-1.4 1.4"/></defs><clipPath id="SVGID_20_"><use xlink:href="#SVGID_19_" overflow="visible"/></clipPath><defs><filter id="Adobe_OpacityMaskFilter_2_" filterUnits="userSpaceOnUse" x="27.4" y="35.8" width="17.5" height="18.2"><feColorMatrix values="1 0 0 0 0 0 1 0 0 0 0 0 1 0 0 0 0 0 1 0"/></filter></defs><mask maskUnits="userSpaceOnUse" x="27.4" y="35.8" width="17.5" height="18.2" id="SVGID_21_"><g class="st82"><linearGradient id="SVGID_22_" gradientUnits="userSpaceOnUse" y1="102.992" x2="1" y2="102.992" gradientTransform="scale(7.9568 -7.9568) rotate(20 310.538 60.26)"><stop offset="0" stop-color="#fff"/><stop offset="1" stop-color="#bfbfbf"/></linearGradient><path class="st78" d="M27.4 40.4l12.5-4.6 4.9 13.6L32.3 54z"/></g></mask><linearGradient id="SVGID_23_" gradientUnits="userSpaceOnUse" y1="102.991" x2="1" y2="102.991" gradientTransform="scale(7.9568 -7.9568) rotate(20 310.538 60.26)"><stop offset="0" stop-color="#e23c3f"/><stop offset="1" stop-color="#aadcf7"/></linearGradient><path class="st56" d="M27.4 40.4l12.5-4.6 4.9 13.6L32.3 54z"/></g><g class="st31"><defs><path id="SVGID_24_" d="M0 0h90.5v103H0z"/></defs><clipPath id="SVGID_25_"><use xlink:href="#SVGID_24_" overflow="visible"/></clipPath><path class="st43" d="M24 58.1l22 11.8c1 .5 1.3 1.7.8 2.7-.5 1-1.7 1.3-2.7.8 0 0-.1 0-.1-.1l-21.2-13c-.6-.4-.8-1.1-.4-1.7.4-.6 1.1-.8 1.6-.5"/><path class="st23" d="M35.1 50.3c-.5.3-1 .6-1.4 1"/><path class="st4" d="M33.7 52.2c-1.2 1.2-2.1 2.7-2.7 4.2-.3.8-.4 1.6-.5 2.4v2.5c0 .6-.4 1-1 1s-1-.4-1-1v-1.4c0-.5.1-1 .1-1.5.1-1 .4-1.9.8-2.8.7-1.8 1.9-3.4 3.4-4.6.3-.2.6-.2.9.1.2.5.2.8 0 1.1z"/><path class="st45" d="M30.3 59.6l8.7 4.9c.1.1.2.3.1.4-.1.1-.3.2-.4.1l-8.6-5.1c-.1-.1-.1-.2-.1-.3.1-.1.2-.1.3 0"/><path class="st23" d="M44.6 55.7c-.5.3-1 .6-1.4 1"/><path class="st4" d="M43.1 57.5c-1.2 1.2-2.1 2.7-2.6 4.2-.3.8-.4 1.6-.5 2.4v2.5c0 .6-.4 1-1 1s-1-.4-1-1v-1.4c0-.5.1-1 .1-1.4.1-1 .4-1.9.8-2.8.7-1.8 1.9-3.4 3.3-4.6.3-.2.6-.2.9.1.2.4.2.8 0 1z"/><linearGradient id="SVGID_26_" gradientUnits="userSpaceOnUse" y1="102.967" x2="1" y2="102.967" gradientTransform="matrix(3.4246 0 0 -3.4246 7.13 374.764)"><stop offset="0" stop-color="#e23c3f"/><stop offset="1" stop-color="#ea4e4e"/></linearGradient><path class="st22" d="M9.8 22.1c-.5.3-.9.6-1.4.9-.2.2-.5.1-.7-.1-.2-.2-.1-.5.1-.7.5-.4 1-.7 1.5-1 .2-.1.5-.1.7.2.1.2 0 .5-.2.7z"/><g class="st67"><defs><path id="SVGID_27_" d="M32.4 34.9h14.3v8.4H32.4z"/></defs><clipPath id="SVGID_28_"><use xlink:href="#SVGID_27_" overflow="visible"/></clipPath><path class="st25" d="M32.5 34.9l14.1 7.9c.1.1.2.2.1.3-.1.1-.2.2-.3.1l-14-8.2s-.1-.1 0-.1h.1"/></g><g class="st67"><defs><path id="SVGID_29_" d="M14.4 24.9h14.3v8.4H14.4z"/></defs><clipPath id="SVGID_30_"><use xlink:href="#SVGID_29_" overflow="visible"/></clipPath><path class="st48" d="M14.5 24.9l14.1 7.9c.1.1.2.2.1.3-.1.1-.2.2-.3.1l-14-8.2s-.1-.1 0-.1h.1"/></g><g class="st67"><defs><path id="SVGID_31_" d="M37.3 51h11.8v6.9H37.3z"/></defs><clipPath id="SVGID_32_"><use xlink:href="#SVGID_31_" overflow="visible"/></clipPath><path class="st59" d="M46.8 56.4l2.2 1.1c.1.1.2.2.1.3s-.2.2-.3.1l-2-1.4v-.1c-.1 0-.1 0 0 0M37.5 51l4.6 2.5c.1.1.2.2.1.3s-.2.2-.4.1l-4.5-2.8s-.1-.1 0-.1h.2"/></g><g class="st67"><defs><path id="SVGID_33_" d="M43.6 44.5h.5v8.3h-.5z"/></defs><clipPath id="SVGID_34_"><use xlink:href="#SVGID_33_" overflow="visible"/></clipPath><path class="st80" d="M43.9 44.6l.2 8c0 .1-.1.3-.2.3s-.3-.1-.3-.2l.2-8c0-.1 0-.2.1-.1 0-.1 0 0 0 0"/></g><g class="st67"><defs><path id="SVGID_35_" d="M49.1 35.8h4.7v2.8h-4.7z"/></defs><clipPath id="SVGID_36_"><use xlink:href="#SVGID_35_" overflow="visible"/></clipPath><path class="st7" d="M49.2 35.8l4.6 2.5c.1 0 .1.1.1.2s-.1.1-.2.1l-4.5-2.8c-.1.1-.1.1 0 0-.1 0-.1 0 0 0"/></g><g class="st34"><defs><path id="SVGID_37_" d="M0 13.8h15.6v18H0z"/></defs><clipPath id="SVGID_38_"><use xlink:href="#SVGID_37_" overflow="visible"/></clipPath><g class="st68"><defs><path id="SVGID_39_" d="M0 18.3c0 4.3 3.5 9.8 7.8 12.3s7.8 1 7.8-3.3-3.5-9.8-7.8-12.3S0 14 0 18.3"/></defs><clipPath id="SVGID_40_"><use xlink:href="#SVGID_39_" overflow="visible"/></clipPath><defs><filter id="Adobe_OpacityMaskFilter_3_" filterUnits="userSpaceOnUse" x="0" y="12.5" width="15.6" height="20.6"><feColorMatrix values="1 0 0 0 0 0 1 0 0 0 0 0 1 0 0 0 0 0 1 0"/></filter></defs><mask maskUnits="userSpaceOnUse" x="0" y="12.5" width="15.6" height="20.6" id="SVGID_41_"><g class="st83"><linearGradient id="SVGID_42_" gradientUnits="userSpaceOnUse" y1="102.967" x2="1" y2="102.967" gradientTransform="matrix(15.6004 0 0 -15.6004 0 1629.099)"><stop offset="0" stop-color="#333"/><stop offset="1" stop-color="#fff"/></linearGradient><path class="st24" d="M0 12.5h15.6v20.6H0z"/></g></mask><linearGradient id="SVGID_43_" gradientUnits="userSpaceOnUse" y1="102.967" x2="1" y2="102.967" gradientTransform="matrix(15.6004 0 0 -15.6004 0 1629.107)"><stop offset="0" stop-color="#f0e3d1"/><stop offset="1" stop-color="#a59a8c"/></linearGradient><path class="st40" d="M0 12.5h15.6v20.6H0z"/></g></g><g class="st67"><defs><path id="SVGID_44_" d="M46.9 39h17.2v17.8H46.9z"/></defs><clipPath id="SVGID_45_"><use xlink:href="#SVGID_44_" overflow="visible"/></clipPath><g class="st69"><defs><path id="SVGID_46_" d="M64.2 49.6c0-3.9-2.1-7.6-5.5-9.5l-1.7-1c-.4 0-.7-.1-1.1-.1-4.9 0-8.9 4-8.9 8.9s4 8.9 8.9 8.9c3.7 0 6.8-2.2 8.2-5.4 0-.6.1-1.2.1-1.8"/></defs><clipPath id="SVGID_47_"><use xlink:href="#SVGID_46_" overflow="visible"/></clipPath><defs><filter id="Adobe_OpacityMaskFilter_4_" filterUnits="userSpaceOnUse" x="38.2" y="30.5" width="34.7" height="34.7"><feColorMatrix values="1 0 0 0 0 0 1 0 0 0 0 0 1 0 0 0 0 0 1 0"/></filter></defs><mask maskUnits="userSpaceOnUse" x="38.2" y="30.5" width="34.7" height="34.7" id="SVGID_48_"><g class="st84"><linearGradient id="SVGID_49_" gradientUnits="userSpaceOnUse" y1="102.978" x2="1" y2="102.978" gradientTransform="scale(16.749 -16.749) rotate(40 147.306 53.903)"><stop offset="0"/><stop offset=".693"/><stop offset="1" stop-color="#fff"/></linearGradient><path class="st0" d="M38.2 46.3L57 30.5l15.9 18.9L54 65.2z"/></g></mask><linearGradient id="SVGID_50_" gradientUnits="userSpaceOnUse" y1="102.978" x2="1" y2="102.978" gradientTransform="scale(16.749 -16.749) rotate(40 147.306 53.903)"><stop offset="0" stop-color="#aadcf7"/><stop offset=".693" stop-color="#aadcf7"/><stop offset="1" stop-color="#aadcf7"/></linearGradient><path class="st44" d="M38.2 46.3L57 30.5l15.9 18.9L54 65.2z"/></g></g></g><g class="st31"><defs><path id="SVGID_51_" d="M50.7 54.1l5 2.9 7.1-4.2-5-2.8z"/></defs><clipPath id="SVGID_52_"><use xlink:href="#SVGID_51_" overflow="visible"/></clipPath><defs><filter id="Adobe_OpacityMaskFilter_5_" filterUnits="userSpaceOnUse" x="49.5" y="47.9" width="14.5" height="11.2"><feColorMatrix values="1 0 0 0 0 0 1 0 0 0 0 0 1 0 0 0 0 0 1 0"/></filter></defs><mask maskUnits="userSpaceOnUse" x="49.5" y="47.9" width="14.5" height="11.2" id="SVGID_53_"><g class="st85"><linearGradient id="SVGID_54_" gradientUnits="userSpaceOnUse" y1="102.967" x2="1" y2="102.967" gradientTransform="scale(6.5634 -6.5634) rotate(-80 -61.637 42.554)"><stop offset="0" stop-color="#666"/><stop offset="1"/></linearGradient><path class="st62" d="M62.5 47.9l1.5 8.9-12.9 2.3-1.6-8.9z"/></g></mask><linearGradient id="SVGID_55_" gradientUnits="userSpaceOnUse" y1="102.967" x2="1" y2="102.967" gradientTransform="scale(6.5634 -6.5634) rotate(-80 -61.637 42.554)"><stop offset="0" stop-color="#fff"/><stop offset="1" stop-color="#ea4e4e"/></linearGradient><path class="st57" d="M62.5 47.9l1.5 8.9-12.9 2.3-1.6-8.9z"/></g><g class="st31"><defs><path id="SVGID_56_" d="M0 0h90.5v103H0z"/></defs><clipPath id="SVGID_57_"><use xlink:href="#SVGID_56_" overflow="visible"/></clipPath><g class="st35"><defs><path id="SVGID_58_" d="M51.9 51h7v4.4h-7z"/></defs><clipPath id="SVGID_59_"><use xlink:href="#SVGID_58_" overflow="visible"/></clipPath><path class="st60" d="M53.7 55.2l-1.4-.8c-.5-.3-.5-1 0-1.3l3.6-2.1 2.7 1.5c.4.2.4.8 0 1l-2.9 1.7c-.6.4-1.4.4-2 0"/></g></g><g class="st31"><defs><path id="SVGID_60_" d="M51.4 45l-.2 8.7 6.6-3.8v-8.8z"/></defs><clipPath id="SVGID_61_"><use xlink:href="#SVGID_60_" overflow="visible"/></clipPath><defs><filter id="Adobe_OpacityMaskFilter_6_" filterUnits="userSpaceOnUse" x="45.7" y="38.2" width="17.5" height="18.3"><feColorMatrix values="1 0 0 0 0 0 1 0 0 0 0 0 1 0 0 0 0 0 1 0"/></filter></defs><mask maskUnits="userSpaceOnUse" x="45.7" y="38.2" width="17.5" height="18.3" id="SVGID_62_"><g class="st86"><linearGradient id="SVGID_63_" gradientUnits="userSpaceOnUse" y1="102.967" x2="1" y2="102.967" gradientTransform="scale(-7.905 7.905) rotate(-30 -184.14 68.308)"><stop offset="0" stop-color="#4d4d4d"/><stop offset=".096" stop-color="#3e3e3e"/><stop offset=".316" stop-color="#232323"/><stop offset=".54" stop-color="#101010"/><stop offset=".766" stop-color="#040404"/><stop offset="1"/></linearGradient><path class="st28" d="M56.1 56.5l-10.4-6 7.1-12.3 10.4 6z"/></g></mask><linearGradient id="SVGID_64_" gradientUnits="userSpaceOnUse" y1="102.967" x2="1" y2="102.967" gradientTransform="scale(-7.905 7.905) rotate(-30 -184.14 68.308)"><stop offset="0" stop-color="#fff"/><stop offset=".106" stop-color="#fbdbdb"/><stop offset=".251" stop-color="#f6b0b0"/><stop offset=".398" stop-color="#f18d8d"/><stop offset=".545" stop-color="#ee7171"/><stop offset=".694" stop-color="#ec5e5e"/><stop offset=".845" stop-color="#ea5252"/><stop offset="1" stop-color="#ea4e4e"/></linearGradient><path class="st38" d="M56.1 56.5l-10.4-6 7.1-12.3 10.4 6z"/></g><g class="st31"><defs><path id="SVGID_65_" d="M0 0h90.5v103H0z"/></defs><clipPath id="SVGID_66_"><use xlink:href="#SVGID_65_" overflow="visible"/></clipPath><g class="st36"><defs><path id="SVGID_67_" d="M51.3 45.4h4.6v7.8h-4.6z"/></defs><clipPath id="SVGID_68_"><use xlink:href="#SVGID_67_" overflow="visible"/></clipPath><path class="st11" d="M52.4 53l2.6-1.5c.4-.2.7-.7.7-1.2l.2-4.3c0-.5-.5-.9-1-.7l-2.4 1.1c-.7.3-1.2 1.1-1.2 1.9l.1 4.1c0 .6.5.9 1 .6"/></g><path class="st1" d="M54.4 52l2.7 2.4.1.1c.1.1.2.3.2.4l-.1 1.9c0 .3-.3.5-.5.5-.3 0-.5-.2-.5-.4L56 55l.3.5-2.9-2.1c-.4-.3-.5-.8-.2-1.2.3-.4.8-.5 1.2-.2"/><path class="st1" d="M55.8 51.2l3.1 2.2h.1c.1.1.2.2.2.3l.6 2.2c.1.3-.1.5-.3.6-.2.1-.5-.1-.6-.3l-.9-2.1.3.3-3.3-1.9c-.4-.2-.5-.7-.3-1.1s.7-.5 1.1-.2c0-.1 0-.1 0 0"/><path class="st1" d="M56.4 52.7h-3.3v-1.9l2.9-.5zm.2-8.9c0 .9-.7 1.6-1.6 1.6s-1.6-.7-1.6-1.6c0-.9.7-1.6 1.6-1.6s1.6.7 1.6 1.6"/></g><g class="st31"><defs><path id="SVGID_69_" d="M54.5 45.8l-.2.1c-.8.4-1.2 1.2-1.2 2.1v3.8l2.5-1.2c.3-.1.5-.4.5-.7l.2-3c0-.7-.6-1.2-1.2-1.2-.2-.1-.4 0-.6.1"/></defs><clipPath id="SVGID_70_"><use xlink:href="#SVGID_69_" overflow="visible"/></clipPath><linearGradient id="SVGID_71_" gradientUnits="userSpaceOnUse" y1="102.936" x2="1" y2="102.936" gradientTransform="scale(5.9923 -5.9923) rotate(40 157.406 59.204)"><stop offset="0" stop-color="#a59a8c"/><stop offset=".047" stop-color="#b3a99e"/><stop offset=".155" stop-color="#cec8c0"/><stop offset=".265" stop-color="#e4e0dc"/><stop offset=".376" stop-color="#f3f1ef"/><stop offset=".488" stop-color="#fcfcfb"/><stop offset=".604" stop-color="#fff"/><stop offset="1" stop-color="#fff"/></linearGradient><path class="st74" d="M50 48.2l5-4.2 4.4 5.2-5 4.2z"/></g><g class="st31"><defs><path id="SVGID_72_" d="M54.5 45.3v.7c0 .3.2.5.5.5h.2c.3 0 .5-.2.5-.5v-.7h-1.2z"/></defs><clipPath id="SVGID_73_"><use xlink:href="#SVGID_72_" overflow="visible"/></clipPath><linearGradient id="SVGID_74_" gradientUnits="userSpaceOnUse" y1="102.894" x2="1" y2="102.894" gradientTransform="scale(1.4328 -1.4328) rotate(40 204.766 87.695)"><stop offset="0" stop-color="#f8cbac"/><stop offset=".443" stop-color="#f8c9aa"/><stop offset=".698" stop-color="#f9c0a3"/><stop offset=".905" stop-color="#fbb297"/><stop offset="1" stop-color="#fca98f"/></linearGradient><path class="st75" d="M54 45.8l1.2-1.1 1.1 1.3-1.3 1z"/></g><g class="st31"><defs><path id="SVGID_75_" d="M0 0h90.5v103H0z"/></defs><clipPath id="SVGID_76_"><use xlink:href="#SVGID_75_" overflow="visible"/></clipPath><path class="st29" d="M54.5 46l1.1-.6c.3-.2.5-.5.5-.9v-.9c0-.2-.2-.4-.4-.3l-.7.5c-.3.2-.4.4-.4.7V46z"/><path class="st79" d="M55.3 44.3c0 .1 0 .1-.1.2h-.1c0-.1.1-.2.2-.2m.6-.3c0 .1 0 .1-.1.2h-.1c0-.1 0-.1.1-.2s.1 0 .1 0"/></g><g class="st31"><defs><path id="SVGID_77_" d="M55.6 44.7l.2-.1-.2-.4z"/></defs><clipPath id="SVGID_78_"><use xlink:href="#SVGID_77_" overflow="visible"/></clipPath><defs><filter id="Adobe_OpacityMaskFilter_7_" filterUnits="userSpaceOnUse" x="55.6" y="44.2" width=".2" height=".5"><feColorMatrix values="1 0 0 0 0 0 1 0 0 0 0 0 1 0 0 0 0 0 1 0"/></filter></defs><mask maskUnits="userSpaceOnUse" x="55.6" y="44.2" width=".2" height=".5" id="SVGID_79_"><g class="st87"><linearGradient id="SVGID_80_" gradientUnits="userSpaceOnUse" y1="102.969" x2="1" y2="102.969" gradientTransform="matrix(.2 0 0 -.2 55.573 65)"><stop offset="0" stop-color="#fff"/><stop offset=".51" stop-color="gray"/><stop offset="1" stop-color="gray"/></linearGradient><path class="st14" d="M55.6 44.2h.2v.5h-.2z"/></g></mask><linearGradient id="SVGID_81_" gradientUnits="userSpaceOnUse" y1="102.969" x2="1" y2="102.969" gradientTransform="matrix(.2 0 0 -.2 55.573 65)"><stop offset="0" stop-color="#f8cbac"/><stop offset=".51" stop-color="#fca98f"/><stop offset="1" stop-color="#fca98f"/></linearGradient><path class="st32" d="M55.6 44.2h.2v.5h-.2z"/></g><g class="st31"><defs><path id="SVGID_82_" d="M0 0h90.5v103H0z"/></defs><clipPath id="SVGID_83_"><use xlink:href="#SVGID_82_" overflow="visible"/></clipPath><path class="st49" d="M55.7 44.9s-.1.1-.1.2c-.1 0-.2 0-.3-.1v-.2h.2v.1s.1.1.2 0z"/><path class="st51" d="M54 47.2l-.5 1.2-.1.3v.2c0 .1 0 .2.1.3l1.6 1.9c.2.2.2.6-.1.8-.2.2-.6.2-.8-.1l-.8-1c-.3-.4-.5-.6-.8-1.1-.2-.3-.2-.6-.2-.9 0-.1.1-.3.1-.4l.1-.3.6-1.1c.1-.2.3-.2.5-.1.3 0 .3.2.3.3"/><path class="st13" d="M56.1 56.7c0 .4-.4.8-.8.8s-.8-.4-.8-.8.4-.8.8-.8c.5 0 .8.4.8.8"/><path class="st51" d="M53.3 44.4c0 .3.2.6.5.8.3.2.5.1.5-.2 0-.3-.2-.6-.5-.8-.3-.1-.5-.1-.5.2"/><path class="st51" d="M54.1 44.9l.6.6h-.1l.6-.3-.6.3h-.1l-.5-.4V45c0-.1.1-.1.1-.1m1.4.4c0 .1-.1.1-.1.1-.1 0-.2-.1-.2-.1s.1-.1.2-.1c0-.1.1 0 .1.1"/><path class="st27" d="M53.7 44.8c0 .1-.1.1-.1.1l-.2-.1s.1-.1.2-.1.1.1.1.1"/><path class="st51" d="M56.1 46.1l1.3 1h-.6l1.4-1.4c.2-.2.6-.2.8 0 .2.2.2.6 0 .8l-1.6 1.3c-.2.1-.4.1-.5 0l-1.2-1.1c-.1-.1-.1-.3 0-.5s.3-.2.4-.1"/><path class="st39" d="M59.5 45.8c0 .3-.2.5-.5.5s-.5-.2-.5-.5.2-.5.5-.5.5.2.5.5"/><path class="st47" d="M58.6 45.8l-.1-.4"/><path class="st33" d="M55.1 52.3l.5 3.8s0 .1-.1.1c0 0-.1 0-.1-.1l-.7-3.8c0-.1 0-.2.2-.2.1 0 .2 0 .2.2"/><path class="st39" d="M55.2 51.7c0 .3-.2.5-.5.5s-.5-.2-.5-.5.2-.5.5-.5c.3.1.5.3.5.5"/><g class="st37"><defs><path id="SVGID_84_" d="M35.9 0h54.7v29.9H35.9z"/></defs><clipPath id="SVGID_85_"><use xlink:href="#SVGID_84_" overflow="visible"/></clipPath><g class="st71"><defs><path id="SVGID_86_" d="M47 25.1l41.1 4.7C96 16.2 84 3.1 61.3.5 52.8-.5 44 .1 35.9 2L47 25.1z"/></defs><clipPath id="SVGID_87_"><use xlink:href="#SVGID_86_" overflow="visible"/></clipPath><defs><filter id="Adobe_OpacityMaskFilter_8_" filterUnits="userSpaceOnUse" x="35.9" y="-.5" width="60.1" height="30.4"><feColorMatrix values="1 0 0 0 0 0 1 0 0 0 0 0 1 0 0 0 0 0 1 0"/></filter></defs><mask maskUnits="userSpaceOnUse" x="35.9" y="-.5" width="60.1" height="30.4" id="SVGID_88_"><g class="st88"><linearGradient id="SVGID_89_" gradientUnits="userSpaceOnUse" y1="102.971" x2="1" y2="102.971" gradientTransform="matrix(54.6778 0 0 -54.6778 35.844 5644.935)"><stop offset="0"/><stop offset="1" stop-color="#fff"/></linearGradient><path class="st55" d="M35.9-.5H96v30.4H35.9z"/></g></mask><linearGradient id="SVGID_90_" gradientUnits="userSpaceOnUse" x1="-.001" y1="102.971" x2=".999" y2="102.971" gradientTransform="matrix(54.6778 0 0 -54.6778 35.875 5644.935)"><stop offset="0" stop-color="#f0e3d1"/><stop offset="1" stop-color="#f0e3d1"/></linearGradient><path class="st15" d="M35.9-.5H96v30.4H35.9z"/></g></g><g class="st37"><defs><path id="SVGID_91_" d="M46.4 24.4h40.9v13.1H46.4z"/></defs><clipPath id="SVGID_92_"><use xlink:href="#SVGID_91_" overflow="visible"/></clipPath><g class="st72"><defs><path id="SVGID_93_" d="M47.2 24.5l38.5 9.1c1.1.3 1.7 1.3 1.5 2.4-.3 1.1-1.3 1.7-2.4 1.5h-.1L46.9 25.8c-.4-.1-.6-.5-.4-.8 0-.4.4-.6.7-.5"/></defs><clipPath id="SVGID_94_"><use xlink:href="#SVGID_93_" overflow="visible"/></clipPath><defs><filter id="Adobe_OpacityMaskFilter_9_" filterUnits="userSpaceOnUse" x="46.3" y="24.4" width="41.2" height="13.3"><feColorMatrix values="1 0 0 0 0 0 1 0 0 0 0 0 1 0 0 0 0 0 1 0"/></filter></defs><mask maskUnits="userSpaceOnUse" x="46.3" y="24.4" width="41.2" height="13.3" id="SVGID_95_"><g class="st89"><linearGradient id="SVGID_96_" gradientUnits="userSpaceOnUse" y1="102.966" x2="1" y2="102.966" gradientTransform="matrix(42.1885 0 0 -42.1885 45.031 4375.009)"><stop offset="0"/><stop offset="1" stop-color="#fff"/></linearGradient><path class="st77" d="M46.3 24.4h41.2v13.3H46.3z"/></g></mask><linearGradient id="SVGID_97_" gradientUnits="userSpaceOnUse" y1="102.966" x2="1" y2="102.966" gradientTransform="matrix(42.1885 0 0 -42.1885 45.031 4375.009)"><stop offset="0" stop-color="#f0e3d1"/><stop offset="1" stop-color="#f0e3d1"/></linearGradient><path class="st52" d="M46.3 24.4h41.2v13.3H46.3z"/></g></g><g class="st37"><defs><path id="SVGID_98_" d="M40.4 22.8h10.3v5.9H40.4z"/></defs><clipPath id="SVGID_99_"><use xlink:href="#SVGID_98_" overflow="visible"/></clipPath><g class="st73"><defs><path id="SVGID_100_" d="M50.4 26.3c-.9 1.6-3.8 2.7-6.5 2.3s-4.1-1.9-3.2-3.5c.9-1.6 3.8-2.7 6.5-2.3 2.7.3 4.1 1.9 3.2 3.5"/></defs><clipPath id="SVGID_101_"><use xlink:href="#SVGID_100_" overflow="visible"/></clipPath><defs><filter id="Adobe_OpacityMaskFilter_10_" filterUnits="userSpaceOnUse" x="39.8" y="22.5" width="11.5" height="6.4"><feColorMatrix values="1 0 0 0 0 0 1 0 0 0 0 0 1 0 0 0 0 0 1 0"/></filter></defs><mask maskUnits="userSpaceOnUse" x="39.8" y="22.5" width="11.5" height="6.4" id="SVGID_102_"><g class="st19"><linearGradient id="SVGID_103_" gradientUnits="userSpaceOnUse" y1="102.967" x2="1" y2="102.967" gradientTransform="matrix(10.2581 0 0 -10.2581 40.43 1081.985)"><stop offset="0"/><stop offset="1" stop-color="#fff"/></linearGradient><path class="st26" d="M39.8 22.5h11.5v6.4H39.8z"/></g></mask><linearGradient id="SVGID_104_" gradientUnits="userSpaceOnUse" y1="102.967" x2="1" y2="102.967" gradientTransform="matrix(10.2581 0 0 -10.2581 40.43 1081.985)"><stop offset="0" stop-color="#f0e3d1"/><stop offset="1" stop-color="#f0e3d1"/></linearGradient><path class="st16" d="M39.8 22.5h11.5v6.4H39.8z"/></g></g><g class="st37"><defs><path id="SVGID_105_" d="M7.8 3.9h75.5v43.6H7.8z"/></defs><clipPath id="SVGID_106_"><use xlink:href="#SVGID_105_" overflow="visible"/></clipPath><g class="st53"><defs><path id="SVGID_107_" d="M81.2 29.9c-6.8 11.8-28.3 19.6-48 17.3C13.5 44.9 3.1 33.4 9.9 21.6 16.7 9.8 38.2 2 57.9 4.3 77.6 6.6 88 18 81.2 29.9"/></defs><clipPath id="SVGID_108_"><use xlink:href="#SVGID_107_" overflow="visible"/></clipPath><defs><filter id="Adobe_OpacityMaskFilter_11_" filterUnits="userSpaceOnUse" x="-12.2" y="-25.2" width="115.4" height="102"><feColorMatrix values="1 0 0 0 0 0 1 0 0 0 0 0 1 0 0 0 0 0 1 0"/></filter></defs><mask maskUnits="userSpaceOnUse" x="-12.2" y="-25.2" width="115.4" height="102" id="SVGID_109_"><g class="st20"><linearGradient id="SVGID_110_" gradientUnits="userSpaceOnUse" y1="102.967" x2="1" y2="102.967" gradientTransform="scale(-45.1869 45.1869) rotate(-70 -73.373 52.845)"><stop offset="0"/><stop offset="1" stop-color="#fff"/></linearGradient><path class="st46" d="M13 76.7L-12.2 7.6l90.3-32.8 25.2 69.1z"/></g></mask><linearGradient id="SVGID_111_" gradientUnits="userSpaceOnUse" y1="102.967" x2="1" y2="102.967" gradientTransform="scale(-45.1869 45.1869) rotate(-70 -73.373 52.845)"><stop offset="0" stop-color="#f0e3d1"/><stop offset="1" stop-color="#f0e3d1"/></linearGradient><path class="st18" d="M13 76.7L-12.2 7.6l90.3-32.8 25.2 69.1z"/></g></g><path class="st27" d="M51.8 46.1l1-.1c.3 0 .7-.1 1.1.1.4.1.7.4.8.8l.4.9 1.6 3.5v.1h-.1L54.7 48l-.5-.9c-.1-.2-.4-.4-.6-.5-.3-.1-.5-.1-.8 0l-1 .1c-.2 0-.3-.1-.3-.3 0-.1.2-.2.3-.3"/><path class="st13" d="M57.8 54.7v-2.1l4-1.4v2.1l-2.4 1.4c-.5.2-1.1.2-1.6 0"/><path class="st27" d="M57.8 52.5l3.2-1.9.8.5-2.4 1.4c-.5.3-1.1.3-1.6 0"/><path class="st10" d="M61 52.9c0 .4-.3.8-.7 1.1-.4.2-.7.1-.7-.3s.3-.8.7-1.1c.4-.2.7-.1.7.3"/><path class="st51" d="M60.6 53.2l.4.8.1 1.8c0 .1-.1.3-.2.3s-.3-.1-.3-.2l.1-1.8v.1l-.3-.8v-.1c.1-.1.1-.1.2-.1"/><path class="st27" d="M61.6 54.6C60 56 58 56.8 55.8 56.8c-2.3 0-4.4-.9-6-2.3v5.2h7.6c1.6-.7 3-1.7 4.1-3v-2.1z"/><g class="st37"><defs><path id="SVGID_112_" d="M48.3 43.3H50v10.1h-1.7z"/></defs><clipPath id="SVGID_113_"><use xlink:href="#SVGID_112_" overflow="visible"/></clipPath><path class="st2" d="M49.6 43.5v1.7l-1.1 1.2v-.1 3.1-.1l1.5.9v3.1h-.1v-3.1.1l-1.5-.9v-3.2l1.1-1.2v.1-1.6c0-.1.1-.2.1-.2v.2z"/></g><g class="st37"><defs><path id="SVGID_114_" d="M51.5 40.5h4.3v3.6h-4.3z"/></defs><clipPath id="SVGID_115_"><use xlink:href="#SVGID_114_" overflow="visible"/></clipPath><path class="st12" d="M51.5 43.9v-1.4h.1l4.1-2h.1v.1l-4.1 2.2.1-.1V44c0 .1-.1.2-.1.2s-.2-.2-.2-.3z"/></g><path class="st27" d="M52.5 38.8l2.2 1.2c.7.4 1.5.8 2.2 1.3 1.4 1 2.7 2.3 3.6 3.8.9 1.5 1.6 3.2 1.9 4.9.3 1.7.2 3.6-.1 5.3l-1.3-.2c.4-1.6.5-3.2.2-4.9-.2-1.6-.8-3.2-1.6-4.6-.8-1.4-2-2.6-3.3-3.6-.7-.5-1.4-.9-2.1-1.3L52 39.4l.5-.6z"/><g class="st70"><defs><path id="SVGID_116_" d="M36.6 34.1h13.1v7.5H36.6z"/></defs><clipPath id="SVGID_117_"><use xlink:href="#SVGID_116_" overflow="visible"/></clipPath><g class="st54"><defs><path id="SVGID_118_" d="M49.7 39.6L39 34.1l-2.4 1.4 10.5 6.1c.8-.8 1.6-1.5 2.6-2"/></defs><clipPath id="SVGID_119_"><use xlink:href="#SVGID_118_" overflow="visible"/></clipPath><defs><filter id="Adobe_OpacityMaskFilter_12_" filterUnits="userSpaceOnUse" x="36.6" y="34.1" width="13.1" height="7.5"><feColorMatrix values="1 0 0 0 0 0 1 0 0 0 0 0 1 0 0 0 0 0 1 0"/></filter></defs><mask maskUnits="userSpaceOnUse" x="36.6" y="34.1" width="13.1" height="7.5" id="SVGID_120_"><g class="st21"><linearGradient id="SVGID_121_" gradientUnits="userSpaceOnUse" y1="102.967" x2="1" y2="102.967" gradientTransform="matrix(13.0673 0 0 -13.0673 36.594 1383.305)"><stop offset="0"/><stop offset=".086" stop-color="#080808"/><stop offset=".218" stop-color="#1d1d1d"/><stop offset=".38" stop-color="#404040"/><stop offset=".565" stop-color="#717171"/><stop offset=".77" stop-color="#b0b0b0"/><stop offset=".988" stop-color="#fbfbfb"/><stop offset="1" stop-color="#fff"/></linearGradient><path class="st76" d="M36.6 34.1h13.1v7.5H36.6z"/></g></mask><linearGradient id="SVGID_122_" gradientUnits="userSpaceOnUse" y1="102.967" x2="1" y2="102.967" gradientTransform="matrix(13.0673 0 0 -13.0673 36.594 1383.305)"><stop offset="0" stop-color="#a59a8c"/><stop offset="1" stop-color="#a59a8c"/></linearGradient><path class="st41" d="M36.6 34.1h13.1v7.5H36.6z"/></g></g><g class="st37"><defs><path id="SVGID_123_" d="M33.2 42.2h6.4V48h-6.4z"/></defs><clipPath id="SVGID_124_"><use xlink:href="#SVGID_123_" overflow="visible"/></clipPath><path class="st6" d="M39.4 48l-3.6-2.1h-.1v-2.1.1l-2.6-1.6v-.1h.1l2.6 1.6v2l-.1-.1 3.6 2c.1 0 .1.1.1.2.1.1.1.1 0 .1"/></g><path class="st33" d="M56.6 70.9l16.9 16.6.1.1v4.1c0 .2-.1.3-.3.3-.2 0-.3-.1-.3-.3l-.1-4 .1.3-17.1-16.4c-.2-.2-.2-.5 0-.7.2-.2.5-.2.7 0m-2.3.7L37.1 90.3l.1-.2v4.1c0 .2-.1.3-.3.3s-.3-.1-.3-.3V90l.1-.1 17-18.9c.2-.2.5-.2.7 0s0 .4-.1.6"/><path class="st61" d="M49.1 99v3.2M40 95.9v3.2m21.2-1.2v3.2m8.4-7.2v3.2"/></g></svg>