<?xml version="1.0" encoding="utf-8"?>
<!-- Generator: Adobe Illustrator 20.1.0, SVG Export Plug-In . SVG Version: 6.00 Build 0)  -->
<svg version="1.1" id="Calque_1" xmlns="http://www.w3.org/2000/svg" xmlns:xlink="http://www.w3.org/1999/xlink" x="0px" y="0px"
	 viewBox="0 0 239.3 45.3" style="enable-background:new 0 0 239.3 45.3;" xml:space="preserve">
<title>altcoinomy</title>
<desc>Created with Sketch.</desc>
<g>
	<path id="Fill-1" d="M16.6,26.3l-4.3-10.9L8.2,26.3H16.6z M29.7,36.2L29.7,36.2l-13.6,0.1v-0.1c2.4-0.9,3.4-2.7,2.2-5.6l-1.1-2.7
		H7.5l-1,2.8c-1.1,2.9-0.3,4.7,2.1,5.6v0.1H1v-0.1c1.4-1.1,2.7-3.1,3.8-6l9.9-24.9h0.2l10.3,24.2C26.8,33.5,28.2,35.4,29.7,36.2z"/>
	<path id="Fill-4" d="M30.1,36.2c2.2-1.2,2.3-2.9,2.3-5.2V11.3c0-2.3-0.1-4-2.3-5.2V6h8.3v25c0,2.3,0.1,4,2.3,5.2v0.1L30.1,36.2
		L30.1,36.2z"/>
	<path id="Fill-6" d="M44.2,28.4V16.2h-2.4v-1.4c3-0.4,6.3-3.4,8.4-7.4h0.1v7.3H54v1.5h-3.7v12.9c0,3.4,0.5,4.9,5,7.1v0.1
		C44.1,36.9,44.2,33.6,44.2,28.4"/>
	<path id="Fill-8" d="M54.9,25.6c0-7.5,5.4-11.3,10-11.3c3,0,5.8,1.7,7.4,5.1l-6.8,3.4h-0.1c0.9-2.9,0.3-7-1.5-7
		C62.5,15.8,61,18,61,23c0,6.5,3.2,8.8,5.9,8.8c2,0,4-1,5.7-2.7h0.1c-1,3.2-4.1,7.5-8.4,7.5C59.9,36.6,54.9,33.1,54.9,25.6"/>
	<path id="Fill-10" d="M88.7,28c0-7-2.6-12.5-5.2-12.5c-1.4,0-2.9,2.5-2.9,7.6c0,7,2.6,12.5,5.2,12.5C87.1,35.6,88.7,33.1,88.7,28
		 M74.2,25.6c0-7.5,5.5-11.3,10.3-11.3c4.4,0,10.5,3.5,10.5,11.2c0,7.5-5.5,11.3-10.4,11.3C80.3,36.8,74.2,33.3,74.2,25.6"/>
	<path id="Fill-12" d="M98.1,9c0-1.8,1.5-3.3,3.4-3.3s3.4,1.5,3.4,3.3c0,1.9-1.5,3.3-3.4,3.3S98.1,10.9,98.1,9z M96.4,36.2
		c2.2-1.2,2.3-2.9,2.3-5.2V20c0-2.3-0.1-4-2.3-5.2v-0.1h8.3v16.4c0,2.3,0.1,4,2.3,5.2v0.1L96.4,36.2L96.4,36.2z"/>
	<path id="Fill-14" d="M129.9,36.2L129.9,36.2l-10.2,0.1v-0.1c1.7-1,1.9-2.9,1.9-5.2V19.8c0-1.4-0.5-2.7-1.9-2.7
		c-0.8,0-1.8,0.3-3.1,1.3v12.7c0,2.3,0.1,4.2,1.9,5.2v0.1h-10.2v-0.1c2.2-1.2,2.3-2.9,2.3-5.2V20c0-2.3-0.1-4-2.3-5.2v-0.1h8.3V17
		c1.7-1.1,4.5-2.5,7.2-2.5c2.9,0,3.8,1.7,3.8,3.6v13C127.6,33.3,127.7,35.1,129.9,36.2"/>
	<path id="Fill-16" d="M145.6,28c0-7-2.6-12.5-5.2-12.5c-1.4,0-2.9,2.5-2.9,7.6c0,7,2.6,12.5,5.2,12.5
		C144.1,35.6,145.6,33.1,145.6,28 M131.1,25.6c0-7.5,5.5-11.3,10.3-11.3c4.4,0,10.4,3.5,10.4,11.2c0,7.5-5.5,11.3-10.4,11.3
		C137.2,36.8,131.1,33.3,131.1,25.6"/>
	<path id="Fill-18" d="M186,36.2L186,36.2l-10.2,0.1v-0.1c1.7-1,1.9-2.9,1.9-5.2V19.8c0-1.4-0.5-2.7-1.9-2.7c-0.8,0-1.8,0.3-3.1,1.2
		v12.8c0,2.3,0.1,4.1,1.9,5.2v0.1h-9.8v-0.1c1.7-1,1.9-2.9,1.9-5.2V19.8c0-1.4-0.5-2.7-1.9-2.7c-0.8,0-1.8,0.3-3.1,1.2v12.8
		c0,2.3,0.1,4.2,1.9,5.2v0.1h-10.2v-0.1c2.2-1.2,2.3-2.9,2.3-5.2V20c0-2.3-0.1-4-2.3-5.2v-0.1h8.3V17c1.7-1.1,4.5-2.5,7.2-2.5
		c2.3,0,3.4,1.1,3.7,2.6c1.7-1,4.6-2.6,7.3-2.6c2.9,0,3.8,1.7,3.8,3.6v13C183.7,33.3,183.8,35.1,186,36.2"/>
	<path id="Fill-20" d="M204.5,14.7L204.5,14.7c-0.9,0.8-1.5,2.4-2.5,5l-6.1,16c-2.3,6.1-4.3,8.9-8.3,8.9c-0.4,0-0.9,0-1.1-0.1
		l-0.4-7.4h0.1c0.9,1.1,2.3,1.9,4,1.9c2,0,3.4-0.9,4.4-3.6L188.3,20c-0.9-2.2-1.9-4.5-2.8-5.2v-0.1h10.2v0.1
		c-2.5,0.9-2.4,2.3-1.5,4.5l3.3,8.6l3.1-8.4c0.9-2.4,0.9-3.9-1.4-4.7v-0.1H204.5z"/>
	<g>
		<path d="M209.8,1.3h4.7v1.4h-3.2v1.4h2.9v1.4h-2.9v2.8h-1.6v-7H209.8z"/>
		<path d="M215.7,1.3h1.6v5.6h2.9v1.4h-4.4v-7H215.7z"/>
		<path d="M224.5,1.1c2.2,0,3.8,1.4,3.8,3.7s-1.6,3.7-3.8,3.7c-2.2,0-3.8-1.4-3.8-3.7S222.2,1.1,224.5,1.1z M224.5,7.1
			c1.3,0,2.2-1,2.2-2.3s-0.9-2.3-2.2-2.3c-1.3,0-2.2,1-2.2,2.3S223.1,7.1,224.5,7.1z"/>
		<path d="M228.6,1.3h1.7l1.1,4.5l0,0l1.5-4.5h1.4l1.5,4.7l0,0l1.2-4.7h1.6l-2.1,7.1h-1.4l-1.6-4.9l0,0l-1.6,4.9h-1.3L228.6,1.3z"/>
	</g>
</g>
</svg>
