<?xml version="1.0" encoding="utf-8"?>
<!-- Generator: Adobe Illustrator 20.1.0, SVG Export Plug-In . SVG Version: 6.00 Build 0)  -->
<svg version="1.1" id="Calque_1" xmlns="http://www.w3.org/2000/svg" xmlns:xlink="http://www.w3.org/1999/xlink" x="0px" y="0px"
	 viewBox="0 0 300 300" style="enable-background:new 0 0 300 300;" xml:space="preserve">
<title>altcoinomy</title>
<desc>Created with Sketch.</desc>
<g id="altcoinomy">
	<g id="Logo" transform="translate(39.000000, 129.000000)">
		<path id="Fill-1" d="M15.6,25.5l-4.3-10.9L7.2,25.5H15.6z M28.7,35.4L28.7,35.4l-13.6,0.1v-0.1c2.4-0.9,3.4-2.7,2.2-5.6l-1.1-2.7
			H6.5l-1,2.8c-1.1,2.9-0.3,4.7,2.1,5.6v0.1H0v-0.1c1.4-1.1,2.7-3.1,3.8-6l9.9-24.9h0.2l10.3,24.2C25.8,32.7,27.2,34.6,28.7,35.4z"
			/>
		<path id="Fill-4" d="M29.1,35.4c2.2-1.2,2.3-2.9,2.3-5.2V10.5c0-2.3-0.1-4-2.3-5.2V5.2h8.3v25c0,2.3,0.1,4,2.3,5.2v0.1L29.1,35.4
			L29.1,35.4z"/>
		<path id="Fill-6" d="M43.2,27.6V15.4h-2.4V14c3-0.4,6.3-3.4,8.4-7.4h0.1v7.3H53v1.5h-3.7v12.9c0,3.4,0.5,4.9,5,7.1v0.1
			C43.1,36.1,43.2,32.8,43.2,27.6"/>
		<path id="Fill-8" d="M53.9,24.8c0-7.5,5.4-11.3,10-11.3c3,0,5.8,1.7,7.4,5.1L64.5,22l-0.1,0c0.9-2.9,0.3-7-1.5-7
			c-1.4,0-2.9,2.2-2.9,7.2c0,6.5,3.2,8.8,5.9,8.8c2,0,4-1,5.7-2.7l0.1,0c-1,3.2-4.1,7.5-8.4,7.5C58.9,35.8,53.9,32.3,53.9,24.8"/>
		<path id="Fill-10" d="M87.7,27.2c0-7-2.6-12.5-5.2-12.5c-1.4,0-2.9,2.5-2.9,7.6c0,7,2.6,12.5,5.2,12.5
			C86.1,34.8,87.7,32.3,87.7,27.2 M73.2,24.8c0-7.5,5.5-11.3,10.3-11.3C87.9,13.5,94,17,94,24.7C94,32.2,88.5,36,83.6,36
			C79.3,36,73.2,32.5,73.2,24.8"/>
		<path id="Fill-12" d="M97.1,8.2c0-1.8,1.5-3.3,3.4-3.3c1.9,0,3.4,1.5,3.4,3.3c0,1.9-1.5,3.3-3.4,3.3C98.6,11.5,97.1,10.1,97.1,8.2
			z M95.4,35.4c2.2-1.2,2.3-2.9,2.3-5.2V19.2c0-2.3-0.1-4-2.3-5.2v-0.1h8.3v16.4c0,2.3,0.1,4,2.3,5.2v0.1L95.4,35.4L95.4,35.4z"/>
		<path id="Fill-14" d="M128.9,35.4L128.9,35.4l-10.2,0.1v-0.1c1.7-1,1.9-2.9,1.9-5.2V19c0-1.4-0.5-2.7-1.9-2.7
			c-0.8,0-1.8,0.3-3.1,1.3v12.7c0,2.3,0.1,4.2,1.9,5.2v0.1h-10.2v-0.1c2.2-1.2,2.3-2.9,2.3-5.2V19.2c0-2.3-0.1-4-2.3-5.2v-0.1h8.3
			v2.3c1.7-1.1,4.5-2.5,7.2-2.5c2.9,0,3.8,1.7,3.8,3.6v13C126.6,32.5,126.7,34.3,128.9,35.4"/>
		<path id="Fill-16" d="M144.6,27.2c0-7-2.6-12.5-5.2-12.5c-1.4,0-2.9,2.5-2.9,7.6c0,7,2.6,12.5,5.2,12.5
			C143.1,34.8,144.6,32.3,144.6,27.2 M130.1,24.8c0-7.5,5.5-11.3,10.3-11.3c4.4,0,10.4,3.5,10.4,11.2c0,7.5-5.5,11.3-10.4,11.3
			C136.2,36,130.1,32.5,130.1,24.8"/>
		<path id="Fill-18" d="M185,35.4L185,35.4l-10.2,0.1v-0.1c1.7-1,1.9-2.9,1.9-5.2V19c0-1.4-0.5-2.7-1.9-2.7c-0.8,0-1.8,0.3-3.1,1.2
			v12.8c0,2.3,0.1,4.1,1.9,5.2v0.1h-9.8v-0.1c1.7-1,1.9-2.9,1.9-5.2V19c0-1.4-0.5-2.7-1.9-2.7c-0.8,0-1.8,0.3-3.1,1.2v12.8
			c0,2.3,0.1,4.2,1.9,5.2v0.1h-10.2v-0.1c2.2-1.2,2.3-2.9,2.3-5.2V19.2c0-2.3-0.1-4-2.3-5.2v-0.1h8.3v2.3c1.7-1.1,4.5-2.5,7.2-2.5
			c2.3,0,3.4,1.1,3.7,2.6c1.7-1,4.6-2.6,7.3-2.6c2.9,0,3.8,1.7,3.8,3.6v13C182.7,32.5,182.8,34.3,185,35.4"/>
		<path id="Fill-20" d="M203.5,13.9L203.5,13.9c-0.9,0.8-1.5,2.4-2.5,5l-6.1,16c-2.3,6.1-4.3,8.9-8.3,8.9c-0.4,0-0.9,0-1.1-0.1
			l-0.4-7.4h0.1c0.9,1.1,2.3,1.9,4,1.9c2,0,3.4-0.9,4.4-3.6l-6.3-15.4c-0.9-2.2-1.9-4.5-2.8-5.2v-0.1h10.2V14
			c-2.5,0.9-2.4,2.3-1.5,4.5l3.3,8.6l3.1-8.4c0.9-2.4,0.9-3.9-1.4-4.7v-0.1H203.5z"/>
		<polygon id="Fill-22" points="206.4,7.3 207.9,7.3 207.9,0.1 206.4,0.1 		"/>
		<path id="Fill-24" d="M215.7,6.1c-0.6,0.8-1.5,1.4-2.9,1.4c-2.1,0-3.8-1.4-3.8-3.7c0-2.3,1.6-3.7,3.7-3.7c1.2,0,2.2,0.5,2.8,1.4
			l-1,1c-0.4-0.6-1.1-1-1.9-1c-1,0-2.1,0.8-2.1,2.3c0,1.5,1,2.3,2.2,2.3c0.8,0,1.4-0.3,1.9-1L215.7,6.1z"/>
		<path id="Fill-25" d="M219.9,6c1.3,0,2.1-1,2.1-2.3c0-1.2-0.8-2.3-2.1-2.3c-1.3,0-2.1,1-2.1,2.3C217.8,4.9,218.6,6,219.9,6
			 M219.9,0c2,0,3.7,1.5,3.7,3.7c0,2.2-1.6,3.7-3.7,3.7c-2,0-3.6-1.5-3.6-3.7C216.3,1.5,217.9,0,219.9,0"/>
	</g>
</g>
</svg>
