<?xml version="1.0" encoding="utf-8"?>
<!-- Generator: Adobe Illustrator 20.1.0, SVG Export Plug-In . SVG Version: 6.00 Build 0)  -->
<svg version="1.1" id="Layer_1" xmlns="http://www.w3.org/2000/svg" xmlns:xlink="http://www.w3.org/1999/xlink" x="0px" y="0px"
	 viewBox="0 0 520 520" style="enable-background:new 0 0 520 520;" xml:space="preserve">
<style type="text/css">
	.st0{fill:#5BC6C9;}
</style>
<g>
	<polygon class="st0" points="260,67.5 316.5,154.5 260.8,192.5 205,154.5 	"/>
	<path class="st0" d="M193.5,174l69.5,46.5l65.5-46.5c0,0,44.9,69,45.5,70c11.5,17.6,19.4,36.4,21.7,57.5
		c6.6,61.8-27.3,123.1-86.5,145.3c-24,9-50.7,10.9-75.8,5.6c-28.2-5.9-54.7-21.7-73.6-43.5c-28.8-33.3-41.3-75-30.6-118.2
		c6.1-24.4,18.5-48,32.3-68.8C161.5,222,193.5,174,193.5,174z"/>
</g>
</svg>
