<svg id="6ad79edd-3a9f-4c52-bc92-c374e9555a9e" data-name="Layer 1" xmlns="http://www.w3.org/2000/svg" xmlns:xlink="http://www.w3.org/1999/xlink" viewBox="0 0 140.5669 123.60657"><defs><style>.\39 b86ac1c-bffb-4a27-9731-3d91d2bc042c{fill:url(#8449d414-5943-4361-a9d8-dd79700f9db9)}.\34 f860ea1-d5bd-4f37-b1a4-bc0828517e58{fill:#494949}.ba90deaf-1f0c-44c3-904b-169879ad5a69{fill:url(#bceec9a5-fced-470a-8e3c-7649f4d23b7a)}.\31 4c1e2c3-06c9-43f5-83b5-17e0aa4c407c{fill:url(#b230f453-9e0a-4fce-8b3f-f09059a12069)}.\30 6f68ca9-6b54-4605-aacd-f104c559420a{fill:url(#7a46a7ab-f5bc-43dd-8cca-ef5d90b4b11d)}.\38 9001e4c-5271-42cb-bb40-99be07251507{fill:url(#dc2ea668-2b48-4d31-a544-1f83d4bfb47a)}.\36 0e14a18-11cc-4c9c-b8ce-f8d05ef8b47b{fill:url(#e2a2355c-4fba-408f-9942-0db0659fe89a)}.\32 a70a4f8-e6b0-45c0-a5f6-2e8853b297c6{fill:url(#f99f16c5-554a-4c9c-97dc-3137fd12d227)}.\34 69dbbb8-3f1a-4295-9118-704c6242d429{fill:#dbcebf}.\33 41d9b27-977f-4b74-82b2-4c07d99de210,.ec96432c-1df2-408d-8ddd-623f9f88d8f9{fill:#f0e3d1}.\30 4dcdb7e-20fc-43c6-8959-52773eccf50f,.\38 1f5c3d4-64f0-4a04-bf51-e4711ebb9845{fill:none;stroke-linecap:round}.\38 1f5c3d4-64f0-4a04-bf51-e4711ebb9845{stroke:#78726b}.\30 4dcdb7e-20fc-43c6-8959-52773eccf50f,.\33 41d9b27-977f-4b74-82b2-4c07d99de210,.\38 1f5c3d4-64f0-4a04-bf51-e4711ebb9845{stroke-miterlimit:10}.\36 e069269-1cb9-4399-b885-a05f2cb6ef1d{fill:url(#f1fa2417-f2ce-4263-8408-39f31b064c44)}.ab59bbda-ac94-497a-b19c-c64c9c884110{fill:#78726b}.\31 ec4cf58-301f-4bb9-911e-bf0d0614baae{fill:url(#a871b4a2-6590-4179-ba4c-01eb533f46fe)}.\38 cbbb042-2079-4a24-8c80-8971f5e03051{fill:url(#a6d413d1-09af-480a-a85f-4b41798f2323)}.\36 8cafd67-41f0-4d01-86dd-67561d337ae1{fill:url(#f85531b9-e8fb-4454-b427-f87f60309fb8)}.\37 844800a-3d71-4dd1-b1ba-3290f2a73573{fill:#ea4e4e}.\33 41d9b27-977f-4b74-82b2-4c07d99de210{stroke:#f56961}.\38 3c70af9-f68d-4833-8aa4-2de832b94877{fill:url(#e8fcb398-7b4d-4042-bd88-4192f3dee02d)}.eb209b59-e175-421e-9226-b950e18f6ff5{fill:#d39b5e}.a5d2bcb4-2fd1-4eb8-b127-96102ed304e8{fill:#c49153}.a19fc005-fa81-4576-93d5-9ebe663595ea{fill:url(#738b142e-3b94-4c8e-9add-090d0aea65b6)}.\30 4dcdb7e-20fc-43c6-8959-52773eccf50f{stroke:#c49153;stroke-width:.6px}.\37 ba32e25-3a67-4336-9f2a-8dc25835c600{fill:url(#e79a632f-fd44-4eaa-a633-41ae46ba52e5)}.\30 c1389a3-248c-4b53-bdb1-e47f94a67a24{fill:#fff}.\39 72e5ec0-d6fc-49e0-886e-b3255fd6cb33{fill:url(#463943b0-34ad-4286-838c-8a961a927e25)}.fd45f075-4361-4d03-8642-ea2e22ede926{fill:url(#8775e38f-1749-45a8-b1cb-3ab8732059a4)}</style><linearGradient id="8449d414-5943-4361-a9d8-dd79700f9db9" x1="-38.7" y1="43.874" x2="-25.045" y2="43.874" gradientTransform="matrix(-1 0 0 1 15.691 0)" gradientUnits="userSpaceOnUse"><stop offset="0" stop-color="#aadcf7"/><stop offset="1" stop-color="#fff"/></linearGradient><linearGradient id="bceec9a5-fced-470a-8e3c-7649f4d23b7a" x1="57.618" y1="79.649" x2="21.064" y2="79.649" gradientUnits="userSpaceOnUse"><stop offset="0" stop-color="#ea4e4e"/><stop offset=".378" stop-color="#eb5150"/><stop offset=".668" stop-color="#ef5b57"/><stop offset=".93" stop-color="#f76b63"/><stop offset="1" stop-color="#f97167"/></linearGradient><linearGradient id="b230f453-9e0a-4fce-8b3f-f09059a12069" x1="76.175" y1="90.746" x2="46.627" y2="90.746" gradientUnits="userSpaceOnUse"><stop offset="0" stop-color="#ea4e4e"/><stop offset=".338" stop-color="#f15f5a"/><stop offset=".639" stop-color="#f97167"/></linearGradient><linearGradient id="7a46a7ab-f5bc-43dd-8cca-ef5d90b4b11d" x1="-124.875" y1="62.256" x2="-87.344" y2="62.256" xlink:href="#8449d414-5943-4361-a9d8-dd79700f9db9"/><linearGradient id="dc2ea668-2b48-4d31-a544-1f83d4bfb47a" x1="-4.256" y1="81.827" x2="42.81" y2="81.827" gradientTransform="matrix(-1 0 0 1 89.091 0)" xlink:href="#b230f453-9e0a-4fce-8b3f-f09059a12069"/><linearGradient id="e2a2355c-4fba-408f-9942-0db0659fe89a" x1="-4.256" y1="61.038" x2="42.81" y2="61.038" gradientTransform="matrix(-1 0 0 1 89.091 0)" gradientUnits="userSpaceOnUse"><stop offset="0" stop-color="#494949"/><stop offset=".308" stop-color="#696661"/><stop offset=".766" stop-color="#948b80"/><stop offset="1" stop-color="#a59a8c"/></linearGradient><linearGradient id="f99f16c5-554a-4c9c-97dc-3137fd12d227" x1="-4.256" y1="72.327" x2="42.81" y2="72.327" gradientTransform="matrix(-1 0 0 1 89.091 0)" xlink:href="#b230f453-9e0a-4fce-8b3f-f09059a12069"/><linearGradient id="f1fa2417-f2ce-4263-8408-39f31b064c44" x1="-72.883" y1="31.128" x2="-42.975" y2="31.128" gradientTransform="translate(73.4)" xlink:href="#8449d414-5943-4361-a9d8-dd79700f9db9"/><linearGradient id="a871b4a2-6590-4179-ba4c-01eb533f46fe" x1="77.227" y1="92.559" x2="43.321" y2="92.559" gradientUnits="userSpaceOnUse"><stop offset="0" stop-color="#f97167"/><stop offset=".07" stop-color="#f76b63"/><stop offset=".332" stop-color="#ef5b57"/><stop offset=".623" stop-color="#eb5150"/><stop offset="1" stop-color="#ea4e4e"/></linearGradient><linearGradient id="a6d413d1-09af-480a-a85f-4b41798f2323" x1="38.164" y1="109.603" x2="44.891" y2="109.603" gradientTransform="matrix(-1 0 0 1 89.091 0)" xlink:href="#b230f453-9e0a-4fce-8b3f-f09059a12069"/><linearGradient id="f85531b9-e8fb-4454-b427-f87f60309fb8" x1="74.582" y1="88.466" x2="81.299" y2="88.466" gradientTransform="matrix(-1 0 0 1 89.091 0)" xlink:href="#b230f453-9e0a-4fce-8b3f-f09059a12069"/><linearGradient id="e8fcb398-7b4d-4042-bd88-4192f3dee02d" x1="-89.3" y1="110.966" x2="-75.238" y2="110.966" xlink:href="#8449d414-5943-4361-a9d8-dd79700f9db9"/><linearGradient id="738b142e-3b94-4c8e-9add-090d0aea65b6" x1="115.009" y1="110.36" x2="143.411" y2="110.36" gradientTransform="rotate(.238 7.655 -26876.245)" gradientUnits="userSpaceOnUse"><stop offset="0" stop-color="#eab063" stop-opacity="0"/><stop offset="1" stop-color="#eab063"/></linearGradient><linearGradient id="e79a632f-fd44-4eaa-a633-41ae46ba52e5" x1="115.802" y1="103.264" x2="144.204" y2="103.264" xlink:href="#738b142e-3b94-4c8e-9add-090d0aea65b6"/><linearGradient id="463943b0-34ad-4286-838c-8a961a927e25" x1="114.216" y1="96.69" x2="142.618" y2="96.69" xlink:href="#738b142e-3b94-4c8e-9add-090d0aea65b6"/><linearGradient id="8775e38f-1749-45a8-b1cb-3ab8732059a4" x1="116.596" y1="89.848" x2="144.998" y2="89.848" xlink:href="#738b142e-3b94-4c8e-9add-090d0aea65b6"/></defs><title>Artboard 1</title><path class="9b86ac1c-bffb-4a27-9731-3d91d2bc042c" d="M47.655 51.141l6.736-3.884-6.918-10.65-6.737 10.544z"/><path class="4f860ea1-d5bd-4f37-b1a4-bc0828517e58" d="M7.72 100.803l6.79-4.07 34.024 19.887-2.603 3.904-1.73 1.473z"/><path class="ba90deaf-1f0c-44c3-904b-169879ad5a69" d="M55.975 67.922l-28.256 12.88.912-1.236-3.571 16.746a1.01 1.01 0 0 1-1.99-.34l2.19-16.982a1.567 1.567 0 0 1 .781-1.164l.13-.073 27.09-15.183a3.003 3.003 0 0 1 2.936 5.239c-.071.04-.15.08-.222.113z"/><path class="14c1e2c3-06c9-43f5-83b5-17e0aa4c407c" d="M75.18 78.144L52.081 90.578l.55-.794-3.34 16.786a.673.673 0 0 1-1.327-.227l2.42-16.942.07-.493.481-.301L73.17 74.686a2.001 2.001 0 1 1 2.124 3.392 2.206 2.206 0 0 1-.114.066z"/><path class="06f68ca9-6b54-4605-aacd-f104c559420a" d="M122.051 82.229l18.516-10.676-19.016-29.27-18.516 28.978z"/><path class="89001e4c-5271-42cb-bb40-99be07251507" d="M67.672 84.66l25.676-14.927v9.261l-2.573 1.498c.001-.041.007-.084.007-.125 0-3.433-2.784-4.61-6.217-2.628s-6.217 6.373-6.217 9.807c0 .061.007.116.009.176l-10.685 6.2-1.02-5.414-20.37-16.198z"/><path class="60e14a18-11cc-4c9c-b8ce-f8d05ef8b47b" d="M46.282 62.326L71.957 47.4l21.39 12.35-25.675 14.926z"/><path class="2a70a4f8-e6b0-45c0-a5f6-2e8853b297c6" d="M93.348 69.994L67.672 84.921l-21.39-12.35V62.31l21.39 12.35 25.676-14.927v10.261z"/><path class="4f860ea1-d5bd-4f37-b1a4-bc0828517e58" d="M71.957 57.4l-17.045 9.909-8.63-4.983L71.957 47.4l21.391 12.349-8.631 5.018-12.76-7.367z"/><path class="469dbbb8-3f1a-4295-9118-704c6242d429" d="M53.574 74.5l14.24-8.467v27.81l-2.074 1.196a7.243 7.243 0 0 0 .096-1.105c0-3.433-2.784-4.61-6.217-2.627s-6.217 6.373-6.217 9.806a5.309 5.309 0 0 0 .095.995l-3.565 2.058-18.363-10.602L35.21 63.9z"/><path class="4f860ea1-d5bd-4f37-b1a4-bc0828517e58" d="M35.211 63.913l14.24-8.467 18.363 10.602-14.24 8.467z"/><path class="ec96432c-1df2-408d-8ddd-623f9f88d8f9" d="M49.932 104.166L31.568 93.564l3.643-29.665 18.363 10.602-3.642 29.665z"/><path class="4f860ea1-d5bd-4f37-b1a4-bc0828517e58" d="M49.612 75.717l-12.719-7.344-1.363 11.529 12.719 7.343 1.363-11.528zm5.353 11.528l9.413-5.248v-9.762l-8.114 4.593-1.299 10.417z"/><path class="81f5c3d4-64f0-4a04-bf51-e4711ebb9845" d="M36.092 83.687l10 5.773m-10-3.239l10 5.773"/><path class="6e069269-1cb9-4399-b885-a05f2cb6ef1d" d="M15.272 62.256L.518 53.75 15.67 0l14.754 53.516z"/><path class="4f860ea1-d5bd-4f37-b1a4-bc0828517e58" d="M67.542 91.666l-3.488-1.854-10.07 14.545 3.908 2.039 9.65-14.73z"/><ellipse class="4f860ea1-d5bd-4f37-b1a4-bc0828517e58" cx="59.103" cy="97.124" rx="8.86" ry="5.013" transform="rotate(-53.051 59.103 97.124)"/><ellipse class="ab59bbda-ac94-497a-b19c-c64c9c884110" cx="62.928" cy="99.132" rx="8.86" ry="5.013" transform="rotate(-53.051 62.928 99.132)"/><path class="ec96432c-1df2-408d-8ddd-623f9f88d8f9" d="M61.347 102.123a2.604 2.604 0 0 0 1.248-.402 5.934 5.934 0 0 0 2.833-4.417c0-.53-.16-1.162-.919-1.162a2.604 2.604 0 0 0-1.248.4 5.934 5.934 0 0 0-2.833 4.418c0 .53.16 1.163.92 1.163z"/><path class="81f5c3d4-64f0-4a04-bf51-e4711ebb9845" d="M66.928 91.168l-3-1.595m-1.26 2.392l-3-1.595m-.565 4.601l-3-1.595m.362 5.756l-3-1.595m2.653 6.806l-3-1.595"/><path class="4f860ea1-d5bd-4f37-b1a4-bc0828517e58" d="M90.93 78.72l-3.05-1.621-8.805 12.718 3.416 1.783 8.439-12.88z"/><ellipse class="4f860ea1-d5bd-4f37-b1a4-bc0828517e58" cx="83.55" cy="83.492" rx="7.748" ry="4.383" transform="rotate(-53.051 83.55 83.492)"/><ellipse class="ab59bbda-ac94-497a-b19c-c64c9c884110" cx="86.895" cy="85.248" rx="7.748" ry="4.383" transform="rotate(-53.051 86.895 85.248)"/><path class="ec96432c-1df2-408d-8ddd-623f9f88d8f9" d="M85.513 87.863a2.277 2.277 0 0 0 1.091-.35 5.189 5.189 0 0 0 2.477-3.863c0-.464-.139-1.017-.803-1.017a2.277 2.277 0 0 0-1.091.351 5.189 5.189 0 0 0-2.478 3.863c0 .463.14 1.016.804 1.016z"/><path class="81f5c3d4-64f0-4a04-bf51-e4711ebb9845" d="M90.393 78.284l-2.623-1.395m-1.102 2.092l-2.623-1.394m-.495 4.022l-2.623-1.394m.317 5.033l-2.623-1.394m2.319 5.951l-2.623-1.395"/><path class="1ec4cf58-301f-4bb9-911e-bf0d0614baae" d="M75.59 80.777L50.237 92.245l.91-1.235-3.832 18.268a1.01 1.01 0 0 1-1.99-.34l2.45-18.504a1.576 1.576 0 0 1 .777-1.16l.133-.076 24.18-13.767a3.003 3.003 0 0 1 2.972 5.22c-.08.045-.166.088-.249.126z"/><path class="469dbbb8-3f1a-4295-9118-704c6242d429" d="M48.534 116.62L14.51 96.869V76.205l36.407 21.02v13.258l-2.383 6.137z"/><path class="8cbbb042-2079-4a24-8c80-8971f5e03051" d="M48.638 98.56l2.29-1.352-.011 14.638a10.836 10.836 0 0 1-5.328 9.331l-1.389.82z"/><path class="68cafd67-41f0-4d01-86dd-67561d337ae1" d="M12.22 77.449l2.29-1.352v20.772l-6.717 3.965 4.427-23.385z"/><path class="4f860ea1-d5bd-4f37-b1a4-bc0828517e58" d="M40.157 56.69l3.424-1.957 13.517 7.804-3.424 1.958z"/><path class="7844800a-3d71-4dd1-b1ba-3290f2a73573" d="M57.098 68.275l-3.424 1.958-13.517-7.805V56.68l13.517 7.804 3.424-1.957v5.748z"/><path class="ec96432c-1df2-408d-8ddd-623f9f88d8f9" d="M51.94 67.236a1.324 1.324 0 0 1-.635-.204 3.016 3.016 0 0 1-1.44-2.245c0-.27.081-.591.467-.591a1.324 1.324 0 0 1 .634.204 3.016 3.016 0 0 1 1.44 2.245c0 .27-.08.591-.467.591zm-4.516-2.473a1.324 1.324 0 0 1-.634-.204 3.016 3.016 0 0 1-1.44-2.246c0-.27.08-.59.467-.59a1.324 1.324 0 0 1 .634.204 3.016 3.016 0 0 1 1.44 2.245c0 .27-.081.59-.467.59zm-4.258-2.507a1.324 1.324 0 0 1-.634-.204 3.016 3.016 0 0 1-1.44-2.245c0-.27.08-.59.467-.59a1.324 1.324 0 0 1 .634.203 3.016 3.016 0 0 1 1.44 2.245c0 .27-.08.591-.467.591z"/><path class="341d9b27-977f-4b74-82b2-4c07d99de210" d="M74.359 79.116a.52.52 0 0 0 .25-.08 1.187 1.187 0 0 0 .566-.883c0-.107-.032-.233-.184-.233a.52.52 0 0 0-.25.08 1.187 1.187 0 0 0-.566.884c0 .106.032.232.184.232z"/><path class="83c70af9-f68d-4833-8aa4-2de832b94877" d="M98.054 118.449l6.937-4-7.124-10.966-6.937 10.856z"/><ellipse class="eb209b59-e175-421e-9226-b950e18f6ff5" cx="17.195" cy="114.118" rx="16.53" ry="9.352" transform="rotate(-6.711 17.195 114.118)"/><path class="eb209b59-e175-421e-9226-b950e18f6ff5" d="M33.663 109.471l-.025 3.717-32.902 2.475.016-3.715 32.911-2.477z"/><ellipse class="a5d2bcb4-2fd1-4eb8-b127-96102ed304e8" cx="17.209" cy="110.632" rx="16.53" ry="9.352" transform="rotate(-6.711 17.209 110.632)"/><path class="a19fc005-fa81-4576-93d5-9ebe663595ea" d="M14.847 117.867a24.524 24.524 0 0 1-2.792-.169c-4.294-.514-7.63-2.175-8.705-4.335a3.436 3.436 0 0 1 .272-3.455c2.18-3.74 9.037-6.54 15.95-6.51a24.522 24.522 0 0 1 2.792.169c4.293.513 7.628 2.174 8.704 4.334a3.436 3.436 0 0 1-.272 3.456c-2.18 3.74-9.037 6.54-15.95 6.51z"/><path class="04dcdb7e-20fc-43c6-8959-52773eccf50f" d="M11.713 120.182l-.012 2.916M3.486 117.3l-.012 2.916m19.33-.975l-.012 2.916m7.659-6.612l-.012 2.916"/><ellipse class="eb209b59-e175-421e-9226-b950e18f6ff5" cx="18.017" cy="107.025" rx="16.53" ry="9.352" transform="rotate(-6.711 18.017 107.025)"/><path class="eb209b59-e175-421e-9226-b950e18f6ff5" d="M34.485 102.378l-.025 3.717-32.902 2.475.016-3.715 32.911-2.477z"/><ellipse class="a5d2bcb4-2fd1-4eb8-b127-96102ed304e8" cx="18.031" cy="103.539" rx="16.53" ry="9.352" transform="rotate(-6.711 18.031 103.54)"/><path class="7ba32e25-3a67-4336-9f2a-8dc25835c600" d="M15.67 110.774a24.524 24.524 0 0 1-2.793-.169c-4.294-.514-7.63-2.175-8.704-4.335a3.436 3.436 0 0 1 .271-3.455c2.18-3.74 9.038-6.54 15.95-6.51a24.522 24.522 0 0 1 2.792.169c4.294.513 7.629 2.174 8.704 4.334a3.436 3.436 0 0 1-.271 3.456c-2.18 3.74-9.037 6.54-15.95 6.51z"/><path class="04dcdb7e-20fc-43c6-8959-52773eccf50f" d="M12.535 113.089l-.012 2.916m-8.215-5.798l-.012 2.916m19.33-.975l-.012 2.916m7.659-6.612l-.012 2.916"/><g id="44f1818e-711f-46de-b9c2-82d52ca12074" data-name="layer1"><g id="27f11d1d-1efa-4af5-bfa6-d9c9dbfda2ec" data-name="g9624"><g id="28031399-bd7c-4817-a052-9cf1171b7ffa" data-name="g9637"><g id="31394c0b-73ca-4427-a6e0-a1daa03b390f" data-name="g9639"><path id="b3233d47-d938-4b7e-b021-5b718db71d20" data-name="path9643" class="0c1389a3-248c-4b53-bdb1-e47f94a67a24" d="M23.498 101.985c.515-1.06-.587-1.493-2.197-1.695l.918-1.457-1.295-.078-.894 1.42c-.342-.021-.692-.037-1.042-.054l.9-1.429-1.295-.078-.918 1.458a62.15 62.15 0 0 1-.83-.042l.002-.005-1.788-.107-.597.947s.966.045.942.057c.525.031.565.251.5.434l-1.046 1.661c.036.003.042.01-.004.007l-1.467 2.327a.789.789 0 0 1-.671.265c.009.01-.943-.057-.943-.057l-.926 1.044 1.688.102c.312.018.62.04.92.06l-.929 1.475 1.296.078.92-1.459c.351.026.694.05 1.03.07l-.915 1.452 1.296.078.927-1.472c2.233.046 3.995-.238 5.067-1.629.862-1.119.406-1.669-.703-1.947a2.85 2.85 0 0 0 2.052-1.426zm-3.8 3.043c-.695 1.103-3.369.811-4.247.758l1.23-1.952c.879.053 3.741.045 3.017 1.194zm1.135-2.792c-.631 1.002-2.856.748-3.588.703l1.117-1.773c.732.044 3.13.024 2.47 1.07z"/></g></g></g></g><ellipse class="eb209b59-e175-421e-9226-b950e18f6ff5" cx="16.459" cy="100.445" rx="16.53" ry="9.352" transform="rotate(-6.711 16.458 100.445)"/><path class="eb209b59-e175-421e-9226-b950e18f6ff5" d="M32.927 95.798l-.025 3.716L0 101.989l.015-3.714 32.912-2.477z"/><ellipse class="a5d2bcb4-2fd1-4eb8-b127-96102ed304e8" cx="16.473" cy="96.959" rx="16.53" ry="9.352" transform="rotate(-6.711 16.473 96.96)"/><path class="972e5ec0-d6fc-49e0-886e-b3255fd6cb33" d="M14.11 104.194a24.526 24.526 0 0 1-2.792-.17c-4.293-.513-7.628-2.174-8.704-4.334a3.436 3.436 0 0 1 .272-3.455c2.18-3.74 9.037-6.54 15.95-6.511a24.524 24.524 0 0 1 2.792.17c4.293.513 7.628 2.174 8.704 4.334a3.436 3.436 0 0 1-.272 3.456c-2.18 3.74-9.037 6.539-15.95 6.51z"/><path class="04dcdb7e-20fc-43c6-8959-52773eccf50f" d="M10.977 106.509l-.012 2.916m-8.215-5.798l-.012 2.916m19.33-.975l-.012 2.916m7.659-6.612l-.012 2.916"/><g id="634bc30f-1d11-47a7-88bc-2b485d5d4453" data-name="layer1"><g id="8c6dfbf5-a444-43b1-bcb0-3ab8c85b06d8" data-name="g9624"><g id="86e2810c-5a5d-405e-b51a-0587f5396665" data-name="g9637"><g id="7e18892f-d28f-4fcd-acea-7f35d9f08654" data-name="g9639"><path id="28106bf1-8279-441d-a8de-7884015eb1b4" data-name="path9643" class="0c1389a3-248c-4b53-bdb1-e47f94a67a24" d="M21.94 95.405c.515-1.061-.588-1.493-2.197-1.696l.917-1.457-1.294-.077-.895 1.419a83.24 83.24 0 0 0-1.041-.053l.9-1.429-1.295-.078-.918 1.457a61.886 61.886 0 0 1-.83-.04l.002-.006-1.789-.108-.596.948s.965.045.942.057c.525.031.564.251.5.434l-1.047 1.661c.036.002.043.01-.004.006l-1.466 2.328a.788.788 0 0 1-.672.264c.01.011-.942-.056-.942-.056l-.926 1.044 1.687.102c.312.018.62.04.921.06l-.929 1.475 1.296.078.919-1.459q.528.039 1.03.07L13.3 101.8l1.295.078.928-1.472c2.232.045 3.995-.239 5.067-1.629.862-1.12.406-1.669-.703-1.947a2.85 2.85 0 0 0 2.051-1.426zm-3.8 3.043c-.695 1.103-3.369.81-4.247.758l1.23-1.953c.879.053 3.74.046 3.017 1.195zm1.134-2.792c-.63 1.002-2.856.747-3.587.703l1.117-1.773c.731.044 3.13.023 2.47 1.07z"/></g></g></g></g><ellipse class="eb209b59-e175-421e-9226-b950e18f6ff5" cx="18.867" cy="93.613" rx="16.53" ry="9.352" transform="rotate(-6.711 18.867 93.613)"/><path class="eb209b59-e175-421e-9226-b950e18f6ff5" d="M35.335 88.966l-.024 3.716-32.902 2.475.015-3.714 32.911-2.477z"/><ellipse class="a5d2bcb4-2fd1-4eb8-b127-96102ed304e8" cx="18.881" cy="90.127" rx="16.53" ry="9.352" transform="rotate(-6.711 18.881 90.127)"/><path class="fd45f075-4361-4d03-8642-ea2e22ede926" d="M16.52 97.362a24.524 24.524 0 0 1-2.793-.17c-4.294-.513-7.629-2.174-8.704-4.334a3.436 3.436 0 0 1 .271-3.456c2.18-3.74 9.038-6.539 15.95-6.51a24.522 24.522 0 0 1 2.793.169c4.293.514 7.628 2.175 8.703 4.335a3.436 3.436 0 0 1-.271 3.455c-2.18 3.74-9.037 6.54-15.95 6.51z"/><path class="04dcdb7e-20fc-43c6-8959-52773eccf50f" d="M13.386 99.677l-.013 2.916m-8.215-5.798l-.012 2.916m19.33-.976l-.012 2.916m7.659-6.611l-.012 2.916"/><path class="0c1389a3-248c-4b53-bdb1-e47f94a67a24" d="M24.295 86.547c-2.836-1.64-7.711-1.51-10.888.289a6.654 6.654 0 0 0-1.555 1.18l1.536.888 4.84-2.741-.402 4.047 7.077-.187-4.84 2.74 1.535.889a10.33 10.33 0 0 0 2.079-.878c3.177-1.799 3.453-4.587.618-6.227"/><path class="0c1389a3-248c-4b53-bdb1-e47f94a67a24" d="M16.199 90.254l.175-1.767-3.046 1.724-2.163-1.25c-.755 1.459-.234 3.027 1.624 4.102a11.305 11.305 0 0 0 7.151.972l-2.164-1.251 3.046-1.725-3.09.082-1.626.043.093-.93z"/></svg>