<?xml version="1.0" encoding="utf-8"?>
<!-- Generator: Adobe Illustrator 19.1.0, SVG Export Plug-In . SVG Version: 6.00 Build 0)  -->
<svg version="1.1" id="Layer_1" xmlns="http://www.w3.org/2000/svg" xmlns:xlink="http://www.w3.org/1999/xlink" x="0px" y="0px"
	 viewBox="0 0 1000 1000" style="enable-background:new 0 0 1000 1000;" xml:space="preserve">
<style type="text/css">
	.st0{fill:#EA4E4E;}
	.st1{fill:#F0E3D1;}
	.st2{fill:#494949;}
	.st3{fill:#F8CBAC;}
	.st4{fill:none;stroke:#494949;stroke-linecap:round;stroke-miterlimit:10;}
	.st5{fill:none;stroke:#A59A8C;stroke-linecap:round;stroke-miterlimit:10;}
	.st6{fill:#EDF8FE;}
	.st7{fill:none;stroke:#F0E3D1;stroke-miterlimit:10;}
	.st8{fill:url(#SVGID_1_);}
	.st9{fill:none;stroke:#494949;stroke-width:2;stroke-linecap:round;stroke-miterlimit:10;}
	.st10{fill:url(#SVGID_2_);}
	.st11{fill:url(#SVGID_3_);}
	.st12{fill:#A59A8C;}
	.st13{fill:url(#SVGID_4_);}
	.st14{fill:url(#SVGID_5_);}
	.st15{fill:url(#SVGID_6_);}
	.st16{fill:url(#SVGID_7_);}
	.st17{fill:#FFFFFF;}
	.st18{fill:url(#SVGID_8_);}
	.st19{fill:#DBCEBF;}
	.st20{fill:url(#SVGID_9_);}
	.st21{fill:url(#SVGID_10_);}
	.st22{fill:url(#SVGID_11_);}
	.st23{fill:url(#SVGID_12_);}
	.st24{fill:url(#SVGID_13_);}
	.st25{fill:url(#SVGID_14_);}
	.st26{fill:url(#SVGID_15_);}
	.st27{fill:url(#SVGID_16_);}
	.st28{fill:url(#SVGID_17_);}
	.st29{fill:none;stroke:#DBCEBF;stroke-width:22;stroke-linecap:round;stroke-linejoin:round;stroke-miterlimit:10;}
	.st30{fill:url(#SVGID_18_);}
	.st31{fill:#D39B5E;}
	.st32{fill:#C49153;}
	.st33{fill:url(#SVGID_19_);}
	.st34{fill:none;stroke:#C49153;stroke-linecap:round;stroke-miterlimit:10;}
	.st35{fill:url(#SVGID_20_);}
	.st36{fill:url(#SVGID_21_);}
	.st37{fill:url(#SVGID_22_);}
	.st38{fill:url(#SVGID_23_);}
	.st39{fill:url(#SVGID_24_);}
	.st40{fill:url(#SVGID_25_);}
	.st41{fill:url(#SVGID_26_);}
	.st42{fill:url(#SVGID_27_);}
	.st43{fill:url(#SVGID_28_);}
	.st44{fill:url(#SVGID_29_);}
	.st45{fill:none;stroke:#78726B;stroke-linecap:round;stroke-miterlimit:10;}
	.st46{fill:#78726B;}
	.st47{fill:url(#SVGID_30_);}
	.st48{fill:url(#SVGID_31_);}
	.st49{fill:url(#SVGID_32_);}
	.st50{fill:#F0E3D1;stroke:#F56961;stroke-miterlimit:10;}
	.st51{fill:url(#SVGID_33_);}
	.st52{fill:url(#SVGID_34_);}
	.st53{fill:url(#SVGID_35_);}
	.st54{fill:url(#SVGID_36_);}
	.st55{fill:url(#SVGID_37_);}
	.st56{fill:url(#SVGID_38_);}
	.st57{fill:url(#SVGID_39_);}
	.st58{fill:url(#SVGID_40_);}
	.st59{fill:url(#SVGID_41_);}
	.st60{fill:url(#SVGID_42_);}
	.st61{fill:url(#SVGID_43_);}
	.st62{fill:url(#SVGID_44_);}
	.st63{fill:url(#SVGID_45_);}
	.st64{fill:url(#SVGID_46_);}
	.st65{fill:url(#SVGID_47_);}
	.st66{fill:url(#SVGID_48_);}
	.st67{fill:url(#SVGID_49_);}
	.st68{fill:url(#SVGID_50_);}
	.st69{fill:url(#SVGID_51_);}
	.st70{fill:url(#SVGID_52_);}
	.st71{fill:url(#SVGID_53_);}
	.st72{fill:url(#SVGID_54_);}
	.st73{fill:url(#SVGID_55_);}
	.st74{fill:url(#SVGID_56_);}
	.st75{fill:url(#SVGID_57_);}
	.st76{fill:url(#SVGID_58_);}
	.st77{fill:url(#SVGID_59_);}
	.st78{fill:url(#SVGID_60_);}
	.st79{fill:url(#SVGID_61_);}
	.st80{fill:url(#SVGID_62_);}
	.st81{fill:url(#SVGID_63_);}
	.st82{fill:url(#SVGID_64_);}
	.st83{fill:url(#SVGID_65_);}
	.st84{fill:url(#SVGID_66_);}
	.st85{fill:url(#SVGID_67_);}
</style>
<g>
	<g>
		<path class="st0" d="M246.4,751.2l-5.1-2.5c-0.5-0.2-0.7-0.8-0.5-1.3c0.2-0.5,0.8-0.7,1.3-0.5c0,0,0.1,0,0.1,0.1l4.7,3.2
			c0.3,0.2,0.4,0.6,0.2,0.9C247,751.3,246.6,751.4,246.4,751.2z"/>
	</g>
	<g>
		<path class="st0" d="M252.4,749.8l-4.7-2.3c-0.5-0.2-0.7-0.8-0.5-1.3c0.2-0.5,0.8-0.7,1.3-0.5c0,0,0.1,0,0.1,0.1l4.3,2.9
			c0.3,0.2,0.4,0.6,0.2,0.9C253,749.9,252.7,749.9,252.4,749.8z"/>
	</g>
	<g>
		<path class="st1" d="M234.3,710.9c0,0,0-5.1,0-10.2c0-0.6,0-1.4,0.2-2.1c0.2-0.7,0.4-1.4,0.7-1.9c0.3-0.6,0.8-1.1,1.1-1.5
			c0.4-0.4,0.7-0.8,1-1.2c1.3-1.4,2.1-2.4,2.1-2.4c0.4-0.4,1-0.5,1.4-0.1s0.5,1,0.1,1.4c0,0,0,0,0,0c0,0-0.9,0.9-2.2,2.3
			c-0.3,0.3-0.7,0.7-1.1,1.1c-0.4,0.4-0.7,0.7-1,1.2c-0.3,0.4-0.5,0.9-0.7,1.5c-0.2,0.6-0.2,1-0.2,1.7c-0.1,5.1-0.3,10.2-0.3,10.2
			c0,0.3-0.3,0.6-0.6,0.6C234.6,711.5,234.3,711.2,234.3,710.9z"/>
	</g>
	<path class="st1" d="M249.1,715.9h-9.4c-0.7,0-1.3-0.6-1.3-1.3v-23.9c0-0.6,0.5-1.2,1.2-1.2h9.1c1,0,1.7,0.8,1.7,1.7v23.3
		C250.4,715.3,249.8,715.9,249.1,715.9z"/>
	<polygon class="st2" points="250.5,716.1 238.3,716.2 238.4,710.6 250.4,710.6 	"/>
	<g>
		<path class="st1" d="M261.1,696l-7.3,2.8c-0.3,0.1-0.6,0-0.8-0.2l0,0l-5.4-6.2l0.7,0.3l-5.3,0.1c-0.6,0-1-0.4-1-1c0-0.6,0.4-1,1-1
			c0,0,0,0,0,0l5.3,0.1l0,0c0.3,0,0.5,0.1,0.7,0.3l5.2,6.4l-0.9-0.2l7.5-2.5c0.3-0.1,0.7,0.1,0.8,0.4
			C261.6,695.5,261.4,695.9,261.1,696z"/>
	</g>
	<path class="st2" d="M243.4,715.4l-0.2,30.1c0,0.9-0.7,1.6-1.6,1.6c-0.8,0-1.5-0.7-1.6-1.5l-1.8-30.1c-0.1-1.4,1-2.6,2.4-2.7
		c1.4-0.1,2.6,1,2.7,2.4C243.4,715.2,243.4,715.3,243.4,715.4z"/>
	<path class="st2" d="M250.5,715.4l-1,29.1c0,0.9-0.8,1.6-1.6,1.5c-0.8,0-1.5-0.7-1.5-1.5l-1-29.1c0-1.4,1.1-2.6,2.5-2.7
		c1.4,0,2.6,1.1,2.7,2.5C250.5,715.3,250.5,715.4,250.5,715.4z"/>
	<circle class="st3" cx="235" cy="712.4" r="2"/>
	<circle class="st3" cx="261.4" cy="694.7" r="1.8"/>
	<path class="st2" d="M242.5,687.5h3.7c0.8,0,1.5-0.7,1.5-1.5v-7.1h-5.4c-0.8,0-1.4,0.6-1.4,1.4v5.8
		C241,686.8,241.7,687.5,242.5,687.5z"/>
	<path class="st3" d="M245.4,691h-1.9c-0.4,0-0.8-0.3-0.8-0.8v-4.7h3.4v4.7C246.1,690.6,245.8,691,245.4,691z"/>
	<path class="st3" d="M243.1,687.3h2.7c0.6,0,1.1-0.5,1.1-1.1v-4.4c0-0.6-0.5-1.1-1.1-1.1h-2.7c-0.6,0-1.1,0.5-1.1,1.1v4.4
		C242,686.8,242.5,687.3,243.1,687.3z"/>
</g>
<g>
	<line class="st4" x1="263.6" y1="690.3" x2="261.4" y2="693.8"/>
	<line class="st5" x1="265.3" y1="687.6" x2="263.7" y2="690.1"/>
	<path class="st6" d="M266.3,686.4c0.3,0,0.8-0.1,1.4-0.5c1.8-1.1,3.4-3.5,3.4-5.3c0-1.2-0.7-1.2-0.9-1.2c-0.3,0-0.8,0.1-1.4,0.5
		c-1.8,1.1-3.4,3.5-3.4,5.3C265.4,686.4,266.1,686.4,266.3,686.4z"/>
	<path class="st7" d="M264.3,685.2c0,2.2,1.8,2.9,3.9,1.7c2.2-1.3,3.9-4,3.9-6.2c0-2.2-1.8-2.9-3.9-1.7
		C266.1,680.2,264.3,683,264.3,685.2z"/>
	
		<linearGradient id="SVGID_1_" gradientUnits="userSpaceOnUse" x1="6989.377" y1="701.6692" x2="7010.8823" y2="683.6243" gradientTransform="matrix(-1 0 0 1 7278.3911 0)">
		<stop  offset="0.1045" style="stop-color:#D39B5E;stop-opacity:0"/>
		<stop  offset="0.9332" style="stop-color:#D39B5E;stop-opacity:0.3702"/>
		<stop  offset="1" style="stop-color:#D39B5E;stop-opacity:0.4"/>
	</linearGradient>
	<path class="st8" d="M266.3,686.4c0.3,0,0.8-0.1,1.4-0.5c1.8-1.1,3.4-3.5,3.4-5.3c0-0.5-0.1-0.8-0.3-1l0,0l26.9,11.6l-20.1,18.5
		l-11.9-23.5l0.1-0.1C265.9,686.4,266.2,686.4,266.3,686.4z"/>
</g>
<g>
	<g>
		<line class="st9" x1="517.9" y1="283.9" x2="517.9" y2="305.3"/>
		<line class="st9" x1="478.2" y1="307" x2="478.2" y2="328.4"/>
		<line class="st9" x1="438.5" y1="329.2" x2="438.5" y2="350.5"/>
		<line class="st9" x1="398.9" y1="351.6" x2="398.9" y2="373"/>
		<line class="st9" x1="359.4" y1="373.7" x2="359.4" y2="395.1"/>
	</g>
	<g>
		
			<linearGradient id="SVGID_2_" gradientUnits="userSpaceOnUse" x1="-4713.9404" y1="210.6112" x2="-4833.2402" y2="417.2451" gradientTransform="matrix(1 0 0 1 5169.6528 0)">
			<stop  offset="5.128205e-003" style="stop-color:#423732"/>
			<stop  offset="0.3533" style="stop-color:#695E56"/>
			<stop  offset="0.7815" style="stop-color:#94897D"/>
			<stop  offset="1" style="stop-color:#A59A8C"/>
		</linearGradient>
		<path class="st10" d="M257,371v-17.7l208.7-120.5c8.8-5.1,19.6-5.1,28.4,0l41.1,23.7v17.7L312,403.1L257,371z"/>
	</g>
	<g>
		
			<linearGradient id="SVGID_3_" gradientUnits="userSpaceOnUse" x1="-4717.7798" y1="208.3945" x2="-4829.4009" y2="401.7284" gradientTransform="matrix(1 0 0 1 5169.6528 0)">
			<stop  offset="0" style="stop-color:#A59A8C"/>
			<stop  offset="0.2185" style="stop-color:#94897D"/>
			<stop  offset="0.6467" style="stop-color:#695E56"/>
			<stop  offset="0.9949" style="stop-color:#423732"/>
		</linearGradient>
		<path class="st11" d="M257,353.3l209.8-121.1c8.1-4.7,18.2-4.7,26.3,0l42.2,24.3L312,385.4L257,353.3z"/>
	</g>
	<g>
		<path class="st12" d="M504.5,282.9c0,2.8-2.3,6.4-5.1,8c-2.8,1.6-5.1,0.7-5.1-2.1s2.3-6.4,5.1-8S504.5,280.1,504.5,282.9z"/>
		<path class="st12" d="M463.9,306.4c0,2.8-2.3,6.4-5.1,8c-2.8,1.6-5.1,0.7-5.1-2.1s2.3-6.4,5.1-8
			C461.6,302.7,463.9,303.6,463.9,306.4z"/>
		<path class="st12" d="M423.3,329.7c0,2.8-2.3,6.4-5.1,8c-2.8,1.6-5.1,0.7-5.1-2.1c0-2.8,2.3-6.4,5.1-8
			C421,325.9,423.3,326.9,423.3,329.7z"/>
		<path class="st12" d="M382.7,353.5c0,2.8-2.3,6.4-5.1,8s-5.1,0.7-5.1-2.1c0-2.8,2.3-6.4,5.1-8
			C380.4,349.7,382.7,350.7,382.7,353.5z"/>
	</g>
</g>
<g>
	<g>
		<g>
			
				<linearGradient id="SVGID_4_" gradientUnits="userSpaceOnUse" x1="-37.8488" y1="593.5128" x2="96.8964" y2="593.5128" gradientTransform="matrix(1 0 0 1 73.4001 0)">
				<stop  offset="0" style="stop-color:#AADCF7"/>
				<stop  offset="1" style="stop-color:#FFFFFF"/>
			</linearGradient>
			<path class="st13" d="M102,733.8l-66.5-38.3l68.3-242.2l66.5,241.1L102,733.8z"/>
		</g>
	</g>
</g>
<g>
	<g>
		<g>
			
				<linearGradient id="SVGID_5_" gradientUnits="userSpaceOnUse" x1="116.0053" y1="577.4427" x2="224.0313" y2="577.4427" gradientTransform="matrix(1 0 0 1 73.4001 0)">
				<stop  offset="0" style="stop-color:#AADCF7"/>
				<stop  offset="1" style="stop-color:#FFFFFF"/>
			</linearGradient>
			<path class="st14" d="M242.7,634.9l-53.3-30.7l54.7-84.2l53.3,83.4L242.7,634.9z"/>
		</g>
	</g>
</g>
<linearGradient id="SVGID_6_" gradientUnits="userSpaceOnUse" x1="6730.1333" y1="762.2104" x2="7074.6187" y2="762.2104" gradientTransform="matrix(-1 0 0 1 7614.9922 0)">
	<stop  offset="0" style="stop-color:#AADCF7"/>
	<stop  offset="0.1946" style="stop-color:#AFDEF7"/>
	<stop  offset="0.4282" style="stop-color:#BEE4F9"/>
	<stop  offset="0.6818" style="stop-color:#D6EEFB"/>
	<stop  offset="0.9479" style="stop-color:#F8FCFE"/>
	<stop  offset="1" style="stop-color:#FFFFFF"/>
</linearGradient>
<path class="st15" d="M546.3,718L709,624.8c3.7-2.1,8.1-2.1,11.8,0l10.2,5.8c3.6,2.1,8.1,2.1,11.8,0l24-13.7c3.7-2.1,8.1-2.1,11.8,0
	l72.7,41.8c7.9,4.6,7.9,16,0,20.5l0,0c-7.9,4.5-7.9,16,0,20.5l0,0c7.9,4.6,7.9,16,0,20.5L819,738.8c-7.9,4.5-7.9,16,0,20.5
	l59.9,34.5c7.9,4.6,7.9,16,0,20.5l-162.7,93.2c-3.7,2.1-8.1,2.1-11.8,0l-130.4-75c-7.9-4.6-7.9-16,0-20.5l32.2-18.4
	c7.9-4.5,7.9-16,0-20.5l-59.9-34.5C538.4,734,538.4,722.5,546.3,718z"/>
<g>
	<linearGradient id="SVGID_7_" gradientUnits="userSpaceOnUse" x1="661.5084" y1="823.5876" x2="746.1956" y2="823.5876">
		<stop  offset="0" style="stop-color:#8BCDEA"/>
		<stop  offset="8.696914e-002" style="stop-color:#8FCFEC;stop-opacity:0.9174"/>
		<stop  offset="0.6313" style="stop-color:#A3D9F4;stop-opacity:0.4003"/>
		<stop  offset="1" style="stop-color:#AADCF7;stop-opacity:5.000000e-002"/>
	</linearGradient>
	<path class="st16" d="M733.2,818.3L733.2,818.3c4.3-2.5,4.3-8.7,0-11.2l-26.4-15.4c-2-1.2-4.5-1.2-6.5,0L684,801l-0.1-0.1l-19.1,11
		c-4.3,2.5-4.3,8.7,0,11.2l55.8,32.4c2,1.2,4.5,1.2,6.5,0l15.9-9.1c4.3-2.5,4.3-8.7,0-11.2l-9.8-5.7
		C728.8,827,728.8,820.7,733.2,818.3z"/>
	<path class="st17" d="M733.2,811.1L733.2,811.1c4.3-2.5,4.3-8.7,0-11.2l-26.4-15.4c-2-1.2-4.5-1.2-6.5,0l-16.3,9.4l-0.1-0.1
		l-19.1,11c-4.3,2.5-4.3,8.7,0,11.2l55.8,32.4c2,1.2,4.5,1.2,6.5,0l15.9-9.1c4.3-2.5,4.3-8.7,0-11.2l-9.8-5.7
		C728.8,819.8,728.8,813.6,733.2,811.1z"/>
</g>
<g>
	<g>
		<g>
			
				<linearGradient id="SVGID_8_" gradientUnits="userSpaceOnUse" x1="699.1915" y1="225.8546" x2="865.1476" y2="225.8546" gradientTransform="matrix(1 0 0 1 73.4001 0)">
				<stop  offset="0" style="stop-color:#AADCF7"/>
				<stop  offset="1" style="stop-color:#FFFFFF"/>
			</linearGradient>
			<path class="st18" d="M854.5,398.6l-81.9-47.2l84.1-298.2l81.9,297L854.5,398.6z"/>
		</g>
	</g>
</g>
<g>
	<g>
		<g>
			<g>
				<path class="st1" d="M246.8,216.6l-87.4-50.5l89.8-51.8l87.4,50.5L246.8,216.6z"/>
			</g>
			<polygon class="st19" points="159.4,424.2 246.8,474.7 336.6,422.9 336.6,164.8 246.8,216.6 159.4,166.1 			"/>
			<polygon class="st12" points="246.8,474.7 336.6,422.9 336.6,164.8 246.8,216.6 			"/>
		</g>
	</g>
</g>
<g>
	<line class="st9" x1="282.7" y1="466.3" x2="282.7" y2="487.6"/>
	<line class="st9" x1="322.4" y1="489.4" x2="322.4" y2="510.7"/>
	<line class="st9" x1="362.1" y1="511.6" x2="362.1" y2="532.9"/>
	<line class="st9" x1="401.7" y1="534" x2="401.7" y2="555.3"/>
	<line class="st9" x1="441.2" y1="556.1" x2="441.2" y2="577.4"/>
</g>
<g>
	
		<linearGradient id="SVGID_9_" gradientUnits="userSpaceOnUse" x1="2063.8679" y1="353.8248" x2="1921.9677" y2="599.6035" gradientTransform="matrix(-1 0 0 1 2386.1589 0)">
		<stop  offset="0" style="stop-color:#A59A8C"/>
		<stop  offset="0.2185" style="stop-color:#94897D"/>
		<stop  offset="0.6467" style="stop-color:#695E56"/>
		<stop  offset="0.9949" style="stop-color:#423732"/>
	</linearGradient>
	<path class="st20" d="M488.6,585.5L265.3,456.6l0-69.9l278.2,148.9v11.1L488.6,585.5z"/>
</g>
<g>
	
		<linearGradient id="SVGID_10_" gradientUnits="userSpaceOnUse" x1="2064.8279" y1="343.2957" x2="1925.807" y2="584.0868" gradientTransform="matrix(-1 0 0 1 2386.1589 0)">
		<stop  offset="5.128205e-003" style="stop-color:#423732"/>
		<stop  offset="0.3533" style="stop-color:#695E56"/>
		<stop  offset="0.7815" style="stop-color:#94897D"/>
		<stop  offset="1" style="stop-color:#A59A8C"/>
	</linearGradient>
	<path class="st21" d="M488.6,567.8L265.3,438.9l0-63.3l278.2,160L488.6,567.8z"/>
</g>
<g>
	<linearGradient id="SVGID_11_" gradientUnits="userSpaceOnUse" x1="265.3445" y1="438.9119" x2="320.6331" y2="343.1493">
		<stop  offset="0" style="stop-color:#A59A8C"/>
		<stop  offset="1" style="stop-color:#F0E3D1"/>
	</linearGradient>
	<polygon class="st22" points="265.3,438.9 320.6,407 320.6,343.2 265.3,375.1 	"/>
	<linearGradient id="SVGID_12_" gradientUnits="userSpaceOnUse" x1="265.4333" y1="438.9634" x2="293.0382" y2="391.1504">
		<stop  offset="5.128205e-003" style="stop-color:#423732"/>
		<stop  offset="0.3533" style="stop-color:#695E56"/>
		<stop  offset="0.7815" style="stop-color:#94897D"/>
		<stop  offset="1" style="stop-color:#A59A8C"/>
	</linearGradient>
	<polygon class="st23" points="265.3,375.6 265.3,438.9 320.5,407 	"/>
</g>
<g>
	<g>
		<g>
			<g>
				<path class="st1" d="M576.7,534.1l-116.6-67.3l119.8-69.1l116.6,67.3L576.7,534.1z"/>
			</g>
			<polygon class="st19" points="460.1,633.7 576.7,701 696.5,631.9 696.5,464.8 576.7,534 460.1,466.7 			"/>
			<polygon class="st12" points="576.7,701 696.5,631.9 696.5,464.8 576.7,534 			"/>
		</g>
	</g>
	<g>
		<polygon class="st1" points="603.2,566.7 618.9,557.6 618.9,540.1 603.2,549.2 		"/>
	</g>
	<g>
		<polygon class="st2" points="672,580.7 683.1,574.3 683.1,562 672,568.4 		"/>
	</g>
</g>
<g>
	<path class="st12" d="M296.1,465.3c0,2.8,2.3,6.4,5.1,8s5.1,0.7,5.1-2.1c0-2.8-2.3-6.4-5.1-8C298.4,461.5,296.1,462.5,296.1,465.3z
		"/>
	<path class="st12" d="M336.7,488.8c0,2.8,2.3,6.4,5.1,8s5.1,0.7,5.1-2.1c0-2.8-2.3-6.4-5.1-8C339,485,336.7,486,336.7,488.8z"/>
	<path class="st12" d="M377.3,512c0,2.8,2.3,6.4,5.1,8c2.8,1.6,5.1,0.7,5.1-2.1s-2.3-6.4-5.1-8C379.6,508.3,377.3,509.2,377.3,512z"
		/>
	<path class="st12" d="M417.9,535.8c0,2.8,2.3,6.4,5.1,8c2.8,1.6,5.1,0.7,5.1-2.1c0-2.8-2.3-6.4-5.1-8
		C420.2,532.1,417.9,533,417.9,535.8z"/>
</g>
<g>
	<g>
		<g>
			<g>
				<path class="st1" d="M470,616.1l-87.4-50.5l89.8-51.8l87.4,50.5L470,616.1z"/>
			</g>
			<polygon class="st19" points="382.6,690.6 470,741.1 559.8,689.3 559.8,564.2 470,616 382.6,565.5 			"/>
			<polygon class="st12" points="470,741.1 559.8,689.3 559.8,564.2 470,616 			"/>
		</g>
	</g>
	<g>
		<polygon class="st2" points="521,630.2 530.7,624.6 530.7,613.8 521,619.4 		"/>
	</g>
	<g>
		<polygon class="st2" points="499.1,652.7 508.8,647.1 508.8,636.3 499.1,641.9 		"/>
	</g>
	<g>
		<polygon class="st1" points="491.3,707.6 507,698.5 507,681 491.3,690.1 		"/>
	</g>
</g>
<g>
	<g>
		<line class="st9" x1="434" y1="730.2" x2="434" y2="751.5"/>
		<line class="st9" x1="394.3" y1="753.3" x2="394.3" y2="774.6"/>
		<line class="st9" x1="354.6" y1="775.5" x2="354.6" y2="796.8"/>
		<line class="st9" x1="314.9" y1="797.9" x2="314.9" y2="819.2"/>
		<line class="st9" x1="275.5" y1="820" x2="275.5" y2="841.3"/>
	</g>
	<g>
		<line class="st9" x1="221.3" y1="789.9" x2="221.3" y2="811.2"/>
	</g>
	<g>
		
			<linearGradient id="SVGID_13_" gradientUnits="userSpaceOnUse" x1="-4765.3623" y1="623.4338" x2="-4887.4375" y2="834.8745" gradientTransform="matrix(1 0 0 1 5169.6528 0)">
			<stop  offset="0" style="stop-color:#A59A8C"/>
			<stop  offset="0.2185" style="stop-color:#94897D"/>
			<stop  offset="0.6467" style="stop-color:#695E56"/>
			<stop  offset="0.9949" style="stop-color:#423732"/>
		</linearGradient>
		<path class="st24" d="M212.7,794.3v-17.7l238.6-126l0,69.9L267.7,826.5L212.7,794.3z"/>
	</g>
	<g>
		
			<linearGradient id="SVGID_14_" gradientUnits="userSpaceOnUse" x1="-4764.4023" y1="612.9047" x2="-4883.5981" y2="819.3579" gradientTransform="matrix(1 0 0 1 5169.6528 0)">
			<stop  offset="5.128205e-003" style="stop-color:#423732"/>
			<stop  offset="0.3533" style="stop-color:#695E56"/>
			<stop  offset="0.7815" style="stop-color:#94897D"/>
			<stop  offset="1" style="stop-color:#A59A8C"/>
		</linearGradient>
		<path class="st25" d="M212.7,776.6l238.6-137.1l0,63.3L267.7,808.7L212.7,776.6z"/>
	</g>
	<g>
		
			<linearGradient id="SVGID_15_" gradientUnits="userSpaceOnUse" x1="7104.4619" y1="702.8126" x2="7159.7505" y2="607.05" gradientTransform="matrix(-1 0 0 1 7555.8115 0)">
			<stop  offset="0" style="stop-color:#F0E3D1"/>
			<stop  offset="1" style="stop-color:#A59A8C"/>
		</linearGradient>
		<polygon class="st26" points="451.4,702.8 396,670.9 396,607.1 451.4,639 		"/>
		
			<linearGradient id="SVGID_16_" gradientUnits="userSpaceOnUse" x1="7104.5508" y1="702.8641" x2="7132.1553" y2="655.0511" gradientTransform="matrix(-1 0 0 1 7555.8115 0)">
			<stop  offset="5.128205e-003" style="stop-color:#423732"/>
			<stop  offset="0.3533" style="stop-color:#695E56"/>
			<stop  offset="0.7815" style="stop-color:#94897D"/>
			<stop  offset="1" style="stop-color:#A59A8C"/>
		</linearGradient>
		<polygon class="st27" points="451.4,639.5 451.4,702.8 396.2,670.9 		"/>
	</g>
	<g>
		<path class="st12" d="M420.6,729.2c0,2.8-2.3,6.4-5.1,8s-5.1,0.7-5.1-2.1s2.3-6.4,5.1-8C418.3,725.4,420.6,726.4,420.6,729.2z"/>
		<path class="st12" d="M380,752.7c0,2.8-2.3,6.4-5.1,8c-2.8,1.6-5.1,0.7-5.1-2.1s2.3-6.4,5.1-8C377.7,748.9,380,749.9,380,752.7z"
			/>
		<path class="st12" d="M339.4,775.9c0,2.8-2.3,6.4-5.1,8c-2.8,1.6-5.1,0.7-5.1-2.1c0-2.8,2.3-6.4,5.1-8
			C337.1,772.2,339.4,773.1,339.4,775.9z"/>
		<path class="st12" d="M298.8,799.8c0,2.8-2.3,6.4-5.1,8c-2.8,1.6-5.1,0.7-5.1-2.1c0-2.8,2.3-6.4,5.1-8
			C296.5,796,298.8,796.9,298.8,799.8z"/>
	</g>
</g>
<g>
	<g>
		<g>
			<g>
				<g>
					<path class="st1" d="M459.5,552.1l-44.8-25.9l46-26.6l44.8,25.9L459.5,552.1z"/>
				</g>
				<polygon class="st19" points="414.7,567.6 459.5,593.5 505.6,566.9 505.6,525.5 459.5,552.1 414.7,526.2 				"/>
				<polygon class="st12" points="459.5,593.5 505.6,566.9 505.6,525.5 459.5,552.1 				"/>
			</g>
		</g>
	</g>
	<g>
		<polygon class="st2" points="487.8,557.2 495.2,552.9 495.2,544.7 487.8,548.9 		"/>
	</g>
	<g>
		<linearGradient id="SVGID_17_" gradientUnits="userSpaceOnUse" x1="424.7697" y1="554.9131" x2="438.0255" y2="554.9131">
			<stop  offset="0" style="stop-color:#EA4E4E"/>
			<stop  offset="0.3377" style="stop-color:#F15F5A"/>
			<stop  offset="0.6387" style="stop-color:#F97167"/>
		</linearGradient>
		<polygon class="st28" points="438,566.1 424.8,558.5 424.8,543.7 438,551.4 		"/>
	</g>
</g>
<g>
	<g>
		<g>
			<path class="st2" d="M564.5,445.5l1,53.6c0,0.8-0.6,1.5-1.5,1.5s-1.5-0.6-1.5-1.5c0,0,0,0,0-0.1l1-53.6c0-0.3,0.2-0.5,0.5-0.5
				C564.3,445.1,564.5,445.3,564.5,445.5z"/>
		</g>
		<g>
			<path class="st2" d="M640.4,402.5l1,53.6c0,0.8-0.6,1.5-1.5,1.5c-0.8,0-1.5-0.6-1.5-1.5c0,0,0,0,0-0.1l1-53.6
				c0-0.3,0.2-0.5,0.5-0.5C640.1,402,640.4,402.2,640.4,402.5z"/>
		</g>
	</g>
	<g>
		<polygon class="st0" points="742.7,366 483.3,515.8 483.3,448.2 742.7,298.4 		"/>
		<g>
			<path class="st17" d="M527,446.8v17.9l-2.3,1.3v-17.9L527,446.8z"/>
			<path class="st17" d="M544.9,453.8c-0.9,0.9-2.6,2.3-4.7,3.6c-5.1,2.9-8.9,1.9-8.9-4c0-5.6,3.8-11.6,9.4-14.8
				c2.2-1.3,3.6-1.6,4.3-1.7l-0.6,2.2c-0.9,0.1-2.1,0.5-3.6,1.3c-4.2,2.4-7,6.7-7,11.4c0,4.4,2.5,5.7,6.9,3.2
				c1.4-0.8,2.8-1.9,3.8-2.9L544.9,453.8z"/>
			<path class="st17" d="M563.9,434.3c0,6.2-3.8,11.6-8.3,14.2c-4.7,2.7-8.1,1-8.1-4.4c0-5.7,3.5-11.5,8.3-14.2
				C560.7,427.1,563.9,429,563.9,434.3z M549.9,442.6c0,3.8,2.1,6.1,5.7,4c3.7-2.1,5.7-6.7,5.7-10.8c0-3.6-1.9-6.2-5.7-4
				C551.9,434,549.9,438.7,549.9,442.6z"/>
			<path class="st17" d="M575.2,419l2.3-1.3v8.6l0.1,0c0.5-1,1-1.9,1.4-2.7l5.5-9.9l2.9-1.7l-6.5,11.4l7,6.3l-2.7,1.6l-5.9-5.4
				l-1.7,3v6.8l-2.3,1.3V419z"/>
			<path class="st17" d="M594.7,425.6V418l-5.7-7l2.6-1.5l2.5,3.5c0.7,1,1.2,1.7,1.8,2.7l0.1,0c0.5-1.5,1.1-3,1.8-4.7l2.6-6.4
				l2.6-1.5l-6,13.8v7.6L594.7,425.6z"/>
			<path class="st17" d="M618,411.6c-0.9,0.9-2.6,2.3-4.7,3.6c-5.1,2.9-8.9,1.9-8.9-4c0-5.6,3.8-11.6,9.4-14.8
				c2.2-1.3,3.6-1.6,4.3-1.7l-0.6,2.2c-0.9,0.1-2.1,0.5-3.6,1.3c-4.2,2.4-7,6.7-7,11.4c0,4.4,2.5,5.7,6.9,3.2
				c1.4-0.8,2.8-1.9,3.8-2.9L618,411.6z"/>
			<path class="st17" d="M640.4,399.2c-0.5-0.2-1-0.4-1.7-0.8c-1.5,2.3-3.3,3.9-5.2,5.1c-3.5,2-5.5,0.8-5.5-1.8c0-2.4,1.5-5,3.5-7.3
				v-0.1c-0.9-0.6-1.5-1.6-1.5-2.9c0-2.2,1.6-5.3,4.5-7c2.2-1.3,4-0.8,4,1.5c0,1.9-1.1,4-3.9,7.1v0.1c1.5,0.9,3.2,1.9,4.4,2.5
				c0.8-1.7,1.4-3.8,1.7-6.2l2.1-1.2c-0.5,3.1-1.3,5.8-2.6,8.1c1,0.5,1.9,0.9,3,1.5L640.4,399.2z M637.6,397.8
				c-1.1-0.6-3.1-1.6-5.1-2.7c-1,1.2-2.3,3.1-2.3,5c0,2,1.5,2.7,3.7,1.5C635.5,400.6,636.8,399.2,637.6,397.8z M632.2,390
				c0,1.3,0.6,1.9,1.4,2.4c1.8-2.1,3-3.7,3-5.2c0-1.1-0.6-2-2.1-1.1C632.9,386.9,632.2,388.6,632.2,390z"/>
			<path class="st17" d="M656.5,384.3l-1.9,6.7l-2.4,1.4l6.1-21.4l2.8-1.6l6.1,14.4l-2.5,1.4l-1.9-4.5L656.5,384.3z M662.4,379.1
				l-1.8-4.1c-0.4-0.9-0.7-1.9-0.9-2.7l-0.1,0c-0.3,1.2-0.6,2.5-0.9,3.8l-1.8,6.2L662.4,379.1z"/>
			<path class="st17" d="M686.2,364.9c-0.1-2.4-0.3-5.3-0.3-7.6l-0.1,0c-0.6,2.5-1.4,5.1-2.3,8.1l-3.2,10.5l-1.8,1l-2.9-6.9
				c-0.9-2-1.6-3.9-2.1-5.8l-0.1,0c-0.1,2.3-0.2,5.3-0.3,8.1l-0.5,8l-2.2,1.3l1.3-18.6l3-1.7l3.1,6.9c0.7,1.8,1.4,3.4,1.8,5l0.1,0
				c0.5-2.1,1.1-4.4,1.9-7.1l3.2-10.5l3-1.7l1.1,17.3l-2.3,1.3L686.2,364.9z"/>
			<path class="st17" d="M693.8,350.5l2.3-1.3v16l7.7-4.4v1.9l-10,5.8V350.5z"/>
		</g>
	</g>
</g>
<g>
	<line class="st29" x1="652.6" y1="636.6" x2="642.2" y2="630.6"/>
	<linearGradient id="SVGID_18_" gradientUnits="userSpaceOnUse" x1="636.6243" y1="638.8444" x2="676.5242" y2="638.8444">
		<stop  offset="0" style="stop-color:#494949"/>
		<stop  offset="9.630466e-002" style="stop-color:#585654"/>
		<stop  offset="0.3495" style="stop-color:#79736C"/>
		<stop  offset="0.5911" style="stop-color:#91897E"/>
		<stop  offset="0.8139" style="stop-color:#A09688"/>
		<stop  offset="1" style="stop-color:#A59A8C"/>
	</linearGradient>
	<circle class="st30" cx="656.6" cy="638.8" r="19.9"/>
</g>
<polygon class="st1" points="265.3,319.2 320.6,287.3 320.6,201.3 265.3,233.2 "/>
<g>
	<polygon class="st0" points="304.3,270.3 301.1,265.3 293.8,269.5 292.2,267 299.4,262.8 296.3,257.8 301.7,254.6 304.9,259.6 
		312.2,255.4 313.8,258 306.5,262.2 309.7,267.2 	"/>
	<polygon points="273.9,287.8 288.5,248.1 295.1,244.3 300.1,251.8 294.6,255 291.8,250.8 279.4,284.7 	"/>
</g>
<g>
	<path class="st31" d="M243.7,885.1c-9.8,16.9-40.5,28-68.7,24.7s-43.1-19.6-33.4-36.5c9.8-16.9,40.5-28,68.7-24.7
		S253.5,868.2,243.7,885.1z"/>
	<polygon class="st31" points="246.7,863.7 246.7,875.9 138.6,884.5 138.6,872.3 	"/>
	<path class="st32" d="M243.7,873.7c-9.8,16.9-40.5,28-68.7,24.7c-28.2-3.3-43.1-19.6-33.4-36.5c9.8-16.9,40.5-28,68.7-24.7
		S253.5,856.7,243.7,873.7z"/>
	<linearGradient id="SVGID_19_" gradientUnits="userSpaceOnUse" x1="146.0215" y1="867.7624" x2="239.3072" y2="867.7624">
		<stop  offset="0" style="stop-color:#EAB063;stop-opacity:0"/>
		<stop  offset="1" style="stop-color:#EAB063"/>
	</linearGradient>
	<path class="st33" d="M185,891.6c-3.1,0-6.2-0.2-9.2-0.5c-14.1-1.6-25.1-7-28.6-14.1c-1.8-3.6-1.5-7.3,0.8-11.4
		c7.1-12.3,29.6-21.6,52.3-21.6c3.1,0,6.2,0.2,9.2,0.5c14.1,1.6,25.1,7,28.6,14.1c1.8,3.6,1.5,7.3-0.8,11.4
		C230.2,882.3,207.7,891.6,185,891.6z"/>
	<g>
		<line class="st34" x1="174.7" y1="899.2" x2="174.7" y2="908.8"/>
		<line class="st34" x1="147.7" y1="889.9" x2="147.7" y2="899.4"/>
		<line class="st34" x1="211.2" y1="896" x2="211.2" y2="905.5"/>
		<line class="st34" x1="236.2" y1="883.7" x2="236.2" y2="893.3"/>
	</g>
	<g>
		<path class="st17" d="M215.3,854l-31.2,6.1l15.9,2.8l4.4,10L215.3,854z M168.1,881.5l9.2-18l2.4,11.4l18.2,1.8L168.1,881.5z"/>
		<path class="st17" d="M197.1,864.6l4.6,10.4l-18.7-2.1l-2.5-11.2L197.1,864.6z"/>
	</g>
</g>
<g>
	<g>
		<g>
			<polygon class="st31" points="436.1,243.3 429.6,239.7 385.1,304 393.4,308.4 			"/>
			<g>
				<path class="st31" d="M377.7,288.7c0,16.3,13.2,21.8,29.4,12.4s29.4-30.2,29.4-46.5s-13.2-21.8-29.4-12.4
					C390.8,251.7,377.7,272.5,377.7,288.7z"/>
				<path class="st32" d="M386.2,293.3c0,16.3,13.2,21.8,29.4,12.4s29.4-30.2,29.4-46.5s-13.2-21.8-29.4-12.4S386.2,277,386.2,293.3
					z"/>
				
					<linearGradient id="SVGID_20_" gradientUnits="userSpaceOnUse" x1="2413.2222" y1="276.3053" x2="2459.7271" y2="276.3053" gradientTransform="matrix(-1 0 0 1 2852.1423 0)">
					<stop  offset="0" style="stop-color:#EAB063;stop-opacity:0"/>
					<stop  offset="1" style="stop-color:#EAB063"/>
				</linearGradient>
				<path class="st35" d="M401,304.1c3.4,0,7.4-1.3,11.6-3.7c14.3-8.2,26.4-27.1,26.4-41.1c0-4.9-1.5-10.8-8.5-10.8
					c-3.4,0-7.4,1.3-11.6,3.7c-14.3,8.2-26.4,27.1-26.4,41.1C392.4,298.2,393.9,304.1,401,304.1z"/>
			</g>
			<line class="st34" x1="425" y1="241.8" x2="418.4" y2="238"/>
			<line class="st34" x1="407.8" y1="250.4" x2="400.9" y2="246.5"/>
			<line class="st34" x1="395.4" y1="264.3" x2="388.1" y2="260.2"/>
			<line class="st34" x1="387" y1="282.3" x2="379.3" y2="277.9"/>
			<line class="st34" x1="386.5" y1="300.9" x2="378.9" y2="296.6"/>
		</g>
		<g>
			<path class="st17" d="M416.5,261.4l-8.8,18.9l8.8-9l9-1.4L416.5,261.4z M416.4,292.1l-9.1-7.4l9.2-0.1l9-10.4L416.4,292.1z"/>
			<path class="st17" d="M416.4,273.2l9.4-1.5l-9.4,10.7l-9.1,0.2L416.4,273.2z"/>
		</g>
	</g>
</g>
<g>
	<g>
		<g>
			<polygon class="st31" points="350.3,412.4 357.4,408.5 406.1,478.7 397,483.6 			"/>
			<g>
				<path class="st31" d="M414.2,462.1c0,17.8-14.4,23.9-32.2,13.6c-17.8-10.3-32.2-33-32.2-50.8s14.4-23.9,32.2-13.6
					C399.8,421.5,414.2,444.3,414.2,462.1z"/>
				<path class="st32" d="M404.8,467.1c0,17.8-14.4,23.9-32.2,13.6c-17.8-10.3-32.2-33-32.2-50.8s14.4-23.9,32.2-13.6
					C390.4,426.5,404.8,449.3,404.8,467.1z"/>
				
					<linearGradient id="SVGID_21_" gradientUnits="userSpaceOnUse" x1="-4584.8828" y1="448.4625" x2="-4534.0264" y2="448.4625" gradientTransform="matrix(1 0 0 1 4932.0742 0)">
					<stop  offset="0" style="stop-color:#EAB063;stop-opacity:0"/>
					<stop  offset="1" style="stop-color:#EAB063"/>
				</linearGradient>
				<path class="st36" d="M388.7,478.9c-3.7,0-8.1-1.4-12.7-4.1c-15.6-9-28.8-29.6-28.8-44.9c0-5.4,1.6-11.8,9.3-11.8
					c3.7,0,8.1,1.4,12.7,4.1c15.6,9,28.8,29.6,28.8,44.9C398,472.4,396.4,478.9,388.7,478.9z"/>
			</g>
			<line class="st34" x1="362.4" y1="410.7" x2="369.7" y2="406.6"/>
			<line class="st34" x1="381.2" y1="420.2" x2="388.8" y2="415.9"/>
			<line class="st34" x1="394.8" y1="435.4" x2="402.8" y2="430.9"/>
			<line class="st34" x1="403.9" y1="455" x2="412.3" y2="450.3"/>
			<line class="st34" x1="404.5" y1="475.4" x2="412.8" y2="470.7"/>
		</g>
		<g>
			<path class="st17" d="M361.9,441.4l9.9,1.5l9.6,9.8l-9.6-20.7L361.9,441.4z M361.9,446.1l9.9,11.4l10.1,0.1l-10,8.1L361.9,446.1z
				"/>
			<path class="st17" d="M371.8,445l-10.3-1.6l10.3,11.7l10,0.2L371.8,445z"/>
		</g>
	</g>
</g>
<g>
	<g>
		<g>
			<path class="st2" d="M264,142l1,43.7c0,0.8-0.6,1.5-1.5,1.5s-1.5-0.6-1.5-1.5c0,0,0,0,0-0.1l1-43.7c0-0.3,0.2-0.5,0.5-0.5
				C263.8,141.5,264,141.8,264,142z"/>
		</g>
		<g>
			<path class="st2" d="M212,112.6l1,43.7c0,0.8-0.6,1.5-1.5,1.5s-1.5-0.6-1.5-1.5c0,0,0,0,0-0.1l1-43.7c0-0.3,0.2-0.5,0.5-0.5
				C211.8,112.1,212,112.3,212,112.6z"/>
		</g>
	</g>
	<g>
		<polygon class="st0" points="355.3,222.2 119.7,86.1 119.7,18.5 355.3,154.6 		"/>
		<g>
			<path class="st17" d="M159.5,84.7c-0.9-0.1-2.6-0.6-4.7-1.9c-5.1-2.9-8.9-8.3-8.9-14.2c0-5.6,3.8-7.2,9.4-4
				c2.2,1.3,3.6,2.6,4.3,3.3l-0.6,1.6c-0.9-0.9-2.1-2-3.6-2.8c-4.2-2.4-7-1.4-7,3.4c0,4.4,2.5,8.7,6.9,11.2c1.4,0.8,2.8,1.4,3.8,1.4
				L159.5,84.7z"/>
			<path class="st17" d="M178.5,87.1c0,6.2-3.7,7.3-8.3,4.6c-4.7-2.7-8.1-8.3-8.1-13.7c0-5.7,3.5-7.4,8.3-4.6
				C175.3,76.2,178.5,81.8,178.5,87.1z M164.6,79.3c0,3.8,2.1,8.5,5.7,10.6c3.7,2.1,5.7-0.1,5.7-4.1c0-3.6-1.9-8.4-5.7-10.6
				C166.5,73,164.6,75.4,164.6,79.3z"/>
			<path class="st17" d="M197.9,99.6c-0.1-2.6-0.3-5.7-0.3-7.9l-0.1,0c-0.6,1.7-1.4,3.6-2.3,5.5l-3.2,6.9l-1.8-1l-2.9-10.2
				c-0.9-3-1.6-5.7-2.1-8.2l-0.1,0c-0.1,2.2-0.2,5.1-0.3,7.7l-0.5,7.4l-2.2-1.3l1.3-17.2l3,1.7l3.1,10.4c0.7,2.6,1.4,5,1.8,7.1
				l0.1,0c0.5-1.5,1.1-3.1,1.9-4.9l3.2-6.8l3,1.7l1.1,18.6l-2.3-1.3L197.9,99.6z"/>
			<path class="st17" d="M205.5,94.1c1.1,0.5,2.6,1.1,4.4,2.2c2.3,1.3,4,2.8,5,4.4c1,1.4,1.6,3.1,1.6,4.7c0,1.6-0.5,2.6-1.4,3
				c-1.2,0.6-3.2,0.1-5.5-1.2c-0.7-0.4-1.3-0.8-1.9-1.2v7.2l-2.3-1.3V94.1z M207.8,104.1c0.5,0.4,1.1,0.8,1.9,1.3
				c2.8,1.6,4.5,1.2,4.5-1.2c0-2.4-1.7-4.5-4.2-6c-1-0.6-1.8-0.9-2.2-1.1V104.1z"/>
			<path class="st17" d="M221,102.9l2.3,1.3v16l7.7,4.4v1.9l-10-5.8V102.9z"/>
			<path class="st17" d="M237.2,112.2v17.9l-2.3-1.3v-17.9L237.2,112.2z"/>
			<path class="st17" d="M245.5,129.3l-1.9,4.6l-2.4-1.4l6.1-14.4l2.8,1.6l6.1,21.5l-2.5-1.4l-1.9-6.7L245.5,129.3z M251.4,130.9
				l-1.8-6.2c-0.4-1.4-0.7-2.6-0.9-3.8l-0.1,0c-0.3,0.9-0.6,1.8-0.9,2.7l-1.8,4.2L251.4,130.9z"/>
			<path class="st17" d="M260.2,143.4v-17.9l2.5,1.5l5.7,12.4c1.3,2.9,2.4,5.4,3.2,7.7l0.1,0c-0.2-2.5-0.3-4.7-0.3-7.5V132l2.2,1.3
				v17.9l-2.3-1.4l-5.7-12.4c-1.3-2.7-2.4-5.5-3.4-7.9l-0.1,0c0.1,2.3,0.2,4.5,0.2,7.5v7.7L260.2,143.4z"/>
			<path class="st17" d="M291.5,160.9c-0.9-0.1-2.6-0.6-4.7-1.9c-5.1-2.9-8.9-8.3-8.9-14.2c0-5.6,3.8-7.2,9.4-4
				c2.2,1.3,3.6,2.6,4.3,3.3l-0.6,1.6c-0.9-0.9-2.1-2-3.6-2.8c-4.2-2.4-7-1.4-7,3.4c0,4.4,2.5,8.7,6.9,11.2c1.4,0.8,2.8,1.4,3.8,1.4
				L291.5,160.9z"/>
			<path class="st17" d="M305.1,160.9l-7-4v6.5l7.8,4.5v1.9l-10.1-5.8V146l9.7,5.6v1.9l-7.4-4.3v5.7l7,4V160.9z"/>
		</g>
	</g>
</g>
<g>
	<path class="st2" d="M446.1,389.1h-4.1c-0.9,0-1.7,0.7-1.7,1.7v11.4h5.6c1,0,1.8-0.8,1.8-1.8v-9.5
		C447.8,389.9,447,389.1,446.1,389.1z"/>
	<g>
		<path class="st31" d="M446.8,453.7l-4.8,2.4c-0.2,0.1-0.5,0-0.7-0.2c-0.1-0.2,0-0.5,0.2-0.6l4.5-3c0.4-0.2,0.9-0.1,1.1,0.2
			C447.4,452.9,447.3,453.4,446.8,453.7C446.9,453.7,446.8,453.7,446.8,453.7z"/>
	</g>
	<g>
		<path class="st31" d="M440.7,452.7l-4.4,2.2c-0.2,0.1-0.5,0-0.7-0.2c-0.1-0.2,0-0.5,0.2-0.6l4.1-2.7c0.4-0.2,0.9-0.1,1.1,0.2
			C441.2,451.9,441.1,452.4,440.7,452.7C440.7,452.7,440.7,452.7,440.7,452.7z"/>
	</g>
	<g>
		<path class="st3" d="M454.9,421.7c0,0-1-2.9-2.1-5.8c-0.3-0.7-0.5-1.5-0.8-2.1c-0.1-0.3-0.3-0.7-0.3-1c-0.1-0.3-0.2-0.6-0.3-0.9
			c-0.4-1.1-0.6-1.8-0.6-1.8c-0.1-0.3,0.1-0.5,0.3-0.6c0.2-0.1,0.5,0.1,0.6,0.3c0,0,1.2,2.9,2.3,5.7c1.2,2.9,2.3,5.7,2.3,5.7
			c0.2,0.4,0,0.9-0.4,1C455.5,422.3,455.1,422.1,454.9,421.7C454.9,421.7,454.9,421.7,454.9,421.7z"/>
	</g>
	<path class="st0" d="M439.3,424.7h8.7c0.7,0,1.3-0.6,1.3-1.3v-23.1c0-0.3-0.2-0.5-0.5-0.5h-9.5c-0.7,0-1.3,0.6-1.3,1.3v22.3
		C438,424.1,438.6,424.7,439.3,424.7z"/>
	<polygon class="st12" points="437.9,424.9 449.4,425 449.3,419.7 438,419.7 	"/>
	<g>
		<path class="st3" d="M428,409.9l6.3,3.5l-0.9,0.3l1.9-3.3c0.1-0.2,0.4-0.3,0.7-0.2c0.2,0.1,0.3,0.4,0.2,0.6l-1.6,3.5
			c-0.1,0.3-0.5,0.5-0.8,0.3l0,0l0,0l-6.5-3.3c-0.4-0.2-0.6-0.7-0.4-1.1C427.1,409.8,427.5,409.7,428,409.9
			C427.9,409.9,427.9,409.9,428,409.9z"/>
	</g>
	<circle class="st3" cx="456" cy="421.8" r="1.9"/>
	<circle class="st3" cx="426.5" cy="409.8" r="1.7"/>
	<path class="st12" d="M449.4,424.3c0.1-1.3-0.9-2.5-2.3-2.6c-1.3-0.1-2.5,0.9-2.6,2.3c0,0.1,0,0.1,0,0.2l0.1,14.9h3.9L449.4,424.3z
		"/>
	<path class="st12" d="M442.7,424.3c0-1.3-1-2.5-2.3-2.5c-1.3,0-2.5,1-2.5,2.3c0,0.1,0,0.1,0,0.2l0.5,14.9h3.8L442.7,424.3z"/>
	<path class="st12" d="M446.3,452.3c0.8,0,1.4-0.6,1.5-1.4l0.8-11.8h-3.9l0.1,11.7C444.8,451.6,445.5,452.3,446.3,452.3z"/>
	<path class="st12" d="M440.3,451.4c0.8,0,1.4-0.7,1.4-1.4l0.4-10.8h-3.8l0.4,10.8C438.8,450.8,439.5,451.4,440.3,451.4z"/>
	<g>
		<path class="st0" d="M450.3,410.2l-2.8-8.9c-0.1-0.3,0.1-0.7,0.4-0.8c0.3-0.1,0.6,0.1,0.8,0.4l3.5,8.7c0.2,0.5,0,1.1-0.6,1.3
			C451.2,411,450.6,410.8,450.3,410.2C450.3,410.2,450.3,410.2,450.3,410.2z"/>
	</g>
	<g>
		<path class="st0" d="M434.9,410.1l3.8-7.8c0.4-0.7,1.3-1.1,2-0.7c0.7,0.4,1.1,1.3,0.7,2c0,0.1-0.1,0.1-0.1,0.2l-4.8,7.2
			c-0.3,0.4-0.9,0.5-1.3,0.3C434.8,411.1,434.7,410.5,434.9,410.1z"/>
	</g>
	<path class="st3" d="M442.7,401.8h1.9c0.4,0,0.8-0.3,0.8-0.8v-4.7h-3.4v4.7C441.9,401.5,442.3,401.8,442.7,401.8z"/>
	<path class="st3" d="M445,398.2h-2.7c-0.6,0-1.1-0.5-1.1-1.1v-4.4c0-0.6,0.5-1.1,1.1-1.1h2.7c0.6,0,1.1,0.5,1.1,1.1v4.4
		C446.1,397.7,445.6,398.2,445,398.2z"/>
</g>
<g>
	<line class="st4" x1="423.9" y1="405.5" x2="426.1" y2="409.1"/>
	<line class="st5" x1="422.2" y1="402.8" x2="423.7" y2="405.3"/>
	<path class="st6" d="M421.2,401.6c-0.3,0-0.8-0.1-1.4-0.5c-1.8-1.1-3.4-3.5-3.4-5.3c0-1.2,0.7-1.2,0.9-1.2c0.3,0,0.8,0.1,1.4,0.5
		c1.8,1.1,3.4,3.5,3.4,5.3C422.1,401.6,421.4,401.6,421.2,401.6z"/>
	<path class="st7" d="M423.1,400.4c0,2.2-1.8,2.9-3.9,1.7c-2.2-1.3-3.9-4-3.9-6.2s1.8-2.9,3.9-1.7
		C421.4,395.5,423.1,398.3,423.1,400.4z"/>
	
		<linearGradient id="SVGID_22_" gradientUnits="userSpaceOnUse" x1="74.417" y1="416.9218" x2="95.922" y2="398.8769" gradientTransform="matrix(1 0 0 1 324.0259 0)">
		<stop  offset="0.1045" style="stop-color:#D39B5E;stop-opacity:0"/>
		<stop  offset="0.9332" style="stop-color:#D39B5E;stop-opacity:0.3702"/>
		<stop  offset="1" style="stop-color:#D39B5E;stop-opacity:0.4"/>
	</linearGradient>
	<path class="st37" d="M421.2,401.6c-0.3,0-0.8-0.1-1.4-0.5c-1.8-1.1-3.4-3.5-3.4-5.3c0-0.5,0.1-0.8,0.3-1l0,0l-26.9,11.6l20.1,18.5
		l11.9-23.5l-0.1-0.1C421.5,401.6,421.3,401.6,421.2,401.6z"/>
</g>
<g>
	<path class="st31" d="M237.6,868.7c-9.8,16.9-40.5,28-68.7,24.7c-28.2-3.3-43.1-19.6-33.4-36.5c9.8-16.9,40.5-28,68.7-24.7
		S247.4,851.8,237.6,868.7z"/>
	<polygon class="st31" points="240.6,847.3 240.6,859.5 132.6,868.1 132.6,855.9 	"/>
	<path class="st32" d="M237.6,857.3c-9.8,16.9-40.5,28-68.7,24.7s-43.1-19.6-33.4-36.5c9.8-16.9,40.5-28,68.7-24.7
		C232.5,824,247.4,840.3,237.6,857.3z"/>
	<linearGradient id="SVGID_23_" gradientUnits="userSpaceOnUse" x1="139.9598" y1="851.3642" x2="233.2455" y2="851.3642">
		<stop  offset="0" style="stop-color:#EAB063;stop-opacity:0"/>
		<stop  offset="1" style="stop-color:#EAB063"/>
	</linearGradient>
	<path class="st38" d="M178.9,875.2c-3.1,0-6.2-0.2-9.2-0.5c-14.1-1.6-25.1-7-28.6-14.1c-1.8-3.6-1.5-7.3,0.8-11.4
		c7.1-12.3,29.6-21.6,52.3-21.6c3.1,0,6.2,0.2,9.2,0.5c14.1,1.6,25.1,7,28.6,14.1c1.8,3.6,1.5,7.3-0.8,11.4
		C224.1,865.9,201.6,875.2,178.9,875.2z"/>
	<g>
		<line class="st34" x1="168.7" y1="882.8" x2="168.7" y2="892.4"/>
		<line class="st34" x1="141.6" y1="873.5" x2="141.6" y2="883"/>
		<line class="st34" x1="205.1" y1="879.6" x2="205.1" y2="889.1"/>
		<line class="st34" x1="230.2" y1="867.3" x2="230.2" y2="876.9"/>
	</g>
	<g>
		<path class="st17" d="M209.2,837.6l-31.2,6.1l15.9,2.8l4.4,10L209.2,837.6z M162,865.1l9.2-18l2.4,11.4l18.2,1.8L162,865.1z"/>
		<path class="st17" d="M191.1,848.2l4.6,10.4l-18.7-2.1l-2.5-11.2L191.1,848.2z"/>
	</g>
</g>
<g>
	<path class="st31" d="M242,849.5c-9.8,16.9-40.5,28-68.7,24.7c-28.2-3.3-43.1-19.6-33.4-36.5s40.5-28,68.7-24.7
		S251.7,832.6,242,849.5z"/>
	<polygon class="st31" points="244.9,828.1 244.9,840.3 136.9,848.9 136.9,836.7 	"/>
	<path class="st32" d="M242,838.1c-9.8,16.9-40.5,28-68.7,24.7s-43.1-19.6-33.4-36.5s40.5-28,68.7-24.7
		C236.8,804.8,251.7,821.2,242,838.1z"/>
	<linearGradient id="SVGID_24_" gradientUnits="userSpaceOnUse" x1="144.2706" y1="832.1755" x2="237.5562" y2="832.1755">
		<stop  offset="0" style="stop-color:#EAB063;stop-opacity:0"/>
		<stop  offset="1" style="stop-color:#EAB063"/>
	</linearGradient>
	<path class="st39" d="M183.3,856c-3.1,0-6.2-0.2-9.2-0.5c-14.1-1.6-25.1-7-28.6-14.1c-1.8-3.6-1.5-7.3,0.8-11.4
		c7.1-12.3,29.6-21.6,52.3-21.6c3.1,0,6.2,0.2,9.2,0.5c14.1,1.6,25.1,7,28.6,14.1c1.8,3.6,1.5,7.3-0.8,11.4
		C228.4,846.7,206,856,183.3,856z"/>
	<g>
		<line class="st34" x1="173" y1="863.6" x2="173" y2="873.2"/>
		<line class="st34" x1="145.9" y1="854.3" x2="145.9" y2="863.8"/>
		<line class="st34" x1="209.4" y1="860.4" x2="209.4" y2="870"/>
		<line class="st34" x1="234.5" y1="848.1" x2="234.5" y2="857.7"/>
	</g>
	<g>
		<path class="st17" d="M213.5,818.4l-31.2,6.1l15.9,2.8l4.4,10L213.5,818.4z M166.4,845.9l9.2-18l2.4,11.4l18.2,1.8L166.4,845.9z"
			/>
		<path class="st17" d="M195.4,829l4.6,10.4l-18.7-2.1l-2.5-11.2L195.4,829z"/>
	</g>
</g>
<g>
	<path class="st2" d="M529.1,179.3l15-9l75.4,44.1l-5.8,8.7l-3.8,3.3L529.1,179.3z"/>
</g>
<g>
	<linearGradient id="SVGID_25_" gradientUnits="userSpaceOnUse" x1="636.088" y1="133.6943" x2="562.361" y2="133.6943">
		<stop  offset="0" style="stop-color:#EA4E4E"/>
		<stop  offset="0.3775" style="stop-color:#EB5150"/>
		<stop  offset="0.6684" style="stop-color:#EF5B57"/>
		<stop  offset="0.9296" style="stop-color:#F76B63"/>
		<stop  offset="1" style="stop-color:#F97167"/>
	</linearGradient>
	<path class="st40" d="M634.4,103.1l-61.9,30l0.9-1.2l-7.1,37.3c-0.1,0.5-0.6,0.9-1.2,0.8c-0.5-0.1-0.9-0.6-0.8-1.1l5.7-37.5
		c0.1-0.5,0.4-1,0.8-1.2l0.1,0l60.8-32.3c1.5-0.8,3.3-0.2,4.1,1.2c0.8,1.5,0.2,3.3-1.2,4.1C634.5,103.1,634.4,103.1,634.4,103.1z"/>
</g>
<g>
	<linearGradient id="SVGID_26_" gradientUnits="userSpaceOnUse" x1="678.4143" y1="157.847" x2="617.7836" y2="157.847">
		<stop  offset="0" style="stop-color:#EA4E4E"/>
		<stop  offset="0.3377" style="stop-color:#F15F5A"/>
		<stop  offset="0.6387" style="stop-color:#F97167"/>
	</linearGradient>
	<path class="st41" d="M677.4,127l-50.7,28.5l0.6-0.8l-6.8,37.3c-0.1,0.4-0.4,0.6-0.8,0.5c-0.4-0.1-0.6-0.4-0.5-0.8l5.9-37.5
		l0.1-0.5l0.5-0.3l49.8-30c0.9-0.6,2.2-0.3,2.7,0.7C678.7,125.1,678.4,126.4,677.4,127C677.4,126.9,677.4,126.9,677.4,127z"/>
</g>
<linearGradient id="SVGID_27_" gradientUnits="userSpaceOnUse" x1="2238.2166" y1="137.2234" x2="2342.5457" y2="137.2234" gradientTransform="matrix(-1 0 0 1 2957.1038 0)">
	<stop  offset="0" style="stop-color:#EA4E4E"/>
	<stop  offset="0.3377" style="stop-color:#F15F5A"/>
	<stop  offset="0.6387" style="stop-color:#F97167"/>
</linearGradient>
<path class="st42" d="M662,143.5l56.9-33.1v20.5l-5.7,3.3c0-0.1,0-0.2,0-0.3c0-7.6-6.2-10.2-13.8-5.8c-7.6,4.4-13.8,14.1-13.8,21.7
	c0,0.1,0,0.3,0,0.4L662,164l-2.3-12l-45.2-35.9L662,143.5z"/>
<g>
	<g>
		
			<linearGradient id="SVGID_28_" gradientUnits="userSpaceOnUse" x1="2238.2168" y1="91.141" x2="2342.5457" y2="91.141" gradientTransform="matrix(-1 0 0 1 2957.1038 0)">
			<stop  offset="0" style="stop-color:#494949"/>
			<stop  offset="0.3082" style="stop-color:#696661"/>
			<stop  offset="0.7664" style="stop-color:#948B80"/>
			<stop  offset="1" style="stop-color:#A59A8C"/>
		</linearGradient>
		<path class="st43" d="M614.6,94l56.9-33.1l47.4,27.4L662,121.4L614.6,94z"/>
	</g>
	
		<linearGradient id="SVGID_29_" gradientUnits="userSpaceOnUse" x1="2238.2168" y1="116.1651" x2="2342.5457" y2="116.1651" gradientTransform="matrix(-1 0 0 1 2957.1038 0)">
		<stop  offset="0" style="stop-color:#EA4E4E"/>
		<stop  offset="0.3377" style="stop-color:#F15F5A"/>
		<stop  offset="0.6387" style="stop-color:#F97167"/>
	</linearGradient>
	<polygon class="st44" points="718.9,111 662,144.1 614.6,116.7 614.6,94 662,121.3 718.9,88.2 	"/>
	<polygon class="st2" points="671.5,83.1 633.7,105 614.6,94 671.5,60.9 718.9,88.3 699.8,99.4 	"/>
</g>
<g>
	<path class="st19" d="M630.7,121l31.6-18.8v61.6l-4.6,2.7c0.1-0.8,0.2-1.7,0.2-2.4c0-7.6-6.2-10.2-13.8-5.8
		c-7.6,4.4-13.8,14.1-13.8,21.7c0,0.8,0.1,1.5,0.2,2.2l-7.9,4.6l-40.7-23.5l8.1-65.8L630.7,121z"/>
	<g>
		<g>
			<g>
				<path class="st2" d="M590,97.5l31.6-18.8l40.7,23.5L630.7,121L590,97.5z"/>
			</g>
			<polygon class="st1" points="622.6,186.7 581.9,163.2 590,97.5 630.7,121 			"/>
			<polygon class="st2" points="621.9,123.7 593.7,107.4 590.7,133 618.9,149.2 			"/>
		</g>
	</g>
	<g>
		<polygon class="st2" points="633.8,149.2 654.7,137.6 654.7,116 636.7,126.1 		"/>
	</g>
	<line class="st45" x1="592" y1="141.3" x2="614.1" y2="154.1"/>
	<line class="st45" x1="592" y1="147" x2="614.1" y2="159.8"/>
</g>
<g>
	<g>
		<polygon class="st2" points="661.7,159 654,154.9 631.6,187.2 640.3,191.7 		"/>
		<g>
			<path class="st2" d="M628.2,179.7c0,8.2,6.6,11,14.8,6.2c8.2-4.7,14.8-15.1,14.8-23.3s-6.6-11-14.8-6.2
				C634.8,161.1,628.2,171.5,628.2,179.7z"/>
			<path class="st46" d="M636.7,184.1c0,8.2,6.6,11,14.8,6.2c8.2-4.7,14.8-15.1,14.8-23.3s-6.6-11-14.8-6.2
				C643.3,165.5,636.7,176,636.7,184.1z"/>
			<path class="st1" d="M648,182.2c0.8,0,1.8-0.3,2.8-0.9c3.4-2,6.3-6.4,6.3-9.8c0-1.2-0.4-2.6-2-2.6c-0.8,0-1.8,0.3-2.8,0.9
				c-3.4,2-6.3,6.4-6.3,9.8C645.9,180.8,646.3,182.2,648,182.2z"/>
		</g>
	</g>
	<g>
		<line class="st45" x1="660.3" y1="157.9" x2="653.7" y2="154.4"/>
		<line class="st45" x1="650.9" y1="159.7" x2="644.2" y2="156.2"/>
		<line class="st45" x1="643" y1="166.4" x2="636.3" y2="162.8"/>
		<line class="st45" x1="637.1" y1="175.6" x2="630.5" y2="172"/>
		<line class="st45" x1="636.4" y1="187.1" x2="629.7" y2="183.6"/>
	</g>
</g>
<g>
	<g>
		<polygon class="st2" points="713.5,130.3 706.8,126.7 687.2,154.9 694.8,158.9 		"/>
		<g>
			<path class="st2" d="M684.3,148.4c0,7.1,5.8,9.6,12.9,5.5c7.1-4.1,12.9-13.2,12.9-20.4s-5.8-9.6-12.9-5.5
				S684.3,141.2,684.3,148.4z"/>
			<path class="st46" d="M691.7,152.3c0,7.1,5.8,9.6,12.9,5.5c7.1-4.1,12.9-13.2,12.9-20.4s-5.8-9.6-12.9-5.5
				C697.5,136,691.7,145.1,691.7,152.3z"/>
			<path class="st1" d="M701.5,150.6c0.7,0,1.5-0.3,2.4-0.8c3-1.7,5.5-5.6,5.5-8.6c0-1-0.3-2.3-1.8-2.3c-0.7,0-1.5,0.3-2.4,0.8
				c-3,1.7-5.5,5.6-5.5,8.6C699.7,149.4,700,150.6,701.5,150.6z"/>
		</g>
	</g>
	<g>
		<line class="st45" x1="712.3" y1="129.4" x2="706.5" y2="126.3"/>
		<line class="st45" x1="704.1" y1="130.9" x2="698.3" y2="127.8"/>
		<line class="st45" x1="697.2" y1="136.7" x2="691.4" y2="133.6"/>
		<line class="st45" x1="692.1" y1="144.8" x2="686.2" y2="141.7"/>
		<line class="st45" x1="691.4" y1="154.9" x2="685.6" y2="151.8"/>
	</g>
</g>
<g>
	<linearGradient id="SVGID_30_" gradientUnits="userSpaceOnUse" x1="679.5613" y1="162.3144" x2="611.7029" y2="162.3144">
		<stop  offset="0" style="stop-color:#F97167"/>
		<stop  offset="7.037365e-002" style="stop-color:#F76B63"/>
		<stop  offset="0.3316" style="stop-color:#EF5B57"/>
		<stop  offset="0.6225" style="stop-color:#EB5150"/>
		<stop  offset="1" style="stop-color:#EA4E4E"/>
	</linearGradient>
	<path class="st47" d="M677.9,131.6l-55.5,26.8l0.9-1.2l-7.7,40.6c-0.1,0.5-0.6,0.9-1.2,0.8c-0.5-0.1-0.9-0.6-0.8-1.1l6.3-40.9
		c0.1-0.5,0.4-1,0.8-1.2l0.1,0l54.3-29.1c1.5-0.8,3.3-0.2,4.1,1.2c0.8,1.5,0.2,3.3-1.2,4.1C677.9,131.6,677.9,131.6,677.9,131.6z"/>
</g>
<polygon class="st19" points="619.6,214.3 544.1,170.6 544.1,124.8 624.8,171.4 624.8,200.7 "/>
<linearGradient id="SVGID_31_" gradientUnits="userSpaceOnUse" x1="2332.2485" y1="198.7931" x2="2347.1597" y2="198.7931" gradientTransform="matrix(-1 0 0 1 2957.1038 0)">
	<stop  offset="0" style="stop-color:#EA4E4E"/>
	<stop  offset="0.3377" style="stop-color:#F15F5A"/>
	<stop  offset="0.6387" style="stop-color:#F97167"/>
</linearGradient>
<path class="st48" d="M619.8,174.3l5.1-3l0,32.4c0,8.5-4.5,16.4-11.8,20.7l-3.1,1.8L619.8,174.3z"/>
<linearGradient id="SVGID_32_" gradientUnits="userSpaceOnUse" x1="2412.9741" y1="151.9394" x2="2427.8623" y2="151.9394" gradientTransform="matrix(-1 0 0 1 2957.1038 0)">
	<stop  offset="0" style="stop-color:#EA4E4E"/>
	<stop  offset="0.3377" style="stop-color:#F15F5A"/>
	<stop  offset="0.6387" style="stop-color:#F97167"/>
</linearGradient>
<polygon class="st49" points="539.1,127.5 544.1,124.5 544.1,170.6 529.2,179.4 "/>
<g>
	<g>
		<g>
			<path class="st2" d="M601,81.5l7.6-4.3l30,17.3l-7.6,4.3L601,81.5z"/>
		</g>
		<polygon class="st0" points="638.5,107.2 630.9,111.5 601,94.2 601,81.5 630.9,98.8 638.5,94.4 		"/>
	</g>
	<g>
		<path class="st1" d="M627.1,104.9c-0.4,0-0.9-0.2-1.4-0.5c-1.7-1-3.2-3.3-3.2-5c0-0.6,0.2-1.3,1-1.3c0.4,0,0.9,0.2,1.4,0.5
			c1.7,1,3.2,3.3,3.2,5C628.1,104.2,628,104.9,627.1,104.9z"/>
		<path class="st1" d="M617.1,99.4c-0.4,0-0.9-0.2-1.4-0.5c-1.7-1-3.2-3.3-3.2-5c0-0.6,0.2-1.3,1-1.3c0.4,0,0.9,0.2,1.4,0.5
			c1.7,1,3.2,3.3,3.2,5C618.1,98.7,617.9,99.4,617.1,99.4z"/>
		<path class="st1" d="M607.7,93.8c-0.4,0-0.9-0.2-1.4-0.5c-1.7-1-3.2-3.3-3.2-5c0-0.6,0.2-1.3,1-1.3c0.4,0,0.9,0.2,1.4,0.5
			c1.7,1,3.2,3.3,3.2,5C608.7,93.1,608.5,93.8,607.7,93.8z"/>
	</g>
</g>
<path class="st50" d="M676.8,131.2c0.2,0,0.4-0.1,0.6-0.2c0.7-0.4,1.3-1.3,1.3-2c0-0.2-0.1-0.5-0.4-0.5c-0.2,0-0.4,0.1-0.6,0.2
	c-0.7,0.4-1.3,1.3-1.3,2C676.4,130.9,676.5,131.2,676.8,131.2z"/>
<g>
	<path class="st31" d="M558.8,193c-2.9,5.1-12.1,8.4-20.6,7.4c-8.4-1-12.9-5.9-10-10.9c2.9-5.1,12.1-8.4,20.6-7.4
		C557.3,183.1,561.8,188,558.8,193z"/>
	<polygon class="st31" points="559.7,186.6 559.7,190.3 527.4,192.9 527.4,189.2 	"/>
	<path class="st32" d="M558.8,189.6c-2.9,5.1-12.1,8.4-20.6,7.4c-8.4-1-12.9-5.9-10-10.9c2.9-5.1,12.1-8.4,20.6-7.4
		C557.3,179.7,561.8,184.6,558.8,189.6z"/>
	<linearGradient id="SVGID_33_" gradientUnits="userSpaceOnUse" x1="529.6085" y1="187.8578" x2="557.5298" y2="187.8578">
		<stop  offset="0" style="stop-color:#EAB063;stop-opacity:0"/>
		<stop  offset="1" style="stop-color:#EAB063"/>
	</linearGradient>
	<path class="st51" d="M541.3,195c-0.9,0-1.9-0.1-2.7-0.2c-4.2-0.5-7.5-2.1-8.6-4.2c-0.5-1.1-0.5-2.2,0.3-3.4
		c2.1-3.7,8.9-6.5,15.7-6.5c0.9,0,1.9,0.1,2.7,0.2c4.2,0.5,7.5,2.1,8.6,4.2c0.5,1.1,0.5,2.2-0.3,3.4
		C554.8,192.2,548.1,195,541.3,195z"/>
	<g>
		<line class="st34" x1="538.2" y1="197.3" x2="538.2" y2="200.1"/>
		<line class="st34" x1="530.1" y1="194.5" x2="530.1" y2="197.3"/>
		<line class="st34" x1="549.1" y1="196.3" x2="549.1" y2="199.2"/>
		<line class="st34" x1="556.6" y1="192.6" x2="556.6" y2="195.5"/>
	</g>
	<g>
		<path class="st17" d="M550.3,183.7l-9.3,1.8l4.8,0.8l1.3,3L550.3,183.7z M536.2,192l2.7-5.4l0.7,3.4l5.5,0.5L536.2,192z"/>
		<path class="st17" d="M544.9,186.9l1.4,3.1l-5.6-0.6l-0.7-3.4L544.9,186.9z"/>
	</g>
</g>
<g>
	<path class="st31" d="M524.6,195.3c-2.9,5.1-12.1,8.4-20.6,7.4c-8.4-1-12.9-5.9-10-10.9c2.9-5.1,12.1-8.4,20.6-7.4
		C523.1,185.3,527.5,190.2,524.6,195.3z"/>
	<polygon class="st31" points="525.5,188.9 525.5,192.5 493.2,195.1 493.2,191.4 	"/>
	<path class="st32" d="M524.6,191.8c-2.9,5.1-12.1,8.4-20.6,7.4c-8.4-1-12.9-5.9-10-10.9c2.9-5.1,12.1-8.4,20.6-7.4
		C523.1,181.9,527.5,186.8,524.6,191.8z"/>
	<linearGradient id="SVGID_34_" gradientUnits="userSpaceOnUse" x1="495.3737" y1="190.0659" x2="523.2951" y2="190.0659">
		<stop  offset="0" style="stop-color:#EAB063;stop-opacity:0"/>
		<stop  offset="1" style="stop-color:#EAB063"/>
	</linearGradient>
	<path class="st52" d="M507,197.2c-0.9,0-1.9-0.1-2.7-0.2c-4.2-0.5-7.5-2.1-8.6-4.2c-0.5-1.1-0.5-2.2,0.3-3.4
		c2.1-3.7,8.9-6.5,15.7-6.5c0.9,0,1.9,0.1,2.7,0.2c4.2,0.5,7.5,2.1,8.6,4.2c0.5,1.1,0.5,2.2-0.3,3.4
		C520.6,194.4,513.8,197.2,507,197.2z"/>
	<g>
		<line class="st34" x1="504" y1="199.5" x2="504" y2="202.3"/>
		<line class="st34" x1="495.9" y1="196.7" x2="495.9" y2="199.5"/>
		<line class="st34" x1="514.9" y1="198.5" x2="514.9" y2="201.4"/>
		<line class="st34" x1="522.4" y1="194.8" x2="522.4" y2="197.7"/>
	</g>
	<g>
		<path class="st17" d="M516.1,185.9l-9.3,1.8l4.8,0.8l1.3,3L516.1,185.9z M502,194.2l2.7-5.4l0.7,3.4l5.5,0.5L502,194.2z"/>
		<path class="st17" d="M510.7,189.1l1.4,3.1l-5.6-0.6l-0.7-3.4L510.7,189.1z"/>
	</g>
</g>
<g>
	<path class="st31" d="M572.8,232.5c-2.9,5.1-12.1,8.4-20.6,7.4c-8.4-1-12.9-5.9-10-10.9c2.9-5.1,12.1-8.4,20.6-7.4
		C571.3,222.6,575.7,227.5,572.8,232.5z"/>
	<polygon class="st31" points="573.7,226.1 573.7,229.8 541.4,232.3 541.4,228.7 	"/>
	<path class="st32" d="M572.8,229.1c-2.9,5.1-12.1,8.4-20.6,7.4c-8.4-1-12.9-5.9-10-10.9c2.9-5.1,12.1-8.4,20.6-7.4
		C571.3,219.1,575.7,224,572.8,229.1z"/>
	<linearGradient id="SVGID_35_" gradientUnits="userSpaceOnUse" x1="543.5691" y1="227.3331" x2="571.4905" y2="227.3331">
		<stop  offset="0" style="stop-color:#EAB063;stop-opacity:0"/>
		<stop  offset="1" style="stop-color:#EAB063"/>
	</linearGradient>
	<path class="st53" d="M555.2,234.5c-0.9,0-1.9-0.1-2.7-0.2c-4.2-0.5-7.5-2.1-8.6-4.2c-0.5-1.1-0.5-2.2,0.3-3.4
		c2.1-3.7,8.9-6.5,15.7-6.5c0.9,0,1.9,0.1,2.7,0.2c4.2,0.5,7.5,2.1,8.6,4.2c0.5,1.1,0.5,2.2-0.3,3.4
		C568.8,231.7,562,234.5,555.2,234.5z"/>
	<g>
		<line class="st34" x1="552.2" y1="236.7" x2="552.2" y2="239.6"/>
		<line class="st34" x1="544.1" y1="233.9" x2="544.1" y2="236.8"/>
		<line class="st34" x1="563.1" y1="235.8" x2="563.1" y2="238.6"/>
		<line class="st34" x1="570.6" y1="232.1" x2="570.6" y2="235"/>
	</g>
	<g>
		<path class="st17" d="M564.3,223.2L555,225l4.8,0.8l1.3,3L564.3,223.2z M550.2,231.4l2.7-5.4l0.7,3.4l5.5,0.5L550.2,231.4z"/>
		<path class="st17" d="M558.9,226.4l1.4,3.1l-5.6-0.6l-0.7-3.4L558.9,226.4z"/>
	</g>
</g>
<g>
	<path class="st31" d="M561.5,186.1c-2.9,5.1-12.1,8.4-20.6,7.4c-8.4-1-12.9-5.9-10-10.9c2.9-5.1,12.1-8.4,20.6-7.4
		C560,176.2,564.5,181.1,561.5,186.1z"/>
	<polygon class="st31" points="562.4,179.7 562.4,183.4 530.1,185.9 530.1,182.3 	"/>
	<path class="st32" d="M561.5,182.7c-2.9,5.1-12.1,8.4-20.6,7.4c-8.4-1-12.9-5.9-10-10.9c2.9-5.1,12.1-8.4,20.6-7.4
		C560,172.7,564.5,177.6,561.5,182.7z"/>
	<linearGradient id="SVGID_36_" gradientUnits="userSpaceOnUse" x1="532.3091" y1="180.9356" x2="560.2304" y2="180.9356">
		<stop  offset="0" style="stop-color:#EAB063;stop-opacity:0"/>
		<stop  offset="1" style="stop-color:#EAB063"/>
	</linearGradient>
	<path class="st54" d="M544,188.1c-0.9,0-1.9-0.1-2.7-0.2c-4.2-0.5-7.5-2.1-8.6-4.2c-0.5-1.1-0.5-2.2,0.3-3.4
		c2.1-3.7,8.9-6.5,15.7-6.5c0.9,0,1.9,0.1,2.7,0.2c4.2,0.5,7.5,2.1,8.6,4.2c0.5,1.1,0.5,2.2-0.3,3.4
		C557.5,185.3,550.8,188.1,544,188.1z"/>
	<g>
		<line class="st34" x1="540.9" y1="190.3" x2="540.9" y2="193.2"/>
		<line class="st34" x1="532.8" y1="187.5" x2="532.8" y2="190.4"/>
		<line class="st34" x1="551.8" y1="189.4" x2="551.8" y2="192.2"/>
		<line class="st34" x1="559.3" y1="185.7" x2="559.3" y2="188.6"/>
	</g>
	<g>
		<path class="st17" d="M553,176.8l-9.3,1.8l4.8,0.8l1.3,3L553,176.8z M538.9,185.1l2.7-5.4l0.7,3.4l5.5,0.5L538.9,185.1z"/>
		<path class="st17" d="M547.6,180l1.4,3.1l-5.6-0.6l-0.7-3.4L547.6,180z"/>
	</g>
</g>
<g>
	<path class="st31" d="M583.2,208c-2.9,5.1-12.1,8.4-20.6,7.4c-8.4-1-12.9-5.9-10-10.9c2.9-5.1,12.1-8.4,20.6-7.4
		C581.6,198,586.1,202.9,583.2,208z"/>
	<polygon class="st31" points="584.1,201.6 584.1,205.2 551.7,207.8 551.7,204.2 	"/>
	<path class="st32" d="M583.2,204.6c-2.9,5.1-12.1,8.4-20.6,7.4c-8.4-1-12.9-5.9-10-10.9c2.9-5.1,12.1-8.4,20.6-7.4
		C581.6,194.6,586.1,199.5,583.2,204.6z"/>
	<linearGradient id="SVGID_37_" gradientUnits="userSpaceOnUse" x1="553.9477" y1="202.7967" x2="581.869" y2="202.7967">
		<stop  offset="0" style="stop-color:#EAB063;stop-opacity:0"/>
		<stop  offset="1" style="stop-color:#EAB063"/>
	</linearGradient>
	<path class="st55" d="M565.6,209.9c-0.9,0-1.9-0.1-2.7-0.2c-4.2-0.5-7.5-2.1-8.6-4.2c-0.5-1.1-0.5-2.2,0.3-3.4
		c2.1-3.7,8.9-6.5,15.7-6.5c0.9,0,1.9,0.1,2.7,0.2c4.2,0.5,7.5,2.1,8.6,4.2c0.5,1.1,0.5,2.2-0.3,3.4
		C579.1,207.1,572.4,209.9,565.6,209.9z"/>
	<g>
		<line class="st34" x1="562.5" y1="212.2" x2="562.5" y2="215.1"/>
		<line class="st34" x1="554.4" y1="209.4" x2="554.4" y2="212.3"/>
		<line class="st34" x1="573.4" y1="211.2" x2="573.4" y2="214.1"/>
		<line class="st34" x1="580.9" y1="207.6" x2="580.9" y2="210.4"/>
	</g>
	<g>
		<path class="st17" d="M574.7,198.7l-9.3,1.8l4.8,0.8l1.3,3L574.7,198.7z M560.6,206.9l2.7-5.4l0.7,3.4l5.5,0.5L560.6,206.9z"/>
		<path class="st17" d="M569.2,201.8l1.4,3.1l-5.6-0.6l-0.7-3.4L569.2,201.8z"/>
	</g>
</g>
<g>
	<path class="st31" d="M581.2,199.8c-2.9,5.1-12.1,8.4-20.6,7.4c-8.4-1-12.9-5.9-10-10.9c2.9-5.1,12.1-8.4,20.6-7.4
		C579.7,189.9,584.1,194.8,581.2,199.8z"/>
	<polygon class="st31" points="582.1,193.4 582.1,197.1 549.7,199.6 549.7,196 	"/>
	<path class="st32" d="M581.2,196.4c-2.9,5.1-12.1,8.4-20.6,7.4c-8.4-1-12.9-5.9-10-10.9c2.9-5.1,12.1-8.4,20.6-7.4
		C579.7,186.4,584.1,191.3,581.2,196.4z"/>
	<linearGradient id="SVGID_38_" gradientUnits="userSpaceOnUse" x1="551.96" y1="194.6361" x2="579.8813" y2="194.6361">
		<stop  offset="0" style="stop-color:#EAB063;stop-opacity:0"/>
		<stop  offset="1" style="stop-color:#EAB063"/>
	</linearGradient>
	<path class="st56" d="M563.6,201.8c-0.9,0-1.9-0.1-2.7-0.2c-4.2-0.5-7.5-2.1-8.6-4.2c-0.5-1.1-0.5-2.2,0.3-3.4
		c2.1-3.7,8.9-6.5,15.7-6.5c0.9,0,1.9,0.1,2.7,0.2c4.2,0.5,7.5,2.1,8.6,4.2c0.5,1.1,0.5,2.2-0.3,3.4
		C577.2,199,570.4,201.8,563.6,201.8z"/>
	<g>
		<line class="st34" x1="560.6" y1="204" x2="560.6" y2="206.9"/>
		<line class="st34" x1="552.5" y1="201.2" x2="552.5" y2="204.1"/>
		<line class="st34" x1="571.5" y1="203.1" x2="571.5" y2="205.9"/>
		<line class="st34" x1="579" y1="199.4" x2="579" y2="202.3"/>
	</g>
	<g>
		<path class="st17" d="M572.7,190.5l-9.3,1.8l4.8,0.8l1.3,3L572.7,190.5z M558.6,198.8l2.7-5.4l0.7,3.4l5.5,0.5L558.6,198.8z"/>
		<path class="st17" d="M567.3,193.7l1.4,3.1l-5.6-0.6l-0.7-3.4L567.3,193.7z"/>
	</g>
</g>
<g>
	<path class="st31" d="M606.1,221.5c-2.9,5.1-12.1,8.4-20.6,7.4c-8.4-1-12.9-5.9-10-10.9c2.9-5.1,12.1-8.4,20.6-7.4
		C604.6,211.5,609,216.4,606.1,221.5z"/>
	<polygon class="st31" points="607,215.1 607,218.7 574.7,221.3 574.7,217.6 	"/>
	<path class="st32" d="M606.1,218c-2.9,5.1-12.1,8.4-20.6,7.4s-12.9-5.9-10-10.9c2.9-5.1,12.1-8.4,20.6-7.4
		C604.6,208.1,609,213,606.1,218z"/>
	<linearGradient id="SVGID_39_" gradientUnits="userSpaceOnUse" x1="576.8875" y1="216.2825" x2="604.8088" y2="216.2825">
		<stop  offset="0" style="stop-color:#EAB063;stop-opacity:0"/>
		<stop  offset="1" style="stop-color:#EAB063"/>
	</linearGradient>
	<path class="st57" d="M588.6,223.4c-0.9,0-1.9-0.1-2.7-0.2c-4.2-0.5-7.5-2.1-8.6-4.2c-0.5-1.1-0.5-2.2,0.3-3.4
		c2.1-3.7,8.9-6.5,15.7-6.5c0.9,0,1.9,0.1,2.7,0.2c4.2,0.5,7.5,2.1,8.6,4.2c0.5,1.1,0.5,2.2-0.3,3.4
		C602.1,220.6,595.4,223.4,588.6,223.4z"/>
	<g>
		<line class="st34" x1="585.5" y1="225.7" x2="585.5" y2="228.6"/>
		<line class="st34" x1="577.4" y1="222.9" x2="577.4" y2="225.8"/>
		<line class="st34" x1="596.4" y1="224.7" x2="596.4" y2="227.6"/>
		<line class="st34" x1="603.9" y1="221.1" x2="603.9" y2="223.9"/>
	</g>
	<g>
		<path class="st17" d="M597.6,212.2l-9.3,1.8l4.8,0.8l1.3,3L597.6,212.2z M583.5,220.4l2.7-5.4l0.7,3.4l5.5,0.5L583.5,220.4z"/>
		<path class="st17" d="M592.2,215.3l1.4,3.1l-5.6-0.6l-0.7-3.4L592.2,215.3z"/>
	</g>
</g>
<g>
	<path class="st31" d="M605.3,213.4c-2.9,5.1-12.1,8.4-20.6,7.4c-8.4-1-12.9-5.9-10-10.9c2.9-5.1,12.1-8.4,20.6-7.4
		C603.7,203.4,608.2,208.3,605.3,213.4z"/>
	<polygon class="st31" points="606.2,207 606.2,210.7 573.8,213.2 573.8,209.6 	"/>
	<path class="st32" d="M605.3,210c-2.9,5.1-12.1,8.4-20.6,7.4c-8.4-1-12.9-5.9-10-10.9c2.9-5.1,12.1-8.4,20.6-7.4
		C603.7,200,608.2,204.9,605.3,210z"/>
	<linearGradient id="SVGID_40_" gradientUnits="userSpaceOnUse" x1="576.0573" y1="208.2054" x2="603.9787" y2="208.2054">
		<stop  offset="0" style="stop-color:#EAB063;stop-opacity:0"/>
		<stop  offset="1" style="stop-color:#EAB063"/>
	</linearGradient>
	<path class="st58" d="M587.7,215.3c-0.9,0-1.9-0.1-2.7-0.2c-4.2-0.5-7.5-2.1-8.6-4.2c-0.5-1.1-0.5-2.2,0.3-3.4
		c2.1-3.7,8.9-6.5,15.7-6.5c0.9,0,1.9,0.1,2.7,0.2c4.2,0.5,7.5,2.1,8.6,4.2c0.5,1.1,0.5,2.2-0.3,3.4
		C601.3,212.5,594.5,215.3,587.7,215.3z"/>
	<g>
		<line class="st34" x1="584.7" y1="217.6" x2="584.7" y2="220.5"/>
		<line class="st34" x1="576.6" y1="214.8" x2="576.6" y2="217.7"/>
		<line class="st34" x1="595.6" y1="216.6" x2="595.6" y2="219.5"/>
		<line class="st34" x1="603.1" y1="213" x2="603.1" y2="215.8"/>
	</g>
	<g>
		<path class="st17" d="M596.8,204.1l-9.3,1.8l4.8,0.8l1.3,3L596.8,204.1z M582.7,212.3l2.7-5.4l0.7,3.4l5.5,0.5L582.7,212.3z"/>
		<path class="st17" d="M591.4,207.3l1.4,3.1l-5.6-0.6l-0.7-3.4L591.4,207.3z"/>
	</g>
</g>
<g>
	<path class="st31" d="M597.9,202.5c-2.9,5.1-12.1,8.4-20.6,7.4c-8.4-1-12.9-5.9-10-10.9c2.9-5.1,12.1-8.4,20.6-7.4
		S600.9,197.4,597.9,202.5z"/>
	<polygon class="st31" points="598.8,196.1 598.8,199.7 566.5,202.3 566.5,198.6 	"/>
	<path class="st32" d="M597.9,199c-2.9,5.1-12.1,8.4-20.6,7.4c-8.4-1-12.9-5.9-10-10.9c2.9-5.1,12.1-8.4,20.6-7.4
		C596.4,189.1,600.9,194,597.9,199z"/>
	<linearGradient id="SVGID_41_" gradientUnits="userSpaceOnUse" x1="568.7057" y1="197.2597" x2="596.627" y2="197.2597">
		<stop  offset="0" style="stop-color:#EAB063;stop-opacity:0"/>
		<stop  offset="1" style="stop-color:#EAB063"/>
	</linearGradient>
	<path class="st59" d="M580.4,204.4c-0.9,0-1.9-0.1-2.7-0.2c-4.2-0.5-7.5-2.1-8.6-4.2c-0.5-1.1-0.5-2.2,0.3-3.4
		c2.1-3.7,8.9-6.5,15.7-6.5c0.9,0,1.9,0.1,2.7,0.2c4.2,0.5,7.5,2.1,8.6,4.2c0.5,1.1,0.5,2.2-0.3,3.4
		C593.9,201.6,587.2,204.4,580.4,204.4z"/>
	<g>
		<line class="st34" x1="577.3" y1="206.7" x2="577.3" y2="209.5"/>
		<line class="st34" x1="569.2" y1="203.9" x2="569.2" y2="206.7"/>
		<line class="st34" x1="588.2" y1="205.7" x2="588.2" y2="208.6"/>
		<line class="st34" x1="595.7" y1="202" x2="595.7" y2="204.9"/>
	</g>
	<g>
		<path class="st17" d="M589.4,193.1l-9.3,1.8l4.8,0.8l1.3,3L589.4,193.1z M575.3,201.4l2.7-5.4l0.7,3.4l5.5,0.5L575.3,201.4z"/>
		<path class="st17" d="M584,196.3l1.4,3.1l-5.6-0.6l-0.7-3.4L584,196.3z"/>
	</g>
</g>
<g>
	<path class="st31" d="M572.8,191.4c-2.9,5.1-12.1,8.4-20.6,7.4c-8.4-1-12.9-5.9-10-10.9c2.9-5.1,12.1-8.4,20.6-7.4
		C571.3,181.4,575.7,186.3,572.8,191.4z"/>
	<polygon class="st31" points="573.7,185 573.7,188.7 541.4,191.2 541.4,187.6 	"/>
	<path class="st32" d="M572.8,188c-2.9,5.1-12.1,8.4-20.6,7.4c-8.4-1-12.9-5.9-10-10.9c2.9-5.1,12.1-8.4,20.6-7.4
		C571.3,178,575.7,182.9,572.8,188z"/>
	<linearGradient id="SVGID_42_" gradientUnits="userSpaceOnUse" x1="543.5691" y1="186.2091" x2="571.4905" y2="186.2091">
		<stop  offset="0" style="stop-color:#EAB063;stop-opacity:0"/>
		<stop  offset="1" style="stop-color:#EAB063"/>
	</linearGradient>
	<path class="st60" d="M555.2,193.3c-0.9,0-1.9-0.1-2.7-0.2c-4.2-0.5-7.5-2.1-8.6-4.2c-0.5-1.1-0.5-2.2,0.3-3.4
		c2.1-3.7,8.9-6.5,15.7-6.5c0.9,0,1.9,0.1,2.7,0.2c4.2,0.5,7.5,2.1,8.6,4.2c0.5,1.1,0.5,2.2-0.3,3.4
		C568.8,190.6,562,193.3,555.2,193.3z"/>
	<g>
		<line class="st34" x1="552.2" y1="195.6" x2="552.2" y2="198.5"/>
		<line class="st34" x1="544.1" y1="192.8" x2="544.1" y2="195.7"/>
		<line class="st34" x1="563.1" y1="194.6" x2="563.1" y2="197.5"/>
		<line class="st34" x1="570.6" y1="191" x2="570.6" y2="193.9"/>
	</g>
	<g>
		<path class="st17" d="M564.3,182.1l-9.3,1.8l4.8,0.8l1.3,3L564.3,182.1z M550.2,190.3l2.7-5.4l0.7,3.4l5.5,0.5L550.2,190.3z"/>
		<path class="st17" d="M558.9,185.3l1.4,3.1l-5.6-0.6l-0.7-3.4L558.9,185.3z"/>
	</g>
</g>
<g>
	<path class="st31" d="M588.7,189.1c-2.9,5.1-12.1,8.4-20.6,7.4c-8.4-1-12.9-5.9-10-10.9c2.9-5.1,12.1-8.4,20.6-7.4
		C587.2,179.2,591.6,184,588.7,189.1z"/>
	<polygon class="st31" points="589.6,182.7 589.6,186.4 557.3,188.9 557.3,185.3 	"/>
	<path class="st32" d="M588.7,185.7c-2.9,5.1-12.1,8.4-20.6,7.4c-8.4-1-12.9-5.9-10-10.9c2.9-5.1,12.1-8.4,20.6-7.4
		C587.2,175.7,591.6,180.6,588.7,185.7z"/>
	<linearGradient id="SVGID_43_" gradientUnits="userSpaceOnUse" x1="559.483" y1="183.9195" x2="587.4043" y2="183.9195">
		<stop  offset="0" style="stop-color:#EAB063;stop-opacity:0"/>
		<stop  offset="1" style="stop-color:#EAB063"/>
	</linearGradient>
	<path class="st61" d="M571.2,191c-0.9,0-1.9-0.1-2.7-0.2c-4.2-0.5-7.5-2.1-8.6-4.2c-0.5-1.1-0.5-2.2,0.3-3.4
		c2.1-3.7,8.9-6.5,15.7-6.5c0.9,0,1.9,0.1,2.7,0.2c4.2,0.5,7.5,2.1,8.6,4.2c0.5,1.1,0.5,2.2-0.3,3.4
		C584.7,188.3,577.9,191,571.2,191z"/>
	<g>
		<line class="st34" x1="568.1" y1="193.3" x2="568.1" y2="196.2"/>
		<line class="st34" x1="560" y1="190.5" x2="560" y2="193.4"/>
		<line class="st34" x1="579" y1="192.4" x2="579" y2="195.2"/>
		<line class="st34" x1="586.5" y1="188.7" x2="586.5" y2="191.6"/>
	</g>
	<g>
		<path class="st17" d="M580.2,179.8l-9.3,1.8l4.8,0.8l1.3,3L580.2,179.8z M566.1,188l2.7-5.4l0.7,3.4l5.5,0.5L566.1,188z"/>
		<path class="st17" d="M574.8,183l1.4,3.1l-5.6-0.6l-0.7-3.4L574.8,183z"/>
	</g>
</g>
<g>
	<path class="st31" d="M564.4,176.8c-2.9,5.1-12.1,8.4-20.6,7.4c-8.4-1-12.9-5.9-10-10.9c2.9-5.1,12.1-8.4,20.6-7.4
		C562.8,166.8,567.3,171.7,564.4,176.8z"/>
	<polygon class="st31" points="565.3,170.4 565.3,174 532.9,176.6 532.9,173 	"/>
	<path class="st32" d="M564.4,173.4c-2.9,5.1-12.1,8.4-20.6,7.4c-8.4-1-12.9-5.9-10-10.9c2.9-5.1,12.1-8.4,20.6-7.4
		C562.8,163.4,567.3,168.3,564.4,173.4z"/>
	<linearGradient id="SVGID_44_" gradientUnits="userSpaceOnUse" x1="535.1438" y1="171.5905" x2="563.0651" y2="171.5905">
		<stop  offset="0" style="stop-color:#EAB063;stop-opacity:0"/>
		<stop  offset="1" style="stop-color:#EAB063"/>
	</linearGradient>
	<path class="st62" d="M546.8,178.7c-0.9,0-1.9-0.1-2.7-0.2c-4.2-0.5-7.5-2.1-8.6-4.2c-0.5-1.1-0.5-2.2,0.3-3.4
		c2.1-3.7,8.9-6.5,15.7-6.5c0.9,0,1.9,0.1,2.7,0.2c4.2,0.5,7.5,2.1,8.6,4.2c0.5,1.1,0.5,2.2-0.3,3.4
		C560.3,175.9,553.6,178.7,546.8,178.7z"/>
	<g>
		<line class="st34" x1="543.7" y1="181" x2="543.7" y2="183.9"/>
		<line class="st34" x1="535.6" y1="178.2" x2="535.6" y2="181.1"/>
		<line class="st34" x1="554.6" y1="180" x2="554.6" y2="182.9"/>
		<line class="st34" x1="562.1" y1="176.4" x2="562.1" y2="179.2"/>
	</g>
	<g>
		<path class="st17" d="M555.9,167.5l-9.3,1.8l4.8,0.8l1.3,3L555.9,167.5z M541.8,175.7l2.7-5.4l0.7,3.4l5.5,0.5L541.8,175.7z"/>
		<path class="st17" d="M550.4,170.6l1.4,3.1l-5.6-0.6l-0.7-3.4L550.4,170.6z"/>
	</g>
</g>
<g>
	<path class="st31" d="M575.8,224.9c-2.9,5.1-12.1,8.4-20.6,7.4c-8.4-1-12.9-5.9-10-10.9c2.9-5.1,12.1-8.4,20.6-7.4
		C574.3,214.9,578.8,219.8,575.8,224.9z"/>
	<polygon class="st31" points="576.7,218.5 576.7,222.2 544.4,224.7 544.4,221.1 	"/>
	<path class="st32" d="M575.8,221.5c-2.9,5.1-12.1,8.4-20.6,7.4c-8.4-1-12.9-5.9-10-10.9c2.9-5.1,12.1-8.4,20.6-7.4
		C574.3,211.5,578.8,216.4,575.8,221.5z"/>
	<linearGradient id="SVGID_45_" gradientUnits="userSpaceOnUse" x1="546.596" y1="219.7096" x2="574.5174" y2="219.7096">
		<stop  offset="0" style="stop-color:#EAB063;stop-opacity:0"/>
		<stop  offset="1" style="stop-color:#EAB063"/>
	</linearGradient>
	<path class="st63" d="M558.3,226.8c-0.9,0-1.9-0.1-2.7-0.2c-4.2-0.5-7.5-2.1-8.6-4.2c-0.5-1.1-0.5-2.2,0.3-3.4
		c2.1-3.7,8.9-6.5,15.7-6.5c0.9,0,1.9,0.1,2.7,0.2c4.2,0.5,7.5,2.1,8.6,4.2c0.5,1.1,0.5,2.2-0.3,3.4
		C571.8,224.1,565.1,226.8,558.3,226.8z"/>
	<g>
		<line class="st34" x1="555.2" y1="229.1" x2="555.2" y2="232"/>
		<line class="st34" x1="547.1" y1="226.3" x2="547.1" y2="229.2"/>
		<line class="st34" x1="566.1" y1="228.1" x2="566.1" y2="231"/>
		<line class="st34" x1="573.6" y1="224.5" x2="573.6" y2="227.4"/>
	</g>
	<g>
		<path class="st17" d="M567.3,215.6l-9.3,1.8l4.8,0.8l1.3,3L567.3,215.6z M553.2,223.8l2.7-5.4l0.7,3.4l5.5,0.5L553.2,223.8z"/>
		<path class="st17" d="M561.9,218.8l1.4,3.1l-5.6-0.6l-0.7-3.4L561.9,218.8z"/>
	</g>
</g>
<g>
	<path class="st31" d="M544.4,216.5c-2.9,5.1-12.1,8.4-20.6,7.4c-8.4-1-12.9-5.9-10-10.9s12.1-8.4,20.6-7.4
		C542.8,206.5,547.3,211.4,544.4,216.5z"/>
	<polygon class="st31" points="545.3,210.1 545.2,213.7 512.9,216.3 512.9,212.6 	"/>
	<path class="st32" d="M544.4,213c-2.9,5.1-12.1,8.4-20.6,7.4c-8.4-1-12.9-5.9-10-10.9c2.9-5.1,12.1-8.4,20.6-7.4
		C542.8,203.1,547.3,208,544.4,213z"/>
	<linearGradient id="SVGID_46_" gradientUnits="userSpaceOnUse" x1="515.1193" y1="211.2675" x2="543.0406" y2="211.2675">
		<stop  offset="0" style="stop-color:#EAB063;stop-opacity:0"/>
		<stop  offset="1" style="stop-color:#EAB063"/>
	</linearGradient>
	<path class="st64" d="M526.8,218.4c-0.9,0-1.9-0.1-2.7-0.2c-4.2-0.5-7.5-2.1-8.6-4.2c-0.5-1.1-0.5-2.2,0.3-3.4
		c2.1-3.7,8.9-6.5,15.7-6.5c0.9,0,1.9,0.1,2.7,0.2c4.2,0.5,7.5,2.1,8.6,4.2c0.5,1.1,0.5,2.2-0.3,3.4
		C540.3,215.6,533.6,218.4,526.8,218.4z"/>
	<g>
		<line class="st34" x1="523.7" y1="220.7" x2="523.7" y2="223.5"/>
		<line class="st34" x1="515.6" y1="217.9" x2="515.6" y2="220.7"/>
		<line class="st34" x1="534.6" y1="219.7" x2="534.6" y2="222.6"/>
		<line class="st34" x1="542.1" y1="216" x2="542.1" y2="218.9"/>
	</g>
	<g>
		<path class="st17" d="M535.8,207.2l-9.3,1.8l4.8,0.8l1.3,3L535.8,207.2z M521.7,215.4l2.7-5.4l0.7,3.4l5.5,0.5L521.7,215.4z"/>
		<path class="st17" d="M530.4,210.3l1.4,3.1l-5.6-0.6l-0.7-3.4L530.4,210.3z"/>
	</g>
</g>
<g>
	<path class="st31" d="M606.1,247.8c-2.9,5.1-12.1,8.4-20.6,7.4c-8.4-1-12.9-5.9-10-10.9c2.9-5.1,12.1-8.4,20.6-7.4
		C604.6,237.8,609,242.7,606.1,247.8z"/>
	<polygon class="st31" points="607,241.4 607,245 574.7,247.6 574.7,243.9 	"/>
	<path class="st32" d="M606.1,244.3c-2.9,5.1-12.1,8.4-20.6,7.4c-8.4-1-12.9-5.9-10-10.9c2.9-5.1,12.1-8.4,20.6-7.4
		C604.6,234.4,609,239.3,606.1,244.3z"/>
	<linearGradient id="SVGID_47_" gradientUnits="userSpaceOnUse" x1="576.8875" y1="242.5729" x2="604.8088" y2="242.5729">
		<stop  offset="0" style="stop-color:#EAB063;stop-opacity:0"/>
		<stop  offset="1" style="stop-color:#EAB063"/>
	</linearGradient>
	<path class="st65" d="M588.6,249.7c-0.9,0-1.9-0.1-2.7-0.2c-4.2-0.5-7.5-2.1-8.6-4.2c-0.5-1.1-0.5-2.2,0.3-3.4
		c2.1-3.7,8.9-6.5,15.7-6.5c0.9,0,1.9,0.1,2.7,0.2c4.2,0.5,7.5,2.1,8.6,4.2c0.5,1.1,0.5,2.2-0.3,3.4
		C602.1,246.9,595.4,249.7,588.6,249.7z"/>
	<g>
		<line class="st34" x1="585.5" y1="252" x2="585.5" y2="254.9"/>
		<line class="st34" x1="577.4" y1="249.2" x2="577.4" y2="252.1"/>
		<line class="st34" x1="596.4" y1="251" x2="596.4" y2="253.9"/>
		<line class="st34" x1="603.9" y1="247.3" x2="603.9" y2="250.2"/>
	</g>
	<g>
		<path class="st17" d="M597.6,238.5l-9.3,1.8l4.8,0.8l1.3,3L597.6,238.5z M583.5,246.7l2.7-5.4l0.7,3.4l5.5,0.5L583.5,246.7z"/>
		<path class="st17" d="M592.2,241.6l1.4,3.1l-5.6-0.6l-0.7-3.4L592.2,241.6z"/>
	</g>
</g>
<g>
	<path class="st31" d="M612.9,267.2c-2.9,5.1-12.1,8.4-20.6,7.4c-8.4-1-12.9-5.9-10-10.9s12.1-8.4,20.6-7.4
		C611.3,257.3,615.8,262.1,612.9,267.2z"/>
	<polygon class="st31" points="613.8,260.8 613.8,264.5 581.4,267 581.4,263.4 	"/>
	<path class="st32" d="M612.9,263.8c-2.9,5.1-12.1,8.4-20.6,7.4c-8.4-1-12.9-5.9-10-10.9c2.9-5.1,12.1-8.4,20.6-7.4
		C611.3,253.8,615.8,258.7,612.9,263.8z"/>
	<linearGradient id="SVGID_48_" gradientUnits="userSpaceOnUse" x1="583.6571" y1="262.0194" x2="611.5785" y2="262.0194">
		<stop  offset="0" style="stop-color:#EAB063;stop-opacity:0"/>
		<stop  offset="1" style="stop-color:#EAB063"/>
	</linearGradient>
	<path class="st66" d="M595.3,269.1c-0.9,0-1.9-0.1-2.7-0.2c-4.2-0.5-7.5-2.1-8.6-4.2c-0.5-1.1-0.5-2.2,0.3-3.4
		c2.1-3.7,8.9-6.5,15.7-6.5c0.9,0,1.9,0.1,2.7,0.2c4.2,0.5,7.5,2.1,8.6,4.2c0.5,1.1,0.5,2.2-0.3,3.4
		C608.9,266.4,602.1,269.1,595.3,269.1z"/>
	<g>
		<line class="st34" x1="592.3" y1="271.4" x2="592.3" y2="274.3"/>
		<line class="st34" x1="584.2" y1="268.6" x2="584.2" y2="271.5"/>
		<line class="st34" x1="603.2" y1="270.5" x2="603.2" y2="273.3"/>
		<line class="st34" x1="610.7" y1="266.8" x2="610.7" y2="269.7"/>
	</g>
	<g>
		<path class="st17" d="M604.4,257.9l-9.3,1.8l4.8,0.8l1.3,3L604.4,257.9z M590.3,266.1l2.7-5.4l0.7,3.4l5.5,0.5L590.3,266.1z"/>
		<path class="st17" d="M599,261.1l1.4,3.1l-5.6-0.6l-0.7-3.4L599,261.1z"/>
	</g>
</g>
<g>
	<path class="st31" d="M573.6,267.6c-2.9,5.1-12.1,8.4-20.6,7.4c-8.4-1-12.9-5.9-10-10.9s12.1-8.4,20.6-7.4
		C572.1,257.7,576.5,262.6,573.6,267.6z"/>
	<polygon class="st31" points="574.5,261.2 574.5,264.9 542.2,267.5 542.2,263.8 	"/>
	<path class="st32" d="M573.6,264.2c-2.9,5.1-12.1,8.4-20.6,7.4c-8.4-1-12.9-5.9-10-10.9s12.1-8.4,20.6-7.4
		C572.1,254.3,576.5,259.2,573.6,264.2z"/>
	<linearGradient id="SVGID_49_" gradientUnits="userSpaceOnUse" x1="544.3768" y1="262.4566" x2="572.2982" y2="262.4566">
		<stop  offset="0" style="stop-color:#EAB063;stop-opacity:0"/>
		<stop  offset="1" style="stop-color:#EAB063"/>
	</linearGradient>
	<path class="st67" d="M556,269.6c-0.9,0-1.9-0.1-2.7-0.2c-4.2-0.5-7.5-2.1-8.6-4.2c-0.5-1.1-0.5-2.2,0.3-3.4
		c2.1-3.7,8.9-6.5,15.7-6.5c0.9,0,1.9,0.1,2.7,0.2c4.2,0.5,7.5,2.1,8.6,4.2c0.5,1.1,0.5,2.2-0.3,3.4
		C569.6,266.8,562.8,269.6,556,269.6z"/>
	<g>
		<line class="st34" x1="553" y1="271.9" x2="553" y2="274.7"/>
		<line class="st34" x1="544.9" y1="269.1" x2="544.9" y2="271.9"/>
		<line class="st34" x1="563.9" y1="270.9" x2="563.9" y2="273.8"/>
		<line class="st34" x1="571.4" y1="267.2" x2="571.4" y2="270.1"/>
	</g>
	<g>
		<path class="st17" d="M565.1,258.3l-9.3,1.8l4.8,0.8l1.3,3L565.1,258.3z M551,266.6l2.7-5.4l0.7,3.4l5.5,0.5L551,266.6z"/>
		<path class="st17" d="M559.7,261.5l1.4,3.1l-5.6-0.6l-0.7-3.4L559.7,261.5z"/>
	</g>
</g>
<g>
	<path class="st31" d="M651.6,241.1c-2.9,5.1-12.1,8.4-20.6,7.4c-8.4-1-12.9-5.9-10-10.9c2.9-5.1,12.1-8.4,20.6-7.4
		C650.1,231.2,654.5,236.1,651.6,241.1z"/>
	<polygon class="st31" points="652.5,234.7 652.5,238.4 620.2,240.9 620.2,237.3 	"/>
	<path class="st32" d="M651.6,237.7c-2.9,5.1-12.1,8.4-20.6,7.4c-8.4-1-12.9-5.9-10-10.9c2.9-5.1,12.1-8.4,20.6-7.4
		C650.1,227.7,654.5,232.6,651.6,237.7z"/>
	<linearGradient id="SVGID_50_" gradientUnits="userSpaceOnUse" x1="622.3674" y1="235.9219" x2="650.2888" y2="235.9219">
		<stop  offset="0" style="stop-color:#EAB063;stop-opacity:0"/>
		<stop  offset="1" style="stop-color:#EAB063"/>
	</linearGradient>
	<path class="st68" d="M634,243c-0.9,0-1.9-0.1-2.7-0.2c-4.2-0.5-7.5-2.1-8.6-4.2c-0.5-1.1-0.5-2.2,0.3-3.4
		c2.1-3.7,8.9-6.5,15.7-6.5c0.9,0,1.9,0.1,2.7,0.2c4.2,0.5,7.5,2.1,8.6,4.2c0.5,1.1,0.5,2.2-0.3,3.4C647.6,240.3,640.8,243,634,243z
		"/>
	<g>
		<line class="st34" x1="631" y1="245.3" x2="631" y2="248.2"/>
		<line class="st34" x1="622.9" y1="242.5" x2="622.9" y2="245.4"/>
		<line class="st34" x1="641.9" y1="244.4" x2="641.9" y2="247.2"/>
		<line class="st34" x1="649.4" y1="240.7" x2="649.4" y2="243.6"/>
	</g>
	<g>
		<path class="st17" d="M643.1,231.8l-9.3,1.8l4.8,0.8l1.3,3L643.1,231.8z M629,240l2.7-5.4l0.7,3.4l5.5,0.5L629,240z"/>
		<path class="st17" d="M637.7,235l1.4,3.1l-5.6-0.6l-0.7-3.4L637.7,235z"/>
	</g>
</g>
<g>
	<path class="st31" d="M487.1,190.6c-2.9,5.1-12.1,8.4-20.6,7.4c-8.4-1-12.9-5.9-10-10.9c2.9-5.1,12.1-8.4,20.6-7.4
		C485.5,180.7,490,185.5,487.1,190.6z"/>
	<polygon class="st31" points="488,184.2 488,187.9 455.6,190.4 455.6,186.8 	"/>
	<path class="st32" d="M487.1,187.2c-2.9,5.1-12.1,8.4-20.6,7.4c-8.4-1-12.9-5.9-10-10.9c2.9-5.1,12.1-8.4,20.6-7.4
		C485.5,177.2,490,182.1,487.1,187.2z"/>
	<linearGradient id="SVGID_51_" gradientUnits="userSpaceOnUse" x1="457.838" y1="185.4206" x2="485.7593" y2="185.4206">
		<stop  offset="0" style="stop-color:#EAB063;stop-opacity:0"/>
		<stop  offset="1" style="stop-color:#EAB063"/>
	</linearGradient>
	<path class="st69" d="M469.5,192.5c-0.9,0-1.9-0.1-2.7-0.2c-4.2-0.5-7.5-2.1-8.6-4.2c-0.5-1.1-0.5-2.2,0.3-3.4
		c2.1-3.7,8.9-6.5,15.7-6.5c0.9,0,1.9,0.1,2.7,0.2c4.2,0.5,7.5,2.1,8.6,4.2c0.5,1.1,0.5,2.2-0.3,3.4
		C483,189.8,476.3,192.5,469.5,192.5z"/>
	<g>
		<line class="st34" x1="466.4" y1="194.8" x2="466.4" y2="197.7"/>
		<line class="st34" x1="458.3" y1="192" x2="458.3" y2="194.9"/>
		<line class="st34" x1="477.3" y1="193.9" x2="477.3" y2="196.7"/>
		<line class="st34" x1="484.8" y1="190.2" x2="484.8" y2="193.1"/>
	</g>
	<g>
		<path class="st17" d="M478.6,181.3l-9.3,1.8l4.8,0.8l1.3,3L478.6,181.3z M464.4,189.5l2.7-5.4l0.7,3.4l5.5,0.5L464.4,189.5z"/>
		<path class="st17" d="M473.1,184.5l1.4,3.1l-5.6-0.6l-0.7-3.4L473.1,184.5z"/>
	</g>
</g>
<g>
	<path class="st31" d="M574.1,217.6c-2.9,5.1-12.1,8.4-20.6,7.4c-8.4-1-12.9-5.9-10-10.9s12.1-8.4,20.6-7.4
		C572.6,207.7,577,212.6,574.1,217.6z"/>
	<polygon class="st31" points="575,211.2 575,214.9 542.7,217.4 542.7,213.8 	"/>
	<path class="st32" d="M574.1,214.2c-2.9,5.1-12.1,8.4-20.6,7.4c-8.4-1-12.9-5.9-10-10.9c2.9-5.1,12.1-8.4,20.6-7.4
		C572.6,204.2,577,209.1,574.1,214.2z"/>
	<linearGradient id="SVGID_52_" gradientUnits="userSpaceOnUse" x1="544.8738" y1="212.4263" x2="572.7952" y2="212.4263">
		<stop  offset="0" style="stop-color:#EAB063;stop-opacity:0"/>
		<stop  offset="1" style="stop-color:#EAB063"/>
	</linearGradient>
	<path class="st70" d="M556.5,219.5c-0.9,0-1.9-0.1-2.7-0.2c-4.2-0.5-7.5-2.1-8.6-4.2c-0.5-1.1-0.5-2.2,0.3-3.4
		c2.1-3.7,8.9-6.5,15.7-6.5c0.9,0,1.9,0.1,2.7,0.2c4.2,0.5,7.5,2.1,8.6,4.2c0.5,1.1,0.5,2.2-0.3,3.4
		C570.1,216.8,563.3,219.5,556.5,219.5z"/>
	<g>
		<line class="st34" x1="553.5" y1="221.8" x2="553.5" y2="224.7"/>
		<line class="st34" x1="545.4" y1="219" x2="545.4" y2="221.9"/>
		<line class="st34" x1="564.4" y1="220.9" x2="564.4" y2="223.7"/>
		<line class="st34" x1="571.9" y1="217.2" x2="571.9" y2="220.1"/>
	</g>
	<g>
		<path class="st17" d="M565.6,208.3l-9.3,1.8l4.8,0.8l1.3,3L565.6,208.3z M551.5,216.5l2.7-5.4l0.7,3.4l5.5,0.5L551.5,216.5z"/>
		<path class="st17" d="M560.2,211.5l1.4,3.1l-5.6-0.6l-0.7-3.4L560.2,211.5z"/>
	</g>
</g>
<g>
	<path class="st31" d="M542.2,209.2c-2.9,5.1-12.1,8.4-20.6,7.4c-8.4-1-12.9-5.9-10-10.9c2.9-5.1,12.1-8.4,20.6-7.4
		C540.7,199.2,545.1,204.1,542.2,209.2z"/>
	<polygon class="st31" points="543.1,202.8 543.1,206.4 510.8,209 510.8,205.3 	"/>
	<path class="st32" d="M542.2,205.8c-2.9,5.1-12.1,8.4-20.6,7.4c-8.4-1-12.9-5.9-10-10.9c2.9-5.1,12.1-8.4,20.6-7.4
		C540.7,195.8,545.1,200.7,542.2,205.8z"/>
	<linearGradient id="SVGID_53_" gradientUnits="userSpaceOnUse" x1="512.9683" y1="203.9862" x2="540.8896" y2="203.9862">
		<stop  offset="0" style="stop-color:#EAB063;stop-opacity:0"/>
		<stop  offset="1" style="stop-color:#EAB063"/>
	</linearGradient>
	<path class="st71" d="M524.6,211.1c-0.9,0-1.9-0.1-2.7-0.2c-4.2-0.5-7.5-2.1-8.6-4.2c-0.5-1.1-0.5-2.2,0.3-3.4
		c2.1-3.7,8.9-6.5,15.7-6.5c0.9,0,1.9,0.1,2.7,0.2c4.2,0.5,7.5,2.1,8.6,4.2c0.5,1.1,0.5,2.2-0.3,3.4
		C538.2,208.3,531.4,211.1,524.6,211.1z"/>
	<g>
		<line class="st34" x1="521.6" y1="213.4" x2="521.6" y2="216.3"/>
		<line class="st34" x1="513.5" y1="210.6" x2="513.5" y2="213.5"/>
		<line class="st34" x1="532.5" y1="212.4" x2="532.5" y2="215.3"/>
		<line class="st34" x1="540" y1="208.8" x2="540" y2="211.6"/>
	</g>
	<g>
		<path class="st17" d="M533.7,199.9l-9.3,1.8l4.8,0.8l1.3,3L533.7,199.9z M519.6,208.1l2.7-5.4l0.7,3.4l5.5,0.5L519.6,208.1z"/>
		<path class="st17" d="M528.3,203l1.4,3.1l-5.6-0.6l-0.7-3.4L528.3,203z"/>
	</g>
</g>
<g>
	<path class="st31" d="M575.5,211.7c-2.9,5.1-12.1,8.4-20.6,7.4c-8.4-1-12.9-5.9-10-10.9c2.9-5.1,12.1-8.4,20.6-7.4
		C574,201.8,578.5,206.7,575.5,211.7z"/>
	<polygon class="st31" points="576.4,205.3 576.4,209 544.1,211.6 544.1,207.9 	"/>
	<path class="st32" d="M575.5,208.3c-2.9,5.1-12.1,8.4-20.6,7.4c-8.4-1-12.9-5.9-10-10.9s12.1-8.4,20.6-7.4
		C574,198.4,578.5,203.2,575.5,208.3z"/>
	<linearGradient id="SVGID_54_" gradientUnits="userSpaceOnUse" x1="546.3051" y1="206.5457" x2="574.2264" y2="206.5457">
		<stop  offset="0" style="stop-color:#EAB063;stop-opacity:0"/>
		<stop  offset="1" style="stop-color:#EAB063"/>
	</linearGradient>
	<path class="st72" d="M558,213.7c-0.9,0-1.9-0.1-2.7-0.2c-4.2-0.5-7.5-2.1-8.6-4.2c-0.5-1.1-0.5-2.2,0.3-3.4
		c2.1-3.7,8.9-6.5,15.7-6.5c0.9,0,1.9,0.1,2.7,0.2c4.2,0.5,7.5,2.1,8.6,4.2c0.5,1.1,0.5,2.2-0.3,3.4
		C571.5,210.9,564.8,213.7,558,213.7z"/>
	<g>
		<line class="st34" x1="554.9" y1="216" x2="554.9" y2="218.8"/>
		<line class="st34" x1="546.8" y1="213.2" x2="546.8" y2="216"/>
		<line class="st34" x1="565.8" y1="215" x2="565.8" y2="217.9"/>
		<line class="st34" x1="573.3" y1="211.3" x2="573.3" y2="214.2"/>
	</g>
	<g>
		<path class="st17" d="M567,202.4l-9.3,1.8l4.8,0.8l1.3,3L567,202.4z M552.9,210.7l2.7-5.4l0.7,3.4l5.5,0.5L552.9,210.7z"/>
		<path class="st17" d="M561.6,205.6l1.4,3.1l-5.6-0.6l-0.7-3.4L561.6,205.6z"/>
	</g>
</g>
<g>
	<path class="st31" d="M613.7,249.7c-2.9,5.1-12.1,8.4-20.6,7.4c-8.4-1-12.9-5.9-10-10.9s12.1-8.4,20.6-7.4S616.6,244.7,613.7,249.7
		z"/>
	<polygon class="st31" points="614.6,243.3 614.6,247 582.2,249.6 582.2,245.9 	"/>
	<path class="st32" d="M613.7,246.3c-2.9,5.1-12.1,8.4-20.6,7.4c-8.4-1-12.9-5.9-10-10.9c2.9-5.1,12.1-8.4,20.6-7.4
		S616.6,241.3,613.7,246.3z"/>
	<linearGradient id="SVGID_55_" gradientUnits="userSpaceOnUse" x1="584.4441" y1="244.5518" x2="612.3654" y2="244.5518">
		<stop  offset="0" style="stop-color:#EAB063;stop-opacity:0"/>
		<stop  offset="1" style="stop-color:#EAB063"/>
	</linearGradient>
	<path class="st73" d="M596.1,251.7c-0.9,0-1.9-0.1-2.7-0.2c-4.2-0.5-7.5-2.1-8.6-4.2c-0.5-1.1-0.5-2.2,0.3-3.4
		c2.1-3.7,8.9-6.5,15.7-6.5c0.9,0,1.9,0.1,2.7,0.2c4.2,0.5,7.5,2.1,8.6,4.2c0.5,1.1,0.5,2.2-0.3,3.4
		C609.6,248.9,602.9,251.7,596.1,251.7z"/>
	<g>
		<line class="st34" x1="593" y1="254" x2="593" y2="256.8"/>
		<line class="st34" x1="584.9" y1="251.2" x2="584.9" y2="254"/>
		<line class="st34" x1="603.9" y1="253" x2="603.9" y2="255.9"/>
		<line class="st34" x1="611.4" y1="249.3" x2="611.4" y2="252.2"/>
	</g>
	<g>
		<path class="st17" d="M605.2,240.4l-9.3,1.8l4.8,0.8l1.3,3L605.2,240.4z M591.1,248.7l2.7-5.4l0.7,3.4l5.5,0.5L591.1,248.7z"/>
		<path class="st17" d="M599.7,243.6l1.4,3.1l-5.6-0.6l-0.7-3.4L599.7,243.6z"/>
	</g>
</g>
<g>
	<path class="st31" d="M613.1,241.5c-2.9,5.1-12.1,8.4-20.6,7.4c-8.4-1-12.9-5.9-10-10.9c2.9-5.1,12.1-8.4,20.6-7.4
		S616.1,236.4,613.1,241.5z"/>
	<polygon class="st31" points="614,235.1 614,238.8 581.7,241.3 581.7,237.7 	"/>
	<path class="st32" d="M613.1,238.1c-2.9,5.1-12.1,8.4-20.6,7.4c-8.4-1-12.9-5.9-10-10.9c2.9-5.1,12.1-8.4,20.6-7.4
		C611.6,228.1,616.1,233,613.1,238.1z"/>
	<linearGradient id="SVGID_56_" gradientUnits="userSpaceOnUse" x1="583.891" y1="236.3077" x2="611.8123" y2="236.3077">
		<stop  offset="0" style="stop-color:#EAB063;stop-opacity:0"/>
		<stop  offset="1" style="stop-color:#EAB063"/>
	</linearGradient>
	<path class="st74" d="M595.6,243.4c-0.9,0-1.9-0.1-2.7-0.2c-4.2-0.5-7.5-2.1-8.6-4.2c-0.5-1.1-0.5-2.2,0.3-3.4
		c2.1-3.7,8.9-6.5,15.7-6.5c0.9,0,1.9,0.1,2.7,0.2c4.2,0.5,7.5,2.1,8.6,4.2c0.5,1.1,0.5,2.2-0.3,3.4
		C609.1,240.7,602.4,243.4,595.6,243.4z"/>
	<g>
		<line class="st34" x1="592.5" y1="245.7" x2="592.5" y2="248.6"/>
		<line class="st34" x1="584.4" y1="242.9" x2="584.4" y2="245.8"/>
		<line class="st34" x1="603.4" y1="244.7" x2="603.4" y2="247.6"/>
		<line class="st34" x1="610.9" y1="241.1" x2="610.9" y2="244"/>
	</g>
	<g>
		<path class="st17" d="M604.6,232.2l-9.3,1.8l4.8,0.8l1.3,3L604.6,232.2z M590.5,240.4l2.7-5.4l0.7,3.4l5.5,0.5L590.5,240.4z"/>
		<path class="st17" d="M599.2,235.4l1.4,3.1l-5.6-0.6l-0.7-3.4L599.2,235.4z"/>
	</g>
</g>
<g>
	<path class="st31" d="M574.8,179.2c-2.9,5.1-12.1,8.4-20.6,7.4c-8.4-1-12.9-5.9-10-10.9c2.9-5.1,12.1-8.4,20.6-7.4
		C573.2,169.2,577.7,174.1,574.8,179.2z"/>
	<polygon class="st31" points="575.7,172.8 575.6,176.4 543.3,179 543.3,175.4 	"/>
	<path class="st32" d="M574.8,175.8c-2.9,5.1-12.1,8.4-20.6,7.4c-8.4-1-12.9-5.9-10-10.9c2.9-5.1,12.1-8.4,20.6-7.4
		C573.2,165.8,577.7,170.7,574.8,175.8z"/>
	<linearGradient id="SVGID_57_" gradientUnits="userSpaceOnUse" x1="545.5222" y1="173.9935" x2="573.4435" y2="173.9935">
		<stop  offset="0" style="stop-color:#EAB063;stop-opacity:0"/>
		<stop  offset="1" style="stop-color:#EAB063"/>
	</linearGradient>
	<path class="st75" d="M557.2,181.1c-0.9,0-1.9-0.1-2.7-0.2c-4.2-0.5-7.5-2.1-8.6-4.2c-0.5-1.1-0.5-2.2,0.3-3.4
		c2.1-3.7,8.9-6.5,15.7-6.5c0.9,0,1.9,0.1,2.7,0.2c4.2,0.5,7.5,2.1,8.6,4.2c0.5,1.1,0.5,2.2-0.3,3.4
		C570.7,178.3,564,181.1,557.2,181.1z"/>
	<g>
		<line class="st34" x1="554.1" y1="183.4" x2="554.1" y2="186.3"/>
		<line class="st34" x1="546" y1="180.6" x2="546" y2="183.5"/>
		<line class="st34" x1="565" y1="182.4" x2="565" y2="185.3"/>
		<line class="st34" x1="572.5" y1="178.8" x2="572.5" y2="181.6"/>
	</g>
	<g>
		<path class="st17" d="M566.3,169.9l-9.3,1.8l4.8,0.8l1.3,3L566.3,169.9z M552.1,178.1l2.7-5.4l0.7,3.4l5.5,0.5L552.1,178.1z"/>
		<path class="st17" d="M560.8,173l1.4,3.1l-5.6-0.6l-0.7-3.4L560.8,173z"/>
	</g>
</g>
<g>
	<path class="st31" d="M610.4,201.2c-2.9,5.1-12.1,8.4-20.6,7.4c-8.4-1-12.9-5.9-10-10.9c2.9-5.1,12.1-8.4,20.6-7.4
		C608.9,191.2,613.4,196.1,610.4,201.2z"/>
	<polygon class="st31" points="611.3,194.8 611.3,198.4 579,201 579,197.3 	"/>
	<path class="st32" d="M610.4,197.7c-2.9,5.1-12.1,8.4-20.6,7.4c-8.4-1-12.9-5.9-10-10.9c2.9-5.1,12.1-8.4,20.6-7.4
		C608.9,187.8,613.4,192.7,610.4,197.7z"/>
	<linearGradient id="SVGID_58_" gradientUnits="userSpaceOnUse" x1="581.1904" y1="195.9821" x2="609.1118" y2="195.9821">
		<stop  offset="0" style="stop-color:#EAB063;stop-opacity:0"/>
		<stop  offset="1" style="stop-color:#EAB063"/>
	</linearGradient>
	<path class="st76" d="M592.9,203.1c-0.9,0-1.9-0.1-2.7-0.2c-4.2-0.5-7.5-2.1-8.6-4.2c-0.5-1.1-0.5-2.2,0.3-3.4
		c2.1-3.7,8.9-6.5,15.7-6.5c0.9,0,1.9,0.1,2.7,0.2c4.2,0.5,7.5,2.1,8.6,4.2c0.5,1.1,0.5,2.2-0.3,3.4
		C606.4,200.3,599.7,203.1,592.9,203.1z"/>
	<g>
		<line class="st34" x1="589.8" y1="205.4" x2="589.8" y2="208.3"/>
		<line class="st34" x1="581.7" y1="202.6" x2="581.7" y2="205.5"/>
		<line class="st34" x1="600.7" y1="204.4" x2="600.7" y2="207.3"/>
		<line class="st34" x1="608.2" y1="200.8" x2="608.2" y2="203.6"/>
	</g>
	<g>
		<path class="st17" d="M601.9,191.9l-9.3,1.8l4.8,0.8l1.3,3L601.9,191.9z M587.8,200.1l2.7-5.4l0.7,3.4l5.5,0.5L587.8,200.1z"/>
		<path class="st17" d="M596.5,195l1.4,3.1l-5.6-0.6l-0.7-3.4L596.5,195z"/>
	</g>
</g>
<g>
	<path class="st31" d="M600.6,189.7c-2.9,5.1-12.1,8.4-20.6,7.4c-8.4-1-12.9-5.9-10-10.9s12.1-8.4,20.6-7.4
		C599.1,179.8,603.6,184.7,600.6,189.7z"/>
	<polygon class="st31" points="601.5,183.3 601.5,187 569.2,189.6 569.2,185.9 	"/>
	<path class="st32" d="M600.6,186.3c-2.9,5.1-12.1,8.4-20.6,7.4c-8.4-1-12.9-5.9-10-10.9s12.1-8.4,20.6-7.4S603.6,181.3,600.6,186.3
		z"/>
	<linearGradient id="SVGID_59_" gradientUnits="userSpaceOnUse" x1="571.4063" y1="184.5571" x2="599.3276" y2="184.5571">
		<stop  offset="0" style="stop-color:#EAB063;stop-opacity:0"/>
		<stop  offset="1" style="stop-color:#EAB063"/>
	</linearGradient>
	<path class="st77" d="M583.1,191.7c-0.9,0-1.9-0.1-2.7-0.2c-4.2-0.5-7.5-2.1-8.6-4.2c-0.5-1.1-0.5-2.2,0.3-3.4
		c2.1-3.7,8.9-6.5,15.7-6.5c0.9,0,1.9,0.1,2.7,0.2c4.2,0.5,7.5,2.1,8.6,4.2c0.5,1.1,0.5,2.2-0.3,3.4
		C596.6,188.9,589.9,191.7,583.1,191.7z"/>
	<g>
		<line class="st34" x1="580" y1="194" x2="580" y2="196.8"/>
		<line class="st34" x1="571.9" y1="191.2" x2="571.9" y2="194"/>
		<line class="st34" x1="590.9" y1="193" x2="590.9" y2="195.9"/>
		<line class="st34" x1="598.4" y1="189.3" x2="598.4" y2="192.2"/>
	</g>
	<g>
		<path class="st17" d="M592.1,180.4l-9.3,1.8l4.8,0.8l1.3,3L592.1,180.4z M578,188.7l2.7-5.4l0.7,3.4l5.5,0.5L578,188.7z"/>
		<path class="st17" d="M586.7,183.6l1.4,3.1l-5.6-0.6l-0.7-3.4L586.7,183.6z"/>
	</g>
</g>
<g>
	<path class="st31" d="M563.9,169c-2.9,5.1-12.1,8.4-20.6,7.4c-8.4-1-12.9-5.9-10-10.9c2.9-5.1,12.1-8.4,20.6-7.4
		C562.4,159,566.8,163.9,563.9,169z"/>
	<polygon class="st31" points="564.8,162.6 564.8,166.2 532.5,168.8 532.5,165.1 	"/>
	<path class="st32" d="M563.9,165.6c-2.9,5.1-12.1,8.4-20.6,7.4c-8.4-1-12.9-5.9-10-10.9s12.1-8.4,20.6-7.4S566.8,160.5,563.9,165.6
		z"/>
	<linearGradient id="SVGID_60_" gradientUnits="userSpaceOnUse" x1="534.6772" y1="163.7867" x2="562.5985" y2="163.7867">
		<stop  offset="0" style="stop-color:#EAB063;stop-opacity:0"/>
		<stop  offset="1" style="stop-color:#EAB063"/>
	</linearGradient>
	<path class="st78" d="M546.3,170.9c-0.9,0-1.9-0.1-2.7-0.2c-4.2-0.5-7.5-2.1-8.6-4.2c-0.5-1.1-0.5-2.2,0.3-3.4
		c2.1-3.7,8.9-6.5,15.7-6.5c0.9,0,1.9,0.1,2.7,0.2c4.2,0.5,7.5,2.1,8.6,4.2c0.5,1.1,0.5,2.2-0.3,3.4
		C559.9,168.1,553.1,170.9,546.3,170.9z"/>
	<g>
		<line class="st34" x1="543.3" y1="173.2" x2="543.3" y2="176.1"/>
		<line class="st34" x1="535.2" y1="170.4" x2="535.2" y2="173.3"/>
		<line class="st34" x1="554.2" y1="172.2" x2="554.2" y2="175.1"/>
		<line class="st34" x1="561.7" y1="168.6" x2="561.7" y2="171.4"/>
	</g>
	<g>
		<path class="st17" d="M555.4,159.7l-9.3,1.8l4.8,0.8l1.3,3L555.4,159.7z M541.3,167.9l2.7-5.4l0.7,3.4l5.5,0.5L541.3,167.9z"/>
		<path class="st17" d="M550,162.8l1.4,3.1l-5.6-0.6L545,162L550,162.8z"/>
	</g>
</g>
<g>
	<path class="st31" d="M514.7,214.3c-2.9,5.1-12.1,8.4-20.6,7.4c-8.4-1-12.9-5.9-10-10.9s12.1-8.4,20.6-7.4
		C513.2,204.4,517.6,209.3,514.7,214.3z"/>
	<polygon class="st31" points="515.6,207.9 515.6,211.6 483.3,214.1 483.3,210.5 	"/>
	<path class="st32" d="M514.7,210.9c-2.9,5.1-12.1,8.4-20.6,7.4c-8.4-1-12.9-5.9-10-10.9c2.9-5.1,12.1-8.4,20.6-7.4
		C513.2,200.9,517.6,205.8,514.7,210.9z"/>
	<linearGradient id="SVGID_61_" gradientUnits="userSpaceOnUse" x1="485.4818" y1="209.1275" x2="513.4031" y2="209.1275">
		<stop  offset="0" style="stop-color:#EAB063;stop-opacity:0"/>
		<stop  offset="1" style="stop-color:#EAB063"/>
	</linearGradient>
	<path class="st79" d="M497.1,216.2c-0.9,0-1.9-0.1-2.7-0.2c-4.2-0.5-7.5-2.1-8.6-4.2c-0.5-1.1-0.5-2.2,0.3-3.4
		c2.1-3.7,8.9-6.5,15.7-6.5c0.9,0,1.9,0.1,2.7,0.2c4.2,0.5,7.5,2.1,8.6,4.2c0.5,1.1,0.5,2.2-0.3,3.4
		C510.7,213.5,503.9,216.2,497.1,216.2z"/>
	<g>
		<line class="st34" x1="494.1" y1="218.5" x2="494.1" y2="221.4"/>
		<line class="st34" x1="486" y1="215.7" x2="486" y2="218.6"/>
		<line class="st34" x1="505" y1="217.6" x2="505" y2="220.4"/>
		<line class="st34" x1="512.5" y1="213.9" x2="512.5" y2="216.8"/>
	</g>
	<g>
		<path class="st17" d="M506.2,205l-9.3,1.8l4.8,0.8l1.3,3L506.2,205z M492.1,213.2l2.7-5.4l0.7,3.4l5.5,0.5L492.1,213.2z"/>
		<path class="st17" d="M500.8,208.2l1.4,3.1l-5.6-0.6l-0.7-3.4L500.8,208.2z"/>
	</g>
</g>
<g>
	<path class="st31" d="M520.5,208.4c-2.9,5.1-12.1,8.4-20.6,7.4c-8.4-1-12.9-5.9-10-10.9c2.9-5.1,12.1-8.4,20.6-7.4
		C519,198.4,523.4,203.3,520.5,208.4z"/>
	<polygon class="st31" points="521.4,202 521.4,205.6 489.1,208.2 489.1,204.5 	"/>
	<path class="st32" d="M520.5,205c-2.9,5.1-12.1,8.4-20.6,7.4c-8.4-1-12.9-5.9-10-10.9c2.9-5.1,12.1-8.4,20.6-7.4
		C519,195,523.4,199.9,520.5,205z"/>
	<linearGradient id="SVGID_62_" gradientUnits="userSpaceOnUse" x1="491.2733" y1="203.1884" x2="519.1946" y2="203.1884">
		<stop  offset="0" style="stop-color:#EAB063;stop-opacity:0"/>
		<stop  offset="1" style="stop-color:#EAB063"/>
	</linearGradient>
	<path class="st80" d="M502.9,210.3c-0.9,0-1.9-0.1-2.7-0.2c-4.2-0.5-7.5-2.1-8.6-4.2c-0.5-1.1-0.5-2.2,0.3-3.4
		c2.1-3.7,8.9-6.5,15.7-6.5c0.9,0,1.9,0.1,2.7,0.2c4.2,0.5,7.5,2.1,8.6,4.2c0.5,1.1,0.5,2.2-0.3,3.4
		C516.5,207.5,509.7,210.3,502.9,210.3z"/>
	<g>
		<line class="st34" x1="499.9" y1="212.6" x2="499.9" y2="215.5"/>
		<line class="st34" x1="491.8" y1="209.8" x2="491.8" y2="212.7"/>
		<line class="st34" x1="510.8" y1="211.6" x2="510.8" y2="214.5"/>
		<line class="st34" x1="518.3" y1="208" x2="518.3" y2="210.8"/>
	</g>
	<g>
		<path class="st17" d="M512,199.1l-9.3,1.8l4.8,0.8l1.3,3L512,199.1z M497.9,207.3l2.7-5.4l0.7,3.4l5.5,0.5L497.9,207.3z"/>
		<path class="st17" d="M506.6,202.2l1.4,3.1l-5.6-0.6l-0.7-3.4L506.6,202.2z"/>
	</g>
</g>
<g>
	<path class="st31" d="M524.1,187.9c-2.9,5.1-12.1,8.4-20.6,7.4c-8.4-1-12.9-5.9-10-10.9c2.9-5.1,12.1-8.4,20.6-7.4
		C522.6,177.9,527.1,182.8,524.1,187.9z"/>
	<polygon class="st31" points="525,181.5 525,185.2 492.7,187.7 492.7,184.1 	"/>
	<path class="st32" d="M524.1,184.5c-2.9,5.1-12.1,8.4-20.6,7.4c-8.4-1-12.9-5.9-10-10.9c2.9-5.1,12.1-8.4,20.6-7.4
		C522.6,174.5,527.1,179.4,524.1,184.5z"/>
	<linearGradient id="SVGID_63_" gradientUnits="userSpaceOnUse" x1="494.9071" y1="182.7091" x2="522.8284" y2="182.7091">
		<stop  offset="0" style="stop-color:#EAB063;stop-opacity:0"/>
		<stop  offset="1" style="stop-color:#EAB063"/>
	</linearGradient>
	<path class="st81" d="M506.6,189.8c-0.9,0-1.9-0.1-2.7-0.2c-4.2-0.5-7.5-2.1-8.6-4.2c-0.5-1.1-0.5-2.2,0.3-3.4
		c2.1-3.7,8.9-6.5,15.7-6.5c0.9,0,1.9,0.1,2.7,0.2c4.2,0.5,7.5,2.1,8.6,4.2c0.5,1.1,0.5,2.2-0.3,3.4
		C520.1,187.1,513.4,189.8,506.6,189.8z"/>
	<g>
		<line class="st34" x1="503.5" y1="192.1" x2="503.5" y2="195"/>
		<line class="st34" x1="495.4" y1="189.3" x2="495.4" y2="192.2"/>
		<line class="st34" x1="514.4" y1="191.1" x2="514.4" y2="194"/>
		<line class="st34" x1="521.9" y1="187.5" x2="521.9" y2="190.4"/>
	</g>
	<g>
		<path class="st17" d="M515.6,178.6l-9.3,1.8l4.8,0.8l1.3,3L515.6,178.6z M501.5,186.8l2.7-5.4l0.7,3.4l5.5,0.5L501.5,186.8z"/>
		<path class="st17" d="M510.2,181.8l1.4,3.1l-5.6-0.6l-0.7-3.4L510.2,181.8z"/>
	</g>
</g>
<g>
	<path class="st31" d="M587.6,176.8c-2.9,5.1-12.1,8.4-20.6,7.4c-8.4-1-12.9-5.9-10-10.9c2.9-5.1,12.1-8.4,20.6-7.4
		C586,166.9,590.5,171.8,587.6,176.8z"/>
	<polygon class="st31" points="588.5,170.5 588.5,174.1 556.1,176.7 556.1,173 	"/>
	<path class="st32" d="M587.6,173.4c-2.9,5.1-12.1,8.4-20.6,7.4c-8.4-1-12.9-5.9-10-10.9c2.9-5.1,12.1-8.4,20.6-7.4
		C586,163.5,590.5,168.4,587.6,173.4z"/>
	<linearGradient id="SVGID_64_" gradientUnits="userSpaceOnUse" x1="558.3375" y1="171.6585" x2="586.2589" y2="171.6585">
		<stop  offset="0" style="stop-color:#EAB063;stop-opacity:0"/>
		<stop  offset="1" style="stop-color:#EAB063"/>
	</linearGradient>
	<path class="st82" d="M570,178.8c-0.9,0-1.9-0.1-2.7-0.2c-4.2-0.5-7.5-2.1-8.6-4.2c-0.5-1.1-0.5-2.2,0.3-3.4
		c2.1-3.7,8.9-6.5,15.7-6.5c0.9,0,1.9,0.1,2.7,0.2c4.2,0.5,7.5,2.1,8.6,4.2c0.5,1.1,0.5,2.2-0.3,3.4
		C583.5,176,576.8,178.8,570,178.8z"/>
	<g>
		<line class="st34" x1="566.9" y1="181.1" x2="566.9" y2="183.9"/>
		<line class="st34" x1="558.8" y1="178.3" x2="558.8" y2="181.1"/>
		<line class="st34" x1="577.8" y1="180.1" x2="577.8" y2="183"/>
		<line class="st34" x1="585.3" y1="176.4" x2="585.3" y2="179.3"/>
	</g>
	<g>
		<path class="st17" d="M579.1,167.5l-9.3,1.8l4.8,0.8l1.3,3L579.1,167.5z M564.9,175.8l2.7-5.4l0.7,3.4l5.5,0.5L564.9,175.8z"/>
		<path class="st17" d="M573.6,170.7l1.4,3.1l-5.6-0.6l-0.7-3.4L573.6,170.7z"/>
	</g>
</g>
<g>
	<path class="st31" d="M522.5,178.5c-2.9,5.1-12.1,8.4-20.6,7.4c-8.4-1-12.9-5.9-10-10.9c2.9-5.1,12.1-8.4,20.6-7.4
		C521,168.5,525.4,173.4,522.5,178.5z"/>
	<polygon class="st31" points="523.4,172.1 523.4,175.7 491.1,178.3 491.1,174.7 	"/>
	<path class="st32" d="M522.5,175.1c-2.9,5.1-12.1,8.4-20.6,7.4c-8.4-1-12.9-5.9-10-10.9c2.9-5.1,12.1-8.4,20.6-7.4
		C521,165.1,525.4,170,522.5,175.1z"/>
	<linearGradient id="SVGID_65_" gradientUnits="userSpaceOnUse" x1="493.2672" y1="173.3041" x2="521.1885" y2="173.3041">
		<stop  offset="0" style="stop-color:#EAB063;stop-opacity:0"/>
		<stop  offset="1" style="stop-color:#EAB063"/>
	</linearGradient>
	<path class="st83" d="M504.9,180.4c-0.9,0-1.9-0.1-2.7-0.2c-4.2-0.5-7.5-2.1-8.6-4.2c-0.5-1.1-0.5-2.2,0.3-3.4
		c2.1-3.7,8.9-6.5,15.7-6.5c0.9,0,1.9,0.1,2.7,0.2c4.2,0.5,7.5,2.1,8.6,4.2c0.5,1.1,0.5,2.2-0.3,3.4
		C518.5,177.6,511.7,180.4,504.9,180.4z"/>
	<g>
		<line class="st34" x1="501.9" y1="182.7" x2="501.9" y2="185.6"/>
		<line class="st34" x1="493.8" y1="179.9" x2="493.8" y2="182.8"/>
		<line class="st34" x1="512.8" y1="181.7" x2="512.8" y2="184.6"/>
		<line class="st34" x1="520.3" y1="178.1" x2="520.3" y2="180.9"/>
	</g>
	<g>
		<path class="st17" d="M514,169.2l-9.3,1.8l4.8,0.8l1.3,3L514,169.2z M499.9,177.4l2.7-5.4l0.7,3.4l5.5,0.5L499.9,177.4z"/>
		<path class="st17" d="M508.6,172.4l1.4,3.1l-5.6-0.6l-0.7-3.4L508.6,172.4z"/>
	</g>
</g>
<g>
	<g>
		<path class="st31" d="M379.2,738c-9.8,16.9-40.6,28-68.9,24.8c-28.2-3.3-43.2-19.6-33.4-36.6c9.8-16.9,40.6-28,68.9-24.8
			C374,704.6,389,721,379.2,738z"/>
		<polygon class="st31" points="382.2,716.5 382.1,728.8 273.9,737.4 273.9,725.1 		"/>
		<path class="st32" d="M379.2,726.5c-9.8,16.9-40.6,28-68.9,24.8c-28.2-3.3-43.2-19.6-33.4-36.6c9.8-16.9,40.6-28,68.9-24.8
			C374,693.2,389,709.5,379.2,726.5z"/>
		<linearGradient id="SVGID_66_" gradientUnits="userSpaceOnUse" x1="281.315" y1="720.5787" x2="374.7786" y2="720.5787">
			<stop  offset="0" style="stop-color:#EAB063;stop-opacity:0"/>
			<stop  offset="1" style="stop-color:#EAB063"/>
		</linearGradient>
		<path class="st84" d="M320.4,744.4c-3.1,0-6.2-0.2-9.2-0.5c-14.1-1.6-25.1-7.1-28.7-14.1c-1.8-3.6-1.5-7.3,0.8-11.4
			c7.1-12.3,29.7-21.6,52.4-21.6c3.1,0,6.2,0.2,9.2,0.5c14.1,1.6,25.1,7.1,28.7,14.1c1.8,3.6,1.5,7.3-0.8,11.4
			C365.6,735.1,343.1,744.4,320.4,744.4z"/>
		<g>
			<line class="st34" x1="310.1" y1="752.1" x2="310.1" y2="761.7"/>
			<line class="st34" x1="283" y1="742" x2="283" y2="751.6"/>
			<line class="st34" x1="346.6" y1="748.8" x2="346.6" y2="758.4"/>
			<line class="st34" x1="371.7" y1="735.9" x2="371.7" y2="745.4"/>
		</g>
	</g>
	<g>
		<g>
			<polygon class="st17" points="359.2,719.4 353.7,726.1 350.3,725.6 349.1,719.9 349,719.9 345.1,724.7 342.5,724.3 348,717.6 
				351.5,718.1 352.8,723.6 356.6,718.9 			"/>
		</g>
		<g>
			<polygon class="st17" points="345.6,717.2 344.5,718.6 339.1,717.7 338,719 343.2,719.8 342,721.2 336.9,720.3 335.8,721.7 
				341.5,722.6 340.4,724 332.1,722.7 337.6,715.9 			"/>
		</g>
		<g>
			<polygon class="st17" points="336.1,715.7 328.3,718 331.1,722.5 327.4,721.9 325.2,718 322.6,721.2 320,720.8 325.5,714 
				328.1,714.4 325.8,717.2 332.7,715.2 			"/>
		</g>
		<g>
			<path class="st17" d="M321.6,715.6c0,0.5-0.3,1-0.7,1.5c-0.4,0.5-1,1-1.7,1.4c-0.7,0.4-1.4,0.7-2.2,0.9c-0.8,0.2-1.7,0.3-2.6,0.4
				c-0.9,0-1.8,0-2.8-0.2c-0.9-0.1-1.7-0.4-2.4-0.7c-0.6-0.3-1.1-0.6-1.4-1c-0.3-0.4-0.5-0.8-0.4-1.3c0-0.5,0.3-1,0.7-1.5
				c0.4-0.5,1-1,1.7-1.4c0.7-0.4,1.4-0.7,2.2-0.9c0.8-0.2,1.7-0.3,2.6-0.4c0.9,0,1.8,0,2.8,0.2c0.9,0.1,1.7,0.4,2.4,0.7
				c0.6,0.3,1.1,0.6,1.4,1C321.5,714.6,321.6,715.1,321.6,715.6z M317.2,717.5c0.4-0.2,0.7-0.5,1-0.8c0.3-0.3,0.4-0.6,0.4-0.9
				c0-0.3,0-0.6-0.2-0.8c-0.2-0.2-0.4-0.5-0.8-0.6c-0.4-0.2-0.8-0.3-1.4-0.4c-0.6-0.1-1.1-0.1-1.6-0.1c-0.5,0-1,0.1-1.5,0.3
				c-0.5,0.1-0.9,0.3-1.3,0.6c-0.4,0.2-0.7,0.5-1,0.8c-0.3,0.3-0.4,0.6-0.5,0.9c0,0.3,0,0.6,0.2,0.8c0.2,0.2,0.4,0.5,0.8,0.6
				c0.4,0.2,0.8,0.3,1.4,0.4c0.6,0.1,1.1,0.1,1.6,0.1c0.5,0,1-0.1,1.5-0.3C316.4,717.9,316.8,717.7,317.2,717.5"/>
		</g>
		<g>
			<polygon class="st17" points="310.1,711.6 309.1,712.9 305.7,712.4 301.3,717.8 298.7,717.4 303.1,712 299.7,711.4 300.8,710.1 
							"/>
		</g>
	</g>
</g>
<g>
	<g>
		<path class="st31" d="M238.3,833c-9.8,16.9-40.6,28-68.9,24.8c-28.2-3.3-43.2-19.6-33.4-36.6c9.8-16.9,40.6-28,68.9-24.8
			S248.1,816.1,238.3,833z"/>
		<polygon class="st31" points="241.3,811.6 241.3,823.8 133.1,832.4 133.1,820.2 		"/>
		<path class="st32" d="M238.3,821.5c-9.8,16.9-40.6,28-68.9,24.8s-43.2-19.6-33.4-36.6c9.8-16.9,40.6-28,68.9-24.8
			C233.2,788.2,248.1,804.6,238.3,821.5z"/>
		<linearGradient id="SVGID_67_" gradientUnits="userSpaceOnUse" x1="140.4577" y1="815.6302" x2="233.9213" y2="815.6302">
			<stop  offset="0" style="stop-color:#EAB063;stop-opacity:0"/>
			<stop  offset="1" style="stop-color:#EAB063"/>
		</linearGradient>
		<path class="st85" d="M179.5,839.5c-3.1,0-6.2-0.2-9.2-0.5c-14.1-1.6-25.1-7.1-28.7-14.1c-1.8-3.6-1.5-7.3,0.8-11.4
			c7.1-12.3,29.7-21.6,52.4-21.6c3.1,0,6.2,0.2,9.2,0.5c14.1,1.6,25.1,7.1,28.7,14.1c1.8,3.6,1.5,7.3-0.8,11.4
			C224.8,830.2,202.3,839.5,179.5,839.5z"/>
		<g>
			<line class="st34" x1="169.2" y1="847.1" x2="169.2" y2="856.7"/>
			<line class="st34" x1="142.1" y1="837" x2="142.1" y2="846.6"/>
			<line class="st34" x1="205.7" y1="843.9" x2="205.7" y2="853.5"/>
			<line class="st34" x1="230.8" y1="830.9" x2="230.8" y2="840.5"/>
		</g>
	</g>
	<g>
		<g>
			<polygon class="st17" points="218.4,814.4 212.9,821.2 209.5,820.6 208.2,815 208.2,815 204.2,819.8 201.6,819.4 207.1,812.6 
				210.7,813.2 211.9,818.7 215.8,814 			"/>
		</g>
		<g>
			<polygon class="st17" points="204.8,812.3 203.6,813.6 198.2,812.8 197.2,814 202.3,814.8 201.2,816.2 196.1,815.4 194.9,816.8 
				200.7,817.7 199.6,819.1 191.2,817.7 196.7,811 			"/>
		</g>
		<g>
			<polygon class="st17" points="195.2,810.7 187.4,813.1 190.2,817.6 186.6,817 184.3,813 181.7,816.2 179.1,815.8 184.6,809.1 
				187.2,809.5 185,812.3 191.8,810.2 			"/>
		</g>
		<g>
			<path class="st17" d="M180.7,810.6c0,0.5-0.3,1-0.7,1.5c-0.4,0.5-1,1-1.7,1.4c-0.7,0.4-1.4,0.7-2.2,0.9c-0.8,0.2-1.7,0.3-2.6,0.4
				c-0.9,0-1.8,0-2.8-0.2c-0.9-0.1-1.7-0.4-2.4-0.7c-0.6-0.3-1.1-0.6-1.4-1c-0.3-0.4-0.5-0.8-0.4-1.3c0-0.5,0.3-1,0.7-1.5
				c0.4-0.5,1-1,1.7-1.4c0.7-0.4,1.4-0.7,2.2-0.9c0.8-0.2,1.7-0.3,2.6-0.4c0.9,0,1.8,0,2.8,0.2c0.9,0.1,1.7,0.4,2.4,0.7
				c0.6,0.3,1.1,0.6,1.4,1C180.6,809.7,180.8,810.1,180.7,810.6z M176.3,812.5c0.4-0.2,0.7-0.5,1-0.8c0.3-0.3,0.4-0.6,0.4-0.9
				c0-0.3,0-0.6-0.2-0.8c-0.2-0.2-0.4-0.5-0.8-0.6c-0.4-0.2-0.8-0.3-1.4-0.4c-0.6-0.1-1.1-0.1-1.6-0.1c-0.5,0-1,0.1-1.5,0.3
				c-0.5,0.1-0.9,0.3-1.3,0.6c-0.4,0.2-0.7,0.5-1,0.8c-0.3,0.3-0.4,0.6-0.5,0.9c0,0.3,0,0.6,0.2,0.8c0.2,0.2,0.4,0.5,0.8,0.6
				c0.4,0.2,0.8,0.3,1.4,0.4c0.6,0.1,1.1,0.1,1.6,0.1c0.5,0,1-0.1,1.5-0.3C175.5,813,175.9,812.8,176.3,812.5"/>
		</g>
		<g>
			<polygon class="st17" points="169.3,806.6 168.2,808 164.8,807.4 160.4,812.9 157.8,812.4 162.2,807 158.8,806.5 159.9,805.2 			
				"/>
		</g>
	</g>
</g>
</svg>
