<?xml version="1.0" encoding="utf-8"?>
<!-- Generator: Adobe Illustrator 19.1.0, SVG Export Plug-In . SVG Version: 6.00 Build 0)  -->
<svg version="1.1" id="Layer_1" xmlns="http://www.w3.org/2000/svg" xmlns:xlink="http://www.w3.org/1999/xlink" x="0px" y="0px"
	 viewBox="0 0 100 70" style="enable-background:new 0 0 100 70;" xml:space="preserve">
<style type="text/css">
	.st0{fill:#D39B5E;}
	.st1{fill:#C49153;}
	.st2{fill:url(#SVGID_1_);}
	.st3{fill:none;stroke:#C49153;stroke-linecap:round;stroke-miterlimit:10;}
	.st4{fill:#FFFFFF;}
</style>
<g>
	<g>
		<g>
			<polygon class="st0" points="9.9,5.8 16,2.5 57.8,62.8 49.9,67 			"/>
			<g>
				<path class="st0" d="M64.7,48.5c0,15.3-12.4,20.5-27.7,11.7S9.4,31.8,9.4,16.6S21.8-3.9,37.1,4.9S64.7,33.2,64.7,48.5z"/>
				<path class="st1" d="M56.7,52.8c0,15.3-12.4,20.5-27.7,11.7S1.4,36.1,1.4,20.8S13.8,0.3,29.1,9.2S56.7,37.5,56.7,52.8z"/>
				
					<linearGradient id="SVGID_1_" gradientUnits="userSpaceOnUse" x1="-4924.8545" y1="36.8123" x2="-4881.189" y2="36.8123" gradientTransform="matrix(1 0 0 1 4932.0742 0)">
					<stop  offset="0" style="stop-color:#EAB063;stop-opacity:0"/>
					<stop  offset="1" style="stop-color:#EAB063"/>
				</linearGradient>
				<path class="st2" d="M42.9,62.9c-3.2,0-6.9-1.2-10.9-3.5C18.5,51.7,7.2,34,7.2,20.8c0-4.6,1.4-10.2,8-10.2
					c3.2,0,6.9,1.2,10.9,3.5c13.4,7.7,24.7,25.4,24.7,38.6C50.9,57.4,49.5,62.9,42.9,62.9z"/>
			</g>
			<line class="st3" x1="20.3" y1="4.4" x2="26.5" y2="0.9"/>
			<line class="st3" x1="36.4" y1="12.5" x2="42.9" y2="8.8"/>
			<line class="st3" x1="48.1" y1="25.6" x2="54.9" y2="21.7"/>
			<line class="st3" x1="55.9" y1="42.4" x2="63.2" y2="38.4"/>
			<line class="st3" x1="56.4" y1="59.9" x2="63.5" y2="55.9"/>
		</g>
		<g>
			<path class="st4" d="M19.8,30.8l8.5,1.3l8.2,8.4l-8.2-17.7L19.8,30.8z M19.9,34.8l8.5,9.8l8.6,0.1l-8.6,7L19.9,34.8z"/>
			<path class="st4" d="M28.3,33.9l-8.8-1.4l8.8,10l8.6,0.2L28.3,33.9z"/>
		</g>
	</g>
</g>
</svg>
