<?xml version="1.0" encoding="utf-8"?>
<!-- Generator: Adobe Illustrator 19.1.0, SVG Export Plug-In . SVG Version: 6.00 Build 0)  -->
<svg version="1.1" id="Layer_1" xmlns="http://www.w3.org/2000/svg" xmlns:xlink="http://www.w3.org/1999/xlink" x="0px" y="0px"
	 viewBox="0 0 100 150" style="enable-background:new 0 0 100 150;" xml:space="preserve">
<style type="text/css">
	.st0{opacity:0.6;}
	.st1{fill:url(#SVGID_1_);}
	.st2{fill:#FFFFFF;}
</style>
<g class="st0">
	<linearGradient id="SVGID_1_" gradientUnits="userSpaceOnUse" x1="26.2248" y1="77.6838" x2="75.3938" y2="28.5149">
		<stop  offset="0" style="stop-color:#FFFFFF;stop-opacity:0"/>
		<stop  offset="1" style="stop-color:#FFFFFF"/>
	</linearGradient>
	<path class="st1" d="M67.4,110.3c-1.1,0-2.1-0.1-3.2-0.2c-6.9-0.8-11.4-4.1-11.2-8.1l0-4.6V56.4L14.8,34.3
		c-3.9-2.2-6.7-5.9-7.8-10.2c-1.2-4.3-0.6-8.9,1.7-12.8c3-5.2,8.6-8.4,14.6-8.4c2.9,0,5.8,0.8,8.4,2.3l46.6,27
		c5.2,3,8.4,8.6,8.4,14.6v49.8l0,2.4c0.1,1.2-0.2,2.4-0.9,3.5C83.1,107,75.4,110.3,67.4,110.3z"/>
	<g>
		<path class="st2" d="M23.3,3.4L23.3,3.4c2.8,0,5.7,0.8,8.1,2.2l46.6,27c5,2.9,8.2,8.3,8.2,14.1l0,49.8l0,2.4l0,0l0,0
			c0.1,1-0.2,2.1-0.8,3.2c-2.5,4.4-10.1,7.6-17.9,7.6c-1,0-2.1-0.1-3.1-0.2c-6.5-0.8-10.9-3.9-10.8-7.6l0-4.6V56.7v-0.6L53,55.8
			l-37.9-22c-3.8-2.2-6.5-5.7-7.6-9.9c-1.1-4.2-0.5-8.6,1.6-12.4C12,6.6,17.4,3.4,23.3,3.4 M23.3,2.4c-6,0-11.8,3.1-15,8.7
			C3.5,19.4,6.3,30,14.6,34.7l37.9,22v40.7l0,4.6c-0.2,4.2,4.3,7.8,11.6,8.6c1.1,0.1,2.1,0.2,3.2,0.2c8,0,16-3.3,18.8-8.1
			c0.7-1.3,1-2.6,0.9-3.8l0-2.4V46.7c0-6.2-3.3-11.9-8.7-15l-46.6-27C29.2,3.2,26.2,2.4,23.3,2.4L23.3,2.4z"/>
	</g>
</g>
</svg>
