<?xml version="1.0" encoding="utf-8"?>
<!-- Generator: Adobe Illustrator 19.1.0, SVG Export Plug-In . SVG Version: 6.00 Build 0)  -->
<svg version="1.1" id="Layer_1" xmlns="http://www.w3.org/2000/svg" xmlns:xlink="http://www.w3.org/1999/xlink" x="0px" y="0px"
	 viewBox="0 0 80 40" style="enable-background:new 0 0 80 40;" xml:space="preserve">
<style type="text/css">
	.st0{fill:url(#SVGID_1_);}
	.st1{fill:url(#SVGID_2_);}
	.st2{fill:url(#SVGID_3_);}
	.st3{fill:url(#SVGID_4_);}
	.st4{fill:url(#SVGID_5_);}
	.st5{fill:url(#SVGID_6_);}
	.st6{fill:url(#SVGID_7_);}
	.st7{fill:url(#SVGID_8_);}
	.st8{fill:url(#SVGID_9_);}
	.st9{fill:url(#SVGID_10_);}
	.st10{fill:url(#SVGID_11_);}
	.st11{fill:url(#SVGID_12_);}
	.st12{fill:url(#SVGID_13_);}
	.st13{fill:url(#SVGID_14_);}
	.st14{fill:url(#SVGID_15_);}
	.st15{fill:url(#SVGID_16_);}
</style>
<g>
	<g>
		<linearGradient id="SVGID_1_" gradientUnits="userSpaceOnUse" x1="6.0901" y1="25.8978" x2="73.9099" y2="25.8978">
			<stop  offset="0" style="stop-color:#8BCDEA"/>
			<stop  offset="6.484509e-002" style="stop-color:#96D2EC;stop-opacity:0.9676"/>
			<stop  offset="0.3631" style="stop-color:#C3E5F4;stop-opacity:0.8184"/>
			<stop  offset="0.6291" style="stop-color:#E4F3FA;stop-opacity:0.6855"/>
			<stop  offset="0.8504" style="stop-color:#F8FCFE;stop-opacity:0.5748"/>
			<stop  offset="1" style="stop-color:#FFFFFF;stop-opacity:0.5"/>
		</linearGradient>
		<path class="st0" d="M71.9,24.1c0,0,0,0.1-0.1,0.2c-0.1,0.1-0.2,0.4-0.4,0.6c-0.3,0.5-0.8,1.1-1.3,1.7c-1,1.2-2.2,2.3-2.2,2.3l0,0
			c-0.4,0.4-1,0.3-1.4-0.1c-0.4-0.4-0.3-1,0.1-1.4c0,0,1.1-1,2-2.1c0.5-0.6,0.9-1.1,1.2-1.6c0.1-0.2,0.3-0.4,0.3-0.5
			c0.1-0.1,0.1-0.2,0.1-0.2c0.3-0.5,0.9-0.6,1.4-0.4C72.1,23,72.2,23.6,71.9,24.1L71.9,24.1z"/>
		<linearGradient id="SVGID_2_" gradientUnits="userSpaceOnUse" x1="6.0901" y1="33.5133" x2="73.9099" y2="33.5133">
			<stop  offset="0" style="stop-color:#8BCDEA"/>
			<stop  offset="6.484509e-002" style="stop-color:#96D2EC;stop-opacity:0.9676"/>
			<stop  offset="0.3631" style="stop-color:#C3E5F4;stop-opacity:0.8184"/>
			<stop  offset="0.6291" style="stop-color:#E4F3FA;stop-opacity:0.6855"/>
			<stop  offset="0.8504" style="stop-color:#F8FCFE;stop-opacity:0.5748"/>
			<stop  offset="1" style="stop-color:#FFFFFF;stop-opacity:0.5"/>
		</linearGradient>
		<path class="st1" d="M61.2,33.7L58.5,35c-0.5,0.2-1,0-1.2-0.4c-0.2-0.5,0-1,0.4-1.2l2.7-1.4c0.5-0.2,1-0.1,1.3,0.4
			C61.9,32.9,61.7,33.5,61.2,33.7L61.2,33.7z"/>
		<linearGradient id="SVGID_3_" gradientUnits="userSpaceOnUse" x1="6.0901" y1="36.5488" x2="73.9099" y2="36.5488">
			<stop  offset="0" style="stop-color:#8BCDEA"/>
			<stop  offset="6.484509e-002" style="stop-color:#96D2EC;stop-opacity:0.9676"/>
			<stop  offset="0.3631" style="stop-color:#C3E5F4;stop-opacity:0.8184"/>
			<stop  offset="0.6291" style="stop-color:#E4F3FA;stop-opacity:0.6855"/>
			<stop  offset="0.8504" style="stop-color:#F8FCFE;stop-opacity:0.5748"/>
			<stop  offset="1" style="stop-color:#FFFFFF;stop-opacity:0.5"/>
		</linearGradient>
		<path class="st2" d="M54.7,36.6c0,0-0.4,0.1-0.9,0.3c-0.5,0.2-1.3,0.4-2,0.6c-1.5,0.4-2.9,0.8-2.9,0.8l0,0c-0.5,0.1-1-0.2-1.1-0.7
			c-0.1-0.5,0.2-1,0.7-1.1c0,0,1.4-0.3,2.8-0.8c0.7-0.2,1.4-0.4,1.9-0.6c0.5-0.2,0.9-0.3,0.9-0.3l0,0c0.5-0.2,1,0.1,1.2,0.6
			C55.5,35.9,55.2,36.4,54.7,36.6L54.7,36.6z"/>
		<linearGradient id="SVGID_4_" gradientUnits="userSpaceOnUse" x1="6.0901" y1="38.8323" x2="73.9099" y2="38.8323">
			<stop  offset="0" style="stop-color:#8BCDEA"/>
			<stop  offset="6.484509e-002" style="stop-color:#96D2EC;stop-opacity:0.9676"/>
			<stop  offset="0.3631" style="stop-color:#C3E5F4;stop-opacity:0.8184"/>
			<stop  offset="0.6291" style="stop-color:#E4F3FA;stop-opacity:0.6855"/>
			<stop  offset="0.8504" style="stop-color:#F8FCFE;stop-opacity:0.5748"/>
			<stop  offset="1" style="stop-color:#FFFFFF;stop-opacity:0.5"/>
		</linearGradient>
		<path class="st3" d="M40.9,39.6l-3,0.2c-0.5,0-0.9-0.3-0.9-0.8c0-0.5,0.3-0.9,0.8-0.9l3-0.2c0.5,0,0.9,0.3,0.9,0.8
			S41.3,39.6,40.9,39.6L40.9,39.6z"/>
		<linearGradient id="SVGID_5_" gradientUnits="userSpaceOnUse" x1="6.0901" y1="38.735" x2="73.9099" y2="38.735">
			<stop  offset="0" style="stop-color:#8BCDEA"/>
			<stop  offset="6.484509e-002" style="stop-color:#96D2EC;stop-opacity:0.9676"/>
			<stop  offset="0.3631" style="stop-color:#C3E5F4;stop-opacity:0.8184"/>
			<stop  offset="0.6291" style="stop-color:#E4F3FA;stop-opacity:0.6855"/>
			<stop  offset="0.8504" style="stop-color:#F8FCFE;stop-opacity:0.5748"/>
			<stop  offset="1" style="stop-color:#FFFFFF;stop-opacity:0.5"/>
		</linearGradient>
		<path class="st4" d="M33.7,39.8c0,0-1.5-0.1-3-0.2c-0.4,0-0.7-0.1-1.1-0.1c-0.2,0-0.4,0-0.6,0c-0.2,0-0.3,0-0.5-0.1
			c-0.6-0.1-0.9-0.1-0.9-0.1c-0.4-0.1-0.8-0.5-0.7-0.9c0.1-0.4,0.5-0.7,0.9-0.7c0,0,0.4,0,0.9,0.1c0.1,0,0.3,0,0.5,0.1
			c0.1,0,0.3,0,0.5,0c0.4,0,0.7,0,1.1,0.1c1.5,0.1,3,0.2,3,0.2c0.5,0,0.8,0.4,0.8,0.9C34.6,39.5,34.2,39.8,33.7,39.8L33.7,39.8z"/>
		<linearGradient id="SVGID_6_" gradientUnits="userSpaceOnUse" x1="6.0901" y1="36.0447" x2="73.9099" y2="36.0447">
			<stop  offset="0" style="stop-color:#8BCDEA"/>
			<stop  offset="6.484509e-002" style="stop-color:#96D2EC;stop-opacity:0.9676"/>
			<stop  offset="0.3631" style="stop-color:#C3E5F4;stop-opacity:0.8184"/>
			<stop  offset="0.6291" style="stop-color:#E4F3FA;stop-opacity:0.6855"/>
			<stop  offset="0.8504" style="stop-color:#F8FCFE;stop-opacity:0.5748"/>
			<stop  offset="1" style="stop-color:#FFFFFF;stop-opacity:0.5"/>
		</linearGradient>
		<path class="st5" d="M19.8,37.3L17,36.2c-0.4-0.2-0.6-0.6-0.4-1c0.2-0.4,0.6-0.6,1-0.4l2.8,1.1c0.4,0.2,0.6,0.6,0.4,1
			C20.6,37.3,20.2,37.5,19.8,37.3L19.8,37.3z"/>
		<linearGradient id="SVGID_7_" gradientUnits="userSpaceOnUse" x1="6.0901" y1="31.5001" x2="73.9099" y2="31.5001">
			<stop  offset="0" style="stop-color:#8BCDEA"/>
			<stop  offset="6.484509e-002" style="stop-color:#96D2EC;stop-opacity:0.9676"/>
			<stop  offset="0.3631" style="stop-color:#C3E5F4;stop-opacity:0.8184"/>
			<stop  offset="0.6291" style="stop-color:#E4F3FA;stop-opacity:0.6855"/>
			<stop  offset="0.8504" style="stop-color:#F8FCFE;stop-opacity:0.5748"/>
			<stop  offset="1" style="stop-color:#FFFFFF;stop-opacity:0.5"/>
		</linearGradient>
		<path class="st6" d="M13.4,34.1c0,0-0.3-0.2-0.8-0.6c-0.5-0.3-1.1-0.8-1.6-1.4c-1.2-1.1-2.1-2.3-2.1-2.3l0,0
			c-0.2-0.3-0.2-0.8,0.2-1c0.3-0.2,0.8-0.2,1,0.2c0,0,0.8,1.2,1.9,2.1c0.5,0.5,1.1,0.9,1.5,1.3c0.4,0.3,0.7,0.5,0.7,0.5
			c0.3,0.2,0.4,0.7,0.2,1C14.2,34.3,13.7,34.4,13.4,34.1L13.4,34.1L13.4,34.1z"/>
		<linearGradient id="SVGID_8_" gradientUnits="userSpaceOnUse" x1="6.0901" y1="20.4973" x2="73.9099" y2="20.4973">
			<stop  offset="0" style="stop-color:#8BCDEA"/>
			<stop  offset="6.484509e-002" style="stop-color:#96D2EC;stop-opacity:0.9676"/>
			<stop  offset="0.3631" style="stop-color:#C3E5F4;stop-opacity:0.8184"/>
			<stop  offset="0.6291" style="stop-color:#E4F3FA;stop-opacity:0.6855"/>
			<stop  offset="0.8504" style="stop-color:#F8FCFE;stop-opacity:0.5748"/>
			<stop  offset="1" style="stop-color:#FFFFFF;stop-opacity:0.5"/>
		</linearGradient>
		<path class="st7" d="M6.4,21.9c0,0,0-0.2,0-0.5c0-0.3,0.1-0.7,0.2-1.1c0.2-0.8,0.4-1.5,0.4-1.5l0,0c0.1-0.4,0.5-0.5,0.9-0.4
			c0.4,0.1,0.5,0.5,0.4,0.9c0,0-0.2,0.7-0.4,1.4c-0.1,0.3-0.1,0.7-0.1,1c0,0.3,0,0.4,0,0.4l0,0c0,0.4-0.4,0.7-0.8,0.6
			C6.7,22.6,6.4,22.3,6.4,21.9L6.4,21.9z"/>
		<linearGradient id="SVGID_9_" gradientUnits="userSpaceOnUse" x1="6.0901" y1="13.2541" x2="73.9099" y2="13.2541">
			<stop  offset="0" style="stop-color:#8BCDEA"/>
			<stop  offset="6.484509e-002" style="stop-color:#96D2EC;stop-opacity:0.9676"/>
			<stop  offset="0.3631" style="stop-color:#C3E5F4;stop-opacity:0.8184"/>
			<stop  offset="0.6291" style="stop-color:#E4F3FA;stop-opacity:0.6855"/>
			<stop  offset="0.8504" style="stop-color:#F8FCFE;stop-opacity:0.5748"/>
			<stop  offset="1" style="stop-color:#FFFFFF;stop-opacity:0.5"/>
		</linearGradient>
		<path class="st8" d="M9,15.1c0,0,0.2-0.3,0.6-0.8c0.3-0.5,0.8-1.1,1.4-1.6c1-1.1,2.2-2.1,2.2-2.1l0,0c0.3-0.2,0.7-0.2,0.9,0.1
			c0.2,0.3,0.2,0.7-0.1,0.9c0,0-1.1,1-2.1,2c-0.5,0.5-0.9,1.1-1.3,1.5c-0.3,0.4-0.5,0.7-0.5,0.7c-0.2,0.3-0.6,0.4-0.9,0.2
			S8.7,15.4,9,15.1L9,15.1L9,15.1z"/>
		<linearGradient id="SVGID_10_" gradientUnits="userSpaceOnUse" x1="6.0901" y1="5.9928" x2="73.9099" y2="5.9928">
			<stop  offset="0" style="stop-color:#8BCDEA"/>
			<stop  offset="6.484509e-002" style="stop-color:#96D2EC;stop-opacity:0.9676"/>
			<stop  offset="0.3631" style="stop-color:#C3E5F4;stop-opacity:0.8184"/>
			<stop  offset="0.6291" style="stop-color:#E4F3FA;stop-opacity:0.6855"/>
			<stop  offset="0.8504" style="stop-color:#F8FCFE;stop-opacity:0.5748"/>
			<stop  offset="1" style="stop-color:#FFFFFF;stop-opacity:0.5"/>
		</linearGradient>
		<path class="st9" d="M19.9,6.1l2.7-1.3c0.3-0.1,0.7,0,0.8,0.3c0.1,0.3,0,0.6-0.3,0.8l-2.7,1.3c-0.3,0.1-0.7,0-0.8-0.3
			C19.5,6.6,19.6,6.2,19.9,6.1L19.9,6.1z"/>
		<linearGradient id="SVGID_11_" gradientUnits="userSpaceOnUse" x1="6.0901" y1="3.1384" x2="73.9099" y2="3.1384">
			<stop  offset="0" style="stop-color:#8BCDEA"/>
			<stop  offset="6.484509e-002" style="stop-color:#96D2EC;stop-opacity:0.9676"/>
			<stop  offset="0.3631" style="stop-color:#C3E5F4;stop-opacity:0.8184"/>
			<stop  offset="0.6291" style="stop-color:#E4F3FA;stop-opacity:0.6855"/>
			<stop  offset="0.8504" style="stop-color:#F8FCFE;stop-opacity:0.5748"/>
			<stop  offset="1" style="stop-color:#FFFFFF;stop-opacity:0.5"/>
		</linearGradient>
		<path class="st10" d="M26.5,3.4c0,0,1.4-0.5,2.9-0.9c1.5-0.4,2.9-0.7,2.9-0.7c0.3-0.1,0.6,0.1,0.7,0.4c0.1,0.3-0.1,0.6-0.4,0.7
			c0,0-1.5,0.3-2.9,0.7c-1.4,0.4-2.8,0.9-2.8,0.9c-0.3,0.1-0.6-0.1-0.7-0.4C26,3.8,26.1,3.5,26.5,3.4L26.5,3.4L26.5,3.4z"/>
		<linearGradient id="SVGID_12_" gradientUnits="userSpaceOnUse" x1="6.0901" y1="1.098" x2="73.9099" y2="1.098">
			<stop  offset="0" style="stop-color:#8BCDEA"/>
			<stop  offset="6.484509e-002" style="stop-color:#96D2EC;stop-opacity:0.9676"/>
			<stop  offset="0.3631" style="stop-color:#C3E5F4;stop-opacity:0.8184"/>
			<stop  offset="0.6291" style="stop-color:#E4F3FA;stop-opacity:0.6855"/>
			<stop  offset="0.8504" style="stop-color:#F8FCFE;stop-opacity:0.5748"/>
			<stop  offset="1" style="stop-color:#FFFFFF;stop-opacity:0.5"/>
		</linearGradient>
		<path class="st11" d="M40.3,0.6l3-0.1c0.3,0,0.5,0.2,0.5,0.5c0,0.3-0.2,0.5-0.5,0.5l-3,0.2c-0.3,0-0.5-0.2-0.6-0.5
			C39.8,0.9,40,0.7,40.3,0.6L40.3,0.6z"/>
		<linearGradient id="SVGID_13_" gradientUnits="userSpaceOnUse" x1="6.0901" y1="1.3708" x2="73.9099" y2="1.3708">
			<stop  offset="0" style="stop-color:#8BCDEA"/>
			<stop  offset="6.484509e-002" style="stop-color:#96D2EC;stop-opacity:0.9676"/>
			<stop  offset="0.3631" style="stop-color:#C3E5F4;stop-opacity:0.8184"/>
			<stop  offset="0.6291" style="stop-color:#E4F3FA;stop-opacity:0.6855"/>
			<stop  offset="0.8504" style="stop-color:#F8FCFE;stop-opacity:0.5748"/>
			<stop  offset="1" style="stop-color:#FFFFFF;stop-opacity:0.5"/>
		</linearGradient>
		<path class="st12" d="M47.4,0.6c0,0,1.5,0.1,3,0.3c0.2,0,0.3,0,0.6,0.1c0.2,0,0.4,0.1,0.5,0.1c0.3,0.1,0.7,0.1,1,0.1
			c0.6,0.1,0.9,0.1,0.9,0.1c0.3,0,0.4,0.3,0.4,0.5c0,0.3-0.3,0.4-0.5,0.4c0,0-0.4-0.1-0.9-0.1c-0.3,0-0.6-0.1-1-0.1
			c-0.2,0-0.4,0-0.5-0.1c-0.1,0-0.4,0-0.5,0c-1.5-0.1-3-0.2-3-0.2c-0.3,0-0.5-0.3-0.5-0.5C46.8,0.8,47.1,0.5,47.4,0.6L47.4,0.6z"/>
		<linearGradient id="SVGID_14_" gradientUnits="userSpaceOnUse" x1="6.0901" y1="4.3938" x2="73.9099" y2="4.3938">
			<stop  offset="0" style="stop-color:#8BCDEA"/>
			<stop  offset="6.484509e-002" style="stop-color:#96D2EC;stop-opacity:0.9676"/>
			<stop  offset="0.3631" style="stop-color:#C3E5F4;stop-opacity:0.8184"/>
			<stop  offset="0.6291" style="stop-color:#E4F3FA;stop-opacity:0.6855"/>
			<stop  offset="0.8504" style="stop-color:#F8FCFE;stop-opacity:0.5748"/>
			<stop  offset="1" style="stop-color:#FFFFFF;stop-opacity:0.5"/>
		</linearGradient>
		<path class="st13" d="M61.2,3.4l2.7,1.2c0.2,0.1,0.3,0.4,0.2,0.6c-0.1,0.2-0.3,0.3-0.6,0.2l-2.7-1.2c-0.2-0.1-0.3-0.4-0.2-0.6
			C60.7,3.4,61,3.3,61.2,3.4L61.2,3.4z"/>
		<linearGradient id="SVGID_15_" gradientUnits="userSpaceOnUse" x1="6.0901" y1="9.286" x2="73.9099" y2="9.286">
			<stop  offset="0" style="stop-color:#8BCDEA"/>
			<stop  offset="6.484509e-002" style="stop-color:#96D2EC;stop-opacity:0.9676"/>
			<stop  offset="0.3631" style="stop-color:#C3E5F4;stop-opacity:0.8184"/>
			<stop  offset="0.6291" style="stop-color:#E4F3FA;stop-opacity:0.6855"/>
			<stop  offset="0.8504" style="stop-color:#F8FCFE;stop-opacity:0.5748"/>
			<stop  offset="1" style="stop-color:#FFFFFF;stop-opacity:0.5"/>
		</linearGradient>
		<path class="st14" d="M67.4,6.8c0,0,0.3,0.2,0.7,0.6c0.4,0.4,1,0.9,1.5,1.4c1.1,1.1,1.9,2.4,1.9,2.4c0.1,0.2,0.1,0.4-0.1,0.5
			c-0.2,0.1-0.4,0.1-0.5-0.1c0,0-0.8-1.2-1.8-2.3c-0.5-0.5-1.1-1-1.5-1.4c-0.4-0.3-0.7-0.6-0.7-0.6c-0.2-0.1-0.2-0.4-0.1-0.6
			S67.2,6.7,67.4,6.8L67.4,6.8L67.4,6.8z"/>
		<linearGradient id="SVGID_16_" gradientUnits="userSpaceOnUse" x1="6.0901" y1="20.5765" x2="73.9099" y2="20.5765">
			<stop  offset="0" style="stop-color:#8BCDEA"/>
			<stop  offset="6.484509e-002" style="stop-color:#96D2EC;stop-opacity:0.9676"/>
			<stop  offset="0.3631" style="stop-color:#C3E5F4;stop-opacity:0.8184"/>
			<stop  offset="0.6291" style="stop-color:#E4F3FA;stop-opacity:0.6855"/>
			<stop  offset="0.8504" style="stop-color:#F8FCFE;stop-opacity:0.5748"/>
			<stop  offset="1" style="stop-color:#FFFFFF;stop-opacity:0.5"/>
		</linearGradient>
		<path class="st15" d="M73.1,19.2c0,0,0,0.2-0.1,0.5c-0.1,0.3-0.2,0.7-0.3,1c-0.2,0.7-0.5,1.4-0.5,1.4l0,0
			c-0.1,0.2-0.3,0.3-0.5,0.2c-0.2-0.1-0.3-0.3-0.2-0.5c0,0,0.3-0.7,0.5-1.4c0.1-0.3,0.2-0.7,0.2-1c0.1-0.3,0.1-0.4,0.1-0.4l0,0
			c0-0.2,0.2-0.3,0.4-0.3C73,18.8,73.1,19,73.1,19.2L73.1,19.2z"/>
	</g>
</g>
</svg>
