<?xml version="1.0" encoding="utf-8"?>
<!-- Generator: Adobe Illustrator 20.1.0, SVG Export Plug-In . SVG Version: 6.00 Build 0)  -->
<svg version="1.1" id="Layer_1" xmlns="http://www.w3.org/2000/svg" xmlns:xlink="http://www.w3.org/1999/xlink" x="0px" y="0px"
	 viewBox="0 0 250 259" style="enable-background:new 0 0 250 259;" xml:space="preserve">
<style type="text/css">
	.st0{fill:#85D0EC;}
	.st1{fill:none;stroke:#F05352;stroke-width:1.3;stroke-miterlimit:10;}
	.st2{fill:none;stroke:#F05352;stroke-width:5;stroke-miterlimit:10;}
</style>
<circle class="st0" cx="126.7" cy="131" r="32.3"/>
<circle class="st1" cx="126.2" cy="130.6" r="52.3"/>
<polyline class="st1" points="90.8,92.1 50.9,69.3 126.2,25.5 200.7,68.8 161.7,92.1 "/>
<line class="st1" x1="126.2" y1="78.3" x2="126.2" y2="25.5"/>
<line class="st1" x1="142.2" y1="80.7" x2="142.2" y2="53.3"/>
<line class="st1" x1="109.4" y1="80.7" x2="109.4" y2="53.3"/>
<polyline class="st1" points="67.9,78.3 125.8,44 184.8,78.3 "/>
<polyline class="st1" points="177.4,119.7 201.4,105.8 217.7,96.5 217.7,182.9 142.2,227 142.2,180.4 "/>
<polyline class="st1" points="201.4,105.8 201.4,174.4 142.2,208.5 "/>
<line class="st1" x1="217.7" y1="182.9" x2="170.9" y2="157.7"/>
<line class="st1" x1="201.4" y1="155.1" x2="177.3" y2="142"/>
<line class="st1" x1="185.1" y1="183.8" x2="161.4" y2="169.3"/>
<polyline class="st1" points="74.9,120.4 34.7,96.5 34.7,183.8 109.8,227 109.8,180.3 "/>
<polyline class="st1" points="50.9,106.8 50.9,174 109.4,208.5 "/>
<line class="st1" x1="34.7" y1="183.8" x2="80.6" y2="156.9"/>
<line class="st1" x1="50.9" y1="155.8" x2="75.2" y2="142"/>
<line class="st1" x1="67.9" y1="183.8" x2="91" y2="169.3"/>
<polygon class="st2" points="126.4,6 233.3,68.7 233.3,193.3 125.8,256 17.7,193.7 17.7,68.7 19.2,67.8 "/>
<polyline class="st2" points="17.7,68.7 126.2,130.6 233.3,68.7 "/>
<line class="st2" x1="125.8" y1="256" x2="126.2" y2="130.6"/>
</svg>
